<svg xmlns="http://www.w3.org/2000/svg" xmlns:xlink="http://www.w3.org/1999/xlink" viewBox="0 0 750 500" xmlns:v="https://vecta.io/nano"><style><![CDATA[.B{fill:#263238}.C{fill:#fff}.D{fill:#ebebeb}.E{opacity:.1}.F{fill:#37474f}.G{fill:#455a64}.H{fill:#05458b}.I{fill:#f7a9a0}.J{fill:#c95f50}.K{fill:#ad6359}.L{fill:#1275b3}.M{fill:#dbdbdb}.N{fill:#a6a6a6}.O{fill:#eb9481}.P{fill:#ffc727}.Q{fill:#ff9bbc}.R{fill:#0a589a}]]></style><g class="D"><path d="M683.8 295.1l6.2-10-3-1.9c-.9-.6-1.4-1.6-1.3-2.6 0-.6.1-1.2.1-1.8 0-1.1.5-2 1.5-2.5l3.2-1.7-5.5-10.3-3.2 1.7c-.9.5-2 .4-2.9-.2l-1.5-.9c-.9-.5-1.5-1.5-1.5-2.5l.1-3.6-11.7-.4-.3 3.6c0 1.1-.7 2-1.6 2.4-.3.1-.5.3-.8.4s-.5.3-.7.4c-.9.5-2 .6-2.9 0l-3.1-1.9-6.2 10 3.1 1.9c.9.6 1.4 1.6 1.3 2.6-.1.6-.1 1.2-.1 1.7 0 1.1-.5 2-1.5 2.5l-3.2 1.7 5.5 10.3 3.2-1.7c.9-.5 2-.4 2.9.2l1.5.9c.9.5 1.5 1.5 1.5 2.5l-.1 3.6 11.7.4.1-3.6c0-1.1.7-2 1.6-2.4.3-.1.5-.3.8-.4s.5-.3.7-.4c.9-.5 2-.6 2.9 0l3.2 2zm-9.9-7.4c-4.7 2.5-10.5.8-13-3.9s-.8-10.5 3.9-13 10.5-.7 13 3.9c2.5 4.7.7 10.5-3.9 13zM95.1 207.5l6.2-10-3-1.9c-.9-.6-1.4-1.6-1.3-2.6 0-.6.1-1.2.1-1.8 0-1.1.5-2 1.5-2.5l3.2-1.7-5.5-10.3-3.2 1.7c-.9.5-2 .4-2.9-.2l-1.5-.9c-.9-.5-1.5-1.5-1.5-2.5l.1-3.6-11.7-.4-.1 3.6c0 1.1-.7 2-1.6 2.4-.3.1-.5.3-.8.4s-.5.3-.7.4c-.9.5-2 .6-2.9 0l-3.1-1.9-6.2 10 3.1 1.9c.9.6 1.4 1.6 1.3 2.6-.1.6-.1 1.2-.1 1.7 0 1.1-.5 2-1.5 2.5l-3.2 1.7 5.5 10.3 3.2-1.7c.9-.5 2-.4 2.9.2l1.5.9c.9.5 1.5 1.5 1.5 2.5l-.1 3.6 11.7.4.1-3.6c0-1.1.7-2 1.6-2.4.3-.1.5-.3.8-.4s.5-.3.7-.4c.9-.5 2-.6 2.9 0l3 2zm-9.9-7.4c-4.7 2.5-10.5.8-13-3.9s-.8-10.5 3.9-13 10.5-.7 13 3.9c2.5 4.7.8 10.5-3.9 13z"/><path d="M659.3 225.5l-4.1-7.1-2.2 1.3c-.6.4-1.4.3-2-.1-.3-.2-.7-.4-1.1-.6-.7-.3-1.1-1-1.1-1.7v-2.5h-8.2v2.5c0 .7-.4 1.4-1.1 1.7l-1.1.6c-.6.4-1.4.4-2 .1l-2.2-1.3-4.1 7.1 2.2 1.3c.6.4 1 1.1 1 1.8v.6.6c0 .7-.3 1.4-.9 1.8l-2.2 1.3 4.1 7.1 2.2-1.3c.6-.4 1.4-.3 2 .1.3.2.7.4 1.1.6.7.3 1.1 1 1.1 1.7v2.5h8.2v-2.5c0-.7.4-1.4 1.1-1.7l1.1-.6c.6-.4 1.4-.4 2-.1l2.2 1.3 4.1-7.1-2.2-1.3c-.6-.4-1-1.1-1-1.8v-.6-.6c0-.7.3-1.4 1-1.8l2.1-1.3zm-7.9 3.7a6.7 6.7 0 1 1-6.7-6.7c3.7 0 6.7 2.9 6.7 6.7zm11.7-85.7h-1.5v-1h.5v-.5h1z"/><use xlink:href="#B"/><path d="M591.6 143.5h-1.5V142h1v.5h.5z"/><use xlink:href="#C"/><path d="M591.1 72h-1v-1.5h1.5v1h-.5z"/><use xlink:href="#B" y="-72"/><path d="M663.1 72h-1v-.5h-.5v-1h1.5z"/><use xlink:href="#C" x="72"/></g><path d="M586.1 138.5h9v9h-9z" class="C"/><use xlink:href="#D" class="D"/><path d="M586.2 102.5h9v9h-9z" class="C"/><use xlink:href="#D" y="-36" class="D"/><path d="M586.2 66.6h9v9h-9z" class="C"/><path d="M595.6 76h-10V66h10v10zm-9-1h8v-8h-8v8z" class="D"/><path d="M658.1 138.5h9v9h-9z" class="C"/><path d="M667.5 148h-10v-10h10v10zm-8.9-1h8v-8h-8v8z" class="D"/><path d="M658.1 102.5h9v9h-9z" class="C"/><path d="M667.5 112h-10v-10h10v10zm-8.9-1h8v-8h-8v8z" class="D"/><path d="M658.1 66.6h9v9h-9z" class="C"/><path d="M667.5 76h-10V66h10v10zm-8.9-1h8v-8h-8v8z" class="D"/><path d="M622.1 66.6h9v9h-9z" class="C"/><path d="M631.6 76h-10V66h10v10zm-9-1h8v-8h-8v8z" class="D"/><path d="M622.1 138.5h9v9h-9z" class="C"/><g class="D"><use xlink:href="#D" x="36"/><path d="M215.3 306.9h-1.5v-1h.5v-.5h1z"/><use xlink:href="#B" x="-447.8" y="163.4"/><path d="M143.8 306.9h-1.5v-1.5h1v.5h.5z"/><use xlink:href="#C" x="-447.8" y="163.4"/><path d="M143.3 235.4h-1v-1.5h1.5v1h-.5z"/><use xlink:href="#B" x="-447.8" y="91.4"/><path d="M215.3 235.4h-1v-.5h-.5v-1h1.5z"/><use xlink:href="#C" x="-375.8" y="163.4"/></g><path d="M138.3 301.9h9v9h-9z" class="C"/><use xlink:href="#D" x="-447.8" y="163.4" class="D"/><path d="M138.4 265.9h9v9h-9z" class="C"/><use xlink:href="#D" x="-447.8" y="127.4" class="D"/><path d="M138.4 229.9h9v9h-9z" class="C"/><use xlink:href="#D" x="-447.8" y="91.4" class="D"/><path d="M210.3 301.9h9v9h-9z" class="C"/><path d="M219.7 311.4h-10v-10h10v10zm-8.9-1h8v-8h-8v8z" class="D"/><path d="M210.3 265.9h9v9h-9z" class="C"/><path d="M219.7 275.4h-10v-10h10v10zm-8.9-1h8v-8h-8v8z" class="D"/><path d="M210.3 229.9h9v9h-9z" class="C"/><path d="M219.7 239.4h-10v-10h10v10zm-8.9-1h8v-8h-8v8z" class="D"/><path d="M174.3 229.9h9v9h-9z" class="C"/><use xlink:href="#D" x="-411.8" y="91.4" class="D"/><path d="M174.3 301.9h9v9h-9z" class="C"/><use xlink:href="#D" x="-411.8" y="163.4" class="D"/><path d="M49.2 215.5v189.6h189.3L49.2 215.5zm34.7 85.9l69 69H84l-.1-69z" class="M"/><path d="M49.2 215.5v189.6h189.3L55.8 222.2l-.8-.8-5.8-5.9zm34.7 85.9l69 69H84l-.1-69z" class="D"/><g class="C"><path d="M49.2 223.5h6.5v.9h-6.5z"/><use xlink:href="#E"/><use xlink:href="#E" y="4.3"/><use xlink:href="#E" y="8.5"/><use xlink:href="#E" y="12.7"/><use xlink:href="#E" y="16.9"/><use xlink:href="#E" y="21.1"/><path d="M49.2 253h6.5v.9h-6.5z"/><use xlink:href="#E" y="29.5"/><use xlink:href="#E" y="33.7"/><use xlink:href="#E" y="37.9"/><use xlink:href="#E" y="42.2"/><use xlink:href="#E" y="46.4"/><use xlink:href="#E" y="50.6"/><path d="M49.2 282.5h6.5v.9h-6.5z"/><use xlink:href="#E" y="59"/><use xlink:href="#E" y="63.2"/><use xlink:href="#E" y="67.4"/><use xlink:href="#E" y="71.6"/><use xlink:href="#E" y="75.8"/><use xlink:href="#E" y="80.1"/><path d="M49.2 312h6.5v.9h-6.5z"/><use xlink:href="#E" y="88.5"/><use xlink:href="#E" y="92.7"/><use xlink:href="#E" y="96.9"/><use xlink:href="#E" y="101.1"/><use xlink:href="#E" y="105.3"/><use xlink:href="#E" y="109.5"/><path d="M49.2 341.4h6.5v.9h-6.5z"/><use xlink:href="#E" y="117.9"/><use xlink:href="#E" y="122.2"/><use xlink:href="#E" y="126.4"/><use xlink:href="#E" y="130.6"/><use xlink:href="#E" y="134.8"/><use xlink:href="#E" y="139"/><path d="M49.2 370.9h6.5v.9h-6.5z"/><use xlink:href="#E" y="147.4"/><use xlink:href="#E" y="151.6"/><use xlink:href="#E" y="155.8"/><use xlink:href="#E" y="160.1"/><use xlink:href="#E" y="164.3"/><use xlink:href="#E" y="168.5"/></g><path d="M46.1 404.9l82.3-.2 82.2-.1 164.4-.2 164.4.2 82.2.1 82.3.2-82.3.3-82.2.1-164.4.1-164.4-.1-82.2-.1z" class="B"/><g class="D"><ellipse cx="373.4" cy="426.3" rx="223.2" ry="18.5"/><ellipse cx="375" cy="457" rx="162.2" ry="15.9"/></g><path d="M470.8 196.9c-11.3 52.5-47.1 63.8-53.5 79.7-3.7 9.3-8.6 32.9-8.6 32.9h-67.3s-4.9-23.6-8.6-32.9c-6.9-17.2-48.3-29-55.8-93.3-5-42.3 26.8-109.1 98-109.1V119c0 2.4-1 4.5-2.5 6-1.5 1.6-3.7 2.5-6.1 2.5-2.6 0-5.1-1.3-6.8-3.3-3.3-4-8.3-6.5-13.8-6.5-9.9 0-17.9 8-17.9 17.9s8 17.9 17.9 17.9c5.6 0 10.6-2.5 13.8-6.5.8-1 1.9-1.9 3-2.4 1.1-.6 2.4-.9 3.7-.9 4.7 0 8.6 3.8 8.6 8.6v44.8h44.8c2.4 0 4.5-1 6-2.5s2.5-3.7 2.5-6.1c0-2.6-1.3-5.1-3.3-6.8-4-3.3-6.5-8.3-6.5-13.8 0-9.9 8-17.9 17.9-17.9s17.9 8 17.9 17.9c0 5.6-2.5 10.6-6.5 13.8-1 .8-1.9 1.9-2.4 3-.6 1.2-.9 2.4-.9 3.8 0 4.7 3.8 8.6 8.6 8.6h17.8z" class="P"/><path opacity=".3" d="M470.8 196.9c-11.3 52.5-47.1 63.8-53.5 79.7-3.7 9.3-8.6 32.9-8.6 32.9h-33.5v-17.4-13.7c.1-2.3-.3-4.6.6-6.7a8.02 8.02 0 0 1 4.6-4.6c2.1-.8 4.5-.8 6.5.1 1 .5 1.9 1.1 2.7 1.9.4.4.7.9 1.1 1.3l1.2 1.2c3.4 3.1 8.1 4.9 12.7 4.7 4.6-.1 9.2-2.1 12.4-5.5 3.3-3.3 5.1-7.9 5.1-12.6 0-4.6-1.9-9.3-5.1-12.6s-7.8-5.4-12.4-5.5c-4.6-.2-9.3 1.5-12.7 4.7l-1.2 1.2c-.4.4-.7.9-1.1 1.3-.8.8-1.7 1.5-2.7 1.9-2 .9-4.4 1-6.5.1a8.02 8.02 0 0 1-4.6-4.6c-.9-2.1-.5-4.4-.6-6.7v-13.7V197v-.2h44.6c2.4 0 4.5-1 6-2.5s2.5-3.7 2.5-6.1c0-2.6-1.3-5.1-3.3-6.8-4-3.3-6.5-8.3-6.5-13.8 0-9.9 8-17.9 17.9-17.9s17.9 8 17.9 17.9c0 5.6-2.5 10.6-6.5 13.8-1 .8-1.9 1.9-2.4 3-.6 1.2-.9 2.4-.9 3.8 0 4.7 3.8 8.6 8.6 8.6h17.7z" class="C"/><path d="M327.9 135.5c0 9.9 8 17.9 17.9 17.9 5.6 0 10.6-2.5 13.8-6.5.8-1 1.9-1.9 3-2.4 1.1-.6 2.4-.9 3.7-.9 4.7 0 8.6 3.8 8.6 8.6v44.6h-.2-27.3-13.7-3.4c-1.2 0-2.3.2-3.4.6-2.2.9-4 2.6-4.8 4.8-.9 2.2-.8 4.7.1 6.8.5 1.1 1.2 2 2 2.8.4.4.9.8 1.3 1.1l1.2 1.2c3.1 3.4 4.8 7.9 4.6 12.5-.1 4.5-2.1 9-5.4 12.2s-7.8 5-12.3 5c-4.6 0-9.1-1.8-12.3-5-3.3-3.2-5.3-7.6-5.4-12.2-.2-4.6 1.5-9.1 4.6-12.5.8-.9 1.6-1.6 2.5-2.3a11.02 11.02 0 0 0 2-2.8c1-2.1 1-4.6.1-6.8a8.7 8.7 0 0 0-4.8-4.8c-1.1-.4-2.2-.6-3.4-.6h-3.4-13.7-.5c-.9-4.2-1.7-8.8-2.2-13.6-5-42.3 26.8-109.1 98-109.1v44.8c0 2.4-1 4.5-2.5 6-1.5 1.6-3.7 2.5-6.1 2.5-2.6 0-5.1-1.3-6.8-3.3-3.3-4-8.3-6.5-13.8-6.5-10 0-18 8-18 17.9z" class="E"/><g class="C"><path d="M339.498 206.531l19.98 105.019-1.965.374-19.98-105.019zm70.971-.078l1.965.373-19.948 105.019-1.965-.373z"/><path d="M375 241c-6.1 0-11.6-5.3-15.6-12.2-1.8 1.9-3.8 2.9-5.7 2.9-10.2 0-15.2-20-15.4-20.8l1.9-.5c0 .2 4.8 19.3 13.4 19.3 1.6 0 3.2-1.1 4.7-2.8-3.1-6-4.9-12.8-4.9-18.2 0-5.7 2.2-9 6.2-9 4.5 0 7.1 3.5 7.1 9.5 0 4.5-1.5 10-3.8 14.5a33.72 33.72 0 0 1-2.1 3.4c.2.3.4.7.6 1 4 6.9 9 10.9 13.6 10.9 4.3 0 8.5-3.3 12-9.3.2-.3.3-.5.5-.8-.9-1-1.8-2.1-2.5-3.4-4-6.9-4.8-17-1.8-22.2 1.3-2.3 3.3-3.5 5.6-3.5 1.9 0 3.4.9 4.4 2.7 2.9 5 1.3 16.8-3.3 26.1 1.7 1.5 3.8 2.6 6.6 2.6 6.1 0 11.5-14.1 13-19.5l1.9.6c-.1.2-1.5 5.2-4 10.3-3.5 7.1-7.2 10.7-11 10.7-2.7 0-5.3-1-7.5-2.8a.76.76 0 0 0-.2.4c-3.8 6.4-8.7 10.1-13.7 10.1zm13.8-39.3c-1.6 0-2.9.8-3.9 2.5-2.7 4.7-1.9 13.9 1.8 20.2.5.8 1.1 1.7 1.7 2.5 4-8.5 5.6-19.3 3.1-23.6-.6-1-1.5-1.6-2.7-1.6zm-29.2 0c-3.4 0-4.2 3.8-4.2 7 0 4.8 1.6 10.9 4.3 16.4 2.9-4.3 5-10.7 5-15.9 0-3.4-.9-7.5-5.1-7.5z"/></g><path d="M333.6 309.5h83v16.2h-83zm0 18.8h83v16.2h-83z" class="G"/><path d="M373.8 62.6c-.5-2-.7-4.1-.9-6.1l-.3-6.1.1-6.1c.1-2 .3-4.1.7-6.1.5 2 .7 4.1.9 6.1a62.28 62.28 0 0 1 .3 6.1l-.1 6.1c-.1 2-.3 4-.7 6.1zm-55.7 15.5c-1.4-1.5-2.6-3.2-3.8-4.8l-3.3-5.1c-1.1-1.7-2-3.5-3-5.3l-2.5-5.6c1.4 1.5 2.6 3.2 3.8 4.8l3.3 5.1c1.1 1.7 2 3.5 3 5.3s1.8 3.7 2.5 5.6zm-40.5 41.4c-2-.6-3.9-1.4-5.7-2.3l-5.4-2.8-5.2-3.1-5-3.6c2 .6 3.9 1.4 5.7 2.3l5.4 2.8 5.2 3.1c1.8 1.1 3.5 2.2 5 3.6zm-14.3 56c-2 .5-4.1.7-6.1.9a62.28 62.28 0 0 1-6.1.3c-2 0-4.1 0-6.1-.1s-4.1-.3-6.1-.7c2-.5 4.1-.7 6.1-.9a62.28 62.28 0 0 1 6.1-.3l6.1.1 6.1.7zm15.5 55.7c-1.5 1.4-3.2 2.6-4.8 3.8l-5.1 3.3c-1.7 1.1-3.5 2-5.3 3l-5.6 2.5c1.5-1.4 3.2-2.6 4.8-3.8l5.1-3.3c1.7-1.1 3.5-2 5.3-3l5.6-2.5zm193.6-2c2 .6 3.9 1.4 5.7 2.3l5.4 2.8 5.2 3.1c1.7 1.1 3.4 2.3 5 3.6-2-.6-3.9-1.4-5.7-2.3l-5.4-2.8-5.2-3.1c-1.8-1.1-3.5-2.3-5-3.6zm14.3-56c2-.5 4.1-.7 6.1-.9a62.28 62.28 0 0 1 6.1-.3l6.1.1c2 .1 4.1.3 6.1.7-2 .5-4.1.7-6.1.9a62.28 62.28 0 0 1-6.1.3c-2 0-4.1 0-6.1-.1l-6.1-.7zm-15.5-55.7c1.5-1.4 3.2-2.6 4.8-3.8l5.1-3.3c1.7-1.1 3.5-2 5.3-3l5.6-2.5c-1.5 1.4-3.2 2.6-4.8 3.8l-5.1 3.3c-1.7 1.1-3.5 2-5.3 3l-5.6 2.5zM429.9 77c.6-2 1.4-3.9 2.3-5.7l2.8-5.4 3.1-5.2 3.6-5c-.6 2-1.4 3.9-2.3 5.7l-2.8 5.4-3.1 5.2-3.6 5z" class="N"/><g class="E"><path d="M470.2 196.7h-13.7c-2.3-.1-4.6.3-6.7-.6a8.02 8.02 0 0 1-4.6-4.6c-.8-2.1-.8-4.5.1-6.5.5-1 1.1-1.9 1.9-2.7.4-.4.9-.7 1.3-1.1l1.2-1.2c3.1-3.4 4.9-8.1 4.7-12.7-.1-4.7-2.1-9.2-5.5-12.4-3.3-3.3-7.9-5.1-12.6-5.1-4.6 0-9.3 1.9-12.6 5.1s-5.4 7.8-5.5 12.4c-.2 4.6 1.5 9.3 4.7 12.7l1.2 1.2c.4.4.9.7 1.3 1.1.8.8 1.5 1.7 1.9 2.7 1 2 1 4.4.1 6.5a8.02 8.02 0 0 1-4.6 4.6c-2.1.9-4.4.5-6.7.6h-13.7-27.3-.4v.4 27.3 13.7 3.4c0 1.2.2 2.3.6 3.4a8.7 8.7 0 0 0 4.8 4.8c2.2.9 4.7.8 6.8-.1 1.1-.5 2-1.2 2.8-2 .4-.4.8-.9 1.1-1.3l1.2-1.2c3.4-3.1 7.9-4.8 12.5-4.6 4.6.1 9 2.1 12.2 5.4s5 7.8 5 12.3c0 4.6-1.8 9.1-5 12.3-3.1 3.3-7.6 5.3-12.2 5.4-4.5.2-9.1-1.5-12.5-4.6-.9-.8-1.6-1.6-2.4-2.5a11.02 11.02 0 0 0-2.8-2c-2.1-1-4.6-1-6.8-.1a8.7 8.7 0 0 0-4.8 4.8c-.4 1.1-.6 2.2-.6 3.4v3.4V292v17.4h.1V292v-13.7c.1-2.3-.3-4.6.6-6.8.8-2.1 2.6-3.9 4.7-4.7 2.1-.9 4.5-.8 6.6.1a11.02 11.02 0 0 1 2.8 2c.8.9 1.5 1.8 2.4 2.5 3.4 3.1 8 4.8 12.6 4.6 4.6-.1 9.1-2.1 12.3-5.4s5.1-7.9 5.1-12.5-1.8-9.2-5.1-12.5c-3.2-3.3-7.7-5.3-12.3-5.5s-9.3 1.5-12.7 4.6l-1.2 1.2c-.4.4-.7.9-1.1 1.3-.8.8-1.7 1.5-2.7 1.9-2.1.9-4.5 1-6.6.1-2.1-.8-3.8-2.6-4.6-4.6-.9-2.1-.5-4.5-.6-6.7v-13.7-27.3h.1l.2-.2v.2h27.3 13.7 3.4c1.2 0 2.4-.2 3.4-.6a9.21 9.21 0 0 0 4.9-4.8c.9-2.2.9-4.7-.1-6.9-.5-1.1-1.2-2-2-2.9-.4-.4-.9-.8-1.3-1.1l-1.2-1.2c-3-3.3-4.7-7.9-4.5-12.4.1-4.5 2.1-8.9 5.4-12.1 3.2-3.2 7.7-5 12.3-5 4.5 0 9 1.8 12.3 5 3.3 3.1 5.2 7.6 5.4 12.1s-1.5 9.1-4.5 12.4l-1.2 1.2c-.4.4-.9.7-1.3 1.1a9.99 9.99 0 0 0-2 2.9c-1 2.1-1 4.7-.1 6.9s2.7 4 4.9 4.8c1.1.4 2.3.7 3.4.6h3.4 13.7.5c0-.1.1-.3.1-.4h-.9z"/><path d="M417.1 245.6c-3.2-3.3-7.8-5.4-12.4-5.5-4.6-.2-9.3 1.5-12.7 4.7l-1.2 1.2c-.4.4-.7.9-1.1 1.3-.8.8-1.7 1.5-2.7 1.9-2 .9-4.4 1-6.5.1a8.02 8.02 0 0 1-4.6-4.6c-.9-2.1-.5-4.4-.6-6.7v-13.7V197v-.4h-.4-27.3-13.7-3.4c-1.2 0-2.3.2-3.4.6-2.2.9-4 2.6-4.8 4.8-.9 2.2-.8 4.7.1 6.8.5 1.1 1.2 2 2 2.8.4.4.9.8 1.3 1.1l1.2 1.2c3.1 3.4 4.8 7.9 4.6 12.5-.1 4.5-2.1 9-5.4 12.2s-7.8 5-12.3 5c-4.6 0-9.1-1.8-12.3-5-3.3-3.2-5.3-7.6-5.4-12.2-.2-4.6 1.5-9.1 4.6-12.5.8-.9 1.6-1.6 2.5-2.3a11.02 11.02 0 0 0 2-2.8c1-2.1 1-4.6.1-6.8a8.7 8.7 0 0 0-4.8-4.8c-1.1-.4-2.2-.6-3.4-.6h-3.4H280h-.5v.2h.4 13.7c2.3.1 4.6-.3 6.8.6 2.1.8 3.9 2.6 4.7 4.7.9 2.1.8 4.5-.1 6.6-.5 1-1.1 2-2 2.8s-1.8 1.5-2.5 2.4c-3.1 3.4-4.8 8-4.6 12.6.1 4.6 2.1 9.1 5.4 12.3s7.9 5.1 12.5 5.1 9.2-1.8 12.5-5.1c3.3-3.2 5.3-7.7 5.5-12.3s-1.5-9.3-4.6-12.7l-1.2-1.2c-.4-.4-.9-.7-1.3-1.1-.8-.8-1.5-1.7-1.9-2.7-1-2.1-1-4.5-.1-6.6.8-2.1 2.6-3.8 4.6-4.6 2.1-.9 4.5-.5 6.7-.6h13.7H375v-.2l.2.2h-.2v27.3V238v3.4c0 1.2.2 2.3.6 3.4a9.21 9.21 0 0 0 4.8 4.9c2.2.9 4.7.9 6.9-.1 1.1-.5 2-1.2 2.9-2 .4-.4.8-.9 1.1-1.3s.8-.8 1.2-1.2c3.3-3.1 7.9-4.7 12.4-4.5 4.5.1 9 2.1 12.1 5.4 3.2 3.2 5 7.7 5 12.2s-1.8 9-5 12.3c-3.1 3.3-7.6 5.2-12.1 5.4s-9.1-1.5-12.4-4.5l-1.2-1.2c-.4-.4-.7-.9-1.1-1.3-.8-.8-1.8-1.6-2.9-2-2.1-1-4.7-1-6.9-.1s-4 2.7-4.8 4.8a10.16 10.16 0 0 0-.6 3.4v3.4 13.7 17.4h.4v-17.4-13.7c.1-2.3-.3-4.6.6-6.7a8.02 8.02 0 0 1 4.6-4.6c2.1-.8 4.5-.8 6.5.1 1 .5 1.9 1.1 2.7 1.9.4.4.7.9 1.1 1.3l1.2 1.2c3.4 3.1 8.1 4.9 12.7 4.7 4.6-.1 9.2-2.1 12.4-5.5 3.3-3.3 5.1-7.9 5.1-12.6-.1-4.6-1.9-9.2-5.2-12.6zm-.3.3c-3.1-3.3-7.6-5.3-12.2-5.4-4.5-.2-9.1 1.5-12.5 4.6l-1.2 1.2c-.4.4-.7.9-1.1 1.3a11.02 11.02 0 0 1-2.8 2c-2.1 1-4.6 1-6.8.1s-3.9-2.7-4.8-4.8c-.4-1.1-.7-2.3-.6-3.4v-3.4-13.7-27.3 27.3 13.7 3.4c0 1.2.2 2.3.6 3.4a9.21 9.21 0 0 0 4.8 4.9c2.2.9 4.7.9 6.9-.1 1.1-.5 2-1.2 2.9-2 .4-.4.8-.9 1.1-1.3s.8-.8 1.2-1.2c3.3-3.1 7.9-4.7 12.4-4.5 4.5.1 8.9 2 12.1 5.2 3.1 3.3 4.9 7.8 4.9 12.3s-1.8 9-5 12.3c-3.1 3.3-7.6 5.2-12.1 5.4s-9.1-1.5-12.4-4.5l-1.2-1.2c-.4-.4-.7-.9-1.1-1.3-.8-.8-1.8-1.6-2.9-2-2.1-1-4.7-1-6.9-.1s-4 2.7-4.8 4.8a10.16 10.16 0 0 0-.6 3.4v3.4 13.7 17.4h.1v-17.4-13.7-3.4a10.16 10.16 0 0 1 .6-3.4c.9-2.1 2.6-3.9 4.8-4.8 2.1-.9 4.6-.9 6.8.1 1.1.5 2 1.2 2.8 2 .8.9 1.5 1.7 2.4 2.5 3.4 3.1 8 4.8 12.5 4.6 4.6-.1 9-2.1 12.2-5.4s5-7.8 5-12.3c0-4.6-1.9-9.1-5.1-12.4z"/><path d="M371.4 74.2h3.5v-.1c-1.2 0-2.3.1-3.5.1zm3.7 95.2v-13.7-3.4c0-1.2-.2-2.3-.6-3.4a8.7 8.7 0 0 0-4.8-4.8c-2.2-.9-4.7-.8-6.8.1-1.1.5-2 1.2-2.8 2-.4.4-.8.9-1.1 1.3l-1.2 1.2c-3.4 3.1-7.9 4.8-12.5 4.6-4.5-.1-9-2.1-12.2-5.4s-5-7.8-5-12.3c0-4.6 1.8-9.1 5-12.3 3.2-3.3 7.6-5.3 12.2-5.4 4.5-.2 9.1 1.5 12.5 4.6.9.8 1.6 1.6 2.3 2.5a11.02 11.02 0 0 0 2.8 2c2.1 1 4.6 1 6.8.1a8.7 8.7 0 0 0 4.8-4.8c.4-1.1.6-2.2.6-3.4v-3.4-13.7-27.5h-.1l.1.1h-.1v27.4 13.7c-.1 2.3.3 4.6-.6 6.8-.8 2.1-2.6 3.8-4.7 4.7s-4.5.8-6.6-.1a11.02 11.02 0 0 1-2.8-2c-.8-.8-1.5-1.8-2.4-2.5-3.4-3.1-8-4.8-12.6-4.6-4.6.1-9.1 2.1-12.3 5.4s-5.1 7.9-5.1 12.5 1.8 9.2 5.1 12.5c3.2 3.3 7.7 5.3 12.3 5.5s9.3-1.5 12.7-4.6l1.2-1.2c.4-.4.7-.9 1.1-1.3.8-.8 1.7-1.5 2.7-1.9 2.1-.9 4.5-1 6.6-.1 2.1.8 3.8 2.6 4.6 4.6.9 2.1.5 4.5.6 6.7v13.7 27.3h.2l-.2.2v-.2h-27.3-13.7-3.4c-1.2 0-2.3.2-3.4.6a9.21 9.21 0 0 0-4.9 4.8c-.9 2.2-.9 4.7.1 6.9.5 1.1 1.2 2 2 2.8.4.4.9.8 1.3 1.1l1.2 1.2c3.1 3.3 4.7 7.9 4.5 12.4-.1 4.5-2.1 8.9-5.4 12.1-3.2 3.2-7.7 5-12.3 5-4.5 0-9-1.8-12.3-5-3.3-3.1-5.2-7.6-5.3-12.1-.2-4.5 1.5-9.1 4.5-12.4l1.2-1.2c.4-.4.9-.7 1.3-1.1a9.99 9.99 0 0 0 2-2.9c1-2.1 1-4.7.1-6.8-.9-2.2-2.7-4-4.9-4.8a10.16 10.16 0 0 0-3.4-.6h-3.4-13.7-.5v.1.2.1h.4 13.7c2.3.1 4.6-.3 6.7.6a8.02 8.02 0 0 1 4.6 4.6c.8 2.1.8 4.5-.1 6.5-.5 1-1.1 1.9-1.9 2.7-.4.4-.9.7-1.3 1.1L300 214c-3.1 3.4-4.9 8.1-4.7 12.7.1 4.6 2.1 9.2 5.5 12.4 3.3 3.3 7.9 5.1 12.6 5.1s9.3-1.9 12.6-5.1 5.4-7.8 5.5-12.4c.2-4.6-1.5-9.3-4.7-12.7l-1.2-1.2c-.4-.4-.9-.7-1.3-1.1-.8-.8-1.5-1.7-1.9-2.7-1-2-1-4.4-.1-6.5a8.02 8.02 0 0 1 4.6-4.6c2.1-.9 4.4-.5 6.7-.6h13.7 27.3.4v-.4l.1-27.5zm-27.6 27.3h-13.7-3.4c-1.2 0-2.3.2-3.4.6a9.21 9.21 0 0 0-4.9 4.8c-.9 2.2-.9 4.7.1 6.9.5 1.1 1.2 2 2 2.8.4.4.9.8 1.3 1.1l1.2 1.2c3.1 3.3 4.7 7.9 4.5 12.4-.1 4.5-2.1 8.9-5.4 12.1-3.2 3.2-7.7 5-12.3 5-4.5 0-9-1.8-12.3-5-3.3-3.1-5.2-7.6-5.3-12.1-.2-4.5 1.5-9.1 4.5-12.4l1.2-1.2c.4-.4.9-.7 1.3-1.1a9.99 9.99 0 0 0 2-2.9c1-2.1 1-4.7.1-6.8-.9-2.2-2.7-4-4.9-4.8a10.16 10.16 0 0 0-3.4-.6h-3.4-13.7-.5v.1h.5 13.7 3.4c1.2 0 2.3.2 3.4.6 2.1.8 3.9 2.6 4.8 4.8.9 2.1.9 4.6-.1 6.8-.5 1.1-1.2 2-2 2.8-.9.8-1.7 1.5-2.5 2.3-3.1 3.4-4.8 8-4.6 12.5.1 4.6 2.1 9 5.4 12.2s7.8 5 12.3 5c4.6 0 9.1-1.8 12.3-5 3.3-3.1 5.3-7.6 5.4-12.2.2-4.6-1.5-9.1-4.6-12.5l-1.2-1.2c-.4-.4-.9-.7-1.3-1.1a11.02 11.02 0 0 1-2-2.8c-1-2.1-1-4.6-.1-6.8s2.7-3.9 4.8-4.8a10.16 10.16 0 0 1 3.4-.6h3.4l14-.1h27.3-27.3z"/></g><path d="M579.5 150.4c-6 2.8-26.9 8.2-35.6 2.4-7.8-5.2-8.5-42.6-5.2-54.6 1.1-4.2 17.8 3.9 19.5 7.4 1.5 3-1 31.3.3 31.9 2 1 8.6 1.8 19.1 3.3 9.8 1.4 6.1 7.6 1.9 9.6z" class="I"/><path d="M558.6 118l-22.2-10.5s-3.8 38 7 46.1c2.5 1.8 19.1 4.9 34.8-1.8 4.9-2.1 12.4-9.2-2-11.5s-17-3.1-17.3-3.4c-.3-.5-.3-18.9-.3-18.9z" class="N"/><g class="E"><path d="M547.9 126.3c.8.6 1.9.6 2.6-.2 1.3-1.4.7-3.9 0-5.5-.7-1.7-1.8-3.4-3.7-3.7-1.2-.2-1.9.9-1.7 1.9.3 1.3.9 2.4 1.2 3.7.5 1.3.4 2.9 1.6 3.8zm2.2 7.6c1.1-.6 1.3-2.2 1.3-3.3 0-.6-.2-1.2-.5-1.7-.5-.7-1.4-1.1-2.2-.6-.5.4-.7.8-.8 1.4-.1.3-.1.5-.1.8v.1.1c-.1.8-.4 1.7-.1 2.5.3 1 1.5 1.2 2.4.7zm6-2.6c.9-1.9.9-4.2.5-6.2-.3-1.7-.9-4.4-2.9-4.8-.5-.1-.8.2-1 .5-.8 1.2 0 3.4.1 4.8l.2 5.2c.2 1.6 2.4 2 3.1.5zm-10.5 8.6c.3.2.6.3.9.4.5.1 1-.1 1.4-.3.4-.3.7-.8 1-1.2.2-.4.3-.9.3-1.4 0-.1-.1-.3-.1-.4-.1-.1-.1-.3-.2-.4-.2-.3-.5-.5-.9-.7-.7-.2-1.4 0-1.9.5-.3.4-.7.8-1 1.2 0 .2-.1.3-.1.5-.1.2 0 .5 0 .7 0 .4.2.8.6 1.1zm5.8-.6c.6.3 1.4.1 1.8-.4.5-.5.7-1.2.8-1.9.1-.6.2-1.3-.1-1.9-.4-.8-1.4-1.1-2.1-.4-.3.4-.5.9-.7 1.3l-.3.6c-.2.3-.2.6-.3.9-.1.8.3 1.6.9 1.8z"/></g><path d="M537 113.2c1.8.6 3.6 1.4 5.4 2.2l5.2 2.3c3.5 1.6 7.1 3.1 10.5 4.9.1 0 0 .2-.1.1-3.7-1.2-7.3-2.8-10.8-4.4l-5.3-2.4c-1.7-.8-3.4-1.6-5-2.5 0-.1 0-.2.1-.2z" class="B"/><path d="M578.2 151.8c-15.7 6.7-32.3 3.6-34.8 1.8-5-3.7-6.9-13.9-7.5-23.8l22.8 5.2c0 1.1.1 1.8.1 1.8.3.4 2.9 1.2 17.3 3.4 14.5 2.3 7 9.5 2.1 11.6z" class="E"/><path d="M524.9 406c1.9.6 55.6.5 57.7-.8.8-.5 1.2-8.3 1.5-17.8.1-2 .1-4.2.1-6.3l.1-7.6-.1-21.1h-35v21.1 7.6l.2 6.3s-20.6 9.3-22.6 10.9c-2.1 1.6-3.8 7.1-1.9 7.7z" class="I"/><path d="M524.9 406c1.9.6 55.6.5 57.7-.8.8-.5 1.2-8.3 1.5-17.8.1-2 .1-4.2.1-6.3l.1-7.6h-35.1v7.6l.2 6.3s-20.6 9.3-22.6 10.9c-2.1 1.6-3.8 7.1-1.9 7.7z" class="C"/><path fill="#106dac" d="M524.7 406c1.2.4 24.1.5 40.8.1l10.2-.3c3.9-.2 6.6-.4 7-.7.9-.6 1.4-12.1 1.6-24.2h-35.2l.2 6.3s-20.7 9.3-22.8 11c-2 1.8-3.6 7.2-1.8 7.8z"/><g class="B"><path d="M525.5 403.9c9.1-.2 45.6-.4 54.6 0 .1 0 .1.1 0 .1-9 .4-45.5.3-54.6 0-.2 0-.2-.1 0-.1zm22.6-18.6c3.6-.7 7.9-.1 10.7 2.4.1.1 0 .2-.2.2-3.5-1.1-6.8-1.8-10.5-2.2-.3 0-.3-.3 0-.4zm-2.6 1.6c3.6-.7 7.9-.1 10.7 2.4.1.1 0 .2-.2.2-3.5-1.1-6.8-1.8-10.5-2.2-.2 0-.2-.4 0-.4zm-2.6 1.5c3.6-.7 7.9-.1 10.7 2.4.1.1 0 .2-.2.2-3.5-1.1-6.8-1.8-10.5-2.2-.2 0-.2-.3 0-.4zm-2.5 1.6c3.6-.7 7.9-.1 10.7 2.4.1.1 0 .2-.2.2-3.5-1.1-6.8-1.8-10.5-2.2a.2.2 0 0 1 0-.4z"/><path d="M543.1 382.2c2.5 2 5.8 2.7 8.8 3.8.3.1.5-.2.6-.4.1 0 .1-.1.1-.1-1-3-3.1-6.1-5.5-8.2-1.5-1.2-4.1-2.1-5.5-.2-1.4 1.8 0 3.9 1.5 5.1zm-.9-2.9c-.6-3.9 3.6-1.9 4.6-.9.7.6 1.3 1.3 1.9 2 1.2 1.5 2.2 3.1 3.3 4.7l-4.3-1.7c-1.7-.7-5.2-2-5.5-4.1z"/><path d="M564.4 379.9c-.9-2.2-3.6-2-5.4-1.2-2.8 1.4-5.7 3.9-7.4 6.5v.1c-.1.3.1.6.4.6 3.1-.3 6.5-.3 9.4-1.5 1.9-.7 3.8-2.4 3-4.5zm-7.7 4.6l-4.6.6 4.4-3.7c.7-.5 1.5-1.1 2.3-1.5 1.3-.7 5.9-1.6 4.3 2-.8 2-4.5 2.4-6.4 2.6z"/></g><path d="M595.9 203.2l-9.7 94.7-.2 4.9-1.8 66.3h-38.6l4-73.3c1.8-17.7 13.5-92.6 13.5-92.6h32.8z" class="G"/><g class="B"><path d="M581.6 301.2c1.2-20.3 3-40.5 5.4-60.7l4.6-34c0-.1.2-.1.2 0-3 20.2-5.1 40.5-6.9 60.8a1244.07 1244.07 0 0 0-3.9 60.9l-1.2 34.6a.2.2 0 0 1-.4 0c.4-20.5 1-41.1 2.2-61.6z"/><path d="M548.1 362.9c1-.1 2.1-.1 3.1-.1l3.5-.1 6.7-.2c4.5-.1 9 0 13.5.1 1.2 0 2.5.1 3.7.1 1.3 0 2.6.2 4 .2.1 0 .1.1 0 .1-2.3 0-4.6.2-6.8.3s-4.5.1-6.7.2c-4.5.1-9 0-13.5-.1-1.2 0-2.5-.1-3.7-.1-.7 0-1.3-.1-2-.1-.6 0-1.2 0-1.8-.1-.1-.1-.1-.2 0-.2zm47.8-159.7l-9.7 94.7-.2 4.9-18.2-99.6h28.1z"/></g><path d="M625.1 404.3c2-.2 50.9-22.5 52.2-24.6.5-.8-2.3-8.1-6-16.8-.8-1.9-1.5-3.9-2.5-5.8l-3.6-7.1c-5.2-10-9.9-18.3-9.9-18.3l-31 14 8.9 18.3 3.7 7.5 2.8 5.7s-14.9 16.9-16.1 19.3-.5 8 1.5 7.8z" class="I"/><path d="M625.1 404.3c2-.2 50.9-22.5 52.2-24.6.5-.8-2.3-8.1-6-16.8-.8-1.9-1.5-3.9-2.5-5.8l-3.6-7.1-31.9 14.1 3.7 7.5 2.8 5.7s-14.9 16.9-16.1 19.3c-1.3 2.3-.6 7.9 1.4 7.7z" class="C"/><path fill="#106dac" d="M624.9 404.4c2-.2 51.2-22.7 52.5-24.7.6-.9-3.7-11.6-8.5-22.7l-32 14.5 2.8 5.7s-15 17-16.2 19.4c-1.3 2.4-.5 8 1.4 7.8z"/><g class="B"><path d="M624.7 402.1c8.2-4 41.4-19.2 49.8-22.5.1 0 .1 0 0 .1-8 4.1-41.4 19.1-49.7 22.6-.2.1-.2-.1-.1-.2zm12.9-26.2c3-2.1 7.2-3.4 10.7-2.2.1 0 .1.2-.1.3-3.7.5-6.9 1.2-10.4 2.4-.2 0-.4-.3-.2-.5zm-1.7 2.5c3-2.1 7.2-3.4 10.7-2.2.1 0 .1.2-.1.3-3.7.5-6.9 1.2-10.4 2.4-.2 0-.4-.4-.2-.5zm-1.7 2.5c3-2.1 7.2-3.4 10.7-2.2.1 0 .1.2-.1.3-3.7.5-6.9 1.2-10.4 2.4-.2 0-.4-.4-.2-.5zm-1.6 2.5c3-2.1 7.2-3.4 10.7-2.2.1 0 .1.2-.1.3-3.7.5-6.9 1.2-10.4 2.4-.3-.1-.5-.4-.2-.5z"/><path d="M631.8 375.1c3.1.7 6.4.1 9.6-.1.3 0 .4-.4.3-.6 0 0 .1-.1 0-.2-2.1-2.3-5.4-4.3-8.4-5.1-1.9-.5-4.6-.2-5.1 2.1-.4 2.2 1.8 3.5 3.6 3.9zm-2-2.2c-2.2-3.3 2.5-3.2 3.8-2.7.9.3 1.7.7 2.6 1.1 1.7.8 3.3 1.9 5 2.9l-4.6.2c-1.9 0-5.6.3-6.8-1.5z"/><path d="M650.3 364.3c-1.7-1.7-4.1-.4-5.4 1.1-2 2.4-3.6 5.9-4 9 0 .1 0 .1.1.1.1.3.3.5.6.3 2.7-1.6 5.8-2.9 8-5.3 1.2-1.3 2.3-3.6.7-5.2zm-5.1 7.3l-4 2.4 2.5-5.2 1.5-2.3c.9-1.1 4.7-3.9 4.7.1.1 2.2-3.1 4.1-4.7 5z"/></g><path d="M563 203.2s2.5 13.5 12 20.4l23.5 77.5c4.7 13.7 29.7 60.3 29.7 60.3l38.6-16.6-32.6-55.9c-2.1-2.7-17.7-59-17.8-60.5-.3-16.6-5.9-25.4-5.9-25.4l-47.5.2z" class="G"/><g class="B"><path d="M594.3 208.1c.7 2.7 2.5 5.1 4.7 6.8 2.5 1.9 5.5 2.7 8.6 2.9.5 0 .6.8 0 .8-6.3 0-12.6-4-13.6-10.5 0-.1.2-.2.3 0zM569 219.3c2.3.8 4.4 2.2 6.5 3.4 2.2 1.3 4.2 2.9 6.2 4.3.1.1 0 .2-.1.1l-6.6-3.6c-2.1-1.3-4.3-2.5-6.1-4.1-.1 0 0-.1.1-.1z"/><path d="M568.1 206.2l1.1 4.3c.4 1.3.6 2.7 1.1 4 .4 1.3 1 2.4 2.1 3.3l1.7 1.3c.3.2.7.4 1 .7-.1-.2-.1-.4-.1-.6-.1-.5-.2-1.1-.4-1.6l-.8-3.7-1.5-7.2c0-.1.1-.1.1 0l2.1 7 1.5 7.3c.1.4.1.8.2 1.3 0 .4.1.9.1 1.3 0 .1-.1.1-.2 0-.2-.4-.3-.8-.4-1.2l-.3-1.2c0-.1-.1-.3-.1-.5-.6-.3-1.1-.8-1.7-1.1l-1.8-1.2c-1.1-.8-1.8-1.9-2.2-3.1-.5-1.3-.7-2.7-.9-4.1l-.8-4.9c0-.2.2-.2.2-.1zm60 147.4c.9-.5 10-4.8 12-5.7 4.1-1.9 18.2-7.7 19.6-8.2.4-.2.5.1.1.2l-12.3 5.7c-4.1 1.9-18.8 7.9-19.4 8.1-.1.1-.1 0 0-.1zM608 204.8c1.7 2.5 3 5.3 3.9 8.2s1.4 5.9 1.4 9a35.53 35.53 0 0 1-.3 4.6c-.1.4-.1.8-.2 1.1l-.1.6c0 .2-.1.4-.1.5l.4 2.2 2.2 8.8 9.7 35.1 2.5 8.7 1.3 4.3.7 2.1c.3.7.6 1.3 1 2l8.9 15.8 18.3 31.5c.1.3.1.5-.2.1-2.7-3.5-12.6-20.7-18.8-31.2-3.1-5.2-6.1-10.5-9.1-15.8-.4-.7-.7-1.4-1.1-2.1-.3-.7-.5-1.5-.8-2.2-.5-1.4-.9-2.9-1.4-4.4l-2.6-8.7-9.4-35.2c-.7-2.9-1.5-5.9-2.1-8.9-.2-.8-.3-1.5-.4-2.3 0-.3.1-.5.1-.6l.1-.5c.1-.4.1-.7.2-1.1.2-1.5.4-3 .4-4.5.4-5.9-1.3-12-4.5-17.1z"/></g><path d="M558.2 171.5c-1.5 4.6-3.2 9-5 13l-17.5-3.6c-4.6-1-7.6-5.5-6.6-10.1.3-1.3.8-2.5 1.6-3.5s1.8-1.8 3-2.5c4.6-2.4 8.1-6.8 9.2-12.2a17.82 17.82 0 1 0-35-7.2c-1.1 5.5.3 10.8 3.6 14.9 1.7 2.1 2.4 4.7 1.9 7.3-.5 2.3-1.9 4.2-3.7 5.4s-4.1 1.7-6.4 1.2l-43.9-9.1 9.1-43.9c1-4.6-2-9.2-6.7-10.1-1.3-.3-2.6-.2-3.8.1s-2.4.9-3.5 1.8c-4 3.3-9.4 4.7-14.9 3.6-9.7-2-15.9-11.5-13.9-21.1 2-9.7 11.5-15.9 21.1-13.9 5.4 1.1 9.8 4.6 12.2 9.2 1.2 2.3 3.4 4.1 5.9 4.6 2.3.5 4.6 0 6.4-1.2s3.2-3.1 3.7-5.4l9.1-43.9h0c19.8 4.1 35.4 12.9 47.3 24.2 8.7 8.4 15.4 18.1 20.3 28.5 12.1 25 13.3 53.5 6.5 73.9z" class="P"/><path d="M613.6 208.5l-53.7.4c0 1.1 2.7-42.1 16.5-67.5.9-1.7 9.4-3.7 13.1-.2 16.4 14.8 24.1 68 24.1 67.3z" class="N"/><g class="E"><path d="M575.8 196.2c-1.4-1.2-3.4-.9-4 1-.7 2.1.7 4.2 2.5 5.2 2 1.1 4.2 1.2 6.3.3 1.9-.9 1.4-3.8-.5-4.3-.9-.2-1.9-.3-2.7-.7-.6-.4-1-1.1-1.6-1.5zm-2.3-7.1c-1.1 3.2 3.6 6.6 6.4 5.2 1-.5 1.2-1.9.4-2.7-.7-.7-1.3-.9-1.9-1.5-.3-.3-.2-.3-.5-.7-.4-.6-.7-1-1.3-1.5-1.2-.8-2.7.1-3.1 1.2zm-8.1-.8c-1.2 1.2-.7 3.4.1 4.7.7 1.3 2 2.3 3.6 2.3 1.2 0 1.9-1.5 1-2.4-.5-.5-.9-1.2-1.1-1.9-.3-1.1-.5-2.4-1.5-3-.8-.3-1.6-.2-2.1.3zm20.2 6.1a1.58 1.58 0 0 0-1.6 1.6c0 .9.7 1.6 1.6 1.8.7.1 1.2.1 1.8-.2.3-.1.5-.4.6-.7s.2-.6.1-.9c-.2-.6-.7-1.1-1.3-1.1l-.2-.2c-.4-.2-.7-.3-1-.3zm-16.4-13.7c-1.3 1.6-.3 4.9 1.5 5.9 1 .5 2.3-.1 2.3-1.3 0-.4 0-.6-.1-1s-.1-.6-.1-.8c0-.7.1-1.5-.2-2.2-.6-1.6-2.4-1.9-3.4-.6zm-4.6 17.2c-1.7 2.6 2 6.2 4.6 6 .9-.1 1.8-1.1 1.2-2-.5-.7-1.2-1.3-1.6-2-.6-.9-.8-2-1.8-2.5s-1.9-.3-2.4.5z"/></g><g class="E"><path d="M604.1 193c-.2 1-.1 1.8-.7 2.7-.6.8-1.4 1.4-1.8 2.4-.4.8.5 1.9 1.4 1.7 2.9-.7 5.1-3.8 4.5-6.8-.5-2-3.1-1.9-3.4 0zm-3.9-8c-.3 1.2-.1 2.5-.4 3.8-.2 1.1-.5 2.3-.9 3.4-.3.8.6 1.9 1.5 1.4 1.5-.9 2.5-1.9 3.1-3.6.5-1.4.9-3.8.2-5.1-.8-1.2-3-1.6-3.5.1zm-3.5 12.3c-.7.9-1.4 1.9-2.4 2.5-1 .5-1.4 1.6-.8 2.6s1.8 1.1 2.7.5c1.7-1 2.9-2.6 3.2-4.6.2-1.5-1.9-2.2-2.7-1z"/></g><g class="E"><use xlink:href="#F"/><path d="M588.9 164c.6-1.1-.1-2.6-.8-3.5-.3-.5-.8-.9-1.4-1.2-.8-.3-1.8-.1-2.1.7-.2.6-.1 1 .1 1.6.1.3.2.5.4.7v.1.1c.3.8.6 1.6 1.3 2.2 1 .6 2.1.1 2.5-.7zm3.6-5.5c-.3-2.1-1.6-4-3-5.5-1.2-1.2-3.2-3.1-5-2.4a1.1 1.1 0 0 0-.6 1c0 1.5 1.9 2.8 2.7 3.9l3 4.2c1 1.3 3.2.4 2.9-1.2zm-4 12.9c.3 0 .6 0 1-.1.5-.2.8-.6 1-1 .2-.5.2-1 .2-1.5s-.3-.9-.5-1.3l-.3-.3a.76.76 0 0 0-.4-.2c-.4-.1-.8-.2-1.1 0a1.83 1.83 0 0 0-1.3 1.5c-.1.5-.2 1-.1 1.6 0 .2.1.3.1.5.1.2.2.4.4.6.2 0 .6.2 1 .2zm4.5-3.7c.7-.1 1.2-.7 1.3-1.4s-.1-1.3-.4-2c-.2-.5-.6-1.2-1.1-1.5-.8-.5-1.8-.2-1.9.8-.1.5.1 1 .2 1.5 0 .2 0 .4.1.7 0 .3.1.6.2 1 .2.7 1 1.1 1.6.9z"/></g><g class="I"><path d="M587.7 154.6c-3.3 7.2-18.7 34.5-29.1 35.6-12.6 1.3-28.6-1.5-35.6-4.9-3.9-1.9 6.3-21.1 10-19.8 5.9 2 17.4 3 19.6 3.2 2.3.2 18.2-11.9 27.1-18.5 8-6.1 10 .2 8 4.4z"/><path d="M520.4 165.1c1.4-.1 1.4-.8-.6-2.2-2-1.5-11.2-5.5-9.5-8.6s14.5 2.8 17.7 5.5 7.3 8.1 7.3 8.1c-2.7-.7-9.5-1.6-14.9-2.8z"/><path d="M528.7 187.3c-7.8-2-17.6-4.2-23.8-10.6-1.2-1.3-1.3-2.6-1.3-2.6-2.8-2.8-2.4-5-2.4-5-1.8-3.4-1-5.6-1-5.6s-3.3-3.3-1.6-5.7c1.9-2.6 6.1 2.6 10.2 4 9.4 3.3 23.6 5.3 26.4 6l-6.5 19.5z"/></g><path d="M516.3 172.2l-8-3.3c-2.8-1.5-5.3-3.5-7.9-5.4-.1-.1-.2 0-.1.1 4.1 4.2 10.3 7.4 16 8.7.1.1.1 0 0-.1zm-1.2 6c-2.6-1.1-7.2-3.2-13.8-9.1 0 0-.1 0 0 0 3.8 4.4 8.3 7.4 13.8 9.2.1 0 .2-.1 0-.1zm-.7 3.1c-4.4-2.1-6.8-4-10.8-7.2 0 0-.1 0 0 0 4.1 4.2 6 5.2 10.7 7.4.3.1.3-.1.1-.2z" class="B"/><path d="M537.7 165.5l-8.6 23.8s22.4 4.7 31.4 1.3 20.9-21 26.5-31.3 2.7-19-11.8-7.5-21.4 15.9-22.5 16.1c-.9.2-15-2.4-15-2.4z" class="N"/><g class="E"><path d="M558.6 185.1c-.9.4-1.6.9-2.6.9-1-.1-1.9-.4-3-.2-.9.2-1.3 1.4-.7 2.1 2.2 2.1 6 2.2 8.2 0 1.3-1.4-.2-3.6-1.9-2.8zm4.4-7.6c-1.2.4-2.2 1.3-3.4 1.8l-3.3 1.1c-.8.2-1.3 1.6-.4 2 1.5.8 3 1 4.7.6 1.5-.4 3.7-1.3 4.4-2.7.7-1.2-.2-3.4-2-2.8zm-12.1 3.8c-1.1 0-2.4-.1-3.4-.6s-2.2-.3-2.7.8.1 2.1 1.1 2.5c1.8.8 3.8 1 5.6.2 1.4-.7.8-2.9-.6-2.9z"/></g><g class="E"><use xlink:href="#F"/><path d="M587 159.4c-.5 1-1.1 2-1.8 3.1v-.1-.1c-.1-.3-.3-.5-.4-.7-.2-.5-.3-1-.1-1.6.3-.9 1.4-1 2.1-.7.1 0 .1 0 .2.1zm2.4-6.4c-.3 1.4-.8 2.9-1.5 4.4-.4-.7-.9-1.3-1.4-1.9-.8-1.1-2.7-2.4-2.7-3.9 0-.4.1-.9.6-1 1.9-.7 3.9 1.2 5 2.4z"/></g><path d="M562.1 189.9c.7-1 5.5-2.4 18.1-19.2 2.6-3.4 4.6-6.9 7.2-10.1h.1a68.17 68.17 0 0 1-4.1 6.8l.3-.3a33.29 33.29 0 0 0 2.8-2.5c.1-.1.2 0 .1.1-.9.9-1.7 1.8-2.6 2.7-.4.4-.8.9-1.3 1.3-.2.1-.4.3-.5.5-13.5 18.9-19.3 20-20 20.8-.1.1-.2 0-.1-.1zm-27.9-.6c.4-1.9 1.2-3.7 1.8-5.5l1.9-5.4c1.3-3.6 2.5-7.3 4.1-10.8 0-.1.2 0 .1 0-.9 3.8-2.3 7.4-3.6 11.1-.6 1.8-1.3 3.7-2 5.5-.7 1.7-1.3 3.5-2.2 5.2 0 .1-.1 0-.1-.1zm3.5-24c2.2.2 11.1 2 13.3 2.2 1 .1 1.9-.1 2.9-.6s17-11.7 18.8-13c.1-.1.2.1.1.1-1.9 1.3-14.3 10.8-16.2 12.1-.9.6-1.7 1.3-2.7 1.7-.9.4-1.8.5-2.8.3l-13.2-2.5c-.1 0-.5 1.1-.5 1h-.1c-.2 0 .3-1.3.4-1.3z" class="B"/><g class="I"><path d="M559.9 115.4c.6-3.6 3.4-8.7 3-11.4-.4-2.5-2.6-2.7-2.6-2.7s2.3-2 1.5-4.4c-.4-1.2-2.7-1.7-2.7-1.7s1.7-1.7.9-3.8c-.7-1.7-2.9-1.9-2.9-1.9s.9-2.4-.3-3.9c-2.5-3-17.3 1.1-18.1 7.2-.4 2.8 3.2 1.6 3.2 1.6s-4.7 3-4 6c.8 3.1 5.3 1.2 5.3 1.2s-4.5 2.9-3.4 6c1.2 3.2 5.4.6 5.4.6s-2.7 3.1-1.3 5.3c2.3 3.6 7.2-3.1 10.7-3.2l3.3 4.9 2 .2z"/><path d="M561.6 109.9c-.3 3.5 4.7 6.3 4.9 9.7.3 4.6-5.8 1.7-8.6-4.3l-1.4-5 5.1-.4z"/></g><path d="M556.8 89.3c.1 0 .1-.1 0 0-5.2.1-10.9 1.8-15 5-.1.1 0 .4.1.3 4.9-2.4 9.5-4.3 14.9-5.3zm2.4 5.8c.1 0 0-.1 0-.1-5.4.2-11.7 2.4-16 6.6-.1.1-.1.4 0 .3 3.1-2.6 11.1-5.9 16-6.8zm-14.1 13.6c4.3-3.9 9.5-6 15.1-7.5.1 0 0-.1 0-.1-2.9 0-6.4 1.2-9 2.5-2.5 1.2-4.5 2.7-6.2 5-.1.1 0 .2.1.1z" class="B"/><path d="M577.7 148.5c2.6.6 7.9-2.5 9.7-6.1.1-.3-.4-2.8-.8-6-.3-1.9-.5-4.1-.6-6 0-.4-12.2 3.5-12.2 3.5s1.4 4.1 1.5 7.5v.8.1c-.2 1.6-.3 5.6 2.4 6.2z" class="I"/><path d="M575.3 142.3v.1h1.3c7.3-.5 8.8-9.7 9-12-2.2.4-11.8 3.5-11.8 3.5s1.4 4.1 1.5 7.5v.9z" class="B"/><path d="M587.6 115c1.4 4.4-.8 17-3.8 19.9-4.5 4.1-11.8 4.6-15.4-.7-3.4-5.2-.3-21.7 3.1-24.3 5-3.9 14-1.3 16.1 5.1z" class="I"/><g class="B"><path d="M575.3 122.7c.1 0 .1.1 0 0-.1.9-.2 1.9.6 2.3 0 0 0 .1 0 0-.9-.2-.8-1.5-.6-2.3z"/><path d="M576.3 122c1.4.1 1 2.9-.2 2.8-1.4-.2-1-2.9.2-2.8zm-5.9.3c0-.1-.1 0 0 0-.2.9-.4 1.9-1.2 2.1.9 0 1.2-1.3 1.2-2.1z"/><path d="M569.7 121.3c-1.4-.3-1.8 2.5-.6 2.7 1.3.2 1.7-2.5.6-2.7zm7.8-.5c-.4-.1-.7-.3-1-.5-.4-.2-.7-.3-.9-.7-.1-.2 0-.6.2-.7.5-.3 1-.2 1.5 0a1.98 1.98 0 0 1 1.1 1.1c.2.5-.4 1-.9.8zm-8.7-1.1c.4 0 .8-.1 1.1-.1.4-.1.8-.1 1.1-.4.2-.2.2-.5.1-.7-.3-.4-.9-.5-1.4-.5-.6.1-1 .2-1.4.7-.4.4 0 1 .5 1zm6.3 11.1c-.2.2-.5.4-.8.4s-.6-.2-.9-.3c0 0-.1 0 0 0a1.1 1.1 0 0 0 1 .6c.5 0 .7-.3.7-.7h0zm-.5-2.7c-.6.7-1.3 1-2.1 1.1-.3 0-.7 0-1.1-.1h-.2c-.1 0-.1 0-.2-.1-.1 0-.1-.1-.1-.2h0v-.1-.1l.3-1.7c-.3.1-1.6.5-1.5.1.5-2.8 1.1-6 2.2-8.7 0-.1.2-.1.2 0-.4 2.7-1.3 5.4-1.7 8.2.4-.1 1.1-.3 1.4-.2.1 0-.4 1.9-.4 2.2 1 .4 1.9.1 3.2-.4 0-.1 0 0 0 0z"/><path d="M571.8 128.8s.5.9 1.3 1.2c.3.1.6.2.9.2.7-.1.8-.7.7-1.3 0-.5-.2-.9-.2-.9s-1.1.9-2.7.8z"/></g><path d="M573.1 130.1c.3.1.6.2.9.2.7-.1.8-.7.7-1.3-.7-.1-1.5.4-1.6 1.1z" class="Q"/><path d="M569.1 113.8c.6-1 1.3-2.1 2-2.2s.9 1.5 2.4 1.8c2 .4 3.2-1.3 6-1.2 4.1.2 5.5 3.8 4.8 9.6-.5 5.1 2.5 6 2.5 6s3.3-11.1.5-15.2c-2.7-4.1-9.8-6.7-15.2-3.7-1.8 1.1-3 4.9-3 4.9z" class="B"/><path d="M584.5 125.5s2.9-4.1 4.7-3c1.8 1-.3 6.9-2.5 7.7s-3-1.2-3-1.2l.8-3.5z" class="I"/><path d="M588.6 124.1s0 .1 0 0c-1.5.7-2.3 2.1-2.9 3.5.5-.6 1.1-.9 1.8-.3v.1c-.6-.1-1.1 0-1.5.5-.3.4-.5.8-.7 1.2-.1.1-.3.1-.3-.1 0-2 1.5-4.7 3.6-4.9z" class="B"/><path d="M575.8 107.4c1.5-.5 3.2-1.1 5.2-1.2s8.2.8 9.6 2.1 1.4 7.2 1.4 8.1-.7 6-2.7 7.1-1.6-7.7-4.3-10.8c-2.9-3.1-9.2-5.3-9.2-5.3z" class="H"/><path d="M575.8 107.4s6.4 2.2 9.1 5.4c2.8 3.1 2.4 11.9 4.3 10.8.9-.5 1.3-1.3 1.7-2.6-.2-2.6-1-6.7-3-9.6-1.8-2.7-5.2-4.3-8.9-4.9-1.1.2-2.2.5-3.2.9z" class="E"/><path d="M588.4 128.7c0-2.4-2-8.8-4.2-12.5s-9.5-6.3-10.5-6.4c-2.5 0-3.1 1.1-3.5.9s2.3-2.9 3-3.3 2.4-.7 3.5-.6 7.7 1.2 10 4.2c2.2 3 5.2 11.2 4.4 13.2-.2.5-.9.8-1.1 1.4-.3.9-.6 1.9-.9 2.6-.4.5-.7.7-.7.5z" class="H"/><path d="M583.7 114.5c.6-.3 1.2-.7 1.7-1.1s1.1-.9 1.5-1.4h.1c-.4.6-.8 1.1-1.4 1.6a6.37 6.37 0 0 1-1.8 1c-.2.1-.2 0-.1-.1zm4.9 11.9c.1-.2.2-.3.3-.5l.3-.6c.1-.4.1-.8.3-1.1s.4-.5.6-.7c.2-.3.5-.5.5-.9h.1c0 .7-.6 1.2-.9 1.8-.2.4-.2.8-.4 1.2-.2.3-.4.7-.8.8 0 .1-.1 0 0 0zm-.7-2.6c.2-.3.5-.5.7-.8s.4-.6.6-.8c.2-.3.3-.6.5-.9l.6-1h.1c-.2.4-.3.8-.5 1.1-.1.3-.3.6-.5.9s-.4.6-.6.8c-.3.4-.6.6-.9.7zm-.7-2.3c.5-.4 1-.8 1.4-1.4.4-.5.7-1 1.1-1.6h.1c-.3.6-.5 1.2-.9 1.7-.2.2-.4.5-.6.7-.4.3-.7.5-1.1.6zm-.8-2.3c.3-.1.5-.4.7-.6s.4-.5.6-.8.4-.5.6-.7c.2-.3.4-.5.5-.8h.1c0 .3-.2.6-.3.9l-.6.9c-.2.3-.5.5-.7.8-.2.2-.5.4-.8.5-.1-.1-.1-.2-.1-.2zm-.5-2.8c.2-.2.5-.4.7-.6s.4-.4.6-.7c.2-.2.4-.5.6-.7h.1c-.1.3-.3.6-.5.8-.2.3-.4.5-.6.7s-.4.4-.7.6c-.2.2-.5.4-.8.5 0 0-.1 0-.1-.1.3-.2.5-.3.7-.5zm-3.9-3.3l.8-.8c.3-.3.6-.5.9-.7.6-.4 1.2-.8 1.9-1.1 0 0 .1 0 0 .1l-3.6 2.5c0 .1-.1 0 0 0zm-1.3-2.1c.3-.3.5-.5.8-.7.6-.4 1.4-.7 2.1-1 0 0 .1 0 0 .1-.6.4-1.3.7-1.9 1.1l-.9.6c-.3.2-.5.5-.8.8 0 0-.1 0 0 0 .2-.4.4-.7.7-.9zm-1.9-1.1c.2-.3.5-.5.8-.7.5-.4 1.1-.7 1.8-.9 0 0 .1.1 0 .1-.6.3-1.2.7-1.7 1.1-.3.2-.5.4-.8.6s-.5.5-.8.7c.2-.4.5-.6.7-.9zm-1.3-1.2c.3-.2.5-.4.8-.5.3-.2.5-.3.8-.4 0 0 .1 0 0 .1-.5.3-1 .7-1.5 1.1-.5.3-.8.8-1.2 1.2.2-.7.6-1.2 1.1-1.5zm-1.8-.5c.5-.4 1-.7 1.6-.9 0 0 .1.1 0 .1-.5.2-1 .6-1.5 1s-.8.8-1.2 1.3c0 0-.1 0 0 0 .3-.6.7-1.1 1.1-1.5zm-2.4.9c.1-.1.1-.2.2-.3l.6-.6c.4-.4.9-.7 1.4-.9 0 0 .1 0 0 .1a6.42 6.42 0 0 0-1.3 1c-.2.2-.4.4-.5.6-.1.1-.2.2-.2.3-.1.1-.1.2-.2.3h-.1c0-.3.1-.4.1-.5zm-1.4 0c.1-.2.3-.3.5-.5s.3-.3.5-.4.4-.3.6-.4c0 0 .1 0 0 .1-.2.1-.4.3-.5.5l-.5.5-.5.5-.5.5s-.1 0 0 0c.1-.5.3-.6.4-.8z" class="B"/><path d="M536.1 446.5c.1 2-5.5 2.4-7.8 1.1-.7-.4-2.8-2.2-5.3-4.5l-13.1-12.4-5.8 2.5-23.6 8.6-15.8-30.6 26.6-10.4 5.9-2.2c.1 0 .2-.1.4-.1 8.7-3.2 15.9-5.5 16.6-5 2 1.4 21.8 51.1 21.9 53z" class="J"/><path d="M536.1 446.5c.1 2-5.5 2.4-7.8 1.1-.7-.4-2.8-2.2-5.3-4.5 5.8-.7-21.7-39.4-25.4-44.6 8.7-3.2 15.9-5.5 16.6-5 2 1.4 21.8 51.1 21.9 53z" class="B"/><path d="M498.9 438.7s-61.1 12.8-83.5 8.4c-10.7-2.1-18.2-16.1-12.8-26.5 5-9.8 34.6-19.2 43-24.9 2.7-1.8 2.5-9 2.5-9l21.8.1s7.5 12.5 4.1 18.4c-.1.1-.1.2-.2.3l9.9-3.6 15.2 36.8z" class="F"/><path d="M485.8 422c-2.3-5.3-4.9-10.5-7.3-15.8 0-.1-.2 0-.2.1l6.6 16c2.3 5.3 4.9 10.5 7.3 15.8.1.1.3.1.2-.1l-6.6-16zM474 405.8c-1.5.8-3 1.8-4.5 2.8l-4.4 2.6c-3 1.7-6.1 3.3-9.2 4.8a148.76 148.76 0 0 1-19.4 7.9c-3.7 1.2-7.4 2.4-11.2 3.3-.1 0 0 .1 0 .1l8.3-1.9c-1.5.9-2.9 1.8-4.3 2.7-.1 0 0 .2.1.1l4.8-2.7c.1-.1.1-.2 0-.2.5-.1.9-.2 1.4-.4 3.4-1 6.7-2.1 10-3.3 6.5-2.5 12.8-5.5 18.8-9.1 1.7-1 3.4-2 5-3.1s3.3-2.1 4.8-3.4c.1-.1 0-.2-.2-.2z" class="B"/><path d="M559.3 454.5c.1 2-5.5 2.4-7.8 1.1-.7-.4-2.8-2.2-5.3-4.5l-13.1-12.4-5.8 2.5-23.6 8.6-15.8-30.6 26.6-10.4 5.9-2.2c.1 0 .2-.1.4-.1 8.7-3.2 15.9-5.5 16.6-5 2 1.3 21.8 51 21.9 53z" class="J"/><path d="M559.3 454.5c.1 2-5.5 2.4-7.8 1.1-.7-.4-2.8-2.2-5.3-4.5 5.8-.7-21.7-39.4-25.4-44.6 8.7-3.2 15.9-5.5 16.6-5 2 1.3 21.8 51 21.9 53z" class="B"/><path d="M455.6 386.7l37.5.1s7.6 20.4 4.2 26.3c-3.4 6-38.1 13.9-38.1 13.9l47.8-17.2 15.1 36.7s-58 11.5-88.5 7.8c-11.5-1.4-18.4-16.5-11.5-27.9 7.3-12 33.3-28.1 33.3-28.1l.2-11.6z" class="F"/><g class="B"><path d="M505.8 409.8c-14.7 6.4-29.4 12.4-44.5 17.7l-6.3 2.2c-2.2.7-4.3 1.6-6.6 2.2-.1 0-.1.2.1.2 1.9-.7 3.9-1.2 5.9-1.8l5.7-1.8c.8-.3 1.6-.5 2.5-.8-.2.1-.3.2-.5.3-.8.5-1.5 1-2.3 1.5-1.5 1-3 2.3-4.6 3.2-.1.1 0 .2.1.1 1.5-1 3.3-1.8 4.8-2.8.8-.5 1.5-1 2.3-1.5.7-.5 1.4-.9 2-1.5l7.2-2.5c7.5-2.7 15-5.6 22.3-8.8 4.1-1.8 8.2-3.6 12.2-5.6.1 0-.1-.4-.3-.3zm4 19.8c-2.3-5.3-4.9-10.5-7.3-15.8 0-.1-.2 0-.2.1l6.6 16c2.3 5.3 4.9 10.5 7.3 15.8.1.1.3.1.2-.1-2.1-5.3-4.2-10.7-6.6-16zm-55-30.8c-4.2 2.2-8.1 4.9-12 7.6-3.8 2.7-7.5 5.6-11 8.7-1.8 1.6-3.5 3.2-5.2 4.8-1.6 1.6-3.1 3.3-4.4 5.1-2.3 3.3-3.6 7.3-3.3 11.4.1 2.1.6 4.3 1.4 6.3s2 3.7 3.4 5.4c.1.1.2 0 .1-.1-1.3-1.5-2.2-3.3-2.8-5.2-.6-1.8-1-3.6-1.1-5.5-.1-3.9.8-7.7 2.8-11 2.4-3.8 5.8-6.9 9.1-9.9 3.4-3.1 6.9-6 10.6-8.7l6.3-4.5c2.1-1.5 4.3-2.9 6.3-4.4.1.1 0-.1-.2 0z"/><path d="M465.7 400.5c-3-1.1-6.4-1.6-9.5-2l-9.6-.8c-.1 0-.1.1 0 .1 3.3.3 6.5.8 9.7 1.4l9.4 1.6c.1 0 .1-.3 0-.3zm22.8 2.2c-2-.1-4-.3-6-.7-1.6-.3-3.3-.5-4.7-1.6-2.6-2-3.6-5.6-4.1-8.7 0-.1-.1-.1-.1 0 .4 3.4.5 7.3 3.4 9.7 1.5 1.2 3.2 1.5 5.1 1.7 2.1.2 4.3 0 6.4-.3.1 0 .1-.1 0-.1zm6.7 4.2c-.1-2-.5-3.9-.9-5.9s-1-4-1.5-5.9l-2.3-6.5c0-.1-.2 0-.1 0 1.2 3.6 2.2 7.3 3.1 11.1.4 1.8.8 3.7 1.1 5.6.3 1.8.5 3.7-.1 5.4-.5 1.8-1.6 3.4-3.1 4.6 2.6-2 4-5.2 3.8-8.4zm6.2 11.2c-2.5.6-5 1.4-7.5 2.2l-7.5 2.3-15 4.8-8.5 2.9c-.1 0 0 .2 0 .1a745.25 745.25 0 0 0 30-9.3l8.5-3c.1.1.1 0 0 0zm-57.2-76.2l-1.9-6.2c-1-3-1.8-6-2.4-9-.9-5.1-1.6-11.2 2.4-15.2 1.9-1.8 4.3-3 6.7-3.8 2.5-.9 5.3-1.6 8-.9 1.1.3 2 .8 2.8 1.5 1.9.2 3.8.5 5.5 1.3 2.1.5 3.8 2.3 5 4 1.4 2 2.4 4.3 3.3 6.7.8 2.2 1.4 4.3 1.4 6.7-.1 2-.6 4-1 6-.5 2.4-.9 4.8-.6 7.3 0 .1-.1.1-.1 0-.7-3.9.8-7.8 1.2-11.6.2-2.2 0-4.4-.6-6.5-.8-2.4-1.7-4.8-2.9-7-1-1.9-2.5-3.9-4.5-5 0 0 .1 0 .1.1 2.3 1.5 3.6 4 4.7 6.5 1.2 2.7 2.1 5.6 2.5 8.6.3 2.7 0 5.4-.5 8.1-.4 2.7-.9 5.4-.6 8.1.3 2.9 1.5 5.5 2.8 8 1.2 2.5 2.6 4.9 3.2 7.6.5 2.5.4 5-.6 7.3-1.8 4.3-6.8 8.3-11.6 6.3-1.2-.5-2.3-1.3-3.3-2.1-1.1-.8-2.2-1.8-3.2-2.7-2.1-2-4-4.3-5.8-6.7-3.4-4.8-6.1-10.1-8.4-15.4-.6-1.3-1.1-2.7-1.7-4 1 3.1 2.2 6.1 3.5 9.1 2.5 5.3 5.4 10.7 9.3 15.1 1 1.1 2.1 2.2 3.3 3.2 1.3 1.1 2.6 2.1 3.9 3.1.1.1 0 .2-.1.1-2.4-1.4-4.6-3.3-6.5-5.3-2-2.1-3.8-4.4-5.3-6.9-3.5-5.3-6-10.8-8-16.4z"/></g><g class="J"><path d="M459.2 353.2c-7 17-18.5 34.1-22.4 35.7-5.4 2.2-31.3-11.6-37.9-14.4-2.7-1.1 10.5-21.2 13.1-19.5 6.5 4.2 20.1 10.6 20.4 10.8.7.4 15.6-13.8 19.9-18.2 9.3-9.9 10.4-2.8 6.9 5.6z"/><path d="M416.8 359.1s-3.9-5.2-6.2-7.1c-2.2-1.9-13.2-6-14.2-3.7-1.3 3 4.5 6.6 7.6 8 0 0-3 6.9.6 10.4 3.8 3.5 12.2-7.6 12.2-7.6z"/><path d="M400.9 375.5c-2.3-.9-12.6-6.2-15.1-8.3s-9.4-8.7-7.9-10.8c1.4-2.1 3.6-.3 3.6-.3s-2.4-3.2-.8-5.2 4.9.9 4.9.9-2.3-3.5-.5-5.4 4.6 1.6 4.6 1.6-2.2-3.1-.1-4c2.5-1.1 6 5.1 8.9 7.2.7.5 14.3 8.8 14.3 8.8l-11.9 15.5z"/></g><path d="M389.3 347.6c2.5 4.6 4.5 6.1 9 8.6.1 0 0 .2-.1.1-4.6-2-7.3-3.6-9.1-8.6-.1-.3.1-.3.2-.1zm-4 3.7c3.1 4.5 5.1 6.2 9.7 9.1.1 0 0 .2-.1.1-4.7-2.5-7.3-4.1-9.8-9-.1-.2 0-.4.2-.2zm-3.6 4.9c3.3 4.1 5.4 6.1 10.2 8.4.1.1 0 .2-.1.2-5.1-1.8-7.8-4.3-10.3-8.4-.1-.4 0-.5.2-.2zm14.7-7c.8 3.6 4.9 5.2 7.9 6.7.2.1.2.3.1.5-1.1 3-1.7 7.5.2 10.2.1.1 0 .2-.1.1-2.5-2.7-2.2-7.1-.8-10.3-3.1-1.5-7.2-3.3-7.3-7.2z" class="B"/><use xlink:href="#G" class="H"/><use xlink:href="#G" class="E"/><path d="M443.2 354.2c1 1.2 1.8 2.5 2.7 3.8l2.5 3.6 4.9 7.7s0 .1-.1.1L448 362l-2.5-3.8-2.3-4c-.1 0 0 0 0 0z" class="B"/><path d="M496.8 394.9c-1.5 1-51.7.4-51.7.4l2-19s-4.2-4.4-4.3-9.8c-.2-7.1 8.1-20.3 8.9-21.2 3.2-3.7 6.5-5 10.2-4.2 15.5 3.6 34.9 53.8 34.9 53.8z" class="H"/><path d="M459.3 372.8c-1.9.2-3.8.5-5.6 1.1l-2.7 1c-.4.2-.9.3-1.4.5s-1 .3-1.5.3v.1h1.4l1.3-.3 2.8-.9 5.7-1.5c.1-.1.1-.3 0-.3zm4.7 2.2l-4.7-.4-2.3.1c-.4 0-.7.1-1.1.1-.4.1-.8.2-1.2.2v.1h1.2 1.2 2.3 4.7c-.1 0-.1-.1-.1-.1z" class="B"/><path d="M462.1 342.7c-.1.9-3.7 7-7.6 7.2-1.3.1-2-7-2-7l-.2-.5-2.4-7.1 9.2-7.3c0-.1 3.1 14.3 3 14.7z" class="J"/><path d="M449.9 335.2l2.4 7.1c2-1 6.2-3.8 7.8-9.5l-1-4.9-1.2.9-8 6.4z" class="B"/><path d="M437.6 326.1c.3 13.2 8.3 14.5 11.1 14.5 2.6-.1 11.4-.6 12.5-13.8s-5.2-17.2-11.1-17.4-12.8 3.5-12.5 16.7z" class="J"/><g class="B"><path d="M439.2 324.4c.3-.1.6-.2.8-.4.3-.1.6-.2.8-.5.1-.2 0-.4-.1-.6-.4-.3-.8-.2-1.2 0s-.7.4-.9.8c-.3.4.2.8.6.7zm9.2-.3c-.3 0-.6 0-.9-.1-.3 0-.6 0-.9-.3-.2-.1-.2-.4-.1-.6.2-.4.7-.4 1.1-.4.5 0 .8.2 1.1.5.4.4.1.9-.3.9zm-2 2.1s.1.1 0 0c.1 1 .3 2 1.1 2.2v.1c-1-.1-1.2-1.4-1.1-2.3z"/><path d="M447.1 325.2c1.4-.2 1.8 2.7.4 2.9-1.3.2-1.6-2.7-.4-2.9z"/><path d="M447.7 325.3c.3.1.5.4.9.4s.6-.3.8-.7h.1c.1.6-.1 1.1-.7 1.3-.5.1-1-.3-1.2-.9-.1 0 0-.1.1-.1zm-6.3 1.2s0 .1 0 0c.1 1 .1 2-.7 2.4 0 0 0 .1 0 0 1-.2 1-1.5.7-2.4z"/><path d="M440.5 325.7c-1.5.1-1.2 3 .1 2.9 1.4-.1 1.2-2.9-.1-2.9z"/><path d="M439.9 325.9c-.2.2-.4.5-.7.5s-.6-.2-.8-.5c0 .6.3 1.1.8 1.2s.8-.4.9-1c0-.1-.1-.2-.2-.2zm7.5 8.2c-.2.2-.3.6-.7.6-.3.1-.7 0-1-.1 0 0-.1 0 0 .1.3.3.8.4 1.2.3.4-.2.6-.5.5-.9.1-.1.1-.1 0 0zm-4.1-3s-.1 1.4 0 2c0 .1.2.1.4.1 1.1.1 2.2-.4 2.8-1.4 0-.1 0-.1-.1-.1-.8.7-1.7.9-2.7 1.1-.1-.2.2-2.3.1-2.3-.3 0-1 .3-1.4.5 0-2.8.5-5.6.5-8.4 0-.1-.1-.1-.2 0-.7 2.9-.8 6.2-.9 9.1 0 .1 1.2-.5 1.5-.6z"/><path d="M444 332.9s.6.7 1.4 1c.3.1.6.1.9 0 .7-.2.6-.8.5-1.4-.1-.4-.4-.8-.4-.8s-.9 1-2.4 1.2z"/></g><path d="M445.4 333.8c.3.1.6.1.9 0 .7-.2.6-.8.5-1.4-.7.2-1.4.7-1.4 1.4z" class="Q"/><path d="M460.6 326.4c-1.4 0-5.5-3.5-6.2-10.4 0 0 1.1 6.1 1.6 7s-2.3-2-2.9-7.5c0 0-2.9 2.5-5.4 3.5-2.6 1-4.2 1.1-4.4.9s3.5-1.7 4.5-3c0 0-6.7 3.9-9.9 4.4-.4.1-.7-6.9 4-10.6s12-1.6 14.3.3c0 0 2.5.1 5.5 3.6 3.1 3.3.5 11.7-1.1 11.8z" class="B"/><path d="M459.1 327.8s2.4-4.4 4.4-3.6.5 7-1.6 8.1-3.1-.9-3.1-.9l.3-3.6z" class="J"/><path d="M463 326h0c-1.4.8-2.1 2.4-2.5 3.9.4-.6 1-1 1.8-.5v.1c-.6-.1-1.1.1-1.5.6-.3.4-.4.9-.6 1.3-.1.1-.3.1-.3-.1-.2-2 1.1-4.9 3.1-5.3z" class="B"/><path d="M433.8 369s-18.8 9.8-41.7 9.8c-23.8 0-41.3-9.7-41.3-9.7v-16.2h83V369z" class="G"/><path d="M466.5 356.2c-7.2 16.9-16.5 31-20.5 32.5-5.5 2.1-25.4 1.6-32.1.7-2.9-.4-.1-22.7 2.9-22.3 7.8 1 22.3 1 22.7 1.2.6.4 15.8-13.6 20.1-17.9 9.6-9.7 10.5-2.6 6.9 5.8z" class="J"/><path d="M448 361.3l-6.1 5.8c-.5.5-1.1.9-1.7 1.3-.2.1-.3.2-.7.3h-.5-1.1l-4.2-.2-8.4-.5-8.4-.7 8.4.2 8.4.4 4.2.2 1.1.1h.5s.2-.1.3-.1l1.7-1.2 6.5-5.6z" class="B"/><g class="J"><path d="M400.3 367.3c1.5-.4 1.3-1.1-1.2-2.3s-13.2-3.5-12-7.2 16.2-.1 20.2 2.2c4 2.2 9.6 7.2 9.6 7.2-3.1-.2-10.5.3-16.6.1z"/><path d="M414 389.4c-8.8-.4-19.8-.8-27.9-6.4-1.6-1.1-1.9-2.5-1.9-2.5-3.6-2.4-3.6-4.9-3.6-4.9-2.7-3.3-2.3-5.8-2.3-5.8s-4.2-2.9-2.9-5.8c1.5-3.2 7.2 1.5 11.9 2.2 10.8 1.6 26.5.7 29.7.9l-3 22.3z"/></g><g class="B"><path d="M397.4 375.8c-3.2-.5-6.3-.9-9.4-1.9-3.4-1-6.4-2.6-9.6-4.1-.1 0-.2.1-.1.1 5.3 3.7 12.6 5.8 19 6 .2.1.2 0 .1-.1z"/><path d="M397.4 382.5c-3-.7-8.4-1.9-16.7-6.9 0 0-.1 0 0 0 5 4 10.5 6.2 16.7 7 .2 0 .2-.1 0-.1zm-.1 3.5c-5.1-1.3-8.2-2.8-13.1-5.5 0 0-.1 0 0 0 5.3 3.6 7.6 4.3 13.1 5.6.2.2.2 0 0-.1z"/></g><path d="M459.3 375.9L448 358.6s4.7-5.1 11.6-10.9 11-3.7 8 8.1c-3 11.7-8.3 20.1-8.3 20.1z" class="H"/><g class="B"><path d="M450.5 356.9c1 1.2 1.8 2.5 2.7 3.8l2.5 3.7 4.8 7.8s0 .1-.1.1l-5.1-7.5-2.4-3.8-2.4-4.1c-.1 0 0 0 0 0zm7.2 16.6c.1.1 1.6 2.3 1.6 2.3l3.7-7.5c1.2-2.6 2.2-5.3 3.1-8.1l1.4-4.7h.1l-1 4.2.8-2c0-.1.1 0 .1 0-.2 1-.6 2-1.1 2.9-1.1 3.9-2.7 7.8-4.6 11.4-.7 1.4-1.6 3-2.5 4.3 0 0-1.6-2.7-1.6-2.8-.1 0 0-.1 0 0zm-8.4-16.6c.5-.6 1.1-1.1 1.6-1.6l.3-.3c.5-.8 1.1-1.6 1.7-2.3h0l-1.2 1.8a28.48 28.48 0 0 1 2.6-2.3h0l-3.2 3.3-3.1 3.1 1 1.8c0 .1 0 .1-.1 0l-1.3-1.9c.2-.1 1.2-1.2 1.7-1.6zM238.1 138c0 13.8 11.3 25 25.2 25s25.2-11.2 25.2-25-11.3-25-25.2-25c-14 0-25.2 11.2-25.2 25zm13.4 0c0-6.4 5.3-11.7 11.8-11.7A11.65 11.65 0 0 1 275 138c0 6.5-5.3 11.6-11.8 11.6s-11.7-5.2-11.7-11.6z"/><path d="M258.4 114.1h9.7l-.5-6.8H259zm18.5 3.2l6.8 6.8 4.5-5.2-6.1-6zm10.7 15.2v9.6l6.9-.5V133zm-3.3 18.3l-6.8 6.7 5.2 4.5 6.1-6.1zM269 161.4h-9.7l.5 6.8h8.6zm-18.5-3.2l-6.8-6.8-4.5 5.2 6.1 6zM239.8 143v-9.6l-6.9.5v8.5zm3.3-18.3l6.8-6.8-5.2-4.4-6.1 6zm25.9 7.7l-7.8-2.1-5.7 5.6 2.1 7.7 7.8 2.1 5.7-5.6-2.1-7.7zm-5.7 8.1c-1.4 0-2.6-1.1-2.6-2.5s1.1-2.5 2.6-2.5c1.4 0 2.6 1.1 2.6 2.5-.1 1.4-1.2 2.5-2.6 2.5z"/></g><g class="G"><path d="M301.9 102.8c3.9.4 7.4-2.5 7.7-6.3.4-3.9-2.5-7.3-6.4-7.6-3.9-.4-7.3 2.5-7.7 6.3s2.5 7.2 6.4 7.6zm-5.6-7.6c.3-3.4 3.3-5.9 6.8-5.6 3.4.3 5.9 3.3 5.6 6.7s-3.3 5.9-6.8 5.6c-3.4-.3-5.9-3.3-5.6-6.7zm5.6 7.6c3.9.4 7.4-2.5 7.7-6.3.4-3.9-2.5-7.3-6.4-7.6-3.9-.4-7.3 2.5-7.7 6.3s2.5 7.2 6.4 7.6zm-5.6-7.6c.3-3.4 3.3-5.9 6.8-5.6 3.4.3 5.9 3.3 5.6 6.7s-3.3 5.9-6.8 5.6c-3.4-.3-5.9-3.3-5.6-6.7zm5.6 7.6c3.9.4 7.4-2.5 7.7-6.3.4-3.9-2.5-7.3-6.4-7.6-3.9-.4-7.3 2.5-7.7 6.3s2.5 7.2 6.4 7.6zm-5.6-7.6c.3-3.4 3.3-5.9 6.8-5.6 3.4.3 5.9 3.3 5.6 6.7s-3.3 5.9-6.8 5.6c-3.4-.3-5.9-3.3-5.6-6.7zm4.9 15.3c8.2.8 15.5-5.2 16.3-13.4.8-8.1-5.3-15.3-13.5-16.1s-15.5 5.2-16.3 13.4c-.8 8.1 5.2 15.4 13.5 16.1zM294.4 95c.4-4.5 4.4-7.7 8.9-7.3s7.8 4.4 7.4 8.8c-.4 4.5-4.4 7.7-8.9 7.3s-7.8-4.3-7.4-8.8zm1.1.1c-.4 3.9 2.5 7.3 6.4 7.6 3.9.4 7.4-2.5 7.7-6.3.4-3.9-2.5-7.3-6.4-7.6-3.9-.4-7.4 2.5-7.7 6.3zm.8.1c.3-3.4 3.3-5.9 6.8-5.6 3.4.3 5.9 3.3 5.6 6.7s-3.3 5.9-6.8 5.6c-3.4-.3-5.9-3.3-5.6-6.7zm5.6 7.6c3.9.4 7.4-2.5 7.7-6.3.4-3.9-2.5-7.3-6.4-7.6-3.9-.4-7.3 2.5-7.7 6.3s2.5 7.2 6.4 7.6zm-5.6-7.6c.3-3.4 3.3-5.9 6.8-5.6 3.4.3 5.9 3.3 5.6 6.7s-3.3 5.9-6.8 5.6c-3.4-.3-5.9-3.3-5.6-6.7zm5.6 7.6c3.9.4 7.4-2.5 7.7-6.3.4-3.9-2.5-7.3-6.4-7.6-3.9-.4-7.3 2.5-7.7 6.3s2.5 7.2 6.4 7.6zm-5.6-7.6c.3-3.4 3.3-5.9 6.8-5.6 3.4.3 5.9 3.3 5.6 6.7s-3.3 5.9-6.8 5.6c-3.4-.3-5.9-3.3-5.6-6.7z"/><path d="M301 81.4l5.7.5.1-4-5.1-.5zm10.7 2.9l3.7 4.4 2.9-2.8L315 82zm5.5 9.6l-.5 5.6 4.1.1.4-5zm-2.9 10.6l-4.5 3.6 2.9 2.9 3.9-3.2zm-9.7 5.4l-5.7-.5-.1 4 5.1.5zm-10.7-2.9l-3.7-4.4-2.9 2.8 3.3 3.9zm-5.5-9.6l.5-5.6-4-.1-.5 5.1zm3-10.6l4.4-3.6-2.9-2.9-3.9 3.2z"/></g><g class="M"><path d="M233.2 102.5c4.7.4 9-3 9.4-7.7s-3.1-8.9-7.8-9.3-8.9 3-9.4 7.7 3 8.9 7.8 9.3zm-6.8-9.2c.4-4.1 4.1-7.2 8.2-6.8 4.2.4 7.2 4 6.8 8.2-.4 4.1-4.1 7.2-8.2 6.8s-7.2-4-6.8-8.2zm6.8 9.2c4.7.4 9-3 9.4-7.7s-3.1-8.9-7.8-9.3-8.9 3-9.4 7.7 3 8.9 7.8 9.3zm-6.8-9.2c.4-4.1 4.1-7.2 8.2-6.8 4.2.4 7.2 4 6.8 8.2-.4 4.1-4.1 7.2-8.2 6.8s-7.2-4-6.8-8.2zm6.8 9.2c4.7.4 9-3 9.4-7.7s-3.1-8.9-7.8-9.3-8.9 3-9.4 7.7 3 8.9 7.8 9.3zm-6.8-9.2c.4-4.1 4.1-7.2 8.2-6.8 4.2.4 7.2 4 6.8 8.2-.4 4.1-4.1 7.2-8.2 6.8s-7.2-4-6.8-8.2zm5.9 18.7c10 .9 18.9-6.4 19.8-16.3s-6.4-18.7-16.4-19.6-18.9 6.4-19.8 16.3c-1 9.9 6.4 18.6 16.4 19.6zM224 93.1c.5-5.4 5.4-9.4 10.8-8.9 5.5.5 9.5 5.3 9 10.7s-5.4 9.4-10.9 8.9c-5.3-.5-9.4-5.3-8.9-10.7zm1.4.1c-.4 4.7 3 8.9 7.8 9.3 4.7.4 9-3 9.4-7.7s-3.1-8.9-7.8-9.3c-4.8-.4-9 3-9.4 7.7zm1 .1c.4-4.1 4.1-7.2 8.2-6.8 4.2.4 7.2 4 6.8 8.2-.4 4.1-4.1 7.2-8.2 6.8s-7.2-4-6.8-8.2zm6.8 9.2c4.7.4 9-3 9.4-7.7s-3.1-8.9-7.8-9.3-8.9 3-9.4 7.7 3 8.9 7.8 9.3zm-6.8-9.2c.4-4.1 4.1-7.2 8.2-6.8 4.2.4 7.2 4 6.8 8.2-.4 4.1-4.1 7.2-8.2 6.8s-7.2-4-6.8-8.2zm6.8 9.2c4.7.4 9-3 9.4-7.7s-3.1-8.9-7.8-9.3-8.9 3-9.4 7.7 3 8.9 7.8 9.3zm-6.8-9.2c.4-4.1 4.1-7.2 8.2-6.8 4.2.4 7.2 4 6.8 8.2-.4 4.1-4.1 7.2-8.2 6.8s-7.2-4-6.8-8.2z"/><path d="M232.1 76.5l6.9.7.1-5-6.2-.5zm13 3.6l4.5 5.3 3.6-3.4-4-4.8zm6.7 11.6l-.6 6.9 4.9.1.6-6.2zm-3.6 12.9l-5.4 4.4 3.5 3.5 4.8-3.9zm-11.7 6.6l-7-.6-.1 4.9 6.2.6zm-13.1-3.5l-4.4-5.4-3.6 3.5 4 4.7zM216.8 96l.6-6.8-5-.1-.5 6.1zm3.5-12.9l5.4-4.4-3.4-3.5-4.8 3.9z"/></g><path d="M276.5 406.9H271l-43.7-203.8h-46.2l26.4 203.8h-5.4l-27-208.6h56.6z" class="L"/><path opacity=".6" d="M276.5 406.9H271l-43.7-203.8h-46.2l26.4 203.8h-5.4l-27-208.6h56.6z"/><path d="M171.6 193.5h62.7v5.6h-62.7z" class="L"/><path opacity=".4" d="M171.6 193.5h62.7v5.6h-62.7z"/><g class="L"><path d="M231.7 199.1l-22.1 218.8h-5.4l21.5-213.5h-46.1l-38.9 213.5h-5.4l39.8-218.8z"/><path d="M171.4 246.1h54.5v5.4h-54.5zm-8.6 43.4h54.5v5.4h-54.5zm-9.3 43.4H213v5.4h-59.5zm-7 43.4h63.3v5.4h-63.3z"/></g><g opacity=".4"><path d="M231.7 199.1l-22.1 218.8h-5.4l21.5-213.5h-46.1l-38.9 213.5h-5.4l39.8-218.8z"/><path d="M171.4 246.1h54.5v5.4h-54.5zm-8.6 43.4h54.5v5.4h-54.5zm-9.3 43.4H213v5.4h-59.5zm-7 43.4h63.3v5.4h-63.3z"/></g><path d="M152.2 270l-18.8 35.5c-1.1 6.7-1.9 12.6-2.1 15.7v.1c-.1 1.2 0 1.9.2 2.2 1.8 1.7 55.1 12 57 11.8 2-.3 1.4-5.9-.4-8s-20.4-15.1-20.4-15.1l18.5-35.5-34-6.7z" class="K"/><path d="M136.9 298.4l-3.5 7.1c-1.1 6.7-1.9 12.6-2.1 15.7v.1c0 1.2.1 1.9.2 2.2 1.8 1.7 55.1 12 57 11.8 2-.3 1.4-5.9-.4-8s-20.4-15.1-20.4-15.1l3.6-7.2-34.4-6.6z" class="C"/><path d="M171 312.7c-3.5-1.2-7.9-1.3-11 .9-.1.1 0 .3.1.2 3.7-.6 7.1-.8 10.8-.7.3 0 .4-.4.1-.4zm2.4 1.9c-3.5-1.2-7.9-1.3-11 .9-.1.1 0 .3.1.2 3.7-.6 7.1-.8 10.8-.7.2 0 .3-.3.1-.4zm2.3 1.9c-3.5-1.2-7.9-1.3-11 .9-.1.1 0 .3.1.2 3.7-.6 7.1-.8 10.8-.7.3.1.3-.3.1-.4z" class="B"/><path d="M188.5 335.2c-2 .3-55.3-10.1-57-11.8-.7-.6.4-8.5 1.9-17.9 0-.1 0-.2.1-.3l34.5 6.3-.1.6s18.6 13.1 20.4 15.1c1.6 2.1 2.2 7.8.2 8z" class="F"/><path d="M133.4 305.2l-.1.3c-1.5 9.4-2.6 17.3-1.9 17.9.8.8 12.3 3.3 24.8 5.9 14.9 3 31.2 6 32.3 5.9 2-.3 1.4-5.9-.4-8s-20.4-15.1-20.4-15.1l.1-.6-11.5-2.1-22.9-4.2z" class="L"/><path d="M188.3 333c-8.9-2-45.2-9-54.2-10.3-.1 0-.1 0 0 .1 8.8 2.1 45.1 8.9 54.1 10.4.2 0 .3-.1.1-.2z" class="B"/><path d="M156.4 309.4l-.2 19.9c14.9 3 31.2 6 32.3 5.9 2-.3 1.4-5.9-.4-8s-20.4-15.1-20.4-15.1l.1-.6-11.4-2.1z" class="E"/><path d="M138.2 293.4l39.5 4.6s41.9-64.4 37.7-86.6c-2.3-12.2-43.9-31.5-43.9-31.5l-4.2-8.5h-29.4s-12 17.6-3.4 34.2c5.8 11.3 37.9 19.9 39.1 23.5 1.5 4.8-35.4 64.3-35.4 64.3z" class="F"/><path d="M143.3 288.3c1-.1 2.1.1 3.1.1l3.5.2 6.7.7a288.09 288.09 0 0 1 13.4 1.8l7.6 1.2c.1 0 .1.2 0 .2l-13.4-1.3c-4.4-.4-8.9-.9-13.3-1.5-1.3-.2-2.5-.3-3.8-.6-1.2-.2-2.6-.3-3.8-.6 0-.1-.1-.2 0-.2zm31-.6c3.5-5.3 22.3-39.2 25.1-45 1.4-2.9 2.8-5.7 4-8.7 1.2-2.9 2.4-5.9 3.2-8.9s1.6-6.2 1-9.2a11.16 11.16 0 0 0-1.8-4.2c-.4-.7-.9-1.3-1.3-1.9-.5-.6-1-1.2-1.6-1.8-4.4-4.5-9.9-7.9-15.4-11-5.6-3.1-11.4-5.7-17.1-8.4l-4.3-2.1c-.7-.4-1.4-.7-2.1-1.2-.7-.4-1.4-.9-1.8-1.6-1.6-2.8-2.3-6-2.6-9.2.4 3.1 1.1 6.3 2.8 9 .4.7 1.1 1.1 1.7 1.5.7.4 1.4.7 2.1 1.1 1.4.7 2.9 1.3 4.3 2 5.8 2.6 11.7 5.2 17.3 8.2 2.8 1.5 5.6 3.1 8.2 4.9s5.2 3.8 7.5 6.1c.6.6 1.1 1.2 1.6 1.8.5.7 1 1.3 1.4 2 .9 1.4 1.6 2.9 1.9 4.5.4 1.6.3 3.3.1 4.9-.2.8-.3 1.6-.4 2.4l-.6 2.3c-.9 3.1-2.1 6.1-3.3 9s-2.6 5.8-4 8.7c-2.9 5.9-22.3 39.5-25.9 44.8z" class="B"/><path d="M172.8 322.6l.3 35.5c0 6.8.2 12.7.5 15.8.1 1.2.3 1.9.5 2.1 2 1.4 56.3 2.8 58.2 2.2s.4-6.1-1.7-7.8-22.6-11.6-22.6-11.6l-.6-35.5-34.6-.7z" class="K"/><path d="M173.1 350.8l.1 7.3c0 6.8.2 12.7.5 15.8.2 1.1.4 1.9.5 2.1 2 1.4 56.3 2.8 58.2 2.2s.4-6.1-1.7-7.8-22.6-11.6-22.6-11.6v-7.4l-35-.6z" class="C"/><path d="M211.4 359c-3.6-.6-8 .1-10.7 2.7-.1.1 0 .2.2.2 3.5-1.2 6.8-2 10.5-2.4.3-.1.3-.5 0-.5zm2.7 1.5c-3.6-.6-8 .1-10.7 2.7-.1.1 0 .2.2.2 3.5-1.2 6.8-2 10.5-2.4.2-.1.2-.5 0-.5zm2.6 1.5c-3.6-.6-8 .1-10.7 2.7-.1.1 0 .2.2.2 3.5-1.2 6.8-2 10.5-2.4.3-.1.3-.5 0-.5z" class="B"/><path d="M232.4 378.3c-1.9.6-56.2-.8-58.2-2.2-.8-.5-1-8.4-1.1-18v-.3l35 .5v.6s20.5 9.8 22.6 11.6c2.1 1.7 3.6 7.2 1.7 7.8z" class="L"/><path d="M231.8 376.2c-9.1-.5-46.1-1.5-55.1-1.2-.1 0-.1.1 0 .1 9.1.7 46 1.4 55.1 1.3.2-.1.2-.2 0-.2z" class="B"/><path d="M154.9 209s16.1 50.8 16.4 60.1c.2 8-.8 78.2-.8 78.2l40.8.2-4.1-80.1c-1.2-15.5-14.8-58.1-24.5-96h-44s.4 19.9 9.4 34.2c.1.1 4.2 1.9 6.8 3.4z" class="F"/><g class="B"><path d="M172.7 339.8c4.7-.1 9.6-.3 14.3-.2l14 .5c2.6.2 5.3.2 7.9.5.1 0 .1.1 0 .1-4.7.3-9.4.2-14.1.2s-9.4-.1-14-.3l-7.9-.4c-.4-.1-.5-.4-.2-.4zm8.9-144.4c1.5 4.9 2.7 9.8 4 14.7l3.9 14.8c2.5 9.6 5 19.1 6.9 28.8 1.9 9.8 3 19.6 3.3 29.5.2 10.1 0 20.2-.1 30.3l-.3 19.1c0 1.3 0 2.5-.1 3.8 0 .1-.2.1-.2 0-.3-10.1-.1-8.8-.1-18.9l.1-30.3c-.1-10.1-.9-20-2.6-30-1.7-9.7-4.1-19.3-6.6-28.9l-4.3-16.4-4.2-16.5c0-.2.2-.2.3 0zM165 210c-2 0-4.1-.2-6.1-.5-2-.4-3.9-1-5.9-1.6-1.9-.5-3.8-.6-5.8-.9-1.9-.3-3.9-.8-5.6-1.7-.1 0-.2.1-.1.1 1.8.9 3.5 1.7 5.4 2.3s4 .7 5.9 1.2c2 .5 4 1.2 6 1.4s4 .2 6-.1c.3-.1.2-.2.2-.2z"/><path d="M171.4 306.6l-.1-12.5-.1-12.5c-.1-4.2-.1-8.3-.4-12.5-.1-2.1-.5-4.1-1-6.1-.4-2-1-4-1.5-6.1l-6.6-24.1-6.8-24.1 3.9 11.9 3.7 12 6.9 24.1 1.5 6.1c.5 2 .9 4.1 1 6.2.2 4.2.3 8.4.3 12.5l-.8 25.1zm32.5-56.7l-4.4-15.8-4.2-15.9-4.2-15.9-2.1-7.9-2.4-7.9c2.2 5 3.6 10.4 5.2 15.6l4.4 15.9 4 15.9c1.4 5.3 2.6 10.7 3.7 16z"/></g><path d="M173.7 125.5c0 .9 2.8 7.1 6.6 7.7 1.2.2 2.7-6.5 2.7-6.5l.2-.5 3.1-6.6-7-7-1-1-1.6 4.2c0 .1-.1.2-.1.3-.1.1-.1.3-.1.4-.1.3-.3.7-.4 1.1-.1.3-.2.5-.3.8s-.2.6-.3.8c-1 2.9-1.8 5.9-1.8 6.3z" class="K"/><path d="M176.7 115.9c.8 6 4.7 9.2 6.5 10.4l3.1-6.6-7-7-1-1a251.23 251.23 0 0 1-1.6 4.2z" class="B"/><path d="M198 108.8c1.2 12.7-6.2 15-9 15.1-2.5.1-11 .7-13.5-11.8s3-17.1 8.6-17.9c5.7-.8 12.7 1.9 13.9 14.6z" class="K"/><g class="B"><path d="M197.1 106.1c-.3 0-.6-.1-.9-.2s-.6-.1-.9-.3c-.1-.1-.1-.4 0-.6.3-.3.7-.4 1.1-.3s.8.2 1.1.6c.3.3 0 .8-.4.8zm-8.2.7c.3 0 .6-.1.9-.2s.6-.1.8-.4c.1-.1.1-.4 0-.6-.3-.3-.7-.3-1.1-.2s-.7.3-1 .6 0 .8.4.8zm2 3.1c0-.1-.1 0 0 0 0 .9-.1 2-.8 2.3 0 0 0 .1 0 0 .9-.2 1-1.5.8-2.3z"/><path d="M190 109c-1.4 0-1.4 2.8-.1 2.8s1.3-2.8.1-2.8z"/><path d="M189.5 109.1c-.2.2-.5.4-.8.5-.3 0-.6-.3-.8-.5 0 .5.2 1.1.8 1.2.5.1.9-.4 1-1 0-.1-.1-.2-.2-.2zm6 .2s.1.1 0 0c0 .9.2 1.9.9 2.2 0 0 0 .1 0 0-.9 0-1-1.4-.9-2.2z"/><path d="M196.3 108.4c1.4-.1 1.5 2.7.2 2.8s-1.4-2.7-.2-2.8z"/><path d="M196.9 108.6c.2.1.5.4.7.4.3 0 .5-.3.7-.6 0 .5-.1 1.1-.6 1.2s-.8-.3-1-.9c0 0 .1-.2.2-.1zm-6 8c.2.2.4.5.7.5a2.39 2.39 0 0 0 .9-.2h0c-.2.3-.7.5-1.1.4-.3 0-.5-.3-.5-.7-.1 0 0-.1 0 0zm3.6-3.3l.2 1.9c0 .1-.1.1-.4.1-1.1.2-2.2-.2-2.9-1 0-.1 0-.1.1-.1.8.6 1.7.7 2.7.7 0-.2-.4-2.2-.3-2.2.3 0 1 .2 1.4.3l-1.5-8c0-.1.1-.1.2 0 1 2.7 1.5 5.8 1.9 8.6.1.3-1.2-.2-1.4-.3z"/><path d="M194.3 114.9s-.5.9-1.3 1.3c-.3.1-.6.2-1 .2-.7-.1-.8-.7-.8-1.3 0-.5.2-.9.2-.9s1.2.8 2.9.7z"/></g><path d="M193 116.2c-.3.1-.6.2-1 .2-.7-.1-.8-.7-.8-1.3.9 0 1.7.4 1.8 1.1z" class="Q"/><path d="M176.4 113.8c-.6-.8-4.7-5.1-4.9-7.2-.1-1.3 2-4.7 2-4.7l-1.8-1.2 1.6.4-2.4-4 3 2.6.8-4c.3-.8 5.5-5 5.5-5l-1.6 2.7s9.6-3.9 10.8-3.8c3 .3 9.5 5.1 9.5 5.1l-7-1.1s6.8 2.8 8.1 4.1c1.4 1.2 2.2 7.4 2.2 7.4L196 101l2.2 3.5s-5.4.8-7 .8c-3.3-.1-11-2.9-11-2.9s.2 2.9.1 3.8c-.2 1.6-1.8 4.9-1.8 4.9l-.8-2.7-1.3 5.4z" class="B"/><path d="M178.1 112.2s-3.3-3.5-5-2.3c-1.6 1.2 1.3 6.7 3.5 7.1 2.2.5 2.7-1.6 2.7-1.6l-1.2-3.2z" class="K"/><path d="M174 111.5c-.1 0-.1 0 0 0 1.6.4 2.5 1.7 3.3 3-.5-.5-1.2-.7-1.8-.1 0 0 0 .1.1.1.6-.2 1-.2 1.5.2.3.3.6.7.9 1.1.1.1.3 0 .2-.1-.3-1.9-2.2-4.4-4.2-4.2z" class="B"/><path d="M184.2 162.9l-1.4 8.5h-44.9s14.5-36.3 29.1-45c7.3-4.3 13.6-2 16.5 3.4.7 1.4 7.5 16.3 6.9 23-.5 6-6.2 10.1-6.2 10.1z" class="L"/><path d="M183.2 168.4l-.2 1.2h-44.4c.2-.4.3-.8.5-1.2h44.1zm.5-2.8l-.2 1.2h-43.7c.2-.4.4-.8.5-1.2h43.4z" class="C"/><g class="K"><path d="M176.5 136.1c4.7 6.9 24.9 28.9 32.8 28.2 12.4-1.1 25.5-7.3 32.7-10.5 2.3-1-8.2-23-12.4-20.5-5.4 3.2-16.6 7.8-19.9 8.3-2.2.3-16.9-8-27.2-13.8-8.5-4.8-12-.4-6 8.3z"/><path d="M226 135.7l3.7-2.4c.8-.5 1.6-1.2 3.1-2.9 3.7-4.1 15.3-11.8 29.9-6.4 5.6 2.1 6.6 6.9.4 5.8-4.4-.8-7.3-1.7-8.8-1.6 0 0 4.5 5.1 3.5 8.9-.4 1.7-1.6 6.3-3.1 9.8 0 0-.8-.1-1.9-.4 0 0-1.3 4.8-6.8 5.6l-5.9 2.6-14.1-19z"/><path d="M237 127c2.9-.4 9-1 14.2.2 5.8 1.3 16.5 5.5 15.5 9.7-.8 3.1-5 1.9-5 1.9s4.1 2.6 2.8 5.3c-1.2 2.4-4.4 1.3-4.4 1.3s2.2 2 .6 4.1c-1.9 2.5-6.2-2.1-10.4-1.2-1 .2-13.3-21.3-13.3-21.3z"/></g><path d="M248.7 133c2.8.1 9 2 12.9 5.6.1.1.1.2 0 .1-5.2-3-10.6-4.9-12.9-5.7 0 .1 0 0 0 0zm-1.2 5.9c2.4.3 8.7 2.5 12.5 6.4.1.1.1.2 0 .1-5.2-3.5-10.2-5.7-12.5-6.5z" class="B"/><path d="M203.9 139l-8.3 20.4s-13.3-13.5-19.9-22.8-2.9-13.8 7-9.7c10 4.1 21.2 12.1 21.2 12.1z" class="L"/><path d="M199.4 137.8c-.3.7-.6 1.4-1 2l-.9 2.1-1.7 4-3.5 8.1s0 .1.1 0c1.5-2.5 2.7-5.2 3.9-7.9l1.7-4.1.8-2.1.6-2.1h0z" class="B"/><path d="M177.9 139.4l6.5 7.5 3.3 3.8 3.3 3.7c-1.3-1.1-2.4-2.3-3.6-3.5l-3.4-3.7-3.2-3.9-2.9-3.9z"/><path d="M178.4 141.2a23.48 23.48 0 0 0 2.5 1.9c-.3-.1-.5-.2-.7-.3s-.5-.3-.7-.4c-.4-.4-.8-.7-1.1-1.2z"/><path d="M169.2 465.4c.2-2 23-51 25-52.3.8-.5 8.1 2.4 16.9 6.1.1 0 .2.1.3.1 1.8.8 35.1 9.7 35.1 9.7l-14.8 32.1-34.7-10-.5-.3s-17.1 14.9-19.5 16.1c-2.4 1.3-8 .5-7.8-1.5z" class="K"/><path d="M217.7 421.3l-15.2 31.5-5.5-1.6-.5-.3S179.4 465.8 177 467s-8 .4-7.8-1.5c.2-2 23-51 25-52.3.8-.5 8.1 2.4 16.9 6.1.1 0 .2.1.3.1.4.2 2.8.9 6.3 1.9z" class="D"/><path d="M169 465.7c.2-2 23-51.6 25.1-52.9.8-.5 8.2 2.4 17 6.1l-14.6 32s-17.2 15.1-19.6 16.3-8.1.5-7.9-1.5z" class="H"/><g class="B"><path d="M171.3 465.9c4-8.2 19.5-41.7 22.8-50.2 0-.1 0-.1-.1 0-4.2 8.1-19.4 41.7-22.9 50.1 0 .2.1.3.2.1zm8.8-1c1-1.9.9-4.3.3-5.9-.7-1.6-1.8-3.2-3.6-3.9-.1 0-.1.1 0 .1 3 2 4.5 6.2 3.3 9.7-.1 0 0 0 0 0zm14.1-11.1c1.6-3.3 2.2-7.7.4-11-.1-.1-.3 0-.2.1.2 3.7 0 7.1-.6 10.8-.1.2.3.3.4.1zm-2.2 2.1c1.6-3.3 2.2-7.7.4-11-.1-.1-.3 0-.2.1.2 3.7 0 7.1-.6 10.8-.1.2.3.3.4.1zm-2.2 2.1c1.6-3.3 2.2-7.7.4-11-.1-.1-.3 0-.2.1.2 3.7 0 7.1-.6 10.8 0 .2.3.3.4.1zm-2.1 2.1c1.6-3.3 2.2-7.7.4-11-.1-.1-.3 0-.2.1.2 3.7 0 7.1-.6 10.8-.1.2.2.3.4.1zm13.3-38.6c1.7-3.7-4.1-6.4-5.8-2.6-1.7 3.7 4.1 6.3 5.8 2.6z"/><path d="M201.4 461.4c2.2-1 1.8-3.8.8-5.5a18.81 18.81 0 0 0-7.1-6.9c-.1 0-.1 0-.1.1-.3 0-.6.2-.5.5.5 3.1.7 6.5 2.2 9.4.8 1.6 2.7 3.4 4.7 2.4zm-5.2-7.3l-.9-4.6 4.1 4.1a32.57 32.57 0 0 1 1.7 2.2c.8 1.2 2 5.8-1.7 4.4-2.1-.6-2.8-4.3-3.2-6.1z"/><path d="M197.7 440.2c-1.8 2.7-2.3 6.1-3.2 9.1-.1.3.2.5.5.5 0 .1.1.1.1.1 2.9-1.2 5.9-3.6 7.8-6.2 1.1-1.6 1.8-4.3-.2-5.5s-4 .4-5 2zm2.8-1.2c3.9-.9 2.1 3.4 1.3 4.6l-1.9 2.1c-1.4 1.4-3 2.5-4.5 3.7l1.4-4.5c.5-1.7 1.6-5.3 3.7-5.9zm85.1-114.5s-.6 19.2-3.5 28.7l-4.1 2.2s23.9 57.1 22.5 79.1c-.4 7.2-8.1 16.3-16.4 21.5-14.6 9.1-81.7 3.8-81.7 3.8l10.3-42.8s40.4 2.5 41.5.1c1.4-3.1-7.5-27.1-14.7-46.7-.7-2-7.9-9.3-7.1-22.4.8-12.8 6.2-23.5 6.2-23.5h47z"/></g><g class="F"><path d="M221 421.8c9.8-.2 17.8.7 27.7.7h2.8 3.7c.9 0 1.7 0 2.6-.2.8-.2 1.5-.5 2-1.2.7-1 .3-2.2.1-3.3-.5-2.3-1.1-4.6-1.7-6.9-2.5-9.3-5.7-18.3-8.7-27.4l-4.7-14.1-1.2-3.4c-.4-1-1-2-1.5-2.9-1.1-1.9-2-3.7-2.7-5.8-2.7-8.7-.1-17.8 3-26 .4-1.1.8-2.2 1.3-3.3 0-.1.1 0 .1 0-2.8 8.7-6.2 17.7-4.3 27 .4 2.2 1.2 4.3 2.3 6.2.5 1 1.1 2 1.7 3a30.9 30.9 0 0 1 1.4 3.2c1.7 4.6 3.1 9.3 4.7 13.9 3.1 9.2 6.4 18.5 9 27.9l1.8 7.1c.4 1.7 1.3 4.1-.3 5.6-1.1 1.1-2.9 1.2-4.3 1.2h-7.3c-10 0-25.9-.9-27.1-.9-.6-.1-.6-.4-.4-.4zm-11 36.1l3-15a359.5 359.5 0 0 1 3.6-14.9l1.1-4.2c.2-.7.4-1.3.5-2 .2-.7.3-1.4.6-2 0-.1.1 0 .1 0-.1 1.3-.4 2.6-.7 3.8l-.7 3.6-1.6 7.4a354.83 354.83 0 0 1-3.6 14.8l-2.2 8.4c.2.3-.1.2-.1.1z"/><path d="M292.3 394.5l-50.6-18.3-2.1-5.8c-.7-2-7.9-9.3-7.1-22.4.8-12.8 6.2-23.5 6.2-23.5h46.8s-.6 19.2-3.5 28.7l-4.1 2.2c.1 0 8 18.9 14.4 39.1z"/></g><path d="M369.2 467.7c-1.9.6-55.9-1.2-57.9-2.6-.8-.5-1-8.4-.9-17.9v-.3c0-2 .9-34.9.9-34.9l37.8 1.1-3.8 34.5v.6s20.4 9.9 22.4 11.7c1.9 1.8 3.4 7.3 1.5 7.8z" class="K"/><path d="M369.2 467.7c-1.9.6-55.9-1.2-57.9-2.6-.8-.5-1-8.4-.9-17.9v-.3c0-.5 0-3.2.2-7.3L346 441l-.7 6.7v.6s20.4 9.9 22.4 11.7c1.9 1.7 3.4 7.2 1.5 7.7z" class="D"/><path d="M369.6 468c-1.9.6-56.4-1.2-58.5-2.6-.8-.5-1-8.5-.9-18.1l35.2 1.1s20.6 10 22.6 11.8c2 1.7 3.5 7.2 1.6 7.8z" class="H"/><g class="B"><path d="M368.9 465.8c-9.1-.5-46-1.8-55.1-1.6-.1 0-.1.1 0 .1 9 .7 45.9 1.7 55.1 1.7.2-.1.2-.2 0-.2zm-4.4-7.8c-2.2-.2-4.3.8-5.5 2s-2.2 2.9-2.2 4.8c0 .1.1.1.1 0 .6-3.6 4-6.6 7.6-6.8.1.1.1 0 0 0z"/><use xlink:href="#H"/><use xlink:href="#H" x="2.8" y="1.2"/><use xlink:href="#H" x="5.6" y="2.4"/><path d="M357.2 452.9c-3.7-.2-7.9 1-10.3 3.9-.1.1.1.2.2.2 3.4-1.6 6.5-2.8 10.2-3.6.2-.1.2-.5-.1-.5zm-40.8 2.6c-4.1-.1-4.3 6.3-.2 6.4s4.3-6.2.2-6.4zm36.7-15.8c-1.8-1.6-4.2-.2-5.4 1.4-1.9 2.5-3.3 6.1-3.6 9.2 0 .1.1.1.1.1.1.3.4.5.6.3 2.7-1.7 5.7-3.2 7.8-5.7 1.3-1.4 2.2-3.8.5-5.3zm-4.7 7.6l-3.9 2.6 2.2-5.4c.4-.8.9-1.7 1.4-2.4.8-1.2 4.5-4.1 4.8-.1.2 2.2-3 4.3-4.5 5.3z"/><path d="M335 451.4c3.2.6 6.5-.2 9.6-.6.3 0 .4-.4.3-.7 0 0 .1-.1 0-.2-2.2-2.2-5.6-4.1-8.7-4.8-1.9-.4-4.7 0-5 2.4-.3 2.3 1.9 3.6 3.8 3.9zm-2.2-2.2c-2.4-3.2 2.3-3.3 3.7-2.9.9.2 1.8.6 2.6 1 1.8.8 3.4 1.8 5.1 2.7l-4.6.5c-1.7.1-5.5.5-6.8-1.3z"/><path d="M348.3 445.1H306s7.5-57.6 5-61.3c-1.1-1.6-56 3.9-72-13.5-14.7-15.9.3-45.7.3-45.7h45.1s.9 12.8 3.3 17.9c1 2.2 51.4-.9 59.2 13.5 10.5 19 1.4 89.1 1.4 89.1z"/></g><g class="F"><path d="M310.4 437l14.3-.3c4.8 0 9.6.1 14.4.3 1.4.1 5.3.2 6 .3.6 0 1.3 0 2 .2.1 0 .1.1 0 .1-1 .2-11.9.3-14.2.3a341.08 341.08 0 0 1-14.3-.3l-8.1-.3c-.2 0-.2-.3-.1-.3zm-28-98.7l-.5-4.1-.8-9.3c0-.2.3-.2.4 0l.8 7.2.9 7.2c.1.7.4 1.9 1.3 1.9 1.2 0 1.5-1.6 1.6-2.5.3-2.2.2-4.5.1-6.7-.1-2.6-.5-5.1-.7-7.6 0-.1.1-.1.2 0 1 4.9 2.1 10.1 1.2 15.2-.2 1-.6 2-1.6 2.4v.1.4.4.8c0 .2-.3.2-.4 0-.1 0-.1 0-.1-.1-.1-.5 0-1 0-1.5-.6 0-1.1-.3-1.5-.8-.7-1-.7-2-.9-3z"/><path d="M286.9 342c-3.5 2.3-6.7 5.1-9.7 8-.1.1 0 .3.2.2 3.3-2.6 6.7-5.1 9.8-7.8.3-.3 0-.6-.3-.4zm-37 2.4c1 0 1.9 0 2.9-.2l2.5-.6c1.6-.5 3.5-1 4.6-2.2 1.2-1.3 1.9-3 2.6-4.5.8-1.7 1.3-3.5 1.5-5.4 0-.1.1-.1.1 0-.2 1.9-.4 3.8-1 5.7-.3.9-.6 1.8-1.1 2.7-.4.8-.9 1.7-1.5 2.4-1.3 1.4-3.3 2-5.1 2.4a13.69 13.69 0 0 1-5.7 0c0-.1.1-.3.2-.3zm65.7 36.6c-.3-1.1-1-1.8-2.1-2-1.2-.2-2.5-.1-3.7-.1l-8.5.1c-11.1 0-22.3-.3-33.2-2.5-5.3-1.1-10.6-2.5-15.5-4.7-4.2-1.8-8.5-4.3-11.1-8.2-3-4.5-3.3-10.4-3.2-15.6.1-5.7 1-11.3 2.7-16.7.4-1.4.9-2.7 1.5-4.1 0-.1-.1-.2-.1-.1-2.2 5.2-3.7 10.5-4.4 16.1-.3 2.7-.5 5.5-.4 8.2s.3 5.4 1 8c2.9 9.8 13.9 13.9 22.8 16.4 10.7 3 21.9 3.8 32.9 4 5.6.1 11.1 0 16.7-.1 1.1 0 2.8-.3 3.4.8.3.6.4 1.4.5 2l.3 2.4c.2 3 .1 5.9-.1 8.9l-1.2 18-1.6 18.1c-.1 1.5-.3 3-.4 4.4 0 .2.3.2.3 0 1.5-11.9 2.7-23.9 3.4-35.9l.5-8.9c.2-2.7.2-5.7-.5-8.5zm-27.1 2.2c-4.2 0-7.7-.4-11.2-.8a189.44 189.44 0 0 1-10.5-1.5c-6.1-1-12.3-2.2-18-4.5-3.1-1.2-6.1-2.9-8.7-5-.1-.1-.2 0-.1.1 4.3 4.2 9.8 6.7 15.6 8.2 6.6 1.8 13.4 2.8 20.2 3.5 4 .4 8.6.4 12.7.4a.2.2 0 0 0 0-.4z"/></g><path d="M262.3 272.4c-10.7 11.7-25 29-21.4 32.8 9.2 9.9 31.9 18.4 37.3 19.6 3.2.7 12.8-21.3 9.5-22.5-3.8-1.4-23.5-6.2-24.3-7.6-.6-1.1 6.1-14.1 7.1-18.2 2.7-10-3.2-9.6-8.2-4.1z" class="O"/><path d="M282.6 299.8l-9 25.7s-31.5-13-33.5-21.4c-1.2-4.9 11.9-23 21.2-31.7 10.1-9.5 12.1-1.6 9.2 5.8-2.3 5.9-6.7 15.7-6.3 16 .4.2 18.4 5.6 18.4 5.6z" class="R"/><path d="M265.6 298.9c-.8-.1-1.6-.3-2.5-.2.8.4 1.6.6 2.4.8.8.1 1.6.3 2.5.2-.8-.4-1.6-.6-2.4-.8zm-24.2-.4l-.3.6c.7.1 1.3.2 2 .1-.5-.3-1.1-.5-1.7-.7zm31.5 8.4c.1-.8.3-1.6.2-2.5-.4.8-.6 1.6-.8 2.4s-.3 1.6-.2 2.5c.4-.8.6-1.6.8-2.4zM253 292.1c.2-.8.3-1.6.2-2.5-.4.8-.6 1.6-.8 2.4-.1.8-.3 1.6-.2 2.5.4-.8.6-1.6.8-2.4zm14.9-20.2c.7-.5 1.3-1 1.9-1.6-.8.2-1.5.7-2.2 1.1-.7.5-1.3 1-1.9 1.6.8-.2 1.5-.7 2.2-1.1zm.9 47.9c.7-.5 1.3-1 1.9-1.6-.8.2-1.5.7-2.2 1.1-.7.5-1.3 1-1.9 1.6.8-.2 1.5-.6 2.2-1.1zm-18.1-13.7c.7-.5 1.3-1 1.9-1.6-.8.2-1.5.7-2.2 1.1-.7.5-1.3 1-1.9 1.6.7-.2 1.5-.6 2.2-1.1zm10.1 5.7c-.5-.7-1-1.3-1.6-1.9.2.8.7 1.5 1.1 2.2.5.7 1 1.3 1.6 1.9-.3-.8-.7-1.5-1.1-2.2zm2.3-27.7c-.5-.7-1-1.3-1.6-1.9.2.8.7 1.5 1.1 2.2.5.7 1 1.3 1.6 1.9-.2-.8-.6-1.5-1.1-2.2z" class="E"/><path d="M272.7 310.7l1.9-5.6.9-2.7.9-3c0-.1-.1-.1-.1 0-.5.9-.8 1.9-1.2 2.8s-.7 1.8-1 2.6l-2.1 5.6c-1.3 3.7-2.5 7.5-3.7 11.3 0 .1.1.1.1.1 1.5-3.7 3-7.3 4.3-11.1z" class="B"/><path d="M255.3 316.7c-7.4-4.1-14.3-8.8-15.3-12.7-1.2-4.9 11.9-23 21.2-31.7 5.2-4.9 8.3-5.2 9.6-3.2l-15.5 47.6z" class="E"/><path d="M279.5 277c-3 .2-7.7-5.7-9-9.6-.1-.3.8-2.8 1.7-5.9.5-1.9 1.1-4 1.4-6l11.8 5.3s-2 3.9-2.6 7.3c0 .3-.1.6-.1.8v.1c-.1 1.7-.3 7.9-3.2 8z" class="O"/><path d="M282.7 269v.1c-.4 0-.8-.1-1.3-.2-7.2-1.6-7.6-10.1-7.5-13.2l11.5 5.1s-2 3.9-2.6 7.3c-.1.3-.1.6-.1.9z" class="B"/><path d="M271.6 248.7s-8 7.4-6.9 8.9 12.2.2 14.7-1.6c2.5-1.7 7.4-9.1 7.4-9.1l-15.2 1.8z" class="F"/><path d="M272.9 240.8c-1.9 4.3-1 17.3 1.8 20.5 4.1 4.7 11.5 5.9 15.6.9 4-4.9 2.6-21.9-.6-24.9-4.7-4.5-14-2.8-16.8 3.5z" class="O"/><g class="B"><path d="M284.9 250c0-.1 0 0 0 0 0 1-.1 2-.8 2.3 0 0 0 .1 0 0 1-.2 1.1-1.5.8-2.3z"/><path d="M284.1 249.1c-1.4 0-1.4 2.8-.1 2.8 1.3.1 1.3-2.8.1-2.8zm5.8.8s.1.1 0 0c0 1 .2 2 1 2.3 0 0 0 .1 0 0-1-.1-1.2-1.4-1-2.3z"/><path d="M290.7 249c1.4-.1 1.5 2.7.2 2.8s-1.4-2.7-.2-2.8zm-7.7-1.2c.4-.1.7-.3 1.1-.4.4-.2.8-.2 1-.6.1-.2.1-.6-.1-.7-.4-.4-1-.3-1.5-.1-.6.2-.9.5-1.3 1-.2.4.3.9.8.8z"/><path d="M291.8 247.6l-1.1-.3c-.4-.1-.8-.2-1.1-.5-.2-.2-.1-.6 0-.7.4-.4 1-.4 1.5-.3.6.1 1 .4 1.3.8s-.1 1-.6 1zm-7.7 10.4c.2.2.4.5.7.5a2.39 2.39 0 0 0 .9-.2h0c-.2.3-.7.6-1.1.5-.3-.1-.5-.4-.5-.8-.1 0-.1 0 0 0zm.9-2.7c.5.8 1.2 1.2 2 1.3.4.1.7.1 1.1 0h.2.2c.1 0 .2-.1.2-.2h0v-.1-.1c0-.7-.1-1.7-.1-1.7.2.1 1.5.7 1.5.3-.2-2.9-.4-6.2-1.2-9.1 0-.1-.2-.1-.2 0 .1 2.8.6 5.6.8 8.5-.4-.2-1.1-.4-1.4-.4-.1 0 .2 2 .1 2.3-1.2.3-2-.1-3.2-.8 0-.1-.1 0 0 0z"/><path d="M287.7 256.4s-.6.8-1.4 1.1c-.3.1-.6.2-1 .1-.7-.2-.7-.8-.6-1.4.1-.5.3-.8.3-.8s1 .9 2.7 1z"/></g><path d="M286.3 257.5c-.3.1-.6.2-1 .1-.7-.2-.7-.8-.6-1.4.7 0 1.5.5 1.6 1.3z" class="Q"/><path d="M272.7 252.5c2.4-.8 3.3-8.8 3.3-8.8s.1 3.4.7 3.3 3.1-4.8 3.3-8.1c0 0 3.1 2 6.1 2.8 3.1.8 5.9 1.4 5.9.9 0-1.5-1.6-5.8-3.7-7.2-2.4-1.6-5.5-3-10.4-.9-4.9 2-5.9 4.6-6.6 7.1-.6 2.4.5 11.1 1.4 10.9z" class="B"/><path d="M287.4 234.2c-4.2-2.3-13.4-1.6-15.6 5.7-1.4 4.8-.4 9.7-.4 9.7s5.7-5.1 7.9-6c5.6-2.4 13-1.6 13-1.6s-1.2-5.8-4.9-7.8zm-7.2 7.3c0-1.3.5-3.1 3.2-3.6 3.2-.5 3.8 2.4 3.8 2.4-3.4 0-7 1.2-7 1.2z" class="G"/><path d="M274.4 251.5s-2.5-4.4-4.5-3.6c-2 .9-.4 7.1 1.7 8.1s3.1-.9 3.1-.9l-.3-3.6z" class="O"/><path d="M270.5 249.7c-.1 0-.1 0 0 0 1.5.8 2.1 2.3 2.6 3.9-.4-.6-1-1-1.8-.5v.1c.6-.1 1.1.1 1.5.6.3.4.4.9.6 1.3.1.1.3.1.3-.1.1-2-1.1-4.9-3.2-5.3z" class="B"/><path d="M232.8 333.7c.1.2 56.9 9.9 57.5 9.4.9-.7 2-58.2-7.2-70.7-2.3-3.1-10.9-7.3-14-5.7-8 4.1-13.5 14.2-17 20.1-2.6 4.4-6.1 12-9.4 19.8-5.4 13-10.3 26.5-9.9 27.1z" class="R"/><path d="M270.6 289c-.3.8-.6 1.5-.7 2.4.6-.7.9-1.4 1.3-2.2.3-.8.6-1.6.7-2.4-.6.7-.9 1.5-1.3 2.2zm-24.2 13c-.3.8-.6 1.6-.7 2.4.6-.7.9-1.4 1.3-2.2.3-.8.6-1.6.7-2.4-.6.7-.9 1.4-1.3 2.2zm30.7 36.3c-.3.8-.6 1.5-.7 2.4.6-.7.9-1.4 1.3-2.2.3-.8.6-1.6.7-2.4-.6.7-.9 1.5-1.3 2.2zm-28.5-1.9v.1c.2 0 .4.1.7.1.3-.7.6-1.5.6-2.4-.6.7-1 1.5-1.3 2.2zm-14.6-5.8c-.3.8-.6 1.5-.7 2.4.6-.7.9-1.4 1.3-2.2.3-.8.6-1.5.7-2.4-.6.7-.9 1.4-1.3 2.2zm30.4-12.2c-.3.8-.6 1.5-.7 2.4.6-.7.9-1.4 1.3-2.2.3-.8.6-1.6.7-2.4-.6.7-.9 1.5-1.3 2.2zm-5.4-40.6c-.3.8-.6 1.5-.7 2.4.5-.7.9-1.4 1.3-2.2.3-.8.6-1.5.7-2.4-.6.7-.9 1.5-1.3 2.2zm29.5 12.7c-.8-.3-1.6-.6-2.4-.7.7.6 1.4.9 2.2 1.3.1.1.3.1.4.1-.1-.2-.1-.5-.2-.7zm-40 29.1c-.8-.3-1.5-.6-2.4-.7.7.6 1.4.9 2.2 1.3.8.3 1.5.6 2.4.7-.8-.6-1.5-.9-2.2-1.3zm42 20.8c-.8-.3-1.5-.6-2.4-.7.7.6 1.4.9 2.2 1.3.1 0 .2.1.3.1v-.7c0 .1-.1 0-.1 0zm-20.6-10.1c-.8-.3-1.5-.6-2.4-.7.7.6 1.4.9 2.2 1.3.8.3 1.5.6 2.4.7-.7-.6-1.4-1-2.2-1.3zm16.9-16c-.8-.3-1.5-.6-2.4-.7.7.5 1.4.9 2.2 1.3.8.3 1.6.6 2.4.7-.7-.6-1.4-1-2.2-1.3zm-22.1-14.8c-.8-.3-1.5-.6-2.4-.7.7.6 1.4.9 2.2 1.3.8.3 1.5.6 2.4.7-.7-.6-1.4-1-2.2-1.3zm-21.9 29.9c-.3-.8-.7-1.5-1.2-2.2.1.9.3 1.6.6 2.4s.7 1.5 1.2 2.2c-.1-.8-.3-1.6-.6-2.4zm28.9-57.6c-.3-.8-.7-1.5-1.2-2.2.1.9.3 1.6.6 2.4s.7 1.5 1.2 2.2c0-.8-.3-1.6-.6-2.4zm9.9 27.9c-.3-.8-.7-1.5-1.2-2.2.1.9.3 1.6.6 2.4s.7 1.5 1.2 2.2c0-.9-.3-1.7-.6-2.4zm-19.2 37.9c-.3-.8-.7-1.5-1.2-2.2.1.9.3 1.6.6 2.4a4.67 4.67 0 0 0 .5 1c.2 0 .4.1.6.1-.2-.4-.3-.8-.5-1.3zm15.3-15.9c-.3-.8-.7-1.5-1.2-2.2.1.9.3 1.6.6 2.4s.7 1.5 1.2 2.2c-.1-.9-.3-1.6-.6-2.4zm-21.3-12c-.3-.8-.7-1.5-1.2-2.2.1.9.3 1.6.6 2.4s.7 1.5 1.2 2.2c-.1-.9-.3-1.7-.6-2.4zm-16.2 3.4l-.3.8c.1 0 .2-.1.2-.1.8-.3 1.5-.7 2.2-1.2a4.65 4.65 0 0 0-2.1.5zm16.3 14c-.8.3-1.5.7-2.2 1.2.9-.1 1.6-.3 2.4-.6s1.5-.7 2.2-1.2c-.8 0-1.6.3-2.4.6zm-1.6-35.6c-.8.3-1.5.7-2.2 1.2.9-.1 1.6-.3 2.4-.6s1.5-.7 2.2-1.2c-.8.1-1.6.3-2.4.6zm30 39.4c-.8.3-1.5.7-2.2 1.2.9-.1 1.6-.3 2.4-.6s1.5-.7 2.2-1.2c-.8 0-1.6.3-2.4.6zM274.5 309c-.8.3-1.5.7-2.2 1.2.9-.1 1.6-.3 2.4-.6s1.5-.7 2.2-1.2c-.8 0-1.6.3-2.4.6zm8.2-30.1c-.8.3-1.5.7-2.2 1.2.9-.1 1.6-.3 2.4-.6s1.5-.7 2.2-1.2c-.8.1-1.6.3-2.4.6z" class="E"/><g class="F"><path d="M343.4 293.6l20.1 7.3c1.4.5 2.9-.2 3.4-1.6l1.2-3.3-25.1-9.1-1.2 3.3c-.5 1.4.2 2.9 1.6 3.4z"/><path d="M349.137 318.393l-5.922-2.15 7.302-20.116 5.922 2.15z"/></g><path d="M368.741 296.142l-26.32-9.554.751-2.068 26.32 9.554zm.826-2.217l-26.32-9.554.751-2.068 26.32 9.554z" fill="#c7c7c7"/><g class="P"><path d="M374.3 274.4l.8-.2.5.7-6.1 16.7-1.2-.5zm-1.4-.5l.8-.2.5.7-6.1 16.7-1.2-.5zm-1.4-.5l.9-.3.4.8-6 16.7-1.3-.5zm-1.3-.5l.8-.3.4.8-6 16.7-1.3-.5zm-1.4-.5l.8-.3.4.8-6 16.7-1.3-.5z"/><use xlink:href="#I"/><use xlink:href="#I" x="-1.4" y="-0.5"/><path d="M364.6 270.9l.8-.3.5.8-6.1 16.7-1.2-.5zm-1.4-.5l.8-.3.5.8-6.1 16.7-1.2-.5zm-1.4-.5l.9-.3.4.8-6 16.7-1.3-.5zm-1.4-.5l.9-.3.4.8-6 16.7-1.3-.5zm-1.3-.5l.8-.3.4.8-6 16.7-1.3-.5z"/><use xlink:href="#I" x="-9.7" y="-3.5"/><use xlink:href="#I" x="-11.1" y="-4"/><use xlink:href="#I" x="-12.5" y="-4.5"/><path d="M353.5 266.9l.8-.3.5.8-6.1 16.6-1.2-.4zm-1.4-.5l.9-.3.4.8-6 16.6-1.3-.4zm-1.4-.5l.9-.3.4.8-6 16.6-1.3-.4z"/></g><g opacity=".3"><path d="M374.3 274.4l.8-.2.5.7-6.1 16.7-1.2-.5zm-1.4-.5l.8-.2.5.7-6.1 16.7-1.2-.5zm-1.4-.5l.9-.3.4.8-6 16.7-1.3-.5zm-1.3-.5l.8-.3.4.8-6 16.7-1.3-.5zm-1.4-.5l.8-.3.4.8-6 16.7-1.3-.5z"/><use xlink:href="#I"/><use xlink:href="#I" x="-1.4" y="-0.5"/><path d="M364.6 270.9l.8-.3.5.8-6.1 16.7-1.2-.5zm-1.4-.5l.8-.3.5.8-6.1 16.7-1.2-.5zm-1.4-.5l.9-.3.4.8-6 16.7-1.3-.5zm-1.4-.5l.9-.3.4.8-6 16.7-1.3-.5zm-1.3-.5l.8-.3.4.8-6 16.7-1.3-.5z"/><use xlink:href="#I" x="-9.7" y="-3.5"/><use xlink:href="#I" x="-11.1" y="-4"/><use xlink:href="#I" x="-12.5" y="-4.5"/><path d="M353.5 266.9l.8-.3.5.8-6.1 16.6-1.2-.4zm-1.4-.5l.9-.3.4.8-6 16.6-1.3-.4zm-1.4-.5l.9-.3.4.8-6 16.6-1.3-.4z"/></g><use xlink:href="#J" class="P"/><use xlink:href="#J" class="C E"/><g class="O"><path d="M277.3 283.4c4.3 14.5 13.6 41.2 23.7 45.1 10.6 4.1 24.8-1 32.1-2.7 3.1-.8-.9-22.6-4.3-22.6-3.3 0-17 3.4-19.5 3-2.5-.5-13.5-18.6-21.8-28.8-9.8-12.2-13.7-5.8-10.2 6z"/><path d="M362.1 308.7c.6 2.4-1.6 3.7-1.6 3.7s1.4 1.3 1.5 3.2c.1 2.1-3.2 3.2-3.2 3.2s1.2 1.7 1 3.6c-.1 2.1-3.3 3.6-3.3 3.6s.2 2.1-1.1 3.8c-2.3 2.8-7.8 2.1-11.2 1.8-3.5-.4-14.4-6.9-15.2-8.3l-4.7-19.6s17.4-4.7 27.5-1.6c3.2 1.1 9.7 3.9 10.3 6.6z"/></g><path d="M360.3 312c-3.4-1.8-7.1-2.5-10.8-3.4-.1 0-.1.1 0 .1 3.7.9 7.1 2.4 10.8 3.4.1.1.1-.1 0-.1zm-1.6 6.5c-.8-.4-1.7-.5-2.5-.7l-2.7-.5-5.5-.7c-.1 0-.1.1 0 .1l5.5 1 2.7.6c.8.2 1.7.5 2.6.4 0 .1 0-.1-.1-.2zm-2.3 7.6c-.7-.4-1.6-.4-2.3-.5l-2.5-.4-5-.8c-.1 0-.1.1 0 .1l5.1 1c.8.2 1.7.3 2.5.4.6.2 1.5.4 2.2.2z" class="B"/><path d="M321.7 302l7.9 26.6s-22.9 6.2-32.3-.9c-9.4-7-18.9-34.6-21.2-46.6s3.5-14.6 11.2-4.9 21 28.1 21.6 28.5c.7.6 12.8-2.7 12.8-2.7z" class="R"/><path d="M282.9 280.1c-.8.1-1.6.3-2.4.7.9.1 1.7 0 2.5-.1s1.6-.3 2.4-.7c-.9-.1-1.7 0-2.5.1zm22.7 40.3c-.8.1-1.6.3-2.4.7.9.1 1.7 0 2.5-.1s1.6-.3 2.4-.7c-.8-.1-1.7 0-2.5.1zm16.9-15.7c-.3 0-.7.1-1 .1-.8.1-1.6.3-2.4.7.9.1 1.7 0 2.5-.1.4-.1.7-.1 1.1-.2l-.2-.5zm-24.8-4c-.1-.8-.3-1.6-.7-2.4-.1.9 0 1.7.1 2.5s.3 1.6.7 2.4c.1-.9 0-1.7-.1-2.5zm-1 25.6c-.1-.8-.3-1.6-.7-2.4-.1.9 0 1.7.1 2.5 0 .1 0 .2.1.4.2.2.5.4.7.6-.1-.4-.2-.8-.2-1.1zm20.4-10.8c-.1-.8-.3-1.6-.7-2.4-.1.9 0 1.7.1 2.5s.3 1.6.7 2.4l-.1-2.5zm-22.8-1.8c-.7-.5-1.4-.9-2.2-1.2.5.7 1.2 1.2 1.8 1.7.7.5 1.4.9 2.2 1.2-.5-.7-1.1-1.2-1.8-1.7zm34.3 11.2c-.3-.3-.6-.5-.9-.8-.7-.5-1.4-.9-2.2-1.2.5.7 1.2 1.2 1.8 1.7l1.5.9-.2-.6zm-42.7-32.2c-.7-.5-1.4-.9-2.2-1.2.5.7 1.1 1.2 1.8 1.7s1.4.9 2.2 1.2c-.5-.7-1.2-1.2-1.8-1.7zm.6 13.7c-.5.7-.9 1.4-1.2 2.2.7-.5 1.2-1.2 1.7-1.8.5-.7.9-1.4 1.2-2.2-.7.5-1.2 1.1-1.7 1.8zm21.2 3.3c-.5.7-.9 1.4-1.2 2.2.7-.5 1.2-1.2 1.7-1.8.5-.7.9-1.4 1.2-2.2-.7.5-1.2 1.1-1.7 1.8zm5.5 17.8c-.5.7-.9 1.4-1.2 2.2.7-.5 1.2-1.1 1.7-1.8s.9-1.4 1.2-2.2c-.7.5-1.2 1.2-1.7 1.8z" class="E"/><path d="M320 316.1l-1.6-5.7-.8-2.7-.9-2.9c0-.1-.1 0-.1 0 .1 1 .4 2 .6 3l.7 2.8 1.5 5.7c1 3.8 2.2 7.6 3.4 11.4 0 .1.2.1.1 0l-2.9-11.6zm-29 4.1c-.8-2.2-8.5-18.7-11-26.5-1.1-3.3-2-6.7-3.1-10.1h-.1c.4 2.1.8 4.1 1.3 6.2-.1-.1-.1-.3-.2-.4l-1.2-2.4h-.1c.3.9.7 1.7 1.1 2.6.2.5.5 1 .8 1.6.2.9.5 1.8.8 2.7 4.4 13.2 10.1 24.3 11.5 26.4.1.1.2 0 .2-.1z" class="B"/><path d="M279.9 269.8c-4-3.4-16.3-7.2-22.1-4.9-7.3 2.9-18.5 26.4-16.2 28.5 4.1 3.6 23.3-7.3 28-12.5l10.3-11.1z" class="R"/><path d="M261.7 264.2c-.4.2-.7.4-1.1.7.9-.1 1.6-.3 2.4-.6h.1c-.4-.2-.9-.2-1.4-.1zm-8.7 5.9c-.1-.3-.2-.6-.4-.8-.1.2-.3.3-.4.5.1.2.1.4.2.6.3.8.7 1.5 1.2 2.2 0-.9-.3-1.7-.6-2.5zm18.7 1.7c-.3-.8-.7-1.5-1.2-2.2.1.9.3 1.6.6 2.4s.7 1.5 1.2 2.2c0-.8-.3-1.6-.6-2.4zm-24.4 11.3c-.8-.3-1.5-.6-2.4-.7.7.6 1.4.9 2.2 1.3.8.3 1.6.6 2.4.7-.7-.6-1.5-.9-2.2-1.3zm11.7-5.3c-.3.8-.6 1.5-.7 2.4.5-.7.9-1.4 1.3-2.2.3-.8.6-1.5.7-2.4-.6.7-.9 1.5-1.3 2.2z" class="E"/><path d="M275.1 276.5l-3 2 4.3-4.5c0-.1 0-.1-.1-.1-1.9 1.4-3.5 3.1-5.2 4.7l-5.3 4.8-5.7 4.3c-2.1 1.3-4.4 2.4-6.7 3.4l-3.9 1.6-4.3 1.3c-.3 0-.1.2 0 .2 1.2-.1 2.5-.5 3.7-.9l3.7-1.2c2.4-.8 4.7-1.7 6.9-2.9 4.3-2.3 7.8-5.6 11.2-9.2l.2-.2c.6-.4 1.2-.9 1.8-1.3.8-.7 1.7-1.3 2.6-1.9 0 0-.1-.2-.2-.1z" class="B"/><path d="M363.6 402.1s3.7 12.3 8 24.8c4.4 12.5 8.2 41.3 7.4 42s-10.5-27.2-13.3-40C363 416.1 361 403 361 403l2.6-.9z" class="H"/><path d="M363.6 401.7l3 8.4-4.7 1.1-1.4-8.6z" class="M"/><path d="M363.6 401.7c.5-1.8.6-3.9-1.1-6.3-2-2.9-1.4-5.1-1.4-5.1s-5.2 6.7-.6 12.3l3.1-.9z" class="G"/><path d="M361.2 390c.3.4-.3 2.5.7 4.2.9 1.5-3.8 4.1-3.4 1.6.4-2.8 2.2-6.6 2.7-5.8z" class="H"/><path d="M386.4 409.2s-3.6 9.9-7.7 20-8.6 33.6-7.9 34.2c.6.6 9.8-21.9 12.7-32.3s5.1-21.1 5.1-21.1l-2.2-.8z" class="N"/><path d="M386.4 409l-2.8 6.7 3.8 1.1 1.5-7z" class="M"/><path d="M386.4 409c.4-5.5 4.8-10 4.8-10s1.8 6.5-2.3 10.9l-2.5-.9z" class="G"/><path d="M375.5 396.2a605.36 605.36 0 0 0 3.3 21.2c1.9 10.7 1.4 34.6.6 35.1s-5-23.5-5.6-34.2-.6-21.7-.6-21.7l2.3-.4z" class="F"/><path d="M375.6 396l1.3 7.1-3.9.3v-7.1z" class="M"/><g class="G"><path d="M373 396.3l2.6-.3c.1-.1 2-7.3 1.9-7.5-.2-.2-8.4 1-8.4 1.7 0 .8 3.9 6.1 3.9 6.1zm11 76.3h-20.5c-2.4 0-4.4-2-4.4-4.4v-28c0-2.4 2-4.4 4.4-4.4H384c2.4 0 4.4 2 4.4 4.4v28c-.1 2.4-2 4.4-4.4 4.4z"/><path d="M362.8 430h21.8v5.8h-21.8z"/></g><path d="M364.1 435.6c5.1-.2 17.5-.3 19.2 0v.1c-1.7.3-13.3.6-19.2 0v-.1z" class="B"/><defs ><path id="B" d="M659.6 143.5h-2v-1h2v1zm-4 0h-2v-1h2v1zm-4 0h-2v-1h2v1zm-4 0h-2v-1h2v1zm-4 0h-2v-1h2v1zm-4 0h-2v-1h2v1zm-4 0h-2v-1h2v1zm-4 0h-2v-1h2v1zm-4 0h-2v-1h2v1zm-4 0h-2v-1h2v1zm-4 0h-2v-1h2v1zm-4 0h-2v-1h2v1zm-4 0h-2v-1h2v1zm-4 0h-2v-1h2v1zm-4 0h-2v-1h2v1zm-4 0h-2v-1h2v1zm-4 0h-2v-1h2v1z"/><path id="C" d="M591.1 140h-1v-2h1v2zm0-4h-1v-2h1v2zm0-4h-1v-2h1v2zm0-4h-1v-2h1v2zm0-4h-1v-2h1v2zm0-4h-1v-2h1v2zm0-4h-1v-2h1v2zm0-4h-1v-2h1v2zm0-4h-1v-2h1v2zm0-4h-1v-2h1v2zm0-4h-1v-2h1v2zm0-4h-1v-2h1v2zm0-4h-1v-2h1v2zm0-4h-1v-2h1v2zm0-4h-1v-2h1v2zm0-4h-1v-2h1v2zm0-4h-1v-2h1v2z"/><path id="D" d="M595.6 148h-10v-10h10v10zm-9-1h8v-8h-8v8z"/><path id="E" d="M49.2 227.7H53v.9h-3.8z"/><path id="F" d="M582.9 158.8c1 0 1.9-.6 2.1-1.6.3-1.9-1.6-3.6-3-4.6-1.5-1-3.4-1.8-5.1-1-1.1.5-1.1 1.8-.3 2.5.9.9 2.1 1.5 3.1 2.4.9.9 1.7 2.2 3.2 2.3z"/><path id="G" d="M452.2 373.1l-11.6-17.2s4.6-5.2 11.5-11.1c6.8-5.9 10.9-3.9 8.1 8-2.8 11.8-8 20.3-8 20.3z"/><path id="H" d="M348.8 449.3c-3.7-.2-7.9 1-10.3 3.9-.1.1.1.2.2.2 3.4-1.6 6.5-2.8 10.2-3.6.2-.1.2-.4-.1-.5z"/><path id="I" d="M367.4 271.9l.8-.3.5.8-6.1 16.7-1.3-.5z"/><path id="J" d="M350.7 265.9c-2.2 3.5 1.2 7.9 5 8.9s6.1.6 6.9 3-.5 6.3 2.4 6.2 3.2-3.9 5.4-4.2 2.4 0 3.7-1 3-3.4 2.3-4.7-6.5-2.6-10.1-4c-3.5-1.4-14.4-6-15.6-4.2z"/></defs></svg>