<?xml version="1.0" standalone="no"?>
<!DOCTYPE svg PUBLIC "-//W3C//DTD SVG 20010904//EN"
 "http://www.w3.org/TR/2001/REC-SVG-20010904/DTD/svg10.dtd">
<svg version="1.0" xmlns="http://www.w3.org/2000/svg"
 width="1918.000000pt" height="535.000000pt" viewBox="0 0 1918.000000 535.000000"
 preserveAspectRatio="xMidYMid meet">

<g transform="translate(0.000000,535.000000) scale(0.100000,-0.100000)"
fill="#fff" stroke="none">
<path d="M2450 4939 c-1608 -285 -1500 -265 -1521 -286 -28 -28 -849 -2292
-842 -2324 4 -22 1651 -1980 1743 -2073 21 -22 37 -29 67 -28 51 0 2609 439
2651 455 19 6 40 23 48 37 30 52 825 2257 826 2288 0 18 -6 40 -13 50 -83 104
-1682 2008 -1714 2040 -39 37 -49 42 -87 41 -24 -1 -545 -91 -1158 -200z m760
-86 c-14 -10 -319 -228 -678 -486 -360 -257 -657 -467 -662 -465 -10 4 -644
598 -648 607 -2 6 1946 357 1998 360 8 1 4 -6 -10 -16z m558 -880 c122 -476
221 -867 219 -868 -5 -4 -1897 688 -1897 694 1 6 1441 1040 1450 1041 3 0 106
-390 228 -867z m704 -109 c348 -415 635 -759 636 -765 2 -5 -20 -9 -50 -10
-29 0 -231 -11 -448 -23 -217 -12 -395 -22 -396 -22 -1 1 -357 1392 -410 1601
-6 25 -84 116 668 -781z m-2767 -94 c0 -8 -1269 -1082 -1284 -1088 -6 -2 476
1336 614 1706 5 12 670 -602 670 -618z m1260 -509 c517 -189 946 -346 954
-350 15 -9 41 13 -948 -815 -333 -278 -607 -506 -610 -506 -3 0 -84 442 -180
983 -95 540 -176 995 -179 1011 -4 23 -2 28 9 24 8 -3 437 -159 954 -347z
m-1161 282 c22 -105 346 -1957 344 -1963 -4 -9 -1759 784 -1761 796 -2 8 1391
1192 1405 1193 3 1 9 -11 12 -26z m3366 -660 c0 -11 -612 -1697 -619 -1705 -3
-4 -71 367 -150 823 -79 457 -140 833 -136 837 7 7 678 48 828 51 42 0 77 -2
77 -6z m-944 -1046 c86 -499 154 -910 151 -913 -6 -6 -1828 500 -1855 515 -9
5 245 224 764 659 428 358 779 650 780 649 1 -1 73 -410 160 -910z m-2728
-193 c364 -164 662 -303 662 -308 0 -23 -295 -815 -301 -808 -32 36 -1287
1520 -1292 1529 -4 7 54 -16 130 -51 76 -34 436 -197 801 -362z m1712 -609
c448 -125 818 -231 822 -234 4 -4 -436 -83 -977 -175 -542 -93 -987 -167 -990
-164 -3 2 61 186 142 407 134 368 148 402 167 398 12 -2 388 -106 836 -232z"/>
<path d="M15198 4218 c-10 -18 -14 -131 -16 -485 -1 -255 -5 -463 -8 -463 -2
0 -26 11 -53 25 -117 59 -334 107 -571 126 -297 24 -485 -21 -623 -151 -109
-102 -171 -235 -204 -445 -24 -144 -24 -595 0 -761 61 -437 248 -655 582 -682
129 -10 509 3 648 22 148 21 288 56 363 92 76 36 151 106 164 153 6 23 10 468
10 1256 0 1170 -1 1222 -19 1255 -29 54 -88 80 -182 80 -71 0 -80 -2 -91 -22z
m-539 -1064 c250 -36 475 -117 511 -183 6 -13 10 -220 10 -614 l0 -594 -24
-22 c-58 -54 -222 -89 -470 -100 -236 -10 -352 0 -424 35 -114 56 -183 159
-225 336 -20 85 -21 120 -22 418 0 226 4 346 13 394 36 188 125 303 259 335
62 15 258 12 372 -5z"/>
<path d="M10516 4207 l-26 -26 0 -1366 c0 -960 3 -1372 11 -1387 16 -30 70
-48 144 -48 80 0 132 20 145 55 7 18 9 485 8 1360 -3 1328 -3 1334 -24 1361
-31 42 -87 66 -164 72 -63 4 -70 3 -94 -21z"/>
<path d="M11250 4220 c-19 -4 -45 -20 -57 -35 -22 -25 -23 -34 -23 -203 0
-143 3 -182 15 -199 43 -61 251 -56 284 5 12 22 16 358 5 387 -15 39 -144 65
-224 45z"/>
<path d="M7255 3419 c-310 -25 -583 -99 -705 -190 -73 -55 -107 -100 -120
-163 -7 -35 -10 -415 -8 -1221 3 -1149 3 -1171 23 -1204 26 -44 85 -74 157
-79 75 -6 102 2 116 33 9 19 12 150 12 462 0 411 1 435 18 428 174 -74 385
-105 704 -105 210 0 299 14 406 66 177 86 283 251 329 513 25 142 25 641 0
799 -64 406 -219 604 -517 658 -82 15 -257 16 -415 3z m295 -259 c171 -33 267
-138 322 -356 22 -84 23 -108 23 -444 0 -310 -2 -363 -18 -420 -73 -265 -184
-326 -550 -302 -293 20 -507 66 -568 123 l-29 27 0 593 0 592 44 43 c68 65
235 122 422 143 102 12 294 12 354 1z"/>
<path d="M9085 3419 c-177 -24 -340 -86 -438 -168 -191 -160 -267 -400 -267
-852 0 -585 143 -856 516 -972 113 -36 221 -48 408 -48 542 1 802 198 882 666
22 126 25 546 6 677 -33 227 -94 370 -205 482 -105 106 -213 160 -397 201 -90
19 -401 28 -505 14z m436 -263 c86 -18 179 -66 230 -117 51 -51 105 -162 125
-259 9 -47 17 -159 21 -296 13 -500 -47 -688 -256 -793 -92 -47 -214 -65 -396
-58 -85 3 -173 12 -204 21 -185 52 -294 177 -333 382 -9 47 -13 166 -13 374 0
263 3 316 19 385 46 200 145 307 328 355 93 24 376 27 479 6z"/>
<path d="M11253 3418 c-26 -5 -50 -19 -63 -35 -20 -25 -20 -36 -20 -982 0
-842 2 -959 15 -978 43 -61 251 -56 284 5 8 15 11 312 11 981 0 1093 9 989
-89 1010 -60 13 -80 13 -138 -1z"/>
<path d="M12455 3419 c-189 -24 -334 -84 -441 -183 -159 -145 -219 -315 -244
-691 -11 -164 -6 -422 11 -555 48 -373 224 -549 604 -600 119 -16 406 -14 517
4 247 41 416 123 467 229 25 51 27 87 6 127 -34 65 -80 65 -210 0 -185 -92
-361 -127 -595 -117 -254 11 -378 73 -447 223 -22 48 -62 268 -51 279 2 2 87
16 188 30 241 34 624 99 764 130 388 88 500 183 513 440 11 200 -41 350 -161
471 -115 116 -292 187 -529 213 -111 13 -291 12 -392 0z m410 -244 c154 -27
283 -113 340 -226 32 -62 44 -179 26 -247 -23 -82 -101 -143 -227 -176 -134
-35 -917 -156 -929 -144 -10 10 14 330 30 410 51 240 194 359 470 388 113 12
204 10 290 -5z"/>
<path d="M16511 3419 c-297 -33 -525 -123 -606 -238 l-30 -43 0 -861 0 -862
37 -18 c75 -37 234 -19 252 28 3 9 6 363 6 786 0 899 -10 823 110 883 117 58
194 71 435 71 l210 0 79 -37 c96 -47 154 -51 191 -13 19 18 25 35 25 70 0 100
-83 177 -235 220 -73 20 -349 28 -474 14z"/>
<path d="M17975 3419 c-369 -50 -578 -221 -659 -540 -62 -245 -62 -701 0 -949
77 -307 268 -476 604 -536 116 -20 406 -20 525 1 385 68 575 270 636 680 17
116 18 529 1 647 -33 226 -94 370 -205 482 -105 106 -213 160 -397 201 -90 19
-401 28 -505 14z m436 -263 c86 -18 179 -66 230 -117 51 -51 105 -162 125
-259 9 -47 17 -159 21 -296 13 -500 -47 -688 -256 -793 -92 -47 -214 -65 -396
-58 -220 8 -320 43 -414 142 -60 63 -95 133 -119 237 -26 113 -25 670 2 783
46 200 145 307 328 355 93 24 376 27 479 6z"/>
</g>
</svg>
