<svg xmlns="http://www.w3.org/2000/svg" xmlns:xlink="http://www.w3.org/1999/xlink" viewBox="0 0 500 500" xmlns:v="https://vecta.io/nano"><style><![CDATA[.B{fill:#263238}.C{stroke-miterlimit:10}.D{fill:#37474f}.E{fill:#f7a9a0}.F{fill:#455a64}.G{fill:#0a589a}.H{fill:#ffc727}.I{fill:#1275b3}]]></style><path fill="none" stroke="#ebebeb" d="M83.6 118.5c1-1.7 2.9-2.7 4.9-2.6h1.6 1.6c2-.1 3.9.8 4.9 2.6l3.4 5.9 19.2-11-3.4-5.9c-1-1.7-.9-3.8.2-5.5.6-.9 1.1-1.8 1.6-2.8.9-1.8 2.7-3 4.7-3h6.8V74.1h-6.8c-2 0-3.8-1.2-4.7-3-.5-1-1-1.9-1.6-2.8-1.1-1.7-1.2-3.8-.2-5.5l3.4-5.9L100 45.8l-3.4 5.9c-1 1.7-2.8 2.7-4.8 2.6h-1.7-1.7c-2 .1-3.8-.9-4.8-2.6l-3.4-5.9-19.2 11 3.4 5.9c1 1.7.9 3.8-.1 5.4l-1.8 3C61.7 73 59.9 74 58 74h-6.8v22.1H58c2 0 3.8 1.2 4.7 3 .5 1 1 1.9 1.6 2.8 1.1 1.7 1.2 3.8.2 5.5l-3.4 5.9 19.2 11.1 3.3-5.9zm-11.4-31c-1.5-11.9 8.5-21.8 20.4-20.3 8.1 1 14.6 7.6 15.6 15.6 1.5 11.9-8.5 21.8-20.3 20.3-8.2-1-14.7-7.5-15.7-15.6z" class="C"/><path d="M448.8 339.8l-5.5-9.5-2.9 1.7c-.9.5-1.9.4-2.7-.1-.5-.3-.9-.6-1.4-.8-.9-.4-1.4-1.3-1.4-2.3v-3.4h-11v3.4c0 1-.6 1.9-1.4 2.3-.5.2-1 .5-1.4.8-.8.5-1.9.6-2.7.1l-2.9-1.7-5.5 9.5 2.9 1.7c.9.5 1.3 1.4 1.3 2.4v.8.8c.1 1-.4 1.9-1.3 2.4l-2.9 1.7 5.5 9.5 2.9-1.7c.9-.5 1.9-.4 2.7.1.5.3.9.6 1.4.8.9.4 1.4 1.3 1.4 2.3v3.4h11v-3.4c0-1 .6-1.9 1.4-2.3.5-.2 1-.5 1.4-.8.8-.5 1.9-.6 2.7-.1l2.9 1.7 5.5-9.5-2.9-1.7c-.9-.5-1.3-1.4-1.3-2.4v-.8-.8c-.1-1 .4-1.9 1.3-2.4l2.9-1.7zm-10.5 4.9a9 9 0 1 1-18 0 8.96 8.96 0 0 1 9-9c4.9 0 9 4 9 9zM143.9 195.9l-5.5-9.5-2.9 1.7c-.9.5-1.9.4-2.7-.1-.5-.3-.9-.6-1.4-.8-.9-.4-1.4-1.3-1.4-2.3v-3.4h-11v3.4c0 1-.6 1.9-1.4 2.3-.5.2-1 .5-1.4.8-.8.5-1.9.6-2.7.1l-2.9-1.7-5.5 9.5 2.9 1.7c.9.5 1.3 1.4 1.3 2.4v.8.8c.1 1-.4 1.9-1.3 2.4l-2.9 1.7 5.5 9.5 2.9-1.7c.9-.5 1.9-.4 2.7.1.5.3.9.6 1.4.8.9.4 1.4 1.3 1.4 2.3v3.4h11v-3.4c0-1 .6-1.9 1.4-2.3.5-.2 1-.5 1.4-.8.8-.5 1.9-.6 2.7-.1l2.9 1.7 5.5-9.5-2.9-1.7c-.9-.5-1.3-1.4-1.3-2.4v-.8-.8c-.1-1 .4-1.9 1.3-2.4l2.9-1.7zm-10.6 4.9a9 9 0 1 1-18 0 9 9 0 1 1 18 0z" fill="#ebebeb"/><g fill="none" stroke="#ebebeb"><path d="M372 463.9v-37.1l-30-40.9V350" class="C"/><circle cx="342" cy="347.4" r="2.7"/><path d="M364.2 463.9v-32.2l-29.9-40.8V371" class="C"/><circle cx="334.3" cy="368.4" r="2.7"/><path d="M379.4 463.9v-82.7" class="C"/><circle cx="379.4" cy="378.5" r="2.7"/><path d="M386.5 463.3v-24.1l20.4-38.3v-78.8" class="C"/><circle cx="406.9" cy="319.5" r="2.7"/><path d="M393.6 463.4v-20.1l24-42.4v-45.2" class="C"/><circle cx="417.6" cy="353" r="2.7"/><path d="M128 463.9V356.8l30-40.9V280" class="C"/><circle cx="158" cy="277.4" r="2.7"/><path d="M135.8 463.9V361.7l29.9-40.8V301" class="C"/><circle cx="165.7" cy="298.4" r="2.7"/><path d="M120.6 463.9V231.2" class="C"/><circle cx="120.6" cy="228.5" r="2.7"/><path d="M113.5 463.3v-94.1l-20.4-38.3v-68.8" class="C"/><circle cx="93.1" cy="259.5" r="2.7"/><path d="M106.4 463.4v-90.1l-24-42.4v-35.2" class="C"/><circle cx="82.4" cy="293" r="2.7"/></g><g class="B"><path d="M40.4 463.9h419.3H40.4h0z"/><path d="M441.2 52.6H259.6c-10.1 0-18.4 8.4-18.4 18.7v374c0 10.3 8.2 18.7 18.4 18.7h181.7c10.2 0 18.4-8.4 18.4-18.7v-374c-.1-10.4-8.3-18.7-18.5-18.7zm6.9 381.1c0 9.8-7.4 17.8-16.5 17.8H269.2c-9.1 0-16.5-8-16.5-17.8V85.5c0-20.1 7.4-21 16.5-21h32.5c1.9 0 3.4 2.1 3.4 4.8v1.1c0 6.2 3.4 6.3 7.6 6.3H388c4.2 0 7.6 0 7.6-6.3v-1.1c0-2.7 1.5-4.8 3.4-4.8h32.6c9.1 0 16.5 2.7 16.5 21v348.2z"/></g><path d="M431.5 52.6H249.8c-10.1 0-18.4 8.4-18.4 18.7v374c0 10.3 8.2 18.7 18.4 18.7h181.7c10.2 0 18.4-8.4 18.4-18.7v-374c-.1-10.4-8.3-18.7-18.4-18.7zm6.9 381.1c0 9.8-7.4 17.8-16.5 17.8H259.4c-9.1 0-16.5-8-16.5-17.8V85.5c0-20.1 7.4-21 16.5-21h32.5c1.9 0 3.4 2.1 3.4 4.8v1.1c0 6.2 3.4 6.3 7.6 6.3h75.3c4.2 0 7.6 0 7.6-6.3v-1.1c0-2.7 1.5-4.8 3.4-4.8h32.6c9.1 0 16.5 2.7 16.5 21v348.2z" class="D"/><path d="M350.9 68.9h-20.5c-.7 0-1.3-.6-1.3-1.3h0c0-.7.6-1.3 1.3-1.3h20.5c.7 0 1.3.6 1.3 1.3h0c0 .7-.6 1.3-1.3 1.3zm87.5 16.6v348.2c0 9.8-7.4 17.8-16.5 17.8H259.4c-9.1 0-16.5-8-16.5-17.8V85.5c0-20.1 7.4-21 16.5-21h32.5c1.9 0 3.4 2.1 3.4 4.8v1.1c0 6.2 3.4 6.3 7.6 6.3h75.3c4.2 0 7.6 0 7.6-6.3v-1.1c0-2.7 1.5-4.8 3.4-4.8h32.6c9.2-.1 16.6 2.6 16.6 21z" fill="#fff"/><g fill="#c7c7c7"><path d="M286.3 72.2l-.3.3-.2.2c-.8-.8-1.9-1.3-3-1.3-1.2 0-2.2.4-3 1.3l-.2-.2-.3-.3c.1-.1.3-.2.4-.4l.9-.6c.4-.2.8-.3 1.2-.4.2 0 .4-.1.6-.1h.5.4c.4 0 .8.1 1.1.3.3.1.5.2.8.4.3.1.5.3.7.5a1.38 1.38 0 0 1 .4.3zm-5.5 1.5l-.5-.5c.6-.6 1.2-.9 2-1 1.2-.2 2.2.2 3 1l-.5.5c-.6-.5-1.2-.8-2-.8s-1.5.3-2 .8zm3.5.5l-.5.5c-.3-.3-.6-.4-1-.4a1.53 1.53 0 0 0-1 .4l-.5-.5c.7-.8 2.2-.9 3 0z"/><circle cx="282.8" cy="75.2" r=".4"/><circle cx="256.9" cy="73.2" r="1.3"/><circle cx="261" cy="73.2" r="1.3"/><circle cx="265.1" cy="73.2" r="1.3"/><circle cx="269.2" cy="73.2" r="1.3"/><circle cx="273.3" cy="73.2" r="1.3"/><path d="M423.7 76h-10.5v-4.9h10.5V76zm-10-.5h9.5v-3.8h-9.5v3.8zm.3-3.5h6.8v3.2H414z"/><path d="M423.7 72.3h.9v2.6h-.9z"/></g><g class="D"><path d="M269.9 274h17.7v17.7h-17.7zm0-53h17.7v17.7h-17.7zm0 97.6h17.7v17.7h-17.7z"/><path d="M242.9 291.7h27v27h-27z"/></g><path d="M215.9 264.7h27v27h-27zm0 132.9h27v27h-27zm0-230.9h27v27h-27zm0-57.6h27v27h-27zm0 209.5h27v51.9h-27z" fill="#fff"/><g class="D"><path d="M242.9 370.6h27v27h-27zm0 54.1h27v30.9h-27zm0-230.7h27v27h-27zm0-111.9h27v27h-27zm27 315.6h17.7v17.7h-17.7zm0-235.5h17.7v17.7h-17.7z"/><path d="M269.9 64.4h17.7v17.7h-17.7zM287.6 242h14.3v14.3h-14.3z"/><path d="M301.9 233.1h9v9h-9zm0 49.6h9v9h-9zm0 93.5h9v9h-9zM311 363h5.4v5.4H311zm5.4-13h3v3h-3zm0 78.5h3v3h-3zm0-322.9h3v3h-3zM311 295.8h5.4v5.4H311zm0-82.6h5.4v5.4H311zm-9.1 224.5h9v9h-9zm-14.3-101.3h14.3v14.3h-14.3z"/><path d="M287.6 291.7h14.3V306h-14.3z"/></g><path d="M99.4 378.8c-11.6 15.8-23.8 34-26.7 53.8 0 .3.4.4.5.1 1.4-5.4 3.1-10.7 5.1-15.8 7.6-2.1 15.2-3.8 19.2-11.4 4.1-7.8 3.6-18 2.8-26.5 0-.4-.6-.5-.9-.2z" class="G"/><path d="M78.5 416.8c5.2-11.7 11.9-23.5 20.5-33.1.1-.1.1 0 .1.1-5.6 6.9-9.8 14.3-14 22 3.9-3.9 8.1-7.4 11.7-11.6.1-.1.2 0 .1.1-3.6 4.3-7.6 9.1-12.3 12.3-1.3 2.3-2.5 4.7-3.8 7 .3-.2.6-.3 1-.5.1 0 .1.1.1.1-.4.2-.7.4-1.1.5-.6 1.1-1.2 2.2-1.9 3.3-.2.2-.5 0-.4-.2zm3.9-4.1c3.1-1.8 6.1-3.7 8.9-6 .1-.1.2 0 .1.1-2.8 2.3-5.7 4.4-8.9 6.1-.1.1-.3-.1-.1-.2z" class="B"/><path d="M71.4 429.7c0 .2.4.2.4 0l.1-19.6c1.7-3.4 5.2-5.2 7.7-7.9 1.8-1.9 3.3-4.1 4.6-6.5 3.1-5.5 4.7-11.7 5.4-17.9.7-7-2-29.9-4.9-29.1-1.5.4-6.4 11.8-7.8 15.5-2.1 6.2-3.6 12.6-4.6 19.1-2.3 15.3-2.1 31-.9 46.4z" class="G"/><path d="M71.3 401.6c.4-8.3 2.2-16.6 4-24.6 1.9-8.6 4.1-16.7 8.5-24.4.1-.1.3 0 .2.1-3 5.9-5.2 12.2-6.8 18.7.3-.5.7-.9 1-1.3.1-.2.4 0 .3.2-.4.6-.8 1.4-1.4 2H77c-1.5 6.1-2.6 12.4-3.6 18.7.1-.1.1-.2.2-.2 0-.1.1 0 .1.1-.1.2-.2.4-.4.6-.5 3.2-.9 6.4-1.3 9.5 5.7-4.8 10.5-10.6 13.2-17.6h.1c-2.7 7.3-6.9 13.8-13.4 18.2-.1.8-.2 1.7-.4 2.5 0 .2-.3.1-.3 0 0-.7 0-1.5.1-2.3 0 0-.1-.1 0-.2zm2.7-11.9c4.3-6.5 8.4-12.7 11.5-19.9 0-.1.2 0 .1.1-2.7 7.1-6.4 14.3-11.5 20 0 .1-.2-.1-.1-.2zm5.7-21.5l5.4-9.5c0-.1.2 0 .1.1-1.4 3.3-3.1 6.7-5.2 9.6-.1.1-.4 0-.3-.2zm-.7 1.4h0z" class="B"/><path d="M67 410.9c-.1 4.3-.6 8.6-1.5 12.8.1.5.1.9.2 1.4 1.4-4.7 2.1-9.5 2.3-14.3.1-.1.1-.3 0-.4.2-6.5-.4-13-1.4-19.4-2-12-6.4-23.4-14.8-32.4-.3-.3-.8-.1-.9.2-3.4 8.6-2.2 18.8.7 27.3 1.6 4.6 3.8 9 6.6 13s6.4 7.4 8.8 11.8z" class="G"/><g class="B"><path d="M52.8 362.6c7.9 12.8 13.4 28 14.1 43.2 0 .3-.4.3-.5.1l-.6-4.1c-3.3-3.1-6.6-6.4-9-10.3 0-.1.1-.1.1-.1 2.8 3.3 5.5 6.6 8.7 9.5-.6-3.4-1.2-6.6-2-9.9-.2-.2-.4-.5-.6-.7-.1-.2.1-.4.2-.2l.2.2c-1.1-4.5-2.5-8.8-4.1-13.1-2-2.4-4.3-4.5-5.7-7.4 0-.1.1-.1.1-.1 1.2 1.7 2.3 3.3 3.7 4.9.5.6 1.1 1.2 1.7 1.8-1.8-4.6-3.9-9.1-6.5-13.5-.3-.3 0-.5.2-.3zm1.5 15.8c2.6 3.4 5.5 6.7 7.8 10.3.1.1-.1.2-.2.1-3.1-2.9-5.6-6.8-7.8-10.3 0-.1.2-.2.2-.1z"/><path d="M62.5 389.5l.1.1c.1.1 0 .2-.1.1l-.1-.1c0-.1.1-.2.1-.1z"/></g><path d="M40.4 387.3c.6 6.6 4.1 14.5 8.3 19.6 1.9 2.2 4.2 4 6.8 5.3 2.9 1.4 6 3.1 9 4.3 1.4 3.6 2.5 7.4 3.2 11.4.1-.3.2-.7.3-1-1.9-16.7-12.8-31-26.6-40.2-.5-.4-1.1 0-1 .6z" class="G"/><path d="M45.1 392.2c-.1-.1 0-.3.1-.2 7.3 5.4 13.9 13.3 17.6 21.7.1.2-.2.4-.3.2-.6-1.1-1.3-2.2-2-3.3-3.2-.6-6.1-2.8-8.5-4.9-.1-.1 0-.1.1-.1 1.2 1.1 2.5 2.1 4 2.8 1.3.7 2.7 1.1 4 1.6-1.2-1.9-2.4-3.6-3.7-5.4-3.4-1.2-6.6-3.2-9.5-5.3-.1-.1 0-.2.1-.2 2.9 1.8 5.8 3.3 8.8 4.7-1.9-2.5-4-4.9-6.2-7.3-1.1-.6-2.2-1.1-3.2-1.7-.1 0 0-.2.1-.2.8.3 1.7.7 2.5 1.2-1.2-1.1-2.5-2.4-3.9-3.6zm.3 5.8c.2.1.4.2.5.4.1 0 0 .1-.1.1l-.6-.3c.1-.1.1-.3.2-.2z" class="B"/><path d="M89.6 463.9H51.7l3-34.5.7-7.6h30.4l.7 7.6z" class="F"/><path d="M86.5 429.4H54.7l.7-7.6h30.4z" class="B"/><path d="M53.6 416.5h34.1v7.5H53.6z" class="F"/><g class="I"><path d="M202.2 114.8v8.7H226v3.1h-41.4v7.4H226v32.7h-35.1v8.7H226v12.3h-92.4v-26.6h28.3V152h-28.3v-8.7h11.5v-6.2h-11.5v-25.3H226v3z"/><path d="M224.5 114.8v-3H289v3h-61.5 0z"/></g><path d="M224.5 123.5h3v3h-3zm0 10.5h3v32.7h-3z" class="H"/><g class="I"><path d="M329.7 203.7l-4 2.4-38.2 22v-40.4h-63v-12.3h3v9.3h63v38.2l33.7-19.5 4-2.3zm7.7-4.4v-17.5h3v12.3l43.6-25.2 1.6 2.6zm60.1-60.9l-107-61.8v22.2h19.6v3h-22.6V71.4L399 135.8zm-38-12L358 129l-4-2.4-21.5-12.9h-30.1v12.9H226v-3.1h73.3v-12.8h34l22.2 13.3z"/><path d="M295.8 178.5h-72.6v-3h71.4l29.6-28.2 96 .9v3.1l-94.8-.9z"/><circle cx="358.7" cy="127.7" r="4.9"/><circle cx="333.9" cy="126.6" r="4.9"/><circle cx="381" cy="138.5" r="4.9"/><circle cx="401.7" cy="139.3" r="4.9"/><circle cx="329" cy="202.4" r="4.9"/><circle cx="302.2" cy="202.9" r="4.9"/><circle cx="401.7" cy="159.3" r="4.9"/><circle cx="338.9" cy="181.9" r="4.9"/><circle cx="385.9" cy="169.4" r="4.9"/><circle cx="420.2" cy="149.8" r="4.9"/><circle cx="289" cy="113.3" r="4.9"/><circle cx="285.2" cy="145.1" r="4.9"/><circle cx="310.1" cy="100.7" r="4.9"/><path d="M309.2 137.1H226V134h81.9l8.6-8.6h16.2v3.1h-14.9zm67.7-.1v3h-59l-26.7 26.7h-66.8v-3H290l26.7-26.7zm-312-7.3h68.6v7.4H64.9zm37.7 50.6h31v7.4h-31zm11.1-68.5h19.9v7.4h-19.9zm-13.7 0h7.4v7.4H100zm-11.3 68.5h7.4v7.4h-7.4zm34-19.2h39.2v8.7h-39.2zm-16.4-17.8h27.3v8.7h-27.3zm-15.2 0h8.7v8.7h-8.7zm135.2 0H283v3h-56.7z"/></g><circle cx="239.8" cy="154.7" r="4.9" class="H"/><path d="M244 153.3h56.7v3H244zm60.7 34.4l-10.1-10.1 2.1-2.2 8 8 25.7-25.7h71.3v3.1h-70.1zm-1.4 16.2l-2.1-2.1 35-35.1h22.9l11.3 11.3-2.1 2.2-10.4-10.4h-20.4z" class="I"/><use xlink:href="#B" class="G"/><use xlink:href="#B" opacity=".1"/><use xlink:href="#B" x="-8.9" fill="#106dac"/><g fill="#fff"><path d="M389.2 309.6h-1.4l-16.4-22.5v-12.6h1v12.3z"/><path d="M371.9 271c-1.1 0-2 .9-2 2 0 .9.6 1.7 1.5 2 .2.1.4.1.5.1.2 0 .4 0 .5-.1.9-.2 1.5-1 1.5-2 0-1.1-.9-2-2-2zm0 3c-.5 0-1-.4-1-1 0-.5.4-1 1-1 .5 0 1 .4 1 1s-.5 1-1 1zm9.8 35.6h-1.3L366 289.9v-3.6h1.1v3.3z"/><path d="M366.5 282.8c-1.1 0-2 .9-2 2 0 .9.6 1.7 1.5 1.9.2.1.4.1.5.1.2 0 .4 0 .5-.1.9-.2 1.5-1 1.5-1.9.1-1.1-.8-2-2-2zm0 3c-.5 0-1-.4-1-1 0-.5.4-1 1-1 .5 0 1 .4 1 1 0 .5-.4 1-1 1zm26.9-25.4h1.1v49.2h-1.1z"/><path d="M393.9 256.9c-1.1 0-2 .9-2 2 0 .9.6 1.7 1.5 2 .2.1.4.1.5.1.2 0 .4 0 .5-.1.9-.2 1.5-1 1.5-2 0-1.1-.9-2-2-2zm0 3c-.5 0-1-.4-1-1 0-.5.4-1 1-1 .5 0 1 .4 1 1 0 .5-.4 1-1 1zm17 15.5v12.3l-9.8 18.5v3.4h-1V306l9.8-18.5v-12.1z"/><path d="M410.4 271.9c-1.1 0-2 .9-2 2 0 .9.6 1.7 1.5 2 .2 0 .3.1.5.1s.4 0 .5-.1c.9-.2 1.5-1 1.5-2 0-1.1-.9-2-2-2zm0 3c-.5 0-1-.4-1-1 0-.5.4-1 1-1 .5 0 1 .4 1 1s-.5 1-1 1zm7.6 8.1v4.8l-9.3 16.5v5.3h-1.1V304l9.3-16.5V283z"/><path d="M417.5 279.5c-1.1 0-2 .9-2 2 0 .9.6 1.7 1.5 2a.9.9 0 0 0 .5.1c.2 0 .4 0 .5-.1.9-.2 1.5-1 1.5-2 0-1.1-.9-2-2-2zm0 3c-.5 0-1-.4-1-1 0-.5.4-1 1-1 .5 0 1 .4 1 1-.1.5-.5 1-1 1z"/></g><g class="B"><path d="M184.3 132.2c-1.3 10.2-4.5 22.3-.9 32.4 2.8 7.9 9.6 13.6 16.8 17.4 15.8 8.5 38.6 11.2 51.3-4.1 5.1-6.1 6.9-19.6-.3-25.1-3.7-2.8-8.3-3.8-12.6-5.3-5.7-2-9.6-5.6-11.9-11.2-4.4-10.9-2.8-18.6-2.9-30 0-2.1-.4-4.3-2.3-6.2-1.6-2-3.9-3.4-6.5-4.3-2.1-1.1-4.4-1.8-6.8-1.7-5.1.1-10.3 4.4-14.4 7-4.2 2.6-6.2 5.6-6.9 10.5-1 6.8-1.7 13.7-2.6 20.6z"/><path d="M182.7 136.9l5.6-27.9c0-.1.1 0 .1 0l-4 23c-1.4 7.5-3.4 15.1-4.1 22.8-1.7 17.1 15.4 25.4 30 25.7.7 0 .6 1.1-.1 1-12.8-.7-27.8-6.2-30.5-20.4-1.6-7.7 1.5-16.6 3-24.2zm40.4-31.6c0-.2.3-.2.3 0-.3 9.4-1.5 20.4 3.2 29 2.3 4.2 5.9 7.7 10.2 9.9 3.4 1.7 7.2 2.1 10.8 3.1 14.2 4 12.8 23.5 1.8 30.3-.2.1-.5-.3-.3-.4 7.8-5.3 11.1-15.8 5.7-24.2-4.3-6.7-13.8-5.4-20.1-9.3-13.2-8.1-12.9-24.8-11.6-38.4z"/></g><path d="M154.5 453.1c-2.4-.8-55.5-43.1-56.5-46-.4-1.1 40.6-53 40.6-53l32.6 26.6-26.3 34.8s13.1 25.3 13.9 28.6c.6 3.2-2 9.9-4.3 9z" class="E"/><path d="M150.1 425.4c-.1-.1-.2-.2-.1-.3 0 0 0 .1.1.3z" class="H"/><path d="M154.5 453.1c-2.4-.8-55.5-43.1-56.5-46-.4-1 4.1-7.5 10.2-15.7 8.3 9.7 40.4 46.9 44 44.5 1.4-1-.1-5.7-1.2-8.6 3.6 7.1 7.4 15 7.8 16.7.6 3.3-2 10-4.3 9.1zm-32.9-77.5l33.7 27s55.8-65.8 57.8-75.7c2.3-11.2 8.8-99.3 8.6-103.7-.2-5.3-6-28.7-6-28.7H174l-7.1 118.7c-1.3 3.8-45.3 62.4-45.3 62.4z" class="B"/><g class="D"><path d="M158.6 393.9c-5.4-5.2-26.4-21.9-29-23.3-.1 0-.1.1-.1.1 1.9 2.3 19.8 16.9 29 23.3.1.1.2-.1.1-.1zm59.3-182.1c-.6-.2-1.1-.2-1.7-.4l-1.8-.7c-1.1-.6-2.2-1.3-3.2-2.3s-1.8-2.4-2.5-4c-.4-.8-2.1-5.3-2.1-5.4s-.2 0-.2.1c.1.6 1.3 4.5 1.6 5.5.7 1.8 1.4 3.5 2.6 4.6 1.1 1.1 2.3 1.9 3.6 2.4.6.3 1.3.4 1.9.5s1.2.2 1.7-.1c.2 0 .1-.2.1-.2zm-37-15.3l-.9 23.1-1 23.1-2.2 46.2-1.3 23.1-.2 2.9c0 .1 0 .2-.1.4-.1.1-.1.3-.2.4-.1.2-.3.4-.4.6-.3.4-.5.8-.8 1.2l-3.4 4.7c-2.3 3.1-4.7 6.1-7.1 9.1l-14.5 18-14.7 17.8 14.4-18.1 14.3-18.2c2.4-3 4.7-6.1 7-9.2 1.2-1.5 2.3-3.1 3.4-4.7.3-.4.5-.8.8-1.2.2-.4.6-.8.5-1.1.1-.9.2-1.9.2-2.8l1.2-23.1 2.4-46.2 1.3-23.1 1.3-22.9z"/><path d="M214 320.7l-.8 6.1c-1.1 5.5-19.3 28.8-34.9 48l-10.7-67.5c1.9-24 6.4-112.9 6.4-112.9h20.8L214 320.7z"/></g><path d="M272.7 451.8c-2.2 1.2-69.1 13.2-71.9 12.1-1.1-.4-13.1-65.5-13.1-65.5l41.5-7 8.8 42.8s27.7 6.8 30.6 8.5c3 1.6 6.3 7.9 4.1 9.1z" class="E"/><path d="M249 436.8c-.2 0-.3-.1-.3-.1s.1 0 .3.1z" class="H"/><path d="M272.7 451.8c-2.2 1.2-69.1 13.2-71.9 12.1-1-.4-2.9-8-5.1-18 12.7.2 61.9.6 62.4-3.7.2-1.7-4.4-3.7-7.2-4.7 7.6 2 16.1 4.3 17.7 5.2 3 1.6 6.3 7.9 4.1 9.1zm-65.2-257.3s-1.1 17.9-6 30.6l-7.9 5.1L235.9 421l-43.4 8.4-18.5-98.8L152.4 229c-1.7-10.3 7.8-34.6 7.8-34.6h47.3z" class="B"/><g class="D"><path d="M231.5 411.4c-11.9 1.8-34.8 6.6-37.6 7.8-.1 0 0 .2 0 .1 3 0 30.9-5.6 37.6-7.7.2 0 .1-.2 0-.2zm-66-199.6c.9-.2 1.8-.1 2.7-.2s1.9-.3 2.8-.5c1.7-.5 3.4-1.1 4.9-2 1.6-.9 2.6-2.3 3.6-3.8.5-.8 2.8-5.2 2.8-5.2.1-.1.3 0 .3.1-.1.6-1.6 4.4-2.1 5.4-.9 1.8-2 3.4-3.7 4.5-1.7 1-3.6 1.7-5.5 2.1-1 .2-2 .3-3 .3-.9 0-1.9.1-2.8-.3-.2-.2-.1-.4 0-.4zm37 12.8c-4 1.3-7.8 3.2-11.4 5.2-.1.1-.1.3.1.2 3.9-1.6 7.8-3.2 11.5-5 .3-.1.1-.5-.2-.4zm1.4-26.3c0-.1-.2-.2-.2 0 0 4.6-.3 8.6-.8 12.8-.2 2-1.9 12.9-5.3 12.1-.6-.1-.9-.7-.9-1.6-.1-1 .3-2.3.5-3.3a81.42 81.42 0 0 0 .9-6.9c.4-4.3.5-8.6 0-12.9 0-.1-.2-.1-.2 0 0 6-.3 11.9-1.2 17.8-.5 2.8-1.9 7.1 1 7.6 3 .5 5-6.7 5.4-8.6 1.1-5.6 1.2-11.5.8-17z"/><path d="M197.7 223.4c-.3.7-.6 1.5-.8 2.3-.2.6-.4 1.2-.3 1.9 0 .1.2.1.2.1.4-.5.6-1.2.8-1.8l.8-2.1c.2-.6-.5-.8-.7-.4zm-34-28.9c-1.2 4.5-2.3 9.1-3.3 13.6-1 4.6-2 9.2-2.6 13.8l-.2 1.7c0 .6 0 1.2-.1 1.7l.5 3.4 1.3 6.9 2.8 13.8 11.5 55 11.5 55 5.7 27.5 5.6 27.5-6.1-27.4-6-27.5-11.7-55-11.3-55.1-2.7-13.8-1.2-6.9-.5-3.5c0-1.2.1-2.4.3-3.5.7-4.7 1.7-9.2 2.8-13.8 1.3-4.4 2.5-8.9 3.7-13.4z"/></g><path d="M204.6 152.4c5 25.4 17.9 47.7 25.4 49.5 10.8 2.5 33.5.9 46.8-4.3 3.7-1.5-5.7-29.3-9.8-28.1-5 1.5-27.8 6.2-28.3 6.2-1.1 0-18.5-23.1-22.7-29.1-7.6-11-14.1-8-11.4 5.8z" class="E"/><path d="M285.6 139.8l-15.2 30.4c-.6.9-.2 1.7.7 1.9l16.6 3.7c.9.2 2.1-.3 2.7-1.2l15.2-30.4c.6-.9.2-1.7-.7-1.9l-16.6-3.7c-1-.2-2.2.3-2.7 1.2z" class="D"/><path d="M287.6 140.2l-15.2 30.4c-.6.9-.2 1.7.7 1.9l16.6 3.7c.9.2 2.1-.3 2.7-1.2l15.2-30.4c.6-.9.2-1.7-.7-1.9l-16.6-3.7c-1-.2-2.2.4-2.7 1.2z" class="F"/><circle cx="290.4" cy="142.4" r="1.4" class="B"/><g class="E"><path d="M292.6 182.5c4.4-7.5 4.4-10.1 11.5-14.5 4.7-2.9 4.8-7.1-.8-6.7-9.3.6-17 9.1-18.8 12.8l8.1 8.4z"/><path d="M273.1 198.9s13.9-3.6 19.1-13.6c3-5.7 8.9-16.6 1.3-34.3-1.8-4.2-7.4-8.9-6.9-1 .3 5.6 2.2 9.1 1.8 12.4 0 0-7.8-5.1-11.9-3.2-1.8.9-6.8 3.4-10.4 5.9 0 0 .3.9.9 2 0 0-3.8 2-5.7 8.2l11.8 23.6z"/><path d="M293.1 180.5c-.3-3.4-1-10.5-3.7-16.1-2.9-6.2-10.2-17.5-14.8-15.3-3.4 1.6-.9 6.2-.9 6.2s-4-4-6.7-1.9c-2.5 1.9-.4 5.3-.4 5.3s-2.8-2-4.9.3c-2.4 2.8 3.9 6.6 3.9 11.5 0 1.2 27.5 10 27.5 10z"/></g><path d="M283.4 168.6c-.8-3.1-4.4-9.7-9.6-13.3-.1-.1-.2 0-.1.1 4.8 5 8.3 10.7 9.7 13.2zm-6.4 2.7c-1-2.6-5-9.3-10.3-12.7-.1-.1-.2 0-.1.1 5.2 5.1 8.9 10.3 10.4 12.6 0 .1 0 .1 0 0zm-11.7-2.7c-2 2.7-3.7 5.4-5 8.4.3-3.3 2.3-6.4 5-8.4h0z" class="B"/><path d="M251.2 172.4l2.1 31.5s-20.8 2.8-26.5-2-19-28.1-22.2-46.6 3.4-21.3 14.3-5.6c10.8 15.7 19.5 25.4 20 25.3.5 0 12.3-2.6 12.3-2.6z" class="F"/><path d="M207.8 143.7c.4 0 .8.3.8.8 0 .4-.3.8-.8.8-.4 0-.8-.3-.8-.8s.3-.8.8-.8zm-.8 19.2c0 .4.3.8.8.8.4 0 .8-.3.8-.8 0-.4-.3-.8-.8-.8s-.8.4-.8.8zm12.2 0c0 .4.3.8.8.8.4 0 .8-.3.8-.8 0-.4-.3-.8-.8-.8-.4 0-.8.4-.8.8zm-6.1-9.5c0 .4.3.8.8.8.4 0 .8-.3.8-.8s-.3-.8-.8-.8-.8.4-.8.8zm6.1 27.9c0 .4.3.8.8.8.4 0 .8-.3.8-.8s-.3-.8-.8-.8c-.4 0-.8.4-.8.8zm12.2 0c0 .4.3.8.8.8.4 0 .8-.3.8-.8s-.3-.8-.8-.8c-.4 0-.8.4-.8.8zm12.3 0c0 .4.3.8.8.8.4 0 .8-.3.8-.8s-.3-.8-.8-.8-.8.4-.8.8zm-30.6-9.4c0 .4.3.8.8.8.4 0 .8-.3.8-.8s-.3-.8-.8-.8-.8.3-.8.8zm12.2 0c0 .4.3.8.8.8s.8-.3.8-.8-.3-.8-.8-.8-.8.3-.8.8zm25 .7c.1 0 .2.1.3.1.2 0 .4-.1.6-.3-.2 0-.5.1-.9.2zm-18.9 27.2c0 .4.3.8.8.8.4 0 .8-.3.8-.8 0-.4-.3-.8-.8-.8-.4 0-.8.3-.8.8zm12.3 0c0 .4.3.8.8.8.4 0 .8-.3.8-.8 0-.4-.3-.8-.8-.8s-.8.3-.8.8zm-18.4-9.5c0 .4.3.8.8.8s.8-.3.8-.8c0-.4-.3-.8-.8-.8s-.8.4-.8.8zm12.3 0c0 .4.3.8.8.8.4 0 .8-.3.8-.8 0-.4-.3-.8-.8-.8s-.8.4-.8.8zm12.2 0c0 .4.3.8.8.8s.8-.3.8-.8c0-.4-.3-.8-.8-.8s-.8.4-.8.8z" class="D"/><path d="M245.6 174.9c0-.1-.2-.1-.2 0-.1 9.3.5 18.6 1.5 27.8 0 .1.2.1.2 0-.1-9.3-.5-18.6-1.5-27.8z" class="B"/><path opacity=".1" d="M236.2 204.6c-3.9-.3-7.5-1-9.5-2.6-5.7-4.8-19-28.1-22.2-46.6-2.3-13.4.5-18.5 6.3-14.5l25.4 63.7z"/><path d="M216.3 185.9l-.6 8.5h-55.6s12.1-36.1 31.7-52.4c8.5-7.1 17.9-2.4 21.6 4.7.9 1.8 9 20.8 9 28 .1 7.9-6.1 11.2-6.1 11.2z" class="F"/><path d="M195.5 143.7c.4 0 .8.3.8.8 0 .4-.3.8-.8.8-.4 0-.8-.3-.8-.8.1-.5.4-.8.8-.8zm11.5.7c0 .4.3.8.8.8.4 0 .8-.3.8-.8 0-.4-.3-.8-.8-.8-.5.1-.8.4-.8.8zm-24.5 18.5c0 .4.3.8.8.8.4 0 .8-.3.8-.8 0-.4-.3-.8-.8-.8-.4 0-.8.4-.8.8zm12.3 0c0 .4.3.8.8.8.4 0 .8-.3.8-.8 0-.4-.3-.8-.8-.8s-.8.4-.8.8zm12.2 0c0 .4.3.8.8.8.4 0 .8-.3.8-.8 0-.4-.3-.8-.8-.8s-.8.4-.8.8zm12.5-.7c-.2.1-.3.4-.3.6 0 .4.4.8.8.8-.1-.4-.3-.9-.5-1.4zm-30.9-8.8c0 .4.3.8.8.8.4 0 .8-.3.8-.8s-.3-.8-.8-.8c-.4 0-.8.4-.8.8zm12.3 0c0 .4.3.8.8.8.4 0 .8-.3.8-.8s-.3-.8-.8-.8-.8.4-.8.8zm12.2 0c0 .4.3.8.8.8.4 0 .8-.3.8-.8s-.3-.8-.8-.8-.8.4-.8.8zm-42.8 27.9c0 .4.3.8.8.8.4 0 .8-.3.8-.8s-.3-.8-.8-.8-.8.4-.8.8zm12.2 0c0 .4.3.8.8.8.4 0 .8-.3.8-.8s-.3-.8-.8-.8c-.4 0-.8.4-.8.8zm12.3 0c0 .4.3.8.8.8.4 0 .8-.3.8-.8s-.3-.8-.8-.8-.8.4-.8.8zm12.2 0c0 .4.3.8.8.8.4 0 .8-.3.8-.8s-.3-.8-.8-.8-.8.4-.8.8zm13-.8c-.4 0-.8.4-.8.8s.4.8.8.8c.1 0 .3 0 .4-.1.1-.2.3-.4.4-.6h0c0-.5-.4-.9-.8-.9zm-43.6-8.6c0 .4.3.8.8.8.4 0 .8-.3.8-.8s-.3-.8-.8-.8c-.4 0-.8.3-.8.8zm12.2 0c0 .4.3.8.8.8.4 0 .8-.3.8-.8s-.3-.8-.8-.8c-.4 0-.8.3-.8.8zm12.3 0c0 .4.3.8.8.8.4 0 .8-.3.8-.8s-.3-.8-.8-.8-.8.3-.8.8zm12.2 0c0 .4.3.8.8.8.4 0 .8-.3.8-.8s-.3-.8-.8-.8-.8.3-.8.8zm-48.9 18.4c0 .4.3.8.8.8.4 0 .8-.3.8-.8 0-.4-.3-.8-.8-.8s-.8.4-.8.8zm12.2 0c0 .4.3.8.8.8.4 0 .8-.3.8-.8 0-.4-.3-.8-.8-.8-.4 0-.8.4-.8.8zm12.2 0c0 .4.3.8.8.8.4 0 .8-.3.8-.8 0-.4-.3-.8-.8-.8-.4 0-.8.4-.8.8zm12.3 0c0 .4.3.8.8.8.4 0 .8-.3.8-.8 0-.4-.3-.8-.8-.8s-.8.4-.8.8zm12.2 0c0 .4.3.8.8.8.4 0 .8-.3.8-.8 0-.4-.3-.8-.8-.8s-.8.4-.8.8z" class="D"/><path d="M207 180c-2.7.3-5.5.7-8.1 1.4l-3.9 1.2-1.9.6c-.7.2-1.4.4-2.1.4-.1 0-.1.1 0 .1.7 0 1.3 0 2-.1.6-.1 1.3-.2 1.9-.4l4-1.1 8.2-2c.1.1 0-.2-.1-.1zm6.8 2.3l-6.8-.3c-1.1 0-2.3.1-3.4.2-.5.1-1.1.1-1.6.2l-1.8.3c-.1 0-.1.1 0 .1.6-.1 1.1 0 1.7 0s1.1 0 1.7-.1l3.4-.1 6.8-.2c.1.1.1-.1 0-.1z" class="B"/><g class="E"><path d="M195.3 139.6c-25.8.5-51.8 5-55.9 11.7-5.6 9-7.6 32-7.5 45.1 0 3.8 29.9 2.9 29.9-1.2 0-5-.7-28.6-.5-29.1.3-1 27.2-13.6 33.7-16.5 10.7-4.8 11.7-10.2.3-10z"/><path d="M162.4 232.1c-2.9 1.3-5.1-1.2-5.1-1.2s-1.4 2.1-3.8 2.7c-2.7.6-4.9-3.4-4.9-3.4s-1.8 1.9-4.4 2.2c-2.7.3-5.4-3.4-5.4-3.4s-2.7.8-5.1-.5c-4.1-2.3-4.6-9.4-4.9-14s3-17.8 3.4-20.4l29.3-2.3s7.3 20.1 6.9 25.5c-.3 4.5-2.7 13.4-6 14.8z"/></g><path d="M157.8 230.7c1.5-4.8 1.5-9.7 1.8-14.7 0-.1-.2-.1-.2 0-.2 4.9-1.5 9.7-1.9 14.6 0 .1.2.2.3.1zm-8.8-.6c.3-1.1.3-2.3.3-3.4v-3.6l-.3-7.3c0-.1-.2-.1-.2 0v7.2l-.1 3.6c0 1.1-.2 2.3 0 3.4 0 .2.3.2.3.1zm-10.2-1.2c.3-.9.1-2.1.1-3.1l-.1-3.3-.1-6.6c0-.1-.2-.1-.2 0l-.1 6.7v3.3c0 .9-.1 2.1.3 3h.1z" class="B"/><path d="M162.4 180.6l-32.5-3.7s4.4-22.4 10.1-27.2 33.9-10.7 52.6-11.1c16.7-.4 13.1 9.2.4 13.8-17.9 6.6-30.3 14.6-30.4 15.1.1.6-.2 13.1-.2 13.1z" class="F"/><path d="M158.8 143.7c.4 0 .8.3.8.8 0 .4-.3.8-.8.8s-.8-.3-.8-.8c.1-.5.4-.8.8-.8zm11.5.7c0 .4.3.8.8.8.4 0 .8-.3.8-.8 0-.4-.3-.8-.8-.8-.5.1-.8.4-.8.8zm12.2 0c0 .4.3.8.8.8.4 0 .8-.3.8-.8 0-.4-.3-.8-.8-.8-.4.1-.8.4-.8.8zm12.3 0c0 .4.3.8.8.8.4 0 .8-.3.8-.8 0-.4-.3-.8-.8-.8-.5.1-.8.4-.8.8zm-60.4 17.7c-.3 0-.5.1-.6.3 0 .1-.1.3-.1.4h0c0 .4.4.8.8.8s.8-.3.8-.8c-.1-.3-.5-.7-.9-.7zm11.4.8c0 .4.3.8.8.8.4 0 .8-.3.8-.8 0-.4-.3-.8-.8-.8-.4 0-.8.4-.8.8zm12.3 0c0 .4.3.8.8.8s.8-.3.8-.8c0-.4-.3-.8-.8-.8s-.8.4-.8.8zm13-.8c-.4 0-.7.3-.8.7l1.1-.6c-.1-.1-.2-.1-.3-.1zm-31.4-8.7c0 .4.3.8.8.8.4 0 .8-.3.8-.8s-.3-.8-.8-.8c-.4 0-.8.4-.8.8zm12.2 0c0 .4.3.8.8.8.4 0 .8-.3.8-.8s-.3-.8-.8-.8c-.4 0-.8.4-.8.8zm12.3 0c0 .4.3.8.8.8.4 0 .8-.3.8-.8s-.3-.8-.8-.8-.8.4-.8.8zm12.2 0c0 .4.3.8.8.8.4 0 .8-.3.8-.8s-.3-.8-.8-.8c-.4 0-.8.4-.8.8zm13-.8c-.4 0-.8.4-.8.8 0 .3.1.5.3.6.4-.2.8-.3 1.2-.5v-.2c.1-.3-.3-.7-.7-.7zm-49.7 19.3c0 .4.3.8.8.8.4 0 .8-.3.8-.8s-.3-.8-.8-.8c-.4 0-.8.3-.8.8zm12.2 0c0 .4.3.8.8.8.4 0 .8-.3.8-.8s-.3-.8-.8-.8c-.4 0-.8.3-.8.8z" class="D"/><g class="B"><path d="M161.1 173.3c.1 0 .1-.2 0-.2-9.1-1.6-18.4-2.6-27.6-3.3-.1 0-.1.2 0 .2 9.1 1.6 18.3 2.8 27.6 3.3zm1.3 7.3c-.1-3.8 0-9.3 0-13.1 0-.2 0-.1.1-.3 9-5.9 18.6-11.1 29-14.1-10.1 3.8-19.6 8.9-28.7 14.7l.1-.3c0 3.9-.2 9.3-.5 13.1h0z"/><path d="M184.6 156c1.9-.8 3.8-1.2 5.8-1.5-1.8 1-3.8 1.4-5.8 1.5h0z"/></g><path d="M200.6 140.7c.1 1.1 4.5 8.9 9.6 9.3 1.6.1 2.7-8.8 2.7-8.8l.2-.6 3.2-9-10-8.3-1.5-1.1-1.6 5.7c0 .1-.1.3-.1.4-.1.2-.1.3-.1.5-.1.5-.3.9-.4 1.4-.1.4-.2.7-.3 1.1s-.2.8-.3 1.1c-.8 3.9-1.4 7.9-1.4 8.3z" class="E"/><path d="M203.3 127.8c1.8 7.7 7.3 11.4 9.9 12.8l3.2-9-10-8.3-1.5-1.1c-.1-.1-.8 2.4-1.6 5.6z" class="B"/><path d="M230.3 115.6c2.6 16.6-7.1 20-10.6 20.6-3.2.5-14.4 1.8-18.7-14.4s2.6-22.7 10-24.2c7.3-1.7 16.7 1.4 19.3 18z" class="E"/><g class="B"><path d="M226.5 111.4c-.4 0-.8 0-1.2-.1-.4 0-.8 0-1.2-.3-.2-.2-.2-.5-.1-.7.3-.5.9-.6 1.4-.6.6 0 1 .2 1.5.5.5.4.1 1.1-.4 1.2zm-10.7 3.2c.4 0 .8-.1 1.2-.1s.8 0 1.2-.3c.2-.2.2-.5.1-.7-.3-.5-.9-.6-1.4-.5-.6 0-1 .2-1.5.6-.5.3-.1 1 .4 1zm3 3.3l-.1.1c.2 1.1.3 2.4-.6 3v.1c1.2-.4 1.1-2.1.7-3.2z"/><path d="M217.6 116.9c-1.8.2-1.3 3.8.4 3.7 1.6-.2 1.1-3.8-.4-3.7z"/><path d="M216.9 117.2c-.3.3-.6.7-.9.8-.4.1-.8-.2-1.2-.6 0 0-.1 0-.1.1.1.7.5 1.4 1.2 1.4s1.1-.7 1.2-1.4c.1-.2-.1-.4-.2-.3zm8.1-.5s.1 0 .1.1c.1 1.1.4 2.4 1.5 2.7v.1c-1.3-.1-1.7-1.8-1.6-2.9z"/><path d="M225.8 115.3c1.8-.4 2.4 3.3.8 3.6-1.7.4-2.3-3.2-.8-3.6z"/><path d="M226.6 115.5c.3.1.7.4 1 .4.4 0 .6-.5.8-.9h.1c.1.7 0 1.5-.6 1.7s-1.1-.3-1.4-1c-.1-.1 0-.3.1-.2zm-6.5 11.4c.3.2.6.6 1 .6s.8-.2 1.2-.4c0 0 .1 0 .1.1-.3.5-.8.8-1.4.8-.5 0-.8-.5-1-.9 0-.2.1-.3.1-.2zm4.1-4.8l.6 2.4c0 .1-.2.1-.4.2-1.4.4-2.9.2-3.9-.9-.1-.1 0-.2.1-.1 1.2.6 2.4.6 3.6.5 0-.2-.9-2.8-.8-2.8.4-.1 1.3.1 1.9.1-.9-3.5-2.4-6.8-3.3-10.2 0-.1.1-.2.2-.1 1.8 3.3 2.9 7.3 4 10.9.1.4-1.6.1-2 0zm-23.2.9c2.9-.1 2.8-6.1 2.8-6.1s5.8-.6 6.7-9.1c0 0 .3 3.9-1.8 7.1 0 0 10-2.2 13.4-11.2 0 0-1.2 4.5-2.6 6.2 0 0 4.1-1.7 5.8-5.4 0 0 2.3 4.7 3.9 5.9 0 0-2.4-17.7-18.7-14 0 0-10.2 1.9-13 10.4-2.8 8.7 3.5 16.2 3.5 16.2z"/></g><path d="M204.3 122.3s-3.8-5.2-6.1-3.8c-2.4 1.4.6 8.9 3.4 9.9s3.8-1.6 3.8-1.6l-1.1-4.5z" class="E"/><path d="M199.1 120.6s0 .1 0 0c2 .8 3 2.6 3.8 4.5-.6-.7-1.4-1.1-2.4-.4-.1 0 0 .1.1.1.8-.2 1.4-.1 1.9.6.4.4.7 1 1 1.5.1.2.4.1.3-.1 0-2.5-2-6-4.7-6.2z" class="B"/><path fill="#fff" d="M212.9 141.4l-3.8 7.1L201 138l-2.9 2.7s7.3 15.8 7.4 15.2l3.8-6 3.9 4.9.9-11.2-1.2-2.2z"/><path d="M213.9 149.3l.2-5.6c0-.1-.1-.1-.1 0-.6 1.7-.9 8.8-1.1 10.5-.2-.2-3.6-4.4-3.7-4.3-.8.9-3.5 5.3-3.7 5.7-1.2-2.5-5.6-11.7-7.1-14.1 0-.1-.1 0-.1.1 1 2.6 6.9 15 7 15 .1.1 3.5-5.3 3.9-6.4.6.9 4 5.5 4.1 5.2.3-1.8.5-4.2.6-6.1z" class="B"/><defs ><path id="B" d="M336.5 293.1c0 8.7 6.7 15.8 15.2 16.4h0 93a19.25 19.25 0 0 0 19.3-19.3 19.26 19.26 0 0 0-17.5-19.2c-.6-17.5-14.9-31.5-32.5-31.5-14 0-26 8.9-30.5 21.3-2.6-1.3-5.5-2-8.6-2-10.3 0-18.7 8-19.3 18.1-.9-.1-1.8-.2-2.7-.2-9 0-16.4 7.4-16.4 16.4z"/></defs></svg>