<?xml version="1.0" encoding="UTF-8" standalone="no"?>
<svg
   xmlns:dc="http://purl.org/dc/elements/1.1/"
   xmlns:cc="http://creativecommons.org/ns#"
   xmlns:rdf="http://www.w3.org/1999/02/22-rdf-syntax-ns#"
   xmlns:svg="http://www.w3.org/2000/svg"
   xmlns="http://www.w3.org/2000/svg"
   xmlns:sodipodi="http://sodipodi.sourceforge.net/DTD/sodipodi-0.dtd"
   xmlns:inkscape="http://www.inkscape.org/namespaces/inkscape"
   version="1.0"
   width="540pt"
   height="540pt"
   viewBox="0 0 540 540"
   preserveAspectRatio="xMidYMid meet"
   id="svg3929"
   sodipodi:docname="logo-sm.svg"
   inkscape:version="0.92.5 (2060ec1f9f, 2020-04-08)">
  <metadata
     id="metadata3935">
    <rdf:RDF>
      <cc:Work
         rdf:about="">
        <dc:format>image/svg+xml</dc:format>
        <dc:type
           rdf:resource="http://purl.org/dc/dcmitype/StillImage" />
        <dc:title></dc:title>
      </cc:Work>
    </rdf:RDF>
  </metadata>
  <defs
     id="defs3933" />
  <sodipodi:namedview
     pagecolor="#ffffff"
     bordercolor="#666666"
     borderopacity="1"
     objecttolerance="10"
     gridtolerance="10"
     guidetolerance="10"
     inkscape:pageopacity="0"
     inkscape:pageshadow="2"
     inkscape:window-width="1366"
     inkscape:window-height="692"
     id="namedview3931"
     showgrid="false"
     inkscape:zoom="0.47745047"
     inkscape:cx="580.15235"
     inkscape:cy="356.66667"
     inkscape:window-x="900"
     inkscape:window-y="1190"
     inkscape:window-maximized="1"
     inkscape:current-layer="svg3929" />
  <g
     transform="matrix(0.1,0,0,-0.1,-4.429153,541.35831)"
     id="g3927"
     style="fill:#fff">
    <path
       d="M 2450,4939 C 842,4654 950,4674 929,4653 901,4625 80,2361 87,2329 91,2307 1738,349 1830,256 c 21,-22 37,-29 67,-28 51,0 2609,439 2651,455 19,6 40,23 48,37 30,52 825,2257 826,2288 0,18 -6,40 -13,50 -83,104 -1682,2008 -1714,2040 -39,37 -49,42 -87,41 -24,-1 -545,-91 -1158,-200 z m 760,-86 c -14,-10 -319,-228 -678,-486 -360,-257 -657,-467 -662,-465 -10,4 -644,598 -648,607 -2,6 1946,357 1998,360 8,1 4,-6 -10,-16 z m 558,-880 c 122,-476 221,-867 219,-868 -5,-4 -1897,688 -1897,694 1,6 1441,1040 1450,1041 3,0 106,-390 228,-867 z m 704,-109 c 348,-415 635,-759 636,-765 2,-5 -20,-9 -50,-10 -29,0 -231,-11 -448,-23 -217,-12 -395,-22 -396,-22 -1,1 -357,1392 -410,1601 -6,25 -84,116 668,-781 z m -2767,-94 c 0,-8 -1269,-1082 -1284,-1088 -6,-2 476,1336 614,1706 5,12 670,-602 670,-618 z m 1260,-509 c 517,-189 946,-346 954,-350 15,-9 41,13 -948,-815 -333,-278 -607,-506 -610,-506 -3,0 -84,442 -180,983 -95,540 -176,995 -179,1011 -4,23 -2,28 9,24 8,-3 437,-159 954,-347 z m -1161,282 c 22,-105 346,-1957 344,-1963 -4,-9 -1759,784 -1761,796 -2,8 1391,1192 1405,1193 3,1 9,-11 12,-26 z m 3366,-660 c 0,-11 -612,-1697 -619,-1705 -3,-4 -71,367 -150,823 -79,457 -140,833 -136,837 7,7 678,48 828,51 42,0 77,-2 77,-6 z M 4226,1837 c 86,-499 154,-910 151,-913 -6,-6 -1828,500 -1855,515 -9,5 245,224 764,659 428,358 779,650 780,649 1,-1 73,-410 160,-910 z M 1498,1644 c 364,-164 662,-303 662,-308 0,-23 -295,-815 -301,-808 -32,36 -1287,1520 -1292,1529 -4,7 54,-16 130,-51 76,-34 436,-197 801,-362 z m 1712,-609 c 448,-125 818,-231 822,-234 4,-4 -436,-83 -977,-175 -542,-93 -987,-167 -990,-164 -3,2 61,186 142,407 134,368 148,402 167,398 12,-2 388,-106 836,-232 z"
       id="path3907"
       inkscape:connector-curvature="0" />
  </g>
</svg>
