<svg xmlns="http://www.w3.org/2000/svg" viewBox="0 0 500 500" xmlns:v="https://vecta.io/nano"><style><![CDATA[.B{fill:#263238}.C{fill:#ebebeb}.D{fill:#d3766a}.E{fill:#fff}.F{fill:#1275b3}.G{stroke-miterlimit:10}.H{fill:#37474f}.I{fill:#0d62a3}.J{fill:#a6a6a6}]]></style><path d="M426.6 233.9a29.63 29.63 0 0 1-8.4 3.4c-7.9 1.8-15.8.3-22.1-3.8-6.2-3.9-10.9-10.2-12.7-17.9-3.6-15.6 6.1-31.2 21.7-34.8s31.2 6.1 34.8 21.7a28.97 28.97 0 0 1-13.3 31.4z" class="C"/><g class="E"><circle cx="411.7" cy="205.7" r="8.8"/><path d="M426.7 230.3v3.6a29.63 29.63 0 0 1-8.4 3.4c-7.9 1.8-15.8.3-22.1-3.8v-3.6c.1-8.4 7-15.2 15.4-15.1s15.2 7.1 15.1 15.5z"/></g><path d="M100.6 147.6c-1.7 1-3.5 1.8-5.5 2.2-5.2 1.2-10.3.2-14.5-2.5-4.1-2.6-7.1-6.7-8.3-11.7-2.4-10.2 4-20.4 14.2-22.8s20.4 4 22.8 14.2c1.9 8.3-1.8 16.5-8.7 20.6z" class="C"/><g class="E"><circle cx="90.8" cy="129.1" r="5.8"/><path d="M100.6 145.2v2.4c-1.7 1-3.5 1.8-5.5 2.2-5.2 1.2-10.3.2-14.5-2.5v-2.4c.1-5.5 4.6-9.9 10.1-9.9 5.6.2 10 4.7 9.9 10.2z"/></g><path fill="none" stroke="#ebebeb" d="M59.3 64.2h125.6v85.6H59.3z" class="G"/><circle cx="66.2" cy="69.3" r="2.5" class="J"/><circle cx="76.5" cy="69.3" r="2.5" class="C"/><circle cx="86.8" cy="69.3" r="2.5" class="F"/><path fill="none" stroke="#ebebeb" d="M59.3 74.2h125.6" class="G"/><path d="M70.651 182.087l65.987-8.998 5.701 41.812-65.987 8.998z" class="C"/><g class="E"><path d="M136.6 173.1l-7 8.6-7.1 8.4-7.5 8.7c-.1.1-.1.2-.2.3l-6.7 7.6-.3.4-.4-.3-8.5-5.6c-.1-.1-.2-.1-.3-.2l-9.6-6.4-9.1-6.2-9.1-6.4c3.1 1.8 6.2 3.7 9.3 5.6l9.3 5.7 10.3 6.5 7.7 4.9c2-2.3 4.1-4.6 6.1-6.8l8.2-9.1 7.4-8 7.5-7.7z"/><path d="M99.8 200.8c0 .1 0 .1 0 0l-1 1.1-4.5 4.7-5.8 5.5-6 5.3-6.2 5 5.5-5.8 5.8-5.5 6-5.3 5-4c.4-.3.7-.6 1.2-1 0 .1 0 .1 0 0zm42.2 12.8l-7.4-3.2-7.2-3.5-7-3.8-5.6-3.3c-.4-.2-.8-.5-1.2-.7 0 0-.1 0-.1-.1h.1l1.4.6 5.9 2.6 7.2 3.5 7 3.8 6.9 4.1z"/></g><path d="M343.3 62.2H425V114h-81.7z" class="C"/><g class="E"><path d="M425 62.2c-3.3 3.2-6.7 6.2-10 9.3l-10.1 9.1-10.6 9.3-.3.3-9.4 8.2-.5.4-.5-.4-9.4-8.2-.3-.3-10.6-9.3-10.1-9.1-10-9.3a419.96 419.96 0 0 1 10.4 8.3L364 79l11.5 9.6 8.6 7.3 8.6-7.3 11.5-9.6c3.4-2.9 6.9-5.7 10.3-8.5l10.5-8.3z"/><path d="M375.7 89.9s-.1 0 0 0c-.5.5-1 .8-1.4 1.2l-6.3 5-7.9 5.8-8.1 5.5-8.4 5.1 7.7-6.2 7.9-5.8 8.2-5.5 6.7-4.1 1.6-.9c-.1-.1 0-.1 0-.1zm49.1 22.5l-8.4-5.1-8.2-5.5-7.9-5.8-6.3-5c-.4-.4-.9-.7-1.3-1.1l-.1-.1s.1 0 .1.1l1.6.9 6.7 4.1 8.1 5.5 7.9 5.8c2.8 2 5.3 4 7.8 6.2z"/></g><ellipse cx="236.1" cy="442.8" rx="143.2" ry="11.1" class="C"/><path fill="none" stroke="#c7c7c7" d="M284.1 137.6V0" class="G"/><g class="I"><path d="M243.2 176.9l3.3 7.2h75.1l3.3-7.2-32-22.1h-17.7z"/><path d="M273 133.5l2.2 21.3h17.7l2.2-21.3z"/></g><path opacity=".1" d="M243.2 176.9l3.3 7.2h75.1l3.3-7.2zm32-22.1l-.2-2.3 18.3-1.3-.4 3.6z"/><path fill="none" stroke="#c7c7c7" d="M215.9 94.3V0" class="G"/><g class="I"><path d="M175.1 133.6l3.3 7.2h75.1l3.3-7.2-32-22.1h-17.7z"/><path d="M204.9 90.2l2.2 21.3h17.7l2.2-21.3z"/></g><path opacity=".1" d="M175.1 133.6l3.3 7.2h75.1l3.3-7.2zm32-22.1l-.3-2.5 18.4-1.2-.4 3.7z"/><path fill="#106dac" d="M83.4 427.3l166.6.7c40.5-31.8 44.7-78.9 15.8-107.5-17.5-17.3-39.7-13.8-60.8-16.5h-.1c-7.4-1-14.6-2.7-21.4-6.3-21.8-11.5-34-38.6-52.3-61.4-2.3-2.9-4.7-5.6-7.2-8.3-15.1-16.1-45-16.6-60.7 6-39.9 57.5-21.6 143 20.1 193.3z"/><path opacity=".1" d="M79.7 295.9c4.4 68.3 83.3 93.9 132.6 73.4 42.9-17.8 28.8-58.4-7.3-65.2h-.1c-7.4-1-14.6-2.7-21.4-6.3-21.8-11.5-34-38.6-52.3-61.4-27.4-14.2-54.7 9.4-51.5 59.5z"/><path d="M387.3 313.7c.3-5.1 1-10.1 2.1-15 1.1-4.5 2.6-9 5.4-12.7 2.6-3.4 6.3-6 10.5-6.6 4.1-.5 8 1.3 11.1 3.9 3.8 3.2 6.8 7.5 9.5 11.6 3.1 4.6 5.7 9.4 8.2 14.4.1.2-.2.3-.2.1-2.1-4.2-4.6-8.2-7.3-12-2.6-3.6-5.3-7.1-8.5-10.2-2.8-2.8-6.4-5.3-10.5-5.5-4.1-.1-7.9 2.2-10.3 5.3-2.7 3.5-4.1 7.9-5.2 12.2-1.1 4.7-1.7 9.5-2.1 14.3-.8 9.9-1 19.9-1.2 29.8l-.3 16.9-.1 8.5c0 2.7.1 5.5-.3 8.2-.1.6-1 .5-1.1 0-.5-2.6-.3-5.2-.4-7.8l-.1-8.1-.1-15.8c.1-10.4.2-21 .9-31.5z" class="B"/><path d="M401.5 306.2c.5-2.8 1.5-6.5 3.1-8.6 2.9-3.9 6-2.2 3.1 2.1-3.1 4.7-3.6 8.4-4 10.7 0 0 4.8 6.9 10.6 10.3-.2-2.6-1-6.7-.5-10.7 1.1-8.5 6.3-8 5-1.3-1 5.4-1.4 11.2-1.2 13.7 1.7 1.3 4.7 2.5 6.2 3l-1.1-3.6c-2.1-7.6 3-10 3.2-5.7.1 3.5 1.5 9 2 10.8l6.5 2.1c5.9 2.1 9.5 6.5 9.5 6.5 2.7-2.4 4.8-5.2 6.5-8.4a143.56 143.56 0 0 0-8.5-6.6c-7.3-5.2-4.8-11.7 1-7.6 4.2 2.9 7.4 8.3 8.9 11.1 2-4.8 3.1-10.1 3.3-15.2-5.7-5.4-20-12.9-15.7-12.9 3.9 0 12.5 5.7 15.6 7.8-.1-1.5-.2-3-.5-4.4-5.4-3.5-23-9.1-20.2-10.7 3.1-1.7 15.3 3.9 19.1 5.7-.8-2.6-1.9-4.9-3.3-6.7-7.5-10-21-13.5-26.8-11.6-4.2 1.3-2.9 11.9-3.8 11.6-16.6-6.6-24.2-1.9-18 18.6zm40.9-1.1c1.2-1.4 6.7 2.8 5.1 5.1s-6.6-3.3-5.1-5.1zm-28.6-9c1.4.9-.7 6.3-2.9 4.6-1.9-1.4 1.4-5.6 2.9-4.6z" class="F"/><path d="M416 297.7l2.4-4.4c.8-1.4 1.7-2.8 2.8-4-.2-.3-.5-.6-.7-.9-.1-.1.1-.3.2-.2.3.3.5.6.8 1 .1 0 .1.1.1.1l2.9 3.8c1.6.3 3.3.9 4.9 1.4l4.9 1.8c.2.1.1.3-.1.3l-4.8-1.9-4.7-1.4 1.5 2.2c2.9.8 5.8 2.2 8.6 3.5l8.5 4.6c.2.1 0 .3-.1.2-2.7-1.6-5.6-3-8.4-4.4l-8.2-3.5c6.8 10.7 10.9 22.9 16.4 34.3.1.2-.2.3-.2.1-1.7-4-3.6-7.9-5.4-11.8l-4.9-10.6-1.5-3.1c.3 5.7.2 11.5 1.1 17.1 0 .2-.3.2-.3 0-.4-6.1-1.5-12.1-1.4-18.2v-.1l-3.7-6.9c-2.3 5.3-4.6 10.7-5.7 16.5 0 .2-.3.1-.3-.1 1.5-5.7 3-11.5 5.7-16.8-1.5-2.4-3.1-4.7-4.8-6.9-.8 1.4-1.7 2.8-2.6 4.1-.8 1.3-1.7 2.7-2.4 4-1.7 2.9-3.1 5.9-4.3 9-.1.2-.3.1-.3-.1 1.1-2.7 2.5-5.8 4-8.7zm-53.9 13c4.4-4.4 9.5-10.2 16.2-10.2 6.5 0 11.3 5.3 14.1 10.7 2.9 5.7 3.9 12.1 4.7 18.4 1 7.5 1.5 15 1.7 22.6.1 4.2.1 8.4 0 12.6s-.2 8.5-1 12.7c-.1.7-1.2.7-1.2 0-.2-3.5-.1-7.1 0-10.6 0-3.5 0-7-.2-10.4-.3-7-.8-14.1-1.6-21-.7-6.1-1.3-12.4-3.1-18.3-1.6-5.3-4.7-11.4-10.1-13.7-7.4-3.2-14.5 2.6-19.4 7.6 0-.1-.2-.3-.1-.4z" class="B"/><path d="M339.8 320.5h0l.1 2.7c2-1.4 4.5-2.7 7.2-3 6.2-.7 5.8 4.1 1.7 4.3-4 .2-6.6.9-8.5 1.7 1 8.2 3.3 14.8 3.6 14.9s7.9-.5 16.4-2.1c-1.5-3.3-5.1-7.7-3.3-8 1.8-.4 3.8 3.5 4.8 7.7 4.1-.8 8.3-1.9 12-3.3-2.7-2.4-7-5.3-5.3-6.6 1.6-1.3 5 2.9 7 5.9 2-.9 3.8-1.8 5.2-2.9-3.7-5.4-12.7-6.5-11.5-10.4 1.2-4 9.6 1.5 13.3 8.8 4.4-4.6 5.7-11.1 5.3-16.7-3.9-.4-11.3.4-10.7-2.4.5-2.6 5.9-2.2 10.3-.6-.5-2.5-1.5-4.7-2.6-6.1-4.1-5.2-16.5 1.4-16.5 1.4s1.3-12.5-3.4-14.6c-2.7-1.2-7.5-1.2-12.4 1.6 2.7.2 6 1.1 7.3 3 1.7 2.4-1 3.7-2.7 2.6-1.2-.8-3.4-3.3-7.4-3.6-1.6 1.3-3.1 2.9-4.5 5-.5.6-.9 1.3-1.3 2.1 3.9-1.6 9.1-2.5 14.5.3 5.4 2.7 2.4 8.3-2.3 6.1-4.6-2.1-9-4.3-13.9-3.1-1.8 4.2-2.4 9.1-2.4 13.9 1.8-1.3 4.6-2.9 8-3.8 5.4-1.4 7 1.8 1.1 2.4-3.8.2-7 1.6-9.1 2.8zm6.5-8.6c-.4-1.7 3.4-2.2 4.1-.8.5 1.2-3.7 2.5-4.1.8zm32.5 9.6c.4-.9 2.9.1 2.7 1.3-.4 1.6-3.1-.4-2.7-1.3zm-18 6.1c1.9-.7 4.7 3.9 2.7 4.9s-4.2-4.3-2.7-4.9z" class="F"/><path d="M344.6 340.1l8.5-13.9 4.3-6.3c-.2 0-.4-.1-.7-.2-.4-.1-.7-.1-1.1-.2l-2.6-.4c-.8-.1-1.6-.1-2.4-.1l-2.6.1c-.1 0-.1-.1 0-.1l2.6-.1 2.5.1c.8 0 1.6.1 2.4.2.4.1.9.1 1.3.2.3.1.5.1.8.2l4.7-6.1c-4.9-2.2-9.9-4.1-15.3-4.9-.1 0-.1-.2 0-.1 5.3.9 10.7 2.2 15.5 4.7l2.7-3.3c1-1.2 2.1-2.4 3-3.7.1-.1.2 0 .1.1-1.3 1.4-2.4 2.8-3.5 4.3 2 1.3 3.9 3 5.7 4.6a65.1 65.1 0 0 1 5.4 5.1c.1.1 0 .2-.1.1-1.7-1.7-3.5-3.4-5.4-4.9-1.9-1.6-3.9-3-5.8-4.6-.4.6-.9 1.1-1.3 1.7-.2.3-.4.6-.7.9v.1c-.7.9-1.4 1.9-2.2 2.8.9 1.2 1.5 2.6 2.2 3.9.6 1.3 1.2 2.7 1.7 4 1 2.8 1.7 5.8 2.3 8.7 0 .1-.1.1-.1 0-.6-2.9-1.5-5.8-2.5-8.6-.5-1.4-1.2-2.8-1.8-4.2-.6-1.3-1.3-2.5-1.8-3.7-.6.8-1.2 1.7-1.9 2.5-.2.2-.3.5-.5.7 0 .1 0 .1-.1.1a234.23 234.23 0 0 0-5.5 8.2c.1.2.2.4.2.6.1.3.2.7.3 1 .2.7.4 1.4.5 2.1l.3 2c.1.7 0 1.5.2 2.3 0 .1-.2.1-.1 0 .1-.7-.1-1.4-.2-2.1s-.2-1.4-.4-2.1c-.2-.6-.3-1.3-.5-1.9l-.3-.9c-.1-.2-.1-.3-.2-.5-.8 1.3-1.7 2.6-2.5 3.9l-4.8 7.8c-.2.1-.4 0-.3-.1zm43 35.8c.1-2.6.5-5.3.8-7.9l.9-7.9c.5-5.1.8-10.3 2-15.3 1-4.3 2.9-8.4 6.2-11.4 1.7-1.5 3.8-2.8 6.1-2.9 2.4-.1 4.5.7 6.5 2 2.2 1.5 3.9 3.6 5.4 5.7 1.6 2.2 3 4.5 4.2 6.9 0 .1-.1.1-.1.1-2.3-4-5.5-7.5-9.2-10.3-1.7-1.3-3.6-2.3-5.8-2.4-2.1-.1-4 .9-5.6 2.2-3.1 2.7-4.9 6.6-5.9 10.5-1.3 4.6-1.7 9.4-2.3 14.1l-1.1 8.4c-.4 2.8-.6 5.6-1.2 8.4-.1.5-.9.4-.9-.2z" class="B"/><path d="M400.6 355.4c.8 1.1 1.7 2 2.9 2.9-.4-2.6-1-7.2.3-9.6 2-3.8 4.4-1.9 3.2 1.4-1.7 4.7-2 7.9-1.9 9.3 2.6 1.7 5.7 3 8.8 4.1-.3-1.3-.5-2.8-.3-4.5.4-4 3.5-4 2.7.2-.4 1.8-.4 3.6-.4 4.9 7.1 2.2 13.7 3.1 13.7 3.1 2.6-3.5 4.5-6.9 5.7-10.1-3.3-.8-10-1-9.8-3.4.2-3.2 6.7-.7 10.4 1.6.9-3 1.3-5.9 1.1-8.5-1.5-.5-4.2-1.1-9.1-1.5-6.8-.6-6.5-4.4-1.5-4.3 3.6.1 8.2 2.3 10.4 3.4-1.4-9.2-8.5-15.1-14.1-15.4-9.5-.4-6.1 11.4-6.1 11.4s-6.4-4.5-12.5-4.4c-6.2.3-10 10.3-3.5 19.4zm25.3-17.1c-.2-1.3 4-1.6 4.2.1.3 1.9-3.9 1.3-4.2-.1zm6.9 13.9c-.1-.9 1.7-1 2.2.1.2.6-2.2.7-2.2-.1zm-22.8.8c1.4.2 2.2 5.3-.2 5.2-1.9-.1-1.1-5.4.2-5.2z" class="F"/><g class="B"><path d="M411.9 358.6l.6-1.9-.5 2c.1.1-.1.1-.1-.1zm2.5-8.2c.4-1.3.9-2.6 1.5-3.9l.9-2 .8-1.7c-.3-.5-.6-1.1-.8-1.7 0-.1 0-.1.1-.1.7.8 1.3 1.9 1.8 2.9.3.4.5.9.8 1.4.5 0 1.1.2 1.6.2l1.7.3c.6.1 1.1.3 1.7.4s1.1.3 1.7.4c.1 0 .1.2 0 .2-.6-.2-1.2-.3-1.8-.5l-1.6-.3-1.7-.2c-.4 0-.8-.1-1.3-.1.2.4.5.8.7 1.2 0 .1.1.1.1.2.5 0 .9.1 1.4.2l1.5.3 3 .7 6.1 1.9c.1 0 0 .2-.1.2-2-.7-4.1-1.2-6.1-1.7l-2.9-.6-1.5-.3c-.4-.1-.8-.1-1.1-.3l2.9 5.9c2 4.4 3.6 8.8 5.3 13.3 0 .1-.1.2-.2.1-1.6-4.5-3.6-8.8-5.7-13-.4-.8-.8-1.5-1.2-2.3 0 .2-.1.3-.1.5l-.3 1.6c-.2 1.1-.4 2.1-.5 3.2-.3 2.1-.8 4.4-.8 6.6 0 .1-.2.1-.2 0 .2-1.1.2-2.1.2-3.2l.3-3.3c.1-1.1.3-2.1.4-3.2l.3-1.6c.1-.4.1-.8.3-1.1-.6-1.1-1.1-2.2-1.7-3.3l-1.6-3.1c-.2-.4-.5-.9-.7-1.3-.1.5-.4 1.1-.6 1.6-.2.6-.5 1.2-.7 1.8l-1.6 4c-.7 1.9-1.5 3.8-2.1 5.8.7-2.2 1.2-4.2 1.8-6.1z"/><path d="M412.6 356.7c0-.2.1-.3.1-.5 0 .2-.1.4-.1.5z"/></g><path d="M371.7 370.8l.7 14.1 1.7 36.4h37.6l1.7-36.4.7-14.1z" class="H"/><path d="M371.7 370.8l.7 14.1h41l.7-14.1z" class="B"/><path d="M369 365h47.7v11.4H369zm33 56.3h6.6v6H402z" class="H"/><path d="M402 421.3h6.6v3H402z" class="B"/><path d="M377.1 421.3h6.6v6h-6.6z" class="H"/><path d="M377.1 421.3h6.6v3h-6.6zm-336.5 6.1l52.4-.2 52.3-.1 104.7-.2 104.7.2 52.3.1 52.4.2-52.4.3-52.3.1-104.7.1-104.7-.1-52.3-.1z" class="B"/><path fill="none" stroke="#263238" stroke-width=".75" stroke-dasharray="4,5" d="M211.7 289.4s44.3 18 74-2.6c41.6-28.8 33.5-79.4 21.5-88.3s-26.5 6.3-10.9 20.8c15.1 14.1 42.3 13.8 55.6-8.4 13.2-22.2 2.4-49.3 33.5-59.9" class="G"/><path d="M383.2 135.4l-7.6 21.1 16-12.6 61.4-22.3z" class="I"/><path opacity=".1" d="M383.2 135.4l-7.6 21.1 16-12.6 61.4-22.3z"/><path d="M393.7 148.8l-18.1 7.7 16-12.6z" class="B"/><g class="I"><path d="M391.6 143.9l61.4-22.3-50.3 49.2z"/><path d="M383.2 135.4L357.7 119l95.3 2.6z"/></g><path d="M236.6 438c-2.6-.9-60.6-47.3-61.7-50.5-.4-1.2 5.8-10 13.7-20.5 1.7-2.3 3.5-4.6 5.3-6.9l24.5-31.2 38.9 30.9-25.6 30.4-5.6 6.7s14.3 27.7 15.1 31.3c.8 3.5-2.1 10.8-4.6 9.8z" class="D"/><path d="M236.5 438c-2.6-.9-60.6-47.3-61.7-50.5-.3-1 3.7-7 9.5-14.9 8.4 10.1 37.9 40.1 45.9 44.1 5.1 2.6 4.1-2.5 2.2-7.4 3.9 7.8 8.3 16.8 8.7 18.7.9 3.7-2 11-4.6 10z" class="B"/><path d="M296.6 300.3c-2.7 20.2-52.5 78.6-58.3 85.3-.8 1-1.3 1.5-1.3 1.5l-41.2-31.7.5-.6 36.3-47.5s-60 35-90.1 19.1c-13.5-7.1-23.5-19.8-23.5-19.8l39.2-20.9s10.8 3.5 17.8 2.5c23.9-3.5 77.4-23.8 90.2-23.3 16.3.6 32.8 16.8 30.4 35.4z" class="H"/><g class="B"><path d="M245.6 289.6c-1.4 1.4-2.5 3.2-3.7 4.8l-3.9 5v.1c.2-.5.5-1 .7-1.5l2.4-5c.1-.1-.1-.2-.2-.1l-3 4.8-1.1 2.4-.6 1.3c-.1.2-.2.4-.2.6l-1.7 2.4-3.5 5.4c-.1.1.1.2.2.1l3.9-4.8 3.7-5.1 3.5-5.1 3.6-5.2c.1-.1 0-.1-.1-.1zm-133.1-58.3c-.5 12.1-3.2 26.4 1.9 37.9 4 8.9 12.4 15 21.2 18.8 19.2 8.5 46.1 9.6 59.5-9.5 5.4-7.6 6.3-23.5-2.6-29.3-4.6-3-10-3.7-15.2-5.1-6.8-1.8-11.7-5.7-14.9-12-6.2-12.4-4.9-21.4-6.1-34.8-.2-2.5-.8-4.9-3.3-7-2.1-2.1-4.9-3.6-7.9-4.4-2.6-1-5.3-1.6-8.1-1.3-5.9.6-11.6 6.1-16.2 9.5-4.6 3.5-6.8 7.1-7.1 12.9-.6 8.1-.8 16.2-1.2 24.3z"/><path d="M111 237l4-33c0-.1.1-.1.1 0l-2.6 27.2c-1 8.9-2.5 18-2.7 26.9-.4 20.1 20.3 28.3 37.4 27.3.8 0 .8 1.2 0 1.2-15 .4-33-4.7-37.5-21.1-2.5-8.9.3-19.5 1.3-28.5zm44.3-40.6c0-.2.3-.2.3 0 .5 11 .1 24 6.3 33.6 3.1 4.7 7.6 8.5 12.8 10.6 4.1 1.7 8.5 1.8 12.9 2.7 17 3.3 17.1 26.2 4.8 35.2-.3.2-.6-.3-.3-.5 8.7-6.9 11.5-19.5 4.5-28.7-5.7-7.4-16.6-5.1-24.3-9.1-16.1-8.3-17.4-27.8-17-43.8z"/></g><path d="M137.9 244.3c7.3 10.5 32.4 39.5 49.8 43.5 9.6 2.2 55.9 8.7 62.3 2.9 7.4-6.8 4-32.3-1.9-32.5-18-.7-51.4 2.8-59.8 1-3.8-.8-23.8-13.7-45.1-24.1-8.1-3.9-10 2.4-5.3 9.2z" class="D"/><path d="M155.9 269.6l7-25.8s-11.7-6.5-18.8-9.2c-9.3-3.6-12.8-.9-7.1 9.8 3.8 7.2 18.9 25.2 18.9 25.2z" class="C"/><g class="B"><path d="M154.1 266.3c.8-3.8 1.6-7.6 2.6-11.4.5-1.9 1-3.8 1.6-5.6.5-1.9 1.3-3.7 1.8-5.5 0-.1.2-.1.2.1-.6 1.8-1 3.8-1.5 5.6l-1.5 5.6-2.9 11.3c-.2.1-.3 0-.3-.1z"/><path d="M161.8 247.9l-5.9 21.7s-15-18-18.8-25.2c-1.8-3.3-2.6-5.9-2.7-7.7l27.4 11.2z"/></g><path d="M100.2 315.7c2.3.7 67.8-18.2 67.8-18.2l-7.7-22.8s3.8-7.3 2-14.4c-2.4-9.4-19.8-24.9-21.1-25.8-5.5-3.6-10.6-3.6-15.2-1.2-18.9 10.2-25.8 82.4-25.8 82.4z" class="C"/><path d="M150.2 242.8l5.2 5.8-2.5-4.3s0-.1 0 0c1.3 1.7 2.4 3.4 3.3 5.3 1.3 1.5 2.5 3 3.6 4.6 1.3 2 2.4 4.1 3 6.3.6 2.3.6 4.7.2 7-.4 2.7-1.3 5.3-2.2 7.8-.1.3-.6.1-.5-.2 1.2-4.4 2.6-9.1 1.6-13.8-1-4.6-3.8-8.5-6.6-12.1-1.7-2.2-3.4-4.4-5.3-6.4 0 0 .1-.1.2 0zm-10.9 30.3c2.8-.5 5.7-.9 8.5-.9l4.3.1h2.1c.7 0 1.5 0 2.2-.2.1 0 .1.1 0 .1-.7.2-1.3.4-2 .5l-2 .2-4.3.1-8.7.4c-.2-.1-.3-.3-.1-.3zm-6.1 4.3c2.2-.9 4.5-1.6 6.7-2.2l3.5-.8 1.7-.3c.6-.1 1.2-.1 1.9-.2.1 0 .1.1 0 .1-.6.1-1.1.3-1.7.5-.6.1-1.1.3-1.7.4l-3.4.9-6.8 1.8c-.3.1-.3-.1-.2-.2z" class="B"/><path d="M130.1 234.7c.3 1.2 5.8 9 11.2 8.8 1.8-.1 1.9-9.7 1.9-9.7l.2-.7 2.4-9.9-13.3-8.7c0-.1-2.5 19.7-2.4 20.2z" class="D"/><path d="M145.7 223.1l-2.4 9.9c-2.8-1.1-8.9-4.3-11.7-11.9l.8-6.7v-.1l1.7 1 11.6 7.8z" class="B"/><path d="M158.6 204.8c4.4 17.4-5.5 22-9.2 23-3.4.9-15.1 3.4-21.3-13.5-6.2-16.8.5-24.4 8.2-26.8 7.6-2.4 17.9-.1 22.3 17.3z" class="D"/><g class="B"><path d="M155.3 202.7h-1.2c-.5 0-.9 0-1.3-.3-.2-.2-.3-.5-.1-.8.3-.5.9-.6 1.5-.6s1.1.2 1.6.5c.4.4.1 1.1-.5 1.2zm-11.7 3.6c.4-.1.8-.3 1.1-.5.4-.2.8-.3 1.1-.7.1-.2.1-.6-.1-.8-.5-.4-1.1-.3-1.6-.1-.6.2-1 .5-1.3 1.1s.3 1.2.8 1zm3 2.2l-.1.1c.3 1.2.4 2.6-.6 3.2v.1c1.3-.4 1.1-2.3.7-3.4z"/><path d="M145.3 207.5c-2 .2-1.3 4.1.5 3.9 1.7-.2 1.1-4.1-.5-3.9z"/><path d="M144.5 207.8c-.3.3-.6.7-1 .8-.5.1-.9-.2-1.3-.6 0 0-.1 0-.1.1.1.7.5 1.5 1.3 1.4.7 0 1.2-.8 1.2-1.5.2-.1 0-.3-.1-.2zm9-.8s.1 0 .1.1c.2 1.2.5 2.6 1.7 2.8v.1c-1.4-.1-1.9-1.9-1.8-3z"/><path d="M154.4 205.5c1.9-.5 2.7 3.4.9 3.8-1.8.5-2.5-3.4-.9-3.8z"/><path d="M155.2 205.6c.3.1.7.5 1.1.4s.7-.5.9-1h.1c.2.7.1 1.6-.6 1.8-.6.3-1.2-.3-1.5-1-.2 0-.1-.2 0-.2zm-7 13.6c.3.3.6.6 1.1.6.4 0 .9-.2 1.3-.4 0 0 .1 0 .1.1-.3.5-.9.8-1.5.8s-.9-.5-1.1-1c0-.1 0-.1.1-.1zm4.4-5.5l.6 2.6c0 .1-.2.1-.5.2-1.5.5-3.1.2-4.2-.9-.1-.1 0-.2.1-.1 1.2.7 2.5.7 3.9.5 0-.2-1-3-.9-3 .5-.1 1.4.1 2 .2-1-3.7-2.5-7.2-3.4-11 0-.1.2-.2.2-.1 1.9 3.6 3.1 7.8 4.2 11.6.2.5-1.6.1-2 0z"/><path d="M152.7 216.2s-.5 1.3-1.6 2c-.4.3-.8.4-1.3.4-1 0-1.3-.9-1.3-1.7 0-.7.1-1.3.1-1.3s1.8 1 4.1.6z"/></g><path fill="#ff9cbd" d="M151.1 218.2c-.4.3-.8.4-1.3.4-1 0-1.3-.9-1.3-1.7 1.1-.1 2.3.3 2.6 1.3z"/><path d="M129.3 215.6c1.9-.6 5.4-7.2 3.1-16.4 0 0 1.5 8.4 1.2 9.8s2-3.7.2-11.2c0 0 4.9 1.9 8.7 1.9s5.9-.6 6.1-.9-5.4-.6-7.2-1.8c0 0 10.5 1.8 14.8 1 .5-.1-1.6-10.5-9.4-13-7.8-2.6-17 4.9-19.1 8.4 0 0-3.2 1.4-5.5 7.2-2.3 6 5.1 15.7 7.1 15z" class="B"/><path d="M131.2 214.9s-4.8-4.9-7.1-3.1 1.9 9.3 5.1 9.9c3.1.6 3.7-2.3 3.7-2.3l-1.7-4.5z" class="D"/><path d="M125.4 214c2.2.6 3.6 2.3 4.7 4.2-.7-.7-1.6-.9-2.5 0 0 0 0 .1.1.1.8-.3 1.5-.3 2.1.3.5.4.9 1 1.2 1.5.1.2.4 0 .3-.2-.4-2.8-3-6.1-5.9-5.9z" class="B"/><g class="D"><path d="M116.6 249.5c-5.3 29.9-.2 52.3 4.9 55.1 13.7 7.5 46.5-7.7 55.8-10.7 3.7-1.2-13.3-29.8-17.1-28.1-9 4.2-21.6 11.2-22.1 11.2-1-.1-2.2-7.7-7.4-30-4.3-18-11.9-9.7-14.1 2.5z"/><path d="M207.1 251.6c.9 3.8-8.5 5.3-8.5 5.3s2.5.8 3.7 3.1c1.4 2.6-2.1 5.9-2.1 5.9s2.4 1.4 3.4 3.9c1.1 2.6-2 6.4-2 6.4s1.5 2.5.9 5.3c-1.2 4.8-8.5 6.7-12.9 8.8-4.7 2.2-12.3 3-15.8 4.6l-15.1-27.7s14.6-15.5 23-17.9c4.6-1.3 24-3.4 25.4 2.3z"/></g><path d="M198.5 256.8c-5.3-.2-10.6.8-15.7 1.9-.1 0-.1.2 0 .2 5.1-1.1 10.6-.9 15.7-1.8.2-.1.2-.3 0-.3zm1.5 8.7c-1.2 0-2.4.4-3.5.7l-3.7 1-7.3 2.3c-.1 0-.1.2 0 .2l7.3-2 3.7-.9c1.2-.3 2.4-.4 3.5-1 .3 0 .2-.3 0-.3zm1.6 10.7c-1-.1-2.2.5-3.1.8-1.1.4-2.2.7-3.3 1l-6.7 1.9c-.1 0-.1.2 0 .2l6.8-1.8 3.3-.9c.9-.3 2.2-.5 3-1.1.1 0 .1 0 0-.1zm-63.6.7c3.6-2.1 7.2-4 10.9-6l5.5-2.9 2.8-1.4c1-.5 1.8-.9 2.9-1.3l-.2.1a122.56 122.56 0 0 1 7.5-6.9l3.9-3.2c1.4-1 2.7-2 4.2-2.8-1.4.9-2.7 2-4 3.1s-2.6 2.2-3.8 3.4a241.18 241.18 0 0 0-7.3 7l-.1.1h-.1c-.9.3-1.8.8-2.7 1.2l-2.8 1.4-5.5 2.8-11.2 5.4z" class="B"/><path d="M111.6 275.5l23.9-12s-3-13.1-5.7-20.1c-3.5-9.3-7.8-10.1-12 1.3-2.9 7.6-6.2 30.8-6.2 30.8z" class="C"/><g class="B"><path d="M112.8 272c3.4-2 6.7-3.9 10.2-5.7a125.98 125.98 0 0 1 5.2-2.6c1.8-.8 3.6-1.5 5.3-2.4.1 0 .2.1.1.2-1.8.8-3.5 1.8-5.2 2.6-1.7.9-3.5 1.7-5.2 2.6l-10.3 5.4c-.1.1-.1-.1-.1-.1zm1.6 2c-.9.6-1.8 1.1-2.8 1.6l-.3.2v-.4l1.4-9.9 2.1-9.7-.7 4.9-.8 4.9-1.7 9.8-.3-.2c1.2-.3 2.1-.8 3.1-1.2z"/><path d="M113.6 259.2c.1.8.1 1.5.1 2.3s-.1 1.5-.2 2.3c-.1-.8-.1-1.5-.1-2.3l.2-2.3zm18.9 5.7c.2-.2 2.6-1.5 2.8-1.5l-1.2-4.6-.5-2.3-.6-2.6c0-.1.1-.2.2 0l.8 2.5.6 2.2 1.3 4.9c0 .2-3 1.5-3.4 1.4 0 .2 0 .1 0 0zm1.9-9.9c.1.5.1 1 .1 1.4 0 .5 0 1-.1 1.4-.1-.5-.1-1-.1-1.4s0-.9.1-1.4z"/></g><path fill="#c7c7c7" d="M158.9 292.4h69.5v3.1h-69.5z"/><path d="M173.7 292.4l-2.3 3.1h57v-3.1z" class="J"/><path fill="#c7c7c7" d="M176.7 295.5h67.8l5.6-46h-67.8z"/><path d="M209.3 272.5c0 2.3 1.8 4.1 4.1 4.1s4.2-1.8 4.2-4.1-1.8-4.1-4.1-4.1-4.2 1.8-4.2 4.1z" class="E"/><path d="M249.6 253.9c2.6 3.9 8.9 8.6 9.7 11.9.8 3.1-1.7 4.5-1.7 4.5s3.7 1.3 3.9 4.5c.1 1.6-2.4 3.3-2.4 3.3s2.9 1.1 3 4c.1 2.3-2.5 3.6-2.5 3.6s2.3 2.4 1.6 4.7c-1.4 4.7-20.8 7.3-24.7.6-1.8-3.1 2.9-3.5 2.9-3.5s-7-1.1-7.6-5.1 5.6-4.1 5.6-4.1-6.8-1.2-7-5.3c-.2-4.4 6-3.4 6-3.4s-4.7-2.4-4.1-5.6c.9-5.4 12 .3 16.1-1.2l1.2-8.9z" class="D"/><path d="M259.4 286s.1.1 0 0c-6.1 2.5-13.7 3.2-20.1 1.5-.2-.1-.2-.4 0-.4 7 .5 13.2.4 20.1-1.1zm-.1-7.8c.1 0 .1.1 0 .1-6.4 2.4-14.9 3-22.1.2-.2-.1-.4-.4-.1-.3 5 1.5 16 1.3 22.2 0zm-23.3-9c7 2.4 14.1 2.4 21.4 1.3.1 0 .1.1 0 .2-3.4 1.5-8.1 1.7-11.8 1.6-3.5-.1-6.7-1-9.7-2.8-.1-.2 0-.4.1-.3z" class="B"/><path d="M387.1 385.5c-1 2.6-47.5 60.5-50.7 61.6-1.2.4-10-5.9-20.5-13.8-2.3-1.7-4.6-3.5-6.9-5.3l-31.2-24.6 31-38.8 30.3 25.7 6.7 5.6s27.8-14.2 31.4-15c3.5-.9 10.8 2 9.9 4.6z" class="D"/><path d="M387.1 385.5c-1 2.6-47.5 60.5-50.7 61.6-1 .4-7.9-4.4-16.6-10.9 8.9-6.5 42.6-36.9 47.2-45.1 2.4-4.3-1.1-4.3-5.4-3.1 7-3.4 13.9-6.7 15.6-7.1 3.6-.9 10.8 2 9.9 4.6z" class="B"/><path d="M337.5 384.3l-32.3 43.6-109-75.7-10.5-7.3-7.5 4.5c-6.2 3.4-15.3 7.8-23.4 9-13.5 2-36.1 1.8-47.5-13.5-9.6-12.8-4.4-29.6-4.4-29.6l14.9-6.4s35.2-29.3 58-30.2c9.7-.4 23.8 6.9 36.8 14.6 12.9 7.7 124.9 91 124.9 91z" class="H"/><path d="M185.7 345l-7.5 4.5c-7.9-9.5-24.7-26.7-25.2-27.3l32.7 22.8zm-55.1-45.8l-6.2 4.5-6.1 4.5c-2 1.6-3.8 3.4-5.7 5.1l-2.7 2.6c-.9.9-1.8 1.7-2.5 2.7-.1.1.1.2.2.1 1-.6 1.9-1.5 2.8-2.3l2.9-2.5 5.7-4.8 5.5-5 6.1-4.9c.1 0 0-.1 0 0zm199.3 83.6l-6 7.1-5.8 7.2-11.6 14.6c-2.1 2.7-4.2 5.4-6.1 8.2-.1.1.1.3.2.2 4.2-4.6 8-9.5 11.8-14.3 3.9-4.8 7.7-9.7 11.5-14.6 2.1-2.7 4.2-5.4 6.1-8.2.2-.2 0-.3-.1-.2zm-89.5.4c-5.4-4.3-11.1-8.3-16.7-12.3L206.8 359l-4.9-3.3c-1.6-1.1-3.3-2.1-5-3.2-.1-.1-.2.1-.1.2 1.5 1.1 2.9 2.2 4.3 3.3 1.4 1 2.8 2.1 4.2 3.1l8.2 6 16.9 11.9 9.7 6.5c.3.2.5-.2.3-.3zm34.9-45c-5-4.2-10.4-7.9-15.6-11.7l-15.9-11.7-15.9-11.5c-5.1-3.7-10.2-7.5-15.7-10.8-3-1.8-6-3.5-9.1-5-3-1.5-6.2-2.9-9.4-3.9-.1 0-.2.1-.1.2 2.7 1.5 5.5 2.7 8.2 4.2 2.7 1.4 5.3 2.9 7.9 4.5 5.4 3.3 10.5 7 15.6 10.6l31.9 22.8c6 4.2 11.8 8.6 18 12.5.1.3.3 0 .1-.2z" class="B"/><circle cx="229.9" cy="227.9" r="31.2" class="F"/><path d="M248.1 248.1h-36.4v-30.8l18.2-11.5 18.2 11.5z" class="J"/><path d="M246 247.8h-32.3v-40.4h24l8.3 7.8z" class="E"/><path d="M237.7 207.4l8.3 7.8h-8.3z" class="C"/><path d="M216.9 214.3h17.9v1.1h-17.9zm0 2.7h17.9v1.1h-17.9zm0 2.7h17.9v1.1h-17.9zm0 2.7h26.3v1.1h-26.3zm0 2.6h26.3v1.1h-26.3zm0 2.7h26.3v1.1h-26.3zm0 2.7h26.3v1.1h-26.3zm0 2.7h26.3v1.1h-26.3zm0 2.7h26.3v1.1h-26.3zm0 2.7h26.3v1.1h-26.3zm0 2.6h26.3v1.1h-26.3zm0 2.7h26.3v1.1h-26.3z" fill="#dbdbdb"/><path d="M248.1 225v23.1h-36.4V225l4.6 2.7 4.6 2.8 5.1 3.2h.1l3.8 2.4 3.8-2.4h.1l5.1-3.2 4.6-2.8 4.6-2.7z" class="C"/><g fill="#dbdbdb"><path d="M248.1 225l-4.4 3-4.5 3-4.7 3.1-.1.1-4.2 2.7-.2.1-.2-.1-4.2-2.7-.1-.1-4.7-3.1-4.5-3-4.4-3 4.6 2.7 4.6 2.8 5.1 3.2 3.8 2.4 3.8-2.4 5.1-3.2 4.6-2.8 4.6-2.7z"/><path d="M226.1 233.6s0 .1 0 0c-.2.2-.4.4-.6.5-.9.8-1.8 1.5-2.8 2.2l-3.5 2.6-3.6 2.4-3.8 2.3c1.1-1 2.2-1.9 3.4-2.7l3.5-2.6 3.6-2.4 3-1.8.8-.5c0 .1 0 0 0 0zm21.9 10c-1.3-.7-2.5-1.5-3.8-2.3l-3.6-2.4c-1.2-.8-2.4-1.7-3.5-2.6l-2.8-2.2c-.2-.2-.4-.3-.6-.5h.1c.2.1.5.3.7.4l3 1.8 3.6 2.4c1.2.8 2.4 1.7 3.5 2.6l3.4 2.8z"/></g><circle cx="229.9" cy="221.1" r="7.6" class="F"/><path d="M226 221.8c1.1.9 2.1 1.9 3.1 2.9h-.7l1.2-2 1.3-1.9c.9-1.3 1.8-2.5 2.9-3.6-.6 1.4-1.3 2.8-2.1 4.1l-1.2 2-1.3 1.9-.4.5-.3-.4c-1-1.1-1.8-2.3-2.5-3.5z" class="E"/></svg>