<svg xmlns="http://www.w3.org/2000/svg" xmlns:xlink="http://www.w3.org/1999/xlink" viewBox="0 0 500 500" xmlns:v="https://vecta.io/nano"><style><![CDATA[.B{fill:#263238}.C{fill:#ffc727}.D{fill:#f7a9a0}.E{fill:#d3766a}.F{opacity:.1}.G{fill:#ebebeb}.H{fill:#37474f}]]></style><path d="M336.1 53.9l-31.8 62-8.9-13.8-105.8 68.4-20-30.9 105.8-68.4-8.9-13.8zM129.7 165.4l20 30.9-2.7 1.7-20-30.8zm14-9l20 30.9-9.2 5.9-19.9-30.9zm19.7-12.7l20 30.8-14.2 9.2-19.9-30.9z" class="G"/><path d="M162.9 252.9l-18.3 35.7-5.1-7.9-61.1 39.4-11.5-17.8 61.1-39.4-5.2-8zm-99.6 51.8l11.5 17.8-8.1 5.2-11.6-17.8zm-5.091 28.556L46.704 315.45l5.291-3.419L63.5 329.837zM43.9 317.2L55.4 335l-1.6 1-11.5-17.8z" fill="#dbdbdb"/><path d="M238.2 344.9l-23.8-36 3.9-2.6 23.1 36.5.1.1h-.1l-3.2 2h0zm0 0l3.1-2.1v.1l-23.5-35.6.7.1-3.1 2 .1-.7 22.7 36.2h0zm219.5-167.3c-.5.7-36.4 71.9-36.8 72.5l-.3-.4-10.4-16c2-.2-122.8 79.6-122.3 79.6l-.4.3-.3-.4-23.2-35.8-.3-.4.4-.3c.1.3 123.6-80.4 122.8-78.8l-10.3-16-.3-.4c.6-.1 80.9-3.8 81.4-3.9h0zm0 0c0-.3-81.9 5-80.5 3.9l10.4 16c.7.5-122.7 79.6-122.8 79.9l.1-.7 23.2 35.8-.7-.1c.4.1 123.1-80 123.3-79.1l10.3 16c-1.5 1.1 37.1-71.7 36.7-71.7h0zm-223.3 119l17.7 26.6 5.9 9 .2.4-.4.3-10.6 6.9-.4.3-.3-.4-17.2-27-5.7-9-.1-.2.2-.1 10.7-6.8h0zm0 0l-10.5 7 .1-.3 5.9 8.9 17.5 26.8-.7-.1 10.6-6.8-.1.6-5.7-8.9-17.1-27.2h0zm22.9-14.8l23.5 35.6.2.4-.4.2-16.4 10.6-.4.3-.3-.4-11.5-17.9-11.6-18.2 16.9-10.6h0zm0 0l-16.2 10.8.1-.4 11.7 17.8 11.6 17.9-.7-.1 16.4-10.5-.1.6-22.8-36.1h0z" class="G"/><path fill="#dbdbdb" d="M335.4 186.5c.9-.6 2-.5 2.9 0 .2.1.5.3.7.4.3.1.5.3.8.4.9.4 1.6 1.3 1.6 2.4l.1 3.6 11.6-.4-.1-3.6c0-1 .5-2 1.5-2.5l1.5-.9c.9-.6 2-.7 2.9-.2l3.1 1.7 5.5-10.2-3.1-1.7c-.9-.5-1.5-1.5-1.4-2.5 0-.6 0-1.2-.1-1.7-.1-1 .4-2 1.3-2.6l3-1.9-6.1-9.8-3 1.9a2.99 2.99 0 0 1-2.9 0c-.2-.1-.5-.3-.7-.4-.3-.1-.5-.3-.8-.4-.9-.4-1.6-1.4-1.6-2.4l-.1-3.6-11.6.4.1 3.5c0 1-.5 2-1.5 2.5l-1.5.9c-.9.6-2 .7-2.9.2l-3.1-1.7-5.5 10.2 3.1 1.7c.9.5 1.5 1.5 1.4 2.5 0 .6 0 1.2.1 1.7.1 1-.4 2-1.3 2.6l-3 1.9 6.1 9.8 3-1.8zm2.9-18.2c2.5-4.6 8.2-6.4 12.9-3.9 4.6 2.5 6.4 8.2 3.9 12.9-2.5 4.6-8.2 6.4-12.8 3.9-4.7-2.6-6.5-8.3-4-12.9z"/><g class="G"><path d="M385.9 399.4c0 17.5 14.2 31.6 31.6 31.6 17.5 0 31.6-14.2 31.6-31.6 0-17.5-14.2-31.6-31.6-31.6a31.54 31.54 0 0 0-31.6 31.6zm16.8 0a14.77 14.77 0 1 1 29.6 0 14.77 14.77 0 0 1-14.8 14.8c-8.2-.1-14.8-6.7-14.8-14.8z"/><path d="M411.4 369.1h12.2l-.7-8.6h-10.8zm23.2 4.1l8.6 8.6 5.6-6.6-7.7-7.7zm13.4 19.2v12.2l8.6-.7v-10.8zm-4.1 23.2l-8.6 8.6 6.6 5.6 7.6-7.7zM424.7 429h-12.2l.7 8.6H424zm-23.2-4.1l-8.6-8.6-5.6 6.6 7.7 7.7zM388 405.7v-12.2l-8.6.7V405zm4.1-23.2l8.6-8.6-6.5-5.6-7.7 7.7zM49.8 102.2c0 17.5 14.2 31.6 31.6 31.6 17.5 0 31.6-14.2 31.6-31.6 0-17.5-14.2-31.6-31.6-31.6s-31.6 14.1-31.6 31.6zm16.8 0a14.8 14.8 0 1 1 29.6 0A14.77 14.77 0 0 1 81.4 117c-8.1 0-14.8-6.6-14.8-14.8z"/><path d="M75.3 71.9h12.2l-.7-8.6H76zM98.5 76l8.6 8.6 5.6-6.6-7.7-7.6zM112 95.3v12.1l8.6-.7V95.9zm-4.1 23.1l-8.6 8.6 6.5 5.6 7.7-7.6zm-19.3 13.5H76.4l.7 8.6h10.8zm-23.2-4.1l-8.6-8.6-5.6 6.5 7.7 7.7zM52 108.5V96.3l-8.6.7v10.8zm4.1-23.1l8.6-8.6-6.6-5.6-7.6 7.6z"/></g><use xlink:href="#B" class="C"/><g class="F"><use xlink:href="#B"/></g><use xlink:href="#C" class="C"/><g opacity=".4"><use xlink:href="#C"/></g><path d="M419.1 46.2v35.2c0-.6-.1-1.3-.4-2-.2-.6-.5-1.2-.9-1.7-3.2-4.3-12.1-6.9-27.2-8V34.5c15 1 24 3.7 27.2 8 .4.5.7 1.1.9 1.7.3.7.4 1.4.4 2z" class="C"/><g class="B"><path d="M390.653 30.888l.036 223.3h-1.9l-.036-223.3z"/><path d="M400.5 264h-21.6l2.2-9.9h17.2z"/></g><path d="M404.2 272.3h-29l3-13.2h23z" class="H"/><g class="C"><path d="M333.1 429.1l-30.6 17.7h0L210.4 500H0v-64.7L221.7 307l30.6-17.6z"/><path d="M322.6 481.4l120.5-209.2-241.4.2z"/></g><path d="M243.1 272.7c1.6.5 46.4.1 48.2-1 .6-.4 1-7 1.1-14.9 0-1.7 3.4-29.2 3.4-29.2l-30 .2-2.4 29.2s-17.1 7.8-18.9 9.2c-1.6 1.5-3 6-1.4 6.5z" class="D"/><path d="M292.9 251.6l-.6 5.3c-.2 7.9-.5 14.5-1.1 14.9-1.7 1.1-46.6 1.5-48.1 1-1.6-.5-.2-5 1.5-6.4s18.8-9.2 18.8-9.2l.4-5.5h29.1z" class="G"/><path fill="#455a64" d="M242.3 272.9c1.6.5 47.9.5 49.7-.6.7-.4.7-8.4.9-16.5h-29.5l-.1 1.2c-4.1 2-17.9 8.2-19.4 9.4-1.8 1.3-3.3 6-1.6 6.5z"/><g class="B"><path d="M242.9 271.1c7.8-.2 39.1-.3 46.8.1h0c-7.7.4-39 .2-46.8 0-.1 0-.1-.1 0-.1zm3.9-6.5c1.8-.1 3.6.8 4.6 1.9s1.8 2.5 1.7 4.1h-.1c-.3-3-3.1-5.7-6.2-6 0 .1 0 0 0 0z"/><use xlink:href="#D"/><use xlink:href="#D" x="-2.4" y="0.9"/><use xlink:href="#D" x="-4.8" y="1.9"/><use xlink:href="#D" x="-7.2" y="2.8"/><path d="M257.2 253.9c1.7 2.2 4.2 3.5 6.4 5 .2.2.5 0 .6-.3.1 0 .1 0 .1-.1-.2-2.7-1.3-5.7-2.8-7.9-1-1.4-3-2.6-4.5-1.3s-.7 3.4.2 4.6zm-.1-2.5c.3-3.4 3.4-.8 4 .2l1.1 2.1c.7 1.5 1.2 3.1 1.8 4.6-1-.8-2.1-1.5-3.2-2.3-1.3-.9-3.9-2.8-3.7-4.6z"/><path d="M275.4 256.7c-.2-2-2.6-2.5-4.2-2.1-2.6.5-5.5 2-7.5 3.8v.1c-.1.2 0 .5.2.6 2.7.4 5.4 1.2 8.2.8 1.5-.4 3.5-1.3 3.3-3.2zm-7.3 2.1l-3.9-.5 4.4-2.1c.7-.3 1.5-.6 2.3-.7 1.2-.3 5.2-.1 3.1 2.6-1.2 1.4-4.4.9-5.9.7z"/><path d="M327 106.3s7.8 11.4 3.5 23.8c-7.4 21.1-26.1 44.9-26.7 47.6-1.4 6.4-8.8 77.8-8.8 77.8l-32.3-.2s4.5-61.4 10.2-79.8c3.1-10.1 20.9-37.6 28.5-51.1.7-1.2-.9-6.4-.9-6.4l26.5-11.7z"/></g><path d="M264.7 249.6c5.2-.1 21-.5 27.9 0 .1 0 .1.1 0 .1-2.4.4-22.7.1-27.9 0-.1.1-.1-.1 0-.1zm67.9-127.8c-2.2 3.6-4.6 7.1-6.9 10.7l-6.8 10.8-13.2 21.8c-2 3.4-3.9 6.9-5.3 10.6s-2.3 7.5-2.9 11.4c-.7 3.9-1.1 7.8-1.5 11.8l-1.2 12.6-2.8 31.3-.3 3.2c0 .2.3.2.3 0 1-8.5 2-22.7 2.9-31.2l1.3-12.7 1.3-11.8c.6-3.9 1.3-7.7 2.4-11.4 1.2-3.9 2.9-7.6 4.9-11.2 4.1-7.3 8.5-14.5 12.8-21.6l13.4-21.5 1.7-2.6c.1-.2 0-.3-.1-.2z" class="H"/><path d="M335.9 272.9c.6 0 11.8.5 12.8-.3 9.7-8.7 23.4-31.6 23.7-32.7.2-.7-10.1-9.2-10.1-9.2-1.1-1.2-19.7-20.8-19.7-20.8l-20 20.2 19.4 19.8.3.3s-.8 6.5-2.8 12.4c-.3.8-3.9 4.4-4.1 5-1 2.3-.4 5.3.5 5.3z" class="D"/><path d="M335.9 272.9c.6 0 11.8.5 12.8-.3 9.7-8.7 23.4-31.6 23.7-32.7.2-.7-10.1-9.2-10.1-9.2-.3-.3-1.5-1.8-3.5-3.7l-19.7 20 2.8 2.8.3.3s-.8 6.5-2.8 12.4c-.3.8-3.9 4.4-4.1 5-.9 2.4-.3 5.4.6 5.4z" class="G"/><path fill="#455a64" d="M335.5 273.1c.4.2 12.7.3 13.5-.4 7.8-7 23.9-31.7 24.1-33.1.1-.7-5.4-5.7-11.5-9.9L342 250.2s-1.2 8.1-2.8 12.4c-.4 1-3.9 4.2-4.2 4.9-.9 2.2 0 5.2.5 5.6z"/><g class="B"><path d="M336.4 266.6c1.8-1.2 4-1.4 5.6-1 1.5.4 3.2 1.3 4 2.8l-.1.1c-2.1-2.6-6.3-3.4-9.5-1.9 0 .1-.1.1 0 0zm26-29.1c2.1-2.5 6 .7 3.9 3.2-2 2.5-6-.7-3.9-3.2zm-21.5 16c1.7-2.3 4.6-4.4 7.6-4.4.1 0 .1.2 0 .2-2.7 1.3-5 2.6-7.3 4.4-.2.2-.4 0-.3-.2zm-.7 2.3c1.7-2.3 4.6-4.4 7.6-4.4.1 0 .1.2 0 .2-2.7 1.3-5 2.6-7.3 4.4-.2.2-.4 0-.3-.2zm-.6 2.4c1.7-2.3 4.6-4.4 7.6-4.4.1 0 .1.2 0 .2-2.7 1.3-5 2.6-7.3 4.4-.2.1-.5-.1-.3-.2zm-.7 2.3c1.7-2.3 4.6-4.4 7.6-4.4.1 0 .1.2 0 .2-2.7 1.3-5 2.6-7.3 4.4-.2.1-.4-.1-.3-.2zm-3.5 10.9c3.4-.5 6.8-.4 10.2-.7.4 0 .8-.1 1.2-.1s.9 0 1.2-.4c.6-.6 1-1.3 1.5-1.9l3-4c4.1-5.3 8-10.8 12-16.2 1.1-1.5 2.2-3.1 3.4-4.6 1.1-1.5 2.3-3 3.5-4.5 0-.1.1 0 .1.1l-2.8 4.4c-1 1.4-1.9 2.9-2.9 4.3l-6 8.3c-2 2.8-4.1 5.5-6.2 8.2-1 1.4-2.1 2.7-3.2 4.1-.5.7-1 1.3-1.5 2-.4.6-.8.8-1.6.9-3.9.4-7.9.3-11.9.5-.2-.1-.2-.4 0-.4z"/><path d="M336.1 253.5c2.6 0 5.1-1.1 7.6-1.8.3-.1.3-.4.1-.6v-.1c-2.1-1.5-5.1-2.5-7.6-2.6-1.6-.1-3.7.7-3.7 2.6.1 1.8 2.1 2.5 3.6 2.5zm-2-1.4c-2.4-2.2 1.4-3 2.6-2.9.8.1 1.5.2 2.2.4 1.5.3 3 .9 4.5 1.4l-3.6 1c-1.5.4-4.4 1.3-5.7.1z"/><path d="M348.9 241.5c-1.7-1-3.4.5-4.1 1.9a15.4 15.4 0 0 0-1.6 7.9c0 .1.1.1.1.1.1.2.4.3.6.2 1.9-1.7 4.1-3.4 5.4-5.7.7-1.4 1.1-3.4-.4-4.4zm-2.7 6.8l-2.7 2.6 1-4.6c.2-.7.5-1.5.8-2.1.5-1.1 3-3.9 3.8-.8.4 1.7-1.9 3.8-2.9 4.9z"/><path d="M340.8 250.6l22.1-23.5s-42.7-43.3-43.1-47.5c-.3-3.7 22.2-45.9 22.7-55.4.3-5.7-5.1-15.3-10.6-20.1L300.6 118s2.7 5.6 8.1 8.6c0 0-21.9 47.4-19.3 60.6 2.4 11.4 51.4 63.4 51.4 63.4z"/></g><g class="H"><path d="M337.8 243.5l5.3-5.6c1.5-1.6 11.6-11.9 13.3-13 0 0 .1 0 .1.1-1.2 1.7-11.5 11.8-13 13.3l-5.6 5.3c0 .1-.1 0-.1-.1zm-33.7-116.7c3.4.2 6.9.8 10.2 1.6.1 0 .1.2 0 .2-3.4-.4-6.9-.8-10.2-1.4a.2.2 0 0 1 0-.4z"/><path d="M307.7 124.9c.4.5.8 1 1.1 1.6.3.4.6.9.6 1.4 0 .1-.1.1-.2.1-.4-.3-.7-.8-1-1.2-.4-.5-.7-1-1.1-1.4-.2-.4.3-.8.6-.5z"/><path d="M300.9 115.9c0-.1.1-.1.1 0l2.2 5c.4.8 2.8 4.8 4.3 3.9.3-.1.3-.4.2-.8s-.5-.9-.7-1.3c-.5-.8-1-1.7-1.4-2.6-.8-1.7-1.5-3.4-1.8-5.2 0-.1.1-.1.1 0 .9 2.4 1.8 4.7 3.1 6.9.6 1.1 1.9 2.5.6 3.2-1.4.7-3.4-1.8-3.8-2.5-1.4-2-2.3-4.4-2.9-6.6zm31 3.6c-.6-.2-1.3.2-1.9.3l-2.2.3h-2.2c-.7-.1-1.5-.1-2.1-.5-1.1-.7-2-1.8-2.7-2.8-.8-1.1-1.6-2.4-2.1-3.6 0-.1-.1 0-.1.1l.7 2.2c.3.7.7 1.3 1.1 2 .7 1.2 1.6 2.4 2.8 3.1 1.3.7 3 .7 4.4.6l2.5-.4c.6-.1 1.6-.2 2-.8-.1-.4-.1-.5-.2-.5zm-3.5-10.8c2 2 3.9 4.1 5.6 6.4 1.8 2.4 3.6 5 3.9 8.1-.1 1.3-.5 2.5-.8 3.7-1.3 4.1-3 8-4.6 12l-16.8 39.2c-.4 1.1-.9 2.3-1.1 3.4.4 1.4 1.6 2.6 2.5 3.8 10.8 13.2 22.7 25.5 34.2 38-8-8.1-15.8-16.3-23.5-24.7-3.8-4.2-7.7-8.4-11.2-12.9-.9-1.3-2.3-2.6-2.6-4.2.9-4 2.9-7.7 4.4-11.6 6.1-14.4 13-28.5 18.3-43.1.4-1.3 1-2.7.8-4.1s-.7-2.7-1.4-3.9c-2-3.8-4.7-7.1-7.7-10.1h0zm-20.3 19.1c-6.4 16.1-13 32.3-17.4 49.1-.7 3.3-1.6 6.8-1 10.2 2.1 6.6 6.5 12.3 10.8 17.6-4.6-5.2-9.1-10.7-11.4-17.4-.8-3.5.2-7 .9-10.5 4.4-17 11.1-33.1 18.1-49h0z"/></g><g class="D"><path d="M293.9 81.2c1.1 7.2 1 34.2-2.7 37.4-4.1 3.6-22 10.7-26.6 11.9-2.8.7-6.5-17.3-3.2-18.4 4.1-1.4 16.9-5.6 19-7.1 1.1-.8 2.3-10.2 6.3-24.5 2.1-7.4 6.2-5.4 7.2.7z"/><path d="M265.3 130.3c-1.9.8-11.9 4-14.5 4.3-2.6.2-10.3.3-10.7-1.7s1.9-2.2 1.9-2.2-3.2-.5-3.4-2.5c-.2-2.1 3.3-2.3 3.3-2.3s-3.3-.7-3.3-2.8c-.1-2.1 3.5-1.7 3.5-1.7s-3-.5-2.4-2.2c.8-2.1 6.3-.5 9.2-.9.7-.1 13.2-3.1 13.2-3.1l3.2 15.1z"/></g><path d="M241.7 121.4c4 1.2 6 1 10-.2.1 0 .1.1 0 .1-3.8 1.5-6.2 2.1-10.1.3-.2-.1-.1-.3.1-.2zm-.2 4.4c4.3.8 6.4.7 10.7-.3.1 0 .1.1 0 .1-4.1 1.2-6.5 1.8-10.7.4-.2 0-.2-.2 0-.2zm.7 4.8c4.2.5 6.6.4 10.6-1 .1 0 .2.1.1.1-4 1.8-6.9 2-10.6 1-.4 0-.4-.1-.1-.1z" class="B"/><path d="M264.5 112.7s-5.2-2.1-7.6-2.4c-2.4-.2-11.5 2.1-11.1 4.1.5 2.6 6 2.3 8.7 1.8 0 0 1.2 6 5.2 6.6 4 .7 4.8-10.1 4.8-10.1z" class="D"/><path d="M246.2 115.1c2.2 2 5.6 1.1 8.3.8.2 0 .3.1.3.3.7 2.5 2.3 5.8 4.8 6.7.1 0 0 .1 0 .1-2.8-.6-4.7-3.7-5.3-6.5-2.8.4-6.3 1.2-8.1-1.4-.1 0 0 0 0 0z" class="B"/><path d="M263.7 110.3l4.7 20.3s16.7-5.4 22.9-10.8c4.6-4 4.5-28 3.2-38s-6.6-7.5-8.5-.9-5.3 22.9-5.9 23.6c-.3.5-16.4 5.8-16.4 5.8z" class="C"/><path d="M270.6 119.2l-1-4.6-1-4.6c0-.1-.1-.1-.1 0l.8 4.5.9 4.7 2 9.2c0 .1.1 0 .1 0l-1.7-9.2z" class="B"/><path d="M291.4 119.8c-1.1 1-2.7 2-4.4 2.9l1.7-46.5c2.3-2.2 5-1.3 5.9 5.6 1.3 10.1 1.4 34-3.2 38z" class="F"/><path d="M298.5 127.8c1.3.3 38.7-18.1 38.7-18.4s-22-33-37.8-37.1c-4.5-1.2-10.6 2-11.3 6.1-1.6 9.8 9.6 49.2 10.4 49.4z" class="C"/><g class="B"><path d="M295.7 83.6l-2.9-2.3-1.3 3.7 1.7 2 2.4-.8z"/><path d="M295.6 86.2l11.8 26.6-.4 9.8-7.5-7.1-6.3-28.5z"/></g><path d="M308.281 182.42l-2.491-37.517 59.469-3.949 2.491 37.517z" class="C"/><path d="M308.281 182.42l-2.491-37.517 59.469-3.949 2.491 37.517z" class="F"/><path d="M306.883 162.675l-1.173-17.661 59.469-3.949 1.173 17.661z" class="F"/><path d="M303.988 139.586l62.263-4.135 1.16 17.462-62.263 4.135z" class="C"/><path d="M303.988 139.586l62.263-4.135 1.16 17.462-62.263 4.135z" class="F"/><path d="M343.4 130.6l.4 6.3-2.9.2-.2-3.6-11 .7.3 3.7-2.9.1-.4-6.3zm-29.973 21.742l4.091-.272.556 8.382-4.091.272zm41.103-2.698l4.091-.272.557 8.382-4.091.272z" class="B"/><g class="D"><path d="M302.7 72.3c5.3.5 27.6 4.5 30.8 7.4 4.9 4.4 10.7 26.9 11.5 32.1.4 2.3-17.4 4.7-18 2.3-.4-1.6-2.7-20.5-3.7-22s-15.7-9.5-23.8-13c-7.7-3.4-8.1-7.8 3.2-6.8z"/><path d="M328.6 136.8c1.9.6 3-1 3-1s1 1.2 2.5 1.4c1.7.2 2.8-2.3 2.8-2.3s1.2 1 2.8 1.1c1.7.1 3.1-2.4 3.1-2.4s1.7.3 3.1-.6c2.4-1.6 2.3-6 2.2-8.9-.1-2.8-2.8-10.7-3.2-12.3l-18.1.2s-3.3 12.7-2.8 16c.6 2.8 2.6 8.1 4.6 8.8z"/></g><path d="M331.4 135.6c-1.2-2.8-1.5-5.9-1.9-8.9 0-.1.1-.1.1 0 .4 3 1.4 5.9 2 8.9 0 .1-.2.1-.2 0zm5.3-.8c-.2-.7-.3-1.4-.4-2.1s-.1-1.5-.2-2.2l-.2-4.5c0-.1.1-.1.1 0l.4 4.4.3 2.2.2 2.1c0 .2-.1.2-.2.1zm6.2-1.3c-.2-.6-.2-1.3-.2-1.9 0-.7-.1-1.4-.1-2l-.3-4.1c0-.1.1-.1.1 0l.4 4.1.2 2c0 .6.2 1.3-.1 1.9h0z" class="B"/><path d="M325.6 112.4l20.8-1.2s-4.8-23.8-12.3-31.6c-3.1-3.2-23.7-6.8-32.3-7.6-8.4-.8-13.8 2.1-2.2 7.7 11.7 5.6 21.9 11 22 11.8.3.8 4 20.9 4 20.9z" class="C"/><g class="B"><path d="M326.4 108.5c1.4-.3 2.8-.4 4.2-.5l4.4-.4 8.8-.5c.1 0 .1.1 0 .1l-8.7.9-4.3.3-4.4.1zm.5 3.8l-1.3.1-2-10.2c-.8-3.5-1.1-7.2-2.3-10.5-2.1-1.7-6-3.5-8.3-4.9l-9.1-5c4.7 2.2 9.4 4.4 14 6.9 1.3.8 2.7 1.5 3.9 2.4.2.2.3.5.4.7 1.6 6.8 2.5 13.7 3.4 20.6-.1-.1 1.3-.1 1.3-.1h0z"/><path d="M307.2 83.4c-.8.2-1.8 0-2.4-.6l2.4.6h0z"/></g><path d="M292.7 81.9c2.4-.4 4.8-5.2 5.1-8.6 0-.2-1.1-2.1-2.4-4.4l-2.3-4.5-8.4 6.4s2.3 2.8 3.4 5.4c.1.2.2.4.2.6v.1c.4 1.2 2 5.4 4.4 5z" class="D"/><path d="M292.7 64.7c.7 2.7 1.7 9.5-3.3 11.8-.3.2-.7.3-1 .4v-.1c0-.2-.1-.4-.2-.6-1.1-2.6-3.4-5.4-3.4-5.4l7.9-6.1z" class="B"/><path d="M289.5 52.4c2.5 2.9 4.9 13.4 3.4 16.6-2.1 4.6-7.6 7.4-12.1 4.3-4.3-2.9-7.2-16.6-5.4-19.7 2.8-4.6 10.5-5.5 14.1-1.2z" class="D"/><g class="B"><path d="M283 62.2s.1.1 0 0c.2.8.5 1.5 1.2 1.6-.8.2-1.2-.9-1.2-1.6z"/><path d="M283.4 61.3c1.1-.4 1.8 1.8.8 2.2s-1.7-1.8-.8-2.2zm-4.4 2.2c0-.1 0 0 0 0 .2.8.4 1.6-.2 2 .8-.3.6-1.4.2-2z"/><path d="M278.2 62.9c-1.1.3-.5 2.5.5 2.3s.4-2.5-.5-2.3zm5.7-2.6c-.3 0-.6 0-1 .1-.4 0-.7.1-1-.1-.2-.1-.2-.4-.2-.6.2-.4.6-.6 1.1-.6s.9 0 1.3.3c.5.2.3.8-.2.9z"/><path d="M276.9 62.2c.3-.1.5-.3.8-.5s.6-.3.7-.7c.1-.2 0-.5-.2-.6-.4-.2-.8-.1-1.2.1s-.7.5-.8 1c-.2.5.4.8.7.7zm8.4 6.4c-.1.2-.2.5-.5.6-.2.1-.5.1-.8.1.3.2.7.3 1 .1.4-.2.4-.5.3-.8.1-.1.1-.1 0 0zm-1.3-1.9c-.2.7-.7 1.2-1.2 1.5l-.8.3h-.2-.2c-.1 0-.1 0-.2-.1h0v-.1-.1c-.2-.5-.4-1.4-.4-1.4-.2.2-1 .9-1.1.6-.6-2.3-1.2-4.9-1.3-7.4 0-.1.1-.1.1 0l1.5 6.8c.3-.2.7-.6 1-.7.1 0 .4 1.6.5 1.8.9.1 1.5-.4 2.3-1.2-.1-.1 0-.1 0 0z"/><path d="M282.2 68.3s.7.5 1.4.5c.3 0 .5 0 .8-.2.5-.3.4-.8.1-1.2l-.4-.6s-.7 1-1.9 1.5z"/></g><path fill="#ff9abb" d="M283.5 68.8c.3 0 .5 0 .8-.2.5-.3.4-.8.1-1.2-.5.2-1 .8-.9 1.4z"/><g class="B"><path d="M291.5 60.7c-1.8.5-3.1-3.9-3.1-3.9s-2.9.4-5.5-2.9c0 0-2.8 3.4-5.9 3.9-4.9.7-6.8-5.3-5.5-7.1 1.9-2.6 7.1-1.5 7.1-1.5s6-4.1 9.5-.3c0 0 3-.9 4.3 2.3 1.2 3.2.5 9.1-.9 9.5z"/><path d="M289.2 57.1c-1.4.2-2.9 0-4.1-.7-1.3-.7-2.4-2.2-2.4-3.7 0-.1-.1-.1-.1 0 .2 1.6.8 3.2 2.2 4.1 1.3.9 3 1.1 4.5.4 0 0 0-.1-.1-.1zm2.7-7.9c-1.3-.8-2.8-.6-4.1 0-.1 0 0 .2 0 .1 1.3-.6 3-.2 4 .7 1.1.9 1.4 2.3 1.5 3.6.2 2.5-.4 5-1.9 7 0 0 0 .1.1 0 1.7-2.2 2.6-5 2.2-7.7-.2-1.4-.6-2.9-1.8-3.7zm-13.1.1c-.9-.7-2-1.1-3.2-1.1-1.4.1-2.7.7-3.7 1.7-.8.8-1 2-.7 3.1.3 1.3 1.3 2.3 2.4 3h0c-.9-.7-1.7-1.6-2-2.8-.3-1.1 0-2.3.8-3 1.6-1.5 4.4-2.3 6.3-.8.1.1.2 0 .1-.1z"/></g><path d="M290.3 61.2s.9-4.1 2.7-3.9 2 5.5.5 6.8c-1.4 1.3-2.7 0-2.7 0l-.5-2.9z" class="D"/><path d="M293 58.8c-1 1-1.1 2.3-1.1 3.7.2-.6.6-1 1.3-.8v.1c-.5.1-.8.3-1 .8-.1.4-.1.8-.2 1.2 0 .1-.2.1-.2 0-.7-1.6-.4-4.2 1.2-5z" class="B"/><path d="M287.9 75.7l4.8 4.5 3.7-10.2 3 1.4s-1.6 14.2-1.9 13.7l-4.5-3.7-1.8 4.8-3.6-8.5.3-2z" class="C"/><path d="M289.2 82.2l-1.6-4.3c0-.1 0-.1.1-.1.9 1.2 2.9 6.6 3.5 7.9.1-.2 1.7-4.3 1.8-4.3.8.5 4.1 3.2 4.4 3.5.3-2.3 1.6-11.3 2.1-13.5 0-.1.1-.1.1 0-.1 2.3-1.7 14.2-1.8 14.2 0 .1-4.1-3.3-4.7-3.9-.2.8-1.7 5.3-1.8 5.1-.8-1.4-1.6-3.2-2.1-4.6z" class="B"/><g class="E"><path d="M175.7 114.1c-15.3 6.4-29 14.1-29.6 19-.8 7 3.2 25.1 6.6 33.2 1 2.4 19.3-5.7 18.2-8.2-1.3-3.1-7.5-21-7.5-21.3-.1-.7 13.4-13.3 16.9-16.4 6.5-5.5 3.1-9.5-4.6-6.3z"/><path d="M150.8 160.6c.1 2.1 1.6 11.8 2.7 14.4 1 2.6 4.5 9.9 6.6 9.3s1.2-2.8 1.2-2.8 2 2.8 4 2.1c2-.8.6-4.2.6-4.2s2.2 2.8 4.2 1.9 0-4.1 0-4.1 1.9 2.6 3.2 1.2c1.6-1.7-2.5-6.2-3.4-9.2-.2-.7-3.2-13.9-3.2-13.9l-15.9 5.3z"/></g><path d="M170.2 177.4c-3-3.3-3.7-5.2-4.5-9.5 0-.1-.1-.1-.1 0 .4 4.3.9 6.9 4.5 9.7.1.1.2 0 .1-.2zm-4.1 2.3c-2.8-3.7-3.6-5.8-4.8-10.2 0-.1-.1 0-.1 0 .8 4.5 1.4 7 4.7 10.3.2.1.3 0 .2-.1zm-4.9 1.6c-2.5-3.8-3.5-6-4-10.5 0-.1-.2-.1-.2 0 .1 4.6 1.3 7.5 4.1 10.6.2.2.3.1.1-.1z" class="B"/><path d="M166.7 152.5s4.4 3.4 6.1 5.3c1.6 1.9 5.1 11.2 3.1 12.1-2.5 1.1-5.6-3.9-6.8-6.5 0 0-5.9 2.6-8.9-.5-2.9-3.2 6.5-10.4 6.5-10.4z" class="E"/><path d="M175.1 169.9c-3.1-.7-4.4-4.2-5.7-6.7-.1-.2-.3-.2-.4-.1-2.5.9-6.4 1.5-8.7-.2-.1 0-.1 0-.1.1 2.3 2.1 6.1 1.9 8.8.7 1.3 2.6 2.8 6.2 6.1 6.2 0 .1 0 0 0 0z" class="B"/><path d="M167 147.5l-19.9 3.5s-3.9-15.9-1.2-19.9c2.6-4 17.7-11.9 28.7-16.7 9.1-4 13 .2 5.7 7.1l-16.5 15.4c0 .3 3.2 10.6 3.2 10.6z" class="C"/><path d="M165 144.1c.1 0 0-.1 0-.1-5.9.6-11.8 1.6-17.5 2.8-.1 0 0 .1 0 .1 5.8-.6 11.7-1.5 17.5-2.8z" class="B"/><path fill="#020100" d="M163.8 136.9c.1.3 3.2 10.6 3.2 10.6l-19.9 3.5s-1.1-4.7-1.8-9.6l32.8-28.3c6.5-1.5 8.4 2.4 2.1 8.4l-16.4 15.4z" class="F"/><path d="M190.6 327.1c-.9.1-12.3 2.3-24.2.1-11.2-2-23.6-5.1-24.3-5.7-.7-.5 9.9-43.5 9.9-43.5l29.1 5.8-7.3 28-.1.5s2.3 1.8 7.2 4.9c.9.6 9.9 3.2 10.5 3.9 1.5 1.6.8 5.8-.8 6z" class="E"/><path d="M190.6 327.1c-.9.1-12.3 2.3-24.2.1-11.2-2.1-23.6-5.1-24.3-5.8-.2-.2.7-4.3 2-10.1 7.2 2.6 29.3 9.5 32.5 9.8 3.8.5 9.5 1 9-.4-.4-1.3-3.7-3.1-4.5-3.5 1.6.7 9.8 3.1 10.3 3.8 1.5 1.7.8 5.9-.8 6.1z" class="B"/><path d="M187.8 147.7s2.1 20.2-2.1 24.7c0 0 6.5 51.7 5 65.3-2.1 19.2-12.2 67.9-12.2 67.9l-31.9-8.1 14.2-61.5c.4-3.8-6.9-59.8-7.3-60.9-4.9-14.5 2-27.8 2-27.8l32.3.4z" class="H"/><g class="B"><path d="M175.9 297.6l-7.2-2.1c-2.1-.6-15.5-4.2-17.6-4.3 0 0-.1.1 0 .1 1.8.9 15.4 4.3 17.5 4.8l7.3 1.7s.1-.2 0-.2zm-10.3-6.4l6.5-29.2c1.1-4.9 2.1-9.8 3-14.6.6-3.6 1.7-7.3 1.2-11l-7.4-63c-4.2-7-2.4-15.8-.1-23.2-2.1 7.3-3.7 16.1.5 22.9l7.8 65.1c-.7 8.1-2.9 16-4.6 23.9-2.1 9.7-4.4 19.4-6.9 29.1h0z"/><path d="M189.9 216l-34.4-68.7 32.3.4s2.1 20.2-2.1 24.7c0 0 2.7 23.4 4.2 43.6z"/></g><path d="M242.6 273.1c-1.6.5-46.6-.4-48.3-1.5-.6-.4 6.9-39 6.9-39l26.6.2-5.4 24.3s17.1 8 18.8 9.5 3 6 1.4 6.5z" class="E"/><path d="M242.6 273.1c-.7.2-9.8.2-19.9-.1h-2c-1.7 0-3.5-.1-5.2-.1-.7 0-1.3 0-2-.1h0c-.7 0-1.3 0-2-.1-1 0-2-.1-3-.1-.6 0-1.2-.1-1.8-.1h0c-.6 0-1.2-.1-1.8-.1h0c-.9 0-1.7-.1-2.5-.1-.5 0-1.1 0-1.6-.1-1-.1-1.9-.1-2.7-.2-.4 0-.8-.1-1.1-.1-.9-.1-1.6-.2-2-.2-.4-.1-.6-.1-.7-.2-.2-.1-.2-5 1.2-11.3 4.3 1.1 11.4 2.8 23.5 4.7 19.9 3.1 14.1-2.3 10.7-4.2 0 0-.1 0-.1-.1l.6.3h.1l1.2.6c.4.2.8.4 1.3.6.7.3 1.4.7 2.1 1s1.3.7 1.9 1c.4.2.7.4 1.1.5.2.1.3.2.5.3l.6.3c.5.2.8.5 1.2.7.1 0 .2.1.2.1.4.2.6.4.8.5 1.7 1.6 3 6.1 1.4 6.6z" class="B"/><path d="M226.1 247.2l-29-.8s11.3-48.7 10.6-51.2c-.3-1-34.9-11.1-44.3-18.3-11.5-8.7-7.9-29.6-7.9-29.6l32.3.4s-.2 2.3 1.3 4.3c2.4 3.4 45.6 19.2 49.2 29.2 4.6 12.7-12.2 66-12.2 66z" class="H"/><path d="M155.5 158.4c0 5.9 2.5 11.4 6.3 15.8s9.4 6.7 14.5 9.2c3.6 1.6 7.2 3.1 10.8 4.4-3.8-1-7.5-2.3-11.1-3.8-5.4-2.3-11.2-4.7-15-9.3-3.8-4.4-6.2-10.3-5.5-16.3h0zm27.2-8.3c-.1 1.8 0 3.7.7 5.3 1.6 2.6 4.4 4.1 6.9 5.7 7.1 4.4 18 9.7 25.5 13.6 4.3 2.3 8.6 4.5 12.6 7.3 1.4 1.1 3.3 2.3 3.5 4.3.4 7.9-1.7 15.7-3.2 23.4-2.1 9.4-4.5 18.8-7.2 28.1a717.96 717.96 0 0 0 6.6-28.2c1.4-7.6 3.5-15.4 3.1-23.2-.2-1.8-1.9-2.7-3.2-3.8-3.9-2.7-8.2-5-12.5-7.3-8.5-4.5-17.2-8.8-25.4-13.9-2.4-1.7-5.3-3.3-6.8-6-.7-1.6-.8-3.5-.6-5.3h0zm42.3 90.3l-6.9-.3c-2-.1-15-.4-16.8 0v.1c1.8.5 14.8.5 16.8.4 4 0 2.9-.1 6.9-.1 0 .1 0-.1 0-.1zM193.7 89.5c-3.9 5.8-.1 10-1.9 11.9-4.6 5-1 6.3-2.1 8-1 1.5-5.1 2.9-3.2 7.7l19.7-1.9c.3-3.3-3.1-4.7-3.6-7-.4-2.3 2.1-4.8-2.7-9.3-3-2.8-4.3-12.1-6.2-9.4z" class="B"/><path d="M189.8 141.7l.1 7.7-36-.4s11.5-26.2 22.8-34.7c6.4-4.9 10.5-1.3 12.8 3.3.6 1.2 4.8 12.3 4.7 16.9 0 5-4.4 7.2-4.4 7.2z" class="C"/><path d="M185.5 139.3l-4.6.8c-.8.2-1.5.5-2.2.7-.4.1-.7.3-1.1.4s-.8.2-1.2.2v.1h1.1c.4 0 .7-.1 1.1-.2l2.3-.7 4.6-1.2c.1 0 .1-.2 0-.1zm3.9 1.5l-3.8-.2c-.6 0-1.3.1-1.9.1-.3 0-.6.1-.9.1s-.7.1-1 .2v.1h1 1 1.9l3.8-.1c-.1-.1-.1-.2-.1-.2z" class="B"/><path d="M181.9 113.5c.1.7 2.8 5.7 6 6 1.1.1 1.8-5.6 1.8-5.6l.2-.4 2.1-5.7-6.3-5.4-.9-.7-1 3.6c0 .1-.1.2-.1.3s-.1.2-.1.3l-.3.9c-.1.2-.1.5-.2.7s-.1.5-.2.7c-.6 2.4-1 5-1 5.3z" class="E"/><path d="M183.7 105.2c1.1 4.9 4.6 7.3 6.2 8.2l2.1-5.7-6.3-5.4-.9-.7c-.1 0-.5 1.6-1.1 3.6z" class="B"/><g class="E"><path d="M181.9 113.5c0 1.7 8.3 13 9.3 12.7.5-.1-2.1-8.9-2.1-8.9l-7.2-3.8z"/><path d="M176.3 122.3c7.6 15.5 16 27.4 21.3 28 7 .8 22.7-4.6 28.7-8.7 2.1-1.4-4.8-19-7.3-17.9-3 1.4-18.3 9.1-18.7 9.2-.7.1-14.1-10.8-17.6-13.9-6-5.2-9.8-3.6-6.4 3.3z"/><path d="M214.4 127.3s5.5-4.6 9.3-7.4c2.1-1.6 5.9-4 8-4.4 3.1-.7 16.5-1.6 16.8 1.7.3 2.9-11.4 2.2-11.4 2.2s11.8-.3 11.5 3.3-13.4 1.1-13.4 1.1 12.1-.1 11.2 3.6c-.7 2.8-12.6 1.1-12.6 1.1s10.4 0 9.8 2.9c-.7 3.2-11.8 2.3-11.8 2.3-2.8 7-7 9.3-10.1 10.5-.8.2-7.3-16.9-7.3-16.9z"/></g><path d="M233.1 119.2l4.2-.2c1.4 0 2.8.1 4.2.3 3.4.4 5.4 1.2 5.3 1.1-3.1-.8-8.1-1-9.5-1.1-1.5.1-2.8 0-4.2-.1-.1 0-.1 0 0 0zm-.2 5l5.3-.1c1.8 0 3.4.2 5.2.4.1 0 .1.1-.1.1-1.8-.1-3.4 0-5.2-.1l-5.2-.3c-.1 0-.1 0 0 0zm-1 4.3c2.7-.2 5.4.1 8.1.5.1 0 .1.1-.1.1l-8-.6s-.1 0 0 0z" class="B"/><path d="M207.9 128.8l6.7 19.8s-14.2 3.5-18.5 1.5-14-14-19-24.9-1.1-12.6 8.1-4.7 14.8 11.8 15.1 11.7 7.6-3.4 7.6-3.4z" class="C"/><g class="B"><path d="M204.1 131.6c0-.1-.1 0-.1 0 1.5 5.7 3.5 11.3 5.6 16.9 0 .1.1 0 .1 0-1.6-5.8-3.4-11.4-5.6-16.9zm3.8-2.8l-7.6 3.6c-.1.1-.1.1-.2 0-5.5-4.1-11-8.3-16-12.9 1.3 1.1 2.7 2.1 4 3.2l12.2 9.4h-.2c2-.9 5.9-2.5 7.8-3.3h0zm-30.9-3c4.2 6.3 8.1 13.1 12.9 18.9-5.4-5.4-9.3-12.3-12.9-18.9h0z"/><path d="M176.9 126.7l2 2.4c-.9-.5-1.6-1.4-2-2.4h0z"/></g><path d="M199.7 96.1c3.6 10.1-2 13.4-4.2 14.2-2 .7-8.8 2.9-13.4-6.8S181 89 185.4 87.1c4.4-1.8 10.7-1.1 14.3 9z" class="E"/><g class="B"><path d="M197.3 93.4c-.2.1-.5.1-.7.1-.3 0-.5.1-.8 0a.76.76 0 0 1-.2-.4c.1-.3.5-.5.8-.5.4-.1.7 0 1 .2.4.1.2.6-.1.6zm-5.8 4.2c.2-.1.4-.2.7-.3s.5-.2.6-.4c.1-.1 0-.4-.1-.5-.3-.2-.6-.2-1 0-.3.1-.6.3-.8.7-.1.3.2.6.6.5zm1.8.9s0 .1 0 0c.3.8.5 1.6 0 2 .7-.3.4-1.4 0-2z"/><path d="M192.4 98c-1.1.3-.3 2.6.7 2.2 1.1-.2.3-2.4-.7-2.2z"/><path d="M192 98.3c-.1.2-.3.5-.5.6-.3.1-.5 0-.8-.2.1.4.5.8.9.7s.6-.6.6-1c0-.1-.1-.2-.2-.1zm5-1.4s.1.1 0 0c.3.7.7 1.5 1.4 1.5-.8.3-1.3-.8-1.4-1.5z"/><path d="M197.4 96c1.1-.5 1.9 1.7.9 2.2-1 .4-1.8-1.8-.9-2.2z"/><path d="M197.9 96c.2 0 .5.2.7.1s.3-.4.4-.7c.2.4.2.9-.2 1.1-.3.2-.7 0-1-.4 0 0 0-.1.1-.1zm-3 8.4c.2.1.4.3.7.3s.5-.2.7-.4c-.1.3-.5.6-.8.6-.2 0-.5-.2-.6-.5zm2.3-3.6l.6 1.5s-.1.1-.3.2c-.8.4-1.8.3-2.5-.2 0 0 0-.1.1-.1.8.3 1.5.2 2.3 0 0-.1-.8-1.7-.7-1.7.3-.1.8-.1 1.2-.1l-2.9-6.2c0-.1.1-.1.1-.1 1.4 2 2.5 4.4 3.4 6.6.1.2-1.1.2-1.3.1z"/><path d="M197.3 102.4s-.2.8-.8 1.2c-.2.2-.4.3-.7.3-.6 0-.7-.4-.8-.9v-.7s1.1.4 2.3.1z"/></g><path fill="#ff9abb" d="M196.6 103.6c-.2.2-.4.3-.7.3-.6 0-.7-.4-.8-.9.5-.1 1.2 0 1.5.6z"/><g class="B"><path d="M188 85.5c-5.2.1-9.3 1.7-11.1 4.4-3.8 5.7-.4 14.4-2.2 16.3-4.5 4.9-.9 6.2-2.1 8-.9 1.4-5.1 2.9-3.1 7.6l19.4-1.9c.3-3.2-3.1-4.6-3.5-6.9-.4-2.2 2-4.7-2.7-9.1-3.1-2.9 5.3-18.4 5.3-18.4z"/><path d="M181 103c1.2-.2 4.1-.8 5.4-2.7.8-1.1 1.2-2.6 1.1-5.2-.2-4.5 1.9-8.1 7.1-6.8 0 0-.1-4.2-3.2-5.1s-5.1 2.5-5.1 2.5-6.1 1-8.1 6.3c-1.8 5.3 2.8 11 2.8 11z"/></g><path d="M185.4 102.5s-3-2.8-4.3-1.7 1.4 5.5 3.3 5.8 2.2-1.5 2.2-1.5l-1.2-2.6z" class="E"/><path d="M181.9 102.1c1.3.3 2.2 1.3 2.9 2.4-.5-.4-1-.5-1.5 0v.1c.5-.2.9-.2 1.3.1.3.2.5.6.8.8.1.1.3 0 .2-.1-.3-1.6-2-3.5-3.7-3.3z" class="B"/><defs ><path id="B" d="M418.4 86.3V51.1c0 .6.1 1.1.3 1.8.2.6.5 1.2.9 1.8 3.1 4.1 11.9 7 26.2 8.4v35.2c-14.3-1.4-23.1-4.3-26.2-8.4-.4-.6-.7-1.2-.9-1.8s-.3-1.2-.3-1.8z"/><path id="C" d="M419.2 81.3c0 .9-.2 1.7-.4 2.5s-.4 1.6-.4 2.5V51.1c0-.8.2-1.6.4-2.5.2-.8.4-1.7.4-2.5v35.2z"/><path id="D" d="M260.4 257.7c3.1 0 6.7 1 8.6 3.6.1.1-.1.2-.2.2-2.8-1.4-5.5-2.5-8.5-3.4-.2-.1-.2-.4.1-.4z"/></defs></svg>