<svg xmlns="http://www.w3.org/2000/svg" xmlns:xlink="http://www.w3.org/1999/xlink" viewBox="0 0 750 500" xmlns:v="https://vecta.io/nano"><style><![CDATA[.B{fill:#263238}.C{fill:#fff}.D{fill:#ebebeb}.E{fill:#0a589a}.F{fill:#d3766a}.G{fill:#dbdbdb}.H{fill:#c7c7c7}.I{opacity:.6}.J{fill:#106dac}.K{fill:#455a64}.L{fill:#1275b3}]]></style><path d="M134 111.9l-10.5-6.5-2 3.2c-.6.9-1.7 1.5-2.8 1.4-.6-.1-1.2-.1-1.9-.1-1.1 0-2.1-.6-2.7-1.5l-1.8-3.3-10.9 5.9 1.8 3.3a3.12 3.12 0 0 1-.2 3.1c-.4.5-.7 1-1 1.6-.5 1-1.6 1.6-2.7 1.6l-3.8-.1-.4 12.4 3.8.1c1.1 0 2.1.7 2.6 1.7.1.3.3.5.4.8s.3.5.5.8a2.89 2.89 0 0 1 0 3.1l-2 3.2L111 149l2-3.2c.6-.9 1.7-1.5 2.8-1.4.6.1 1.2.1 1.8.1 1.1 0 2.1.6 2.7 1.5l1.8 3.3 10.9-5.9-1.8-3.3a3.12 3.12 0 0 1 .2-3.1c.4-.5.7-1 1-1.6.5-1 1.6-1.6 2.7-1.6l3.8.1.4-12.4-3.8-.1c-1.1 0-2.1-.7-2.6-1.7-.1-.3-.3-.5-.4-.8s-.3-.5-.5-.8a2.89 2.89 0 0 1 0-3.1l2-3.1zm-7.8 10.5c2.6 4.9.8 11.1-4.1 13.7s-11.1.8-13.7-4.1-.8-11.1 4.2-13.8c4.8-2.6 10.9-.7 13.6 4.2zm-24.5 49l-4.3-7.5-2.3 1.3c-.7.4-1.5.4-2.2-.1-.4-.2-.7-.5-1.1-.6-.7-.4-1.1-1.1-1.1-1.8V160H82v2.7c0 .8-.4 1.5-1.1 1.8l-1.1.6c-.7.4-1.5.5-2.2.1l-2.3-1.3-4.3 7.5 2.3 1.3c.7.4 1.1 1.1 1 1.9v.6.6c0 .8-.3 1.5-1 1.9L71 179l4.3 7.5 2.3-1.3c.7-.4 1.5-.4 2.2.1.4.2.7.5 1.1.6.7.4 1.1 1.1 1.1 1.8v2.7h8.7v-2.7c0-.8.4-1.5 1.1-1.8l1.1-.6c.7-.4 1.5-.5 2.2-.1l2.3 1.3 4.3-7.5-2.3-1.3c-.7-.4-1-1.1-1-1.9v-.6-.6c0-.8.3-1.5 1-1.9l2.3-1.3zm-8.3 3.9a7.13 7.13 0 0 1-7.1 7.1 7.13 7.13 0 0 1-7.1-7.1 7.13 7.13 0 0 1 7.1-7.1c3.9 0 7.1 3.1 7.1 7.1zm559.3 49.6l-4.3-7.5-2.3 1.3c-.7.4-1.5.4-2.2-.1-.4-.2-.7-.5-1.1-.6-.7-.4-1.1-1.1-1.1-1.8v-2.7H633v2.7c0 .8-.4 1.5-1.1 1.8l-1.1.6c-.7.4-1.5.5-2.2.1l-2.3-1.3-4.3 7.5 2.3 1.3c.7.4 1.1 1.1 1 1.9v.6.6c0 .8-.3 1.5-1 1.9l-2.3 1.3 4.3 7.5 2.3-1.3c.7-.4 1.5-.4 2.2.1.4.2.7.5 1.1.6.7.4 1.1 1.1 1.1 1.8v2.7h8.7v-2.7c0-.8.4-1.5 1.1-1.8l1.1-.6c.7-.4 1.5-.5 2.2-.1l2.3 1.3 4.3-7.5-2.3-1.3c-.7-.4-1-1.1-1-1.9v-.6-.6c0-.8.3-1.5 1-1.9l2.3-1.3zm-8.3 3.9a7.13 7.13 0 0 1-7.1 7.1 7.13 7.13 0 0 1-7.1-7.1 7.13 7.13 0 0 1 7.1-7.1 7.13 7.13 0 0 1 7.1 7.1zM570.9 91.3c-2.7 6.8-4.2 13.8-4.6 21.1h-.3-18.2-.2v-.5c.1-.5.1-1 .2-1.4.2-2.5.6-4.9 1.2-7.4 1-4 2.4-7.8 4.1-11.5.1-.2.2-.3.4-.3h17 .4zm-.6 47.1h-.3-16.8c-.2 0-.3-.1-.4-.3-2-4.1-3.4-8.5-4.3-13-.4-2.2-.7-4.4-.8-6.6v-.2-.5h.3 18.1c.3 0 .3 0 .3.3.1 1.5.2 3 .4 4.5.2 2.4.6 4.7 1.1 7.1.6 2.9 1.4 5.6 2.4 8.4v.3zm72.1 5.4c-.1.1-.1.2-.1.3-1.4 2.2-3.1 4.3-4.9 6.3-2.1 2.4-4.5 4.6-7.1 6.6-2.5 1.9-5.2 3.6-8.1 5-2.8 1.4-5.6 2.5-8.6 3.3a42.68 42.68 0 0 1-7.1 1.5c-.2 0-.5.1-.7.1h-.4c-.1-.1-.2-.2-.4-.3.2-.1.3-.2.5-.3a54.25 54.25 0 0 0 13.5-13.1c2.1-2.9 3.9-6 5.5-9.2.1-.2.2-.3.4-.3h17.2.3zm-17.1-31.4h-24.1v-21h.3H620c.2 0 .3.1.4.2 1.7 4 3 8.1 3.8 12.3a72.05 72.05 0 0 1 .9 6.7c.1.6.1 1.1.2 1.8zm-.2 5.6c0 .5 0 1-.1 1.5l-.4 3.5-.8 4.8c-.7 3.5-1.8 6.9-3.1 10.3-.1.2-.2.3-.4.3h-19-.3V118h24.1zm-29.3-26.5v21.1h-23.5c0-.5.1-1.1.1-1.6l.4-3.5 1-5.3a54.99 54.99 0 0 1 3.4-10.4c.1-.2.2-.3.4-.3h17.9.3zm0 26.8v19.8.3h-.3H577c-.2 0-.3-.1-.4-.3-1.4-3.4-2.5-7-3.2-10.6-.4-1.9-.6-3.8-.9-5.6-.2-1.2-.2-2.5-.3-3.7v-.1h.3 23c.3-.1.3-.1.3.2zm55-5.8h-19.7c-.4-7.3-1.9-14.4-4.6-21.2h.3 18.1c.2 0 .3.1.4.3a51.49 51.49 0 0 1 4.5 13.2c.5 2.4.8 4.9 1 7.4v.3zm0 5.3c0 .5 0 .9-.1 1.4-.1 1.8-.3 3.6-.6 5.3-.7 4.1-2 8-3.6 11.8-.3.6-.6 1.2-.8 1.8-.1.1-.1.2-.3.2h-18.1-.2c.2-.6.4-1.2.6-1.9a51.88 51.88 0 0 0 2.4-9.6c.4-2.4.7-4.8.8-7.2 0-.6.1-1.1.1-1.7 0-.2 0-.2.2-.2h.2 19.4zm-8.9-31.9c0 .1 0 .1 0 0l-.3.1h-17.3c-.2 0-.3-.1-.4-.2-2.3-4.6-5.1-8.8-8.6-12.7-2-2.2-4.2-4.2-6.6-6.1-1.2-.9-2.4-1.8-3.6-2.6-.1 0-.1-.1-.2-.2.1-.1.2-.1.2-.2s-.1-.2-.1-.4c6.1.7 12 2.4 17.4 5.2 8 4.2 14.6 9.8 19.5 17.1zm-49.5 80.8c-.2 0-.4.1-.5.1-1.9-.2-3.8-.6-5.6-1.1-3.5-.9-6.8-2.1-10-3.7-3.7-1.8-7.1-4.1-10.2-6.7-2.2-1.9-4.3-3.9-6.1-6.1-1.4-1.7-2.7-3.5-3.8-5.3 0 0 0-.1-.1-.2h.3 16.1c.2 0 .3.1.4.3 1.7 3.4 3.6 6.6 5.9 9.6 2.1 2.8 4.4 5.3 6.9 7.7 2.1 2 4.3 3.8 6.7 5.4-.1-.1-.1-.1 0 0zm-.2-102.5l-2.4 1.8c-2.8 2.2-5.4 4.6-7.8 7.2-3.2 3.5-6 7.4-8.2 11.7-.1.3-.3.5-.4.8 0 .1-.2.1-.2.2h-.9-15.7c8.8-12.4 20.5-19.8 35.5-22.1 0 .1-.1.1-.1.2s.2.2.2.2zm25.9 79.6c-2.2 3.9-4.9 7.5-8 10.8-2.7 2.9-5.7 5.5-9.1 7.7v-18.5h17.1zm-22.3 0v18.1c-6.9-4.8-12.3-10.8-16.3-18.1h16.3zm21.8-57.9h-16.4V68.6c3.4 2.2 6.4 4.8 9.2 7.7 2.7 2.9 5.1 6.1 7.2 9.6zm-21.8-16.7V86h-15.7c4-6.8 9.1-12.5 15.7-16.8z" class="D"/><path d="M103.5 335.8c-2 14-14.1 24.7-28.6 24.7-16 0-29-13-29-29s13-29 29-29v29l28.6 4.3z" class="G"/><path d="M109.8 325.6c0 1.4-.1 2.9-.3 4.2l-28.6-4.2v-29c10.7 0 20.1 5.9 25.1 14.6 2.4 4.3 3.8 9.2 3.8 14.4z" class="D"/><g class="H"><path d="M89.6 347.1h30.8v1H89.6z"/><path d="M122.5 350.2a2.7 2.7 0 1 1 0-5.4 2.7 2.7 0 1 1 0 5.4zm0-4.3c-.9 0-1.7.7-1.7 1.7 0 .9.7 1.7 1.7 1.7.9 0 1.7-.7 1.7-1.7s-.7-1.7-1.7-1.7zm7.9 0h23.9v1.1h-23.9zm0 2.2h13.5v1.1h-13.5z"/></g><g class="D"><path d="M173.6 83h9.4v67.1h-9.4zm16.2 16.2h9.4v50.9h-9.4zm16.2 25.4h9.4V150H206zm16.2-14.5h9.4v40h-9.4zm16.2-15.3h9.4V150h-9.4zm16.2-8.9h9.4v64.2h-9.4z"/><path d="M168.1 74.4l.1 18.9.1 18.9.1 37.8-.2-.2h26l26 .1 26 .1 26 .1-26 .1-26 .1-26 .1h-26-.2v-.2l.1-37.8.1-18.9-.1-19.1z"/><use xlink:href="#B"/><use xlink:href="#C"/><use xlink:href="#B" y="11.5"/><use xlink:href="#C" y="11.5"/><use xlink:href="#B" y="23"/><use xlink:href="#C" y="23"/><use xlink:href="#B" y="34.5"/><path d="M166.1 118.4c.7-.2 1.4-.3 2.1-.3s1.4.1 2.1.3c-.7.2-1.4.3-2.1.3-.8 0-1.4 0-2.1-.3z"/><use xlink:href="#B" y="46"/><path d="M166.1 129.9c.7-.2 1.4-.3 2.1-.3s1.4.1 2.1.3c-.7.2-1.4.3-2.1.3-.8 0-1.4 0-2.1-.3z"/><use xlink:href="#C" y="51.7"/><use xlink:href="#B" y="63.2"/><ellipse cx="158.5" cy="450.5" rx="110.7" ry="16.8"/></g><path d="M46.5 390.5l82.2-.2 82.1-.1L375 390l164.2.2 82.1.1 82.2.2-82.2.2-82.1.1-164.2.2-164.2-.2-82.1-.1z" class="B"/><path d="M212.3 140.2H594v255.4H212.3z" class="G"/><path d="M215.1 143.3h376.2v249.1H215.1z" class="B"/><path d="M162.6 414.7h481.2v17.5H162.6z" class="H"/><path d="M162.6 414.7l49.7-19.1h381.8l49.7 19.1z" class="G"/><path d="M216.8 407.9l32-12.3h308.7l32.1 12.3z" class="B"/><path d="M236.4 162.3h333.7v211.3H236.4z" class="C"/><path d="M236.1 162.3h334v8.1h-334z" class="K"/><circle cx="240.5" cy="166.3" r="2" class="H"/><circle cx="248.8" cy="166.3" r="2" class="C"/><circle fill="#ffc727" cx="257" cy="166.3" r="2"/><path d="M251.2 299.3h50.7V334h-50.7z" class="D"/><g class="C"><path d="M251.2 301.9l6.5 3.8 6.4 3.9 12.7 7.9h-.6l12.7-7.9 6.4-3.9 6.5-3.8-6.2 4.2-6.3 4.1-12.6 8.1-.3.2-.3-.2-12.6-8.1-6.3-4.1-6-4.2z"/><path d="M251.3 327.9l4.8-3.8 4.9-3.6 5.1-3.4 5.2-3.1-4.8 3.8-4.9 3.6-5.1 3.4-5.2 3.1zm50.4 0l-5.2-3.2-5.1-3.4-4.9-3.6-4.8-3.8 5.2 3.1 5.1 3.4 4.9 3.6 4.8 3.9z"/></g><path d="M305.1 341.9l3.2 7.8-3.2 1.3-3.3-7.8-5.3 4.1v-21.9l15.4 15.5zm-8.6-18.9c-.2-.4-.2-.7-.2-1.1s0-.7.2-1.1c.2.4.2.7.2 1.1 0 .3 0 .7-.2 1.1zm-1.9.8c-.4-.2-.7-.4-.9-.6-.3-.3-.5-.5-.6-.9.4.2.7.4.9.6s.5.5.6.9zm-.8 1.9c-.4.2-.7.2-1.1.2s-.7 0-1.1-.2c.4-.2.7-.2 1.1-.2s.8 0 1.1.2zm.8 1.9c-.2.4-.4.7-.6.9-.3.3-.5.5-.9.6.2-.4.4-.7.6-.9.3-.3.6-.5.9-.6zm4.6-1.9c.4-.2.7-.2 1.1-.2s.7 0 1.1.2c-.4.2-.7.2-1.1.2s-.7-.1-1.1-.2zm-.8-1.9c.2-.4.4-.7.6-.9.3-.3.5-.5.9-.6-.2.4-.4.7-.6.9s-.5.4-.9.6z" class="B"/><path d="M450.9 348.1l-37.7-9.7 12.4-48.4 28 7.2 7.3 11.7z" class="D"/><g class="G"><path d="M453.6 297.2l7.3 11.7-9.7-2.5zm-5.741 8.471l-20.922-5.372.323-1.259 20.922 5.372zm-.82 3.171l-20.922-5.372.323-1.259 20.922 5.372zm-.819 3.17l-20.922-5.372.323-1.259 20.922 5.372z"/><use xlink:href="#D"/><use xlink:href="#D" x="-0.795" y="3.074"/><use xlink:href="#D" x="-1.615" y="6.245"/><use xlink:href="#D" x="-2.434" y="9.416"/><use xlink:href="#D" x="-3.229" y="12.489"/><use xlink:href="#D" x="-4.047" y="15.659"/><use xlink:href="#D" x="-4.868" y="18.83"/><use xlink:href="#D" x="-5.663" y="21.904"/><use xlink:href="#D" x="-6.483" y="25.074"/></g><path d="M334.5 279.8l48.7 1.8 1.2-32.6-48.7-1.8z" class="D"/><path d="M336.6 277.8l44.7 1.7 1-28.5-44.7-1.7z" class="C"/><g class="G"><circle cx="346.2" cy="258.6" r="4.9"/><path d="M350.5 278.4l30.7 1.1-14.6-21.4z"/></g><g class="D"><path d="M338.4 278l25.4.9-12.2-14z"/><path d="M316.1 303l47.7-10-6.7-31.9-47.7 10z"/></g><path d="M317.7 300.6l43.7-9.2-5.8-27.9-43.8 9.1z" class="C"/><g class="G"><circle cx="322.4" cy="279.5" r="4.9"/><path d="M331.3 297.8l30.1-6.3-19.3-17.3z"/></g><path d="M319.5 300.3l24.8-5.2-15.2-10.7z" class="D"/><path d="M651.5 300.9c7.5-15.5 20.7-23.4 35.6-19s17.2 25.1 6.1 30.3-22.2-10-28-13.2c-6-3.1-13.7 1.9-13.7 1.9z" class="E"/><path d="M644.2 342.2l.2-5.6.4-11.2c.3-6.8 1-13.5 3.8-19.8 2.5-5.6 6.6-10.6 12-13.8 2-1.2 4.1-2.1 6.3-2.7 1.8-2.1 4.7-3.4 7.3-4 3.4-.8 7-.7 10.5-.3.1 0 .1.2 0 .2-3.3-.4-6.7-.2-9.9.7-1.4.4-2.7.9-4 1.5-.8.4-1.6.9-2.3 1.5 3-.6 6-.6 9.1.1a39.27 39.27 0 0 1 3.2 1c.8-.2 1.7-.2 2.5-.2 1.1 0 2.2.2 3.2.5 2.2.5 4.2 1.6 6.1 2.7.1.1 0 .2-.1.2-1.9-1-3.9-1.8-6-2.2-1-.2-2-.4-3.1-.4h-1.7c4.2 2 7.7 5.3 9.6 9.6.1.1-.1.2-.2.1-2.2-5-7-8.5-12.2-9.8-.3-.1-.7-.1-1-.2.1.5.1 1 .2 1.5.1.8.2 1.5.4 2.2.3 1.5.7 3.1 1.2 4.5.5 1.5 1.1 3 1.8 4.4s1.5 3 2.5 4.2c.1.1-.1.2-.2.1-.9-1.4-1.9-2.7-2.7-4.1s-1.5-2.8-2-4.3c-.6-1.5-1-3.1-1.3-4.6-.2-.8-.3-1.7-.4-2.5-.1-.5-.2-1-.1-1.5-1.7-.3-3.5-.3-5.3-.1.7 3.7 1.4 7.5 3.4 10.8.1.1-.1.2-.2.1-.9-1.7-1.9-3.4-2.6-5.3-.6-1.8-1.1-3.6-1.3-5.5-3.1.4-6.1 1.4-8.7 2.9-5.1 2.9-9 7.4-11.6 12.7-2.8 5.7-3.9 11.9-4.3 18.2-.5 7.9-.6 15.9-1.4 23.8-.1.5-.9.7-1 .1-.3-2-.2-3.8-.1-5.5zm17.4-51.6c.4-.6 1.1-1.1 1.7-1.6l1.9-1.5c1.3-.9 2.7-1.6 4.3-2 .1 0 .2.2 0 .2-1.5.3-3 1.1-4.2 2.1l-1.8 1.5c-.5.5-1.1 1.1-1.7 1.5-.2 0-.3-.1-.2-.2zm24 5.6l3.5 4.6c1 1.6 1.9 3.3 2.6 5.1 0 .1-.1.1-.1 0-1.8-3.3-3.7-6.7-6.1-9.6-.1-.1 0-.2.1-.1zm-16.2-1.6c.2 1 .4 1.9.9 2.8.4.9.9 1.7 1.4 2.5 0 .1 0 .1-.1.1-1.3-1.4-2.1-3.4-2.4-5.3 0-.1.2-.2.2-.1z" class="B"/><path d="M645.2 301.3s-10.7-13.4-31.3-8.7c-19.6 4.5-28.6 40.4-8.8 44.7s16.3-28.9 23.5-34.6c5.3-4 12.9-3.1 16.6-1.4z" class="E"/><path d="M598.1 312.3l4.2-3.3c1.4-.9 2.9-1.8 4.5-2.3.8-1.2 1.7-2.4 2.7-3.5 1.8-2 3.9-3.6 6.2-5h-.6-3.3c-2.2.2-4.3.7-6.4 1.6-.1.1-.2-.1-.1-.2 2-.9 4.2-1.5 6.3-1.9a17.33 17.33 0 0 1 3.2-.3c.6 0 1.2 0 1.7.1h.3c1.9-1 3.9-1.7 5.9-2.2-.2-.1-.4-.1-.6-.2l-3.1-.5c-2.1-.2-4.1-.2-6.2.1-.1 0-.2-.2 0-.2 2.1-.3 4.2-.3 6.2-.3 1.7.1 3.5.3 5.2.7 1.2-.2 2.5-.4 3.8-.4 7.2-.3 15 2.4 19.4 8.3s5.3 13.8 6.1 20.9c1.1 9.9 1.6 20 .8 29.9 0 .6-.9.5-.9-.1-.3-8.5-.6-16.9-1.4-25.4-.4-3.9-.8-7.8-1.4-11.7-.6-3.3-1.3-6.6-2.8-9.6-1.6-3.2-3.9-5.7-6.9-7.5s-6.4-2.7-9.8-3c-3.1-.3-6.2.1-9.2.9.1.6.1 1.2.1 1.8-.1.8-.2 1.5-.5 2.2-.2.7-.5 1.4-.9 2-.4.7-.9 1.3-1.3 2-.1.1-.2 0-.2-.1.9-1.1 1.3-2.7 1.6-4.1.1-.7.2-1.4.2-2.1v-1.6c-3.2 1-6.3 2.6-9 4.7-.5.4-1 .8-1.5 1.3.7.6 1.3 1.4 1.7 2.1.7 1 1.3 2.1 1.8 3.3 1 2.3 1.5 4.7 1.9 7.2 0 .1-.2.2-.2 0-.3-2.4-1.2-4.6-2.3-6.8-.5-1-1.2-2.1-1.8-3-.3-.5-.7-1-1.1-1.5-.2-.3-.4-.5-.6-.8-2.4 2.4-4.4 5.2-5.8 8.2 1 .9 1.7 2.3 2.4 3.5.7 1.3 1.4 2.7 1.9 4.1 1.1 2.7 1.8 5.6 2.5 8.4 0 .1-.2.2-.2 0-.6-2.9-1.7-5.6-2.9-8.3-.6-1.3-1.3-2.6-1.9-3.8s-1.4-2.3-1.9-3.6c-1.4 3-2.2 6.2-2.3 9.5 0 .1-.2.1-.2 0 .4-5.1 1.9-10.2 4.6-14.6-1.3.5-2.5 1.1-3.7 1.7-1.5.8-3 1.8-4.3 3 .1.6 0 .4.1.4zm15.1.7l2 6.1c.5 2 .9 4 .9 6.1 0 .1-.1.1-.1 0-.6-4.1-1.5-8.2-3-12.1-.1-.2.1-.2.2-.1zm-13.1-5c.8-.8 1.7-1.4 2.7-1.9s2.1-.8 3.2-1.1c.1 0 .2.2 0 .2-1.1.2-2.1.7-3 1.3-1 .4-1.9.9-2.9 1.5 0 .1 0 0 0 0z" class="B"/><path d="M635.1 283.4s-2-24.1-19.9-31.9c-15-6.5-23.5 10.3-12.9 20.6 8.5 8.3 22.2 4.5 32.8 11.3z" class="E"/><path d="M605.6 256.2l8 3.8c2.1 1.2 4.2 2.6 6.2 4.1l-.9-1.8-1.5-2.7c-1.1-1.8-2.4-3.5-3.9-5-.1-.1.1-.2.1-.1a48.1 48.1 0 0 1 4.2 4.8l1.7 2.7c.5.9 1 1.8 1.2 2.8.1.1.1.1.2.1 3.1 2.5 6 5.3 8.6 8.4 0-.2-.1-.5-.2-.7-.3-1.2-.7-2.3-1.1-3.5-.8-2.4-1.8-4.9-3.2-7-.1-.1.1-.2.2-.1 1.4 2.2 2.7 4.4 3.7 6.9.5 1.2.9 2.3 1.2 3.6.2.7.5 1.6.6 2.4.8 1 1.5 2 2.3 3 7.7 10.9 11.5 24.2 12.5 37.4.3 4 .3 7.9.2 11.9s-.3 8-1 11.9c0 .2-.4.2-.4-.1.1-3.5.4-6.9.5-10.4s-.1-7-.3-10.5c-.6-6.9-1.9-13.9-3.9-20.5-2.1-6.8-5.1-13.3-9.1-19.3-.8-.1-1.5-.4-2.2-.5-.9-.2-1.8-.5-2.7-.7-1.7-.5-3.4-1-5-1.8-.1-.1 0-.2.1-.2 1.6.9 3.3 1.4 5.1 1.7 1.4.3 2.9.5 4.3.8-1.3-1.9-2.7-3.7-4.2-5.5-3.4.3-6.9 0-10.2-.8-1.8-.4-3.5-1-5.2-1.6-1.8-.7-3.5-1.6-5.3-2.3-.1-.1 0-.3.1-.2 3 1.8 6.9 2.8 10.3 3.4 3.2.5 6.4.7 9.7.8-1.3-1.5-2.6-2.9-4-4.2-4.7-4.5-10.3-8.6-16.5-10.7-.4-.2-.3-.4-.2-.3zm14.5.1c.8 1 1.5 2.1 2.2 3.2.7 1.2 1.2 2.4 1.6 3.7 0 0-.1.1-.1 0l-1.7-3.6c-.6-1.2-1.3-2.2-2.1-3.3-.1 0 .1-.1.1 0zm-16.6 8c1.2.7 2.4 1.1 3.7 1.5 1.2.4 2.5.8 3.7 1 .1 0 0 .1 0 .1l-3.9-.8c-1.2-.4-2.4-1-3.6-1.6-.1-.1 0-.3.1-.2z" class="B"/><path d="M649 279.1c.1 1 2.7-8.7 17.9-17.4 13.8-7.9 30.2-28.4 16.7-41.4-10.9-10.5-39.6 12.3-34.6 58.8z" class="E"/><path d="M638.6 335.2c.2-10.2 1-20.4 2.4-30.4 1.3-9.3 3.3-18.4 6.4-27.3 1.1-3.2 2.4-6.3 3.8-9.4-.1-1.2 0-2.5.1-3.6.1-1.5.2-3.1.4-4.6.1-1.5.3-3.1.5-4.6s.5-3.1.6-4.6c0-.1.2-.1.2 0-.4 1.6-.4 3.3-.5 4.9-.1 1.5-.2 3-.2 4.5v4.5 1.7c1.4-3 3-6 4.6-8.9-1-6.3.3-12.8 1.6-19 0-.1.2-.1.2.1-.7 3.2-.9 6.5-1 9.7-.1 2.6.1 5.2.1 7.7.4-.6.7-1.2 1.1-1.8 2-3.2 4.1-6.3 6.3-9.4-.2-1.5-.1-3 .1-4.5.2-1.6.6-3.3 1.1-4.9s1-3.2 1.7-4.7c.7-1.6 1.5-3.1 2.2-4.7.1-.1.3 0 .2.1-.9 1.4-1.4 3.2-1.9 4.8-.5 1.5-.9 3.1-1.2 4.7s-.6 3.2-.8 4.8c-.1 1.1-.2 2.2-.4 3.2 3.3-4.3 6.8-8.5 10.6-12.3.1-.1.2 0 .1.1-5.7 6.5-10.9 13.5-15.4 20.9-.2.3-.3.6-.5.8.8-.5 1.8-.9 2.6-1.4l4.4-2.4c1.4-.8 2.9-1.6 4.3-2.3.7-.4 1.5-.8 2.2-1.2.8-.4 1.8-.8 2.6-1.4.1-.1.2.1.1.2-1.5.8-2.7 2-4.2 2.9-1.4.9-2.9 1.8-4.3 2.6-2.7 1.5-5.6 2.6-8.3 4.1-1.8 3.2-3.5 6.5-5.1 9.9 1.6-1 3.3-2 4.9-2.9l3.2-1.8c1.1-.6 2.1-1.1 3-1.8.1-.1.2.1.1.1-1.7 1.7-3.8 2.8-5.8 4-1.9 1.1-3.9 2.2-5.9 3.2a143.72 143.72 0 0 0-4.4 10.8c-6.4 18-8.7 37.2-9.8 56.2-.3 5.7-.5 11.3-.6 17s.2 11.3.2 17c0 .2-.3.2-.3 0-.7-5-.8-10.1-1-15.2-.4-5.1-.4-10.3-.3-15.4zm27.5-81.7c2.8-1.1 5.4-2.7 8-4.2l7.6-4.9s.1 0 .1.1c-2.3 1.9-4.8 3.6-7.3 5.1-2.7 1.6-5.5 2.7-8.3 4-.1.1-.2-.1-.1-.1zm-4.4-20.4c.2-.9.5-1.7.8-2.6 0 0-.1-.1 0-.1l.6-1.5c0-.1 0-.1.1-.2 0-.1.1-.2.1-.3h0c-.1.2-.1.3-.1.5 0 .1 0 .2-.1.3-1 3.4-1.7 6.8-2.2 10.3 0 .1-.2.1-.2 0 .1-2.1.5-4.3 1-6.4z" class="B"/><path d="M622.6 338.8l1.1 12.8 3.3 39.1h35.4l3.3-39.1 1.1-12.8z" class="K"/><path d="M622.6 338.8l1.1 12.8h42l1.1-12.8z" class="B"/><path d="M619.1 333.7h51.2V346h-51.2z" class="K"/><g class="E"><path d="M465.8 300.3h16.1v62.9h-16.1zm0 66h16.1v10.4h-16.1zm0 13.5h16.1v6.4h-16.1zm0 9.5h16.1v3.2h-16.1z"/><path d="M487.3 300.3h-26.9l13.5-18.6zm10.6-20H514v82.9h-16.1zm0 86H514v10.4h-16.1zm0 13.5H514v6.4h-16.1zm0 9.5H514v3.2h-16.1z"/><path d="M519.4 280.3h-26.9l13.5-18.6zm10.6-20h16.1v102.9H530zm0 106h16.1v10.4H530zm0 13.5h16.1v6.4H530zm0 9.5h16.1v3.2H530z"/><path d="M551.5 260.3h-26.9l13.5-18.6zm10.6-20h16.1v122.9h-16.1zm0 126h16.1v10.4h-16.1zm0 13.5h16.1v6.4h-16.1zm0 9.5h16.1v3.2h-16.1z"/><path d="M583.6 240.3h-26.9l13.5-18.6z"/></g><g fill="#ffc727"><circle cx="301.8" cy="350.1" r="7.1" class="I"/><circle cx="314" cy="336.6" r="3.5" class="I"/><circle cx="465.8" cy="346.7" r="3.5" class="I"/><circle cx="535" cy="378.2" r="3.5" class="I"/><path d="M533.2 388.3c0 2.3-1.8 4.1-4.1 4.1H272c-2.3 0-4.1-1.8-4.1-4.1s1.8-4.1 4.1-4.1c.3 0 .7 0 1 .1 0-4.5 3.6-8.1 8.1-8.1 2.3 0 4.3.9 5.8 2.4h.1c0-.5-.1-1-.1-1.5 0-8.5 6.9-15.3 15.3-15.3 2.4 0 4.7.6 6.8 1.6.3-5.8 5.1-10.3 10.9-10.3 4.7 0 8.6 2.9 10.2 7 2.7-4.3 7.5-7.2 13-7.2 1 0 2 .1 2.9.3-.2-1.2-.3-2.4-.3-3.6 0-11.5 9.3-20.8 20.8-20.8 5.2 0 9.9 1.9 13.6 5a4.21 4.21 0 0 1 3.7-2.2c.6 0 1.1.1 1.6.3l3.9-103.1h22.6l3.9 103.1c.5-.2 1-.3 1.6-.3a4.21 4.21 0 0 1 3.7 2.2c3.6-3.1 8.4-5 13.6-5 11.5 0 20.8 9.3 20.8 20.8 0 1.2-.1 2.4-.3 3.6.9-.2 1.9-.3 2.9-.3 5.5 0 10.3 2.9 13 7.2 1.6-4.1 5.6-7 10.2-7 5.8 0 10.6 4.6 10.9 10.3 2-1 4.3-1.6 6.8-1.6 8.5 0 15.3 6.9 15.3 15.3 0 .5 0 1-.1 1.5h.1c1.5-1.5 3.5-2.4 5.8-2.4 4.5 0 8.1 3.6 8.1 8.1.3-.1.6-.1 1-.1 2.1 0 4 1.9 4 4.1z" class="I"/></g><path d="M468 354.4l-5.3 1-1.2 5.6-1.2-5.6-5.4-1 5.4-1.3 1.2-5.3 1.2 5.3zm-52-45.2l-5.3 1-1.2 5.7-1.2-5.7-5.4-1 5.4-1.3 1.2-5.3 1.2 5.3zm-77.7 55.9l-2.9.6-.7 3.1-.7-3.1-3-.6 3-.7.7-3 .7 3zm160.8 9.4l-3 .6-.7 3.1-.6-3.1-3-.6 3-.7.6-3 .7 3zm-201.9 11.1l-3 .5-.6 3.2-.7-3.2-3-.5 3-.8.7-2.9.6 2.9zm130-2.6l-3 .5-.7 3.2-.6-3.2-3-.5 2.9-.8.7-2.9.7 2.9zm-21.9-82.3l-3 .5-.6 3.2-.7-3.2-3-.5 3-.8.7-2.9.6 2.9zm100.9 80.7c-1.1 0-1.1 1.7 0 1.7s1.1-1.7 0-1.7zm-112.5-91.7c-1.1 0-1.1 1.7 0 1.7 1.2.1 1.2-1.7 0-1.7zm-73.8 95.9c-1.1 0-1.1 1.7 0 1.7s1.1-1.7 0-1.7zm54.8-11.9c-1.1 0-1.1 1.7 0 1.7 1.2 0 1.2-1.7 0-1.7zm109.8-7.9c-.8 0-.8 1.2 0 1.2s.8-1.2 0-1.2zm-75.7-9.2c-.8 0-.8 1.2 0 1.2.7 0 .8-1.2 0-1.2zm-55.5-12c-.8 0-.8 1.2 0 1.2s.8-1.2 0-1.2zm94.9 2.5c-2.1 0-2.1 3.3 0 3.3s2.1-3.3 0-3.3zm-87-8.1c-2.1 0-2.1 3.3 0 3.3s2.1-3.3 0-3.3z" fill="#fcfcfc"/><path d="M362 147.3c-.8 0-31 13.9-32.8 48.3-1.6 31.6 20.2 61.5 23 59.6 3.4-2.4-2.4-22.1 4.3-44.6 2.4-8 12.8-15.1 12.8-15.1l-7.3-48.2z" class="J"/><path opacity=".1" d="M369.3 195.5s-4.5 3.1-8.3 7.4L342.7 162c8.8-10.2 18.8-14.7 19.3-14.7l7.3 48.2z"/><path d="M438.9 147.4c.8 0 31 14 32.7 48.3 1.6 31.6-20.3 61.5-23.1 59.5-3.4-2.4 2.4-22.1-4.2-44.6-2.4-8-12.8-15.1-12.8-15.1l7.4-48.1z" class="J"/><path opacity=".1" d="M458.3 162.3L440 203.2c-3.8-4.5-8.4-7.6-8.4-7.6l7.3-48.2c.4 0 10.5 4.5 19.4 14.9z"/><path d="M423.3 226.3h-45.6s-21.5-38.4-18.9-84.2c1.3-22.8 7.3-45.9 14.4-64.9 9.9-26.3 22.1-44.9 27.4-44.9s17.5 18.7 27.4 45c7.1 19 13.1 42.1 14.3 64.9 2.5 45.7-19 84.1-19 84.1z" class="D"/><circle cx="401.6" cy="136.2" r="26.3" class="H"/><circle cx="400.6" cy="133.5" r="26.3" class="J"/><circle cx="400.6" cy="133.5" r="18.2" class="C"/><path d="M418.9 133.5c0 2.3-.4 4.6-1.2 6.6l-10.4 10.4c-2 .8-4.3 1.2-6.6 1.2-1.7 0-3.3-.2-4.9-.7l22.4-22.4c.4 1.6.7 3.3.7 4.9zm-15.6-18l-20.7 20.7-.2-2.7c0-10.1 8.2-18.2 18.2-18.2.9 0 1.8.1 2.7.2zm13.3 9.2l-24.8 24.8c-.5-.3-.9-.5-1.4-.9l25.3-25.3.9 1.4z" class="D"/><path d="M428 77.3h-54.8c9.9-26.3 22.1-44.9 27.4-44.9 5.4-.1 17.5 18.6 27.4 44.9z" class="J"/><g class="C"><circle cx="381.1" cy="71.6" r="1.5"/><circle cx="390.9" cy="71.6" r="1.5"/><circle cx="400.6" cy="71.6" r="1.5"/><circle cx="410.4" cy="71.6" r="1.5"/><circle cx="420.1" cy="71.6" r="1.5"/></g><g class="H"><circle cx="381.1" cy="219.3" r="1.5"/><circle cx="390.8" cy="219.3" r="1.5"/><circle cx="400.6" cy="219.3" r="1.5"/><circle cx="410.3" cy="219.3" r="1.5"/><circle cx="420" cy="219.3" r="1.5"/></g><path d="M419.1 240H382l-1.7-13.7h40.5z" class="J"/><path opacity=".1" d="M420.8 226.3l-.8 6.7-39.1-1.5-.6-5.2z"/><path d="M223.9 443.7c-2.1.7-63.5.9-65.8-.5-.9-.6-1.4-9.5-1.8-20.3-.1-2.3-.1-4.7-.2-7.2l-5-32.7 41-.3 3.9 32.7-.2 7.2s23.5 10.4 25.9 12.3c2.5 1.9 4.4 8.1 2.2 8.8z" class="F"/><path d="M223.9 443.7c-2.1.7-63.5.9-65.8-.5-1.1-.7-1.7-13.7-2-27.5l39.9-.3-.2 7.2s23.5 10.4 25.9 12.3c2.5 1.9 4.4 8.1 2.2 8.8z" class="C"/><path d="M223.9 443.7c-2.1.7-63.5.9-65.8-.5-.9-.6-1.4-9.5-1.8-20.3l39.6-.3s23.5 10.4 25.9 12.3 4.3 8.1 2.1 8.8z" class="E"/><path d="M223.1 441.2c-10.3-.2-51.8-.1-62 .4-.1 0-.1.1 0 .1 10.2.4 51.7 0 62-.3.2 0 .2-.2 0-.2zm-23.3-17.6c-4.1 0-8.9 1.4-11.4 4.8-.1.1.1.3.2.2 3.7-1.9 7.2-3.4 11.3-4.5.3-.1.2-.5-.1-.5zm3.2 1.2c-4.1 0-8.9 1.4-11.4 4.8-.1.1.1.3.2.2 3.7-1.9 7.2-3.4 11.3-4.5.3 0 .2-.5-.1-.5zm3.2 1.3c-4.1 0-8.9 1.4-11.4 4.8-.1.1.1.3.2.2 3.7-1.9 7.2-3.4 11.3-4.5.3-.1.2-.5-.1-.5z" class="B"/><path fill="#37474f" d="M86.3 238.5s53.8 81 55.1 86.7c2 8.7 12.4 96.4 12.4 96.4l44.9-.9s-10.2-77.5-18.2-102.6c-5.8-18.1-47.9-78-47.9-78l-46.3-1.6z"/><path d="M197.4 413.1c-7.1-.1-32.3-.3-41.8.5-.1 0-.1.1 0 .1 3.3.5 34.7-.3 41.8-.5.1.1.1-.1 0-.1z" class="B"/><path d="M128.4 457.4c-2.3.1-63.1-15.9-65-17.9-.1-.1-.1-.2-.1-.4-.2-2 2.9-9.5 5.1-19 .1-.6 1.3-3.5 2.9-7.4l12.3-29.3 39.8 10.2-14.6 29.4-2 6.9s20.1 16.1 21.9 18.5c1.6 2.4 1.9 8.8-.3 9z" class="F"/><path d="M128.4 457.4c-2.3.1-63.1-15.9-65-17.9-.1-.1-.1-.2-.1-.4-.2-2 2.9-9.5 5.1-19 .1-.6 1.3-3.5 2.9-7.4l37.4 10.3-2 6.9s20.1 16.1 21.9 18.5c1.7 2.4 2 8.8-.2 9z" class="C"/><path d="M128.4 457.4c-2.3.2-63.1-15.9-65-17.9-.7-.8.9-9 4.9-19.5l38.3 9.8s20.1 16.1 21.9 18.5c1.8 2.5 2.1 8.9-.1 9.1z" class="E"/><path d="M128.1 454.8C118.2 452 78 441.5 68 439.5c-.1 0-.1 0 0 .1 9.7 3 50 13.2 60 15.4.3 0 .3-.2.1-.2zm-17.9-23c-4-1.1-9-.9-12.3 1.7-.1.1 0 .3.2.3 4.1-.9 7.9-1.4 12.1-1.5.2 0 .3-.4 0-.5zm2.7 2c-4-1.1-9-.9-12.3 1.7-.1.1 0 .3.2.3 4.1-.9 7.9-1.4 12.1-1.5.3 0 .3-.4 0-.5zm2.8 2c-4-1.1-9-.9-12.3 1.7-.1.1 0 .3.2.3 4.1-.9 7.9-1.4 12.1-1.5.2 0 .3-.4 0-.5z" class="B"/><path fill="#37474f" d="M109.3 429.9l-44.5-11.7s44.6-92.8 44.3-98.6c-.3-5.1-31.2-50.2-32.9-58.6-2.8-13.8 3.9-26.1 10.4-33.8l46.1 13s-3.7 8-10.4 13c0 0 28.9 48.3 29.7 64.2.6 16.1-42.7 112.5-42.7 112.5z"/><g class="B"><path d="M110 421.9c-6.5-1.9-4.6-1.4-11.1-3.2-3.2-.9-24-6.6-27.1-6.9-.1 0-.1.1 0 .1 2.8 1.3 23.8 6.6 27 7.4 6.5 1.7 4.7 1.1 11.2 2.7.1.1.1-.1 0-.1zm19.2-170.5c-4.4 1.6-8.7 3.7-12.8 6-.2.1 0 .3.1.3 4.3-1.9 8.7-3.7 12.9-5.8.4-.2.2-.6-.2-.5z"/><path d="M123.8 250.2c-.3.8-.6 1.6-.8 2.5-.2.7-.4 1.4-.3 2 0 .1.2.1.3.1.4-.6.6-1.3.9-2l.8-2.3c.1-.5-.7-.8-.9-.3z"/><path d="M123.8 246.1l.6-2.1c.2-.7.5-1.5.6-2.2 0-.1.2-.1.2.1-.2.7-.3 1.4-.4 2.2l-.4 2.2-1 4c.7-.1 1.4-.2 2.1-.6s1-1.2 1.3-2l.8-2.4.9-2.7c0-.1.2-.1.2.1-.4 1.9-.8 3.9-1.6 5.7-.3.7-.6 1.5-1.3 1.8-.8.4-1.6.4-2.5.5-.1 0-.2 0-.2-.1.1-1.7.4-3.1.7-4.5zm-.7 8.7c1.8 3.2 3.8 6.2 5.6 9.3 1.8 3 3.6 6.1 5.3 9.2 3.4 6.3 6.6 12.7 9.6 19.2 1.4 3.2 2.8 6.5 4.1 9.8s2.5 6.6 3.3 10.1 1 7 .4 10.5c-.6 3.6-1.6 7-2.7 10.5-2.5 7.9-5.2 15.6-8.7 23.1-.1.2-.5.1-.4-.2 2.4-6.9 5-13.7 7.1-20.7 2.1-6.7 4.6-13.7 3.5-20.9-.6-3.5-1.7-6.8-2.9-10-1.2-3.3-2.6-6.6-4-9.9-2.8-6.4-5.9-12.7-9.1-18.9l-5.5-10.4c-1.8-3.5-3.6-7.1-5.7-10.5-.1-.2 0-.3.1-.2zm-33.6-6.7c.8-.1 2.1.2 5.7-.1 1-.1 2-.3 3-.5s2-.5 2.8-1.1c1.3-1.1 2.3-2.8 3.1-4.3.9-1.6 1.8-3.5 2.2-5.3 0-.1.2-.1.2.1l-.6 3.2c-.3 1-.6 1.9-1.1 2.9-.8 1.7-1.7 3.6-3.2 4.8-1.6 1.2-3.9 1.5-5.9 1.6-1.1.1-5.6 0-6.2-.7-.1-.4-.1-.6 0-.6zM73.8 410.6c4.8-12.6 31-68.6 36.1-80.3 1.2-2.8 2.7-5.6 3.3-8.6.7-3.3-.3-6.2-1.7-9.1-2.5-5.4-5.5-10.6-8.6-15.6-3.1-5.1-6.4-10-9.7-15-3.2-4.9-6.6-9.9-9.3-15.2-2.5-5.1-3.9-10.4-3.2-16.1.7-5.6 3.2-10.9 5.8-15.9l2.1-3.9c.1-.1.2 0 .2.1-2.9 5.2-5.7 10.7-7.1 16.5-.7 2.9-1 5.9-.6 8.8.3 3 1.3 5.9 2.5 8.6 2.4 5.3 5.8 10.2 9 15.1l9.7 15c3.2 5.1 6.2 10.3 8.9 15.6 1.2 2.4 2.5 4.9 2.8 7.6.3 3-.8 5.8-1.9 8.4-5 11.6-37.2 82.7-37.9 84.1-.2.2-.5.1-.4-.1z"/></g><g class="F"><path d="M135.5 188.2c7.1 4 33.1 18.4 42.8 17.1 15.4-2.1 38.1-25 43.7-30.8 2.4-2.5-17-23.7-19.8-21.2-1.9 1.7-23.7 26-26.3 27s-24.6-1.9-37.8-4.5c-12.5-2.5-17.6 4-2.6 12.4z"/><path d="M229.3 165.7c-2.7 5.3-12.6 13.9-15.8 15.1s-18.4-15.1-17.9-18.5c.6-3.4 11.2-20.6 16.8-23 5.6-2.5 19.8 20.9 16.9 26.4z"/><path d="M204.6 144.8c.2 3.2 3.8 1.1 3.8 1.1s-4.5 4.2-3 7.4c1.4 3.1 5.7.4 6 .2-.2.2-4.2 4.2-2.4 7.2 1.9 3.2 5.7-.2 6-.4-.2.3-2.1 4-.2 6 3.3 3.4 8.6-6 12.3-6.9l2.3 6.3s5.3-8.9 3.8-13.9c-.8-2.6-3.4-2.4-3.4-2.4s2-2.7.7-5.1c-.7-1.2-3.3-1.2-3.3-1.2s1.5-2.2.2-4.3c-1.1-1.7-3.5-1.4-3.5-1.4s.5-2.8-1.2-4.2c-3.3-2.7-18.5 4.8-18.1 11.6z"/></g><g class="B"><path d="M223.4 137.4c.1-.1.1-.1 0 0-5.6 1.2-11.4 4.3-15.2 8.6-.1.1.1.4.2.3 4.8-3.8 9.4-6.7 15-8.9zm3.8 5.6c.1 0 0-.1 0-.1-5.8 1.3-12.2 5-16 10.5-.1.2-.1.5.1.3 2.8-3.5 10.8-8.7 15.9-10.7zm-12.4 17.8c3.9-5.2 9-8.5 14.7-11.3.1 0 0-.1-.1-.1-3.2.6-6.7 2.7-9.3 4.6-2.5 1.8-4.3 3.9-5.6 6.7.1 0 .2.2.3.1z"/><path d="M208.4 145.9c-.8.9-1.5 1.8-2.1 2.9-.6 1-1.1 2.1-1.1 3.2 0 .5.2 1 .5 1.4.4.4.8.7 1.3.8 1 .3 2.2 0 3-.6l2.2-1.4-1.6 2.1c-.7.9-1.3 2-1.6 3-.4 1.1-.4 2.2.1 3.1s1.5 1.4 2.5 1.1c1-.2 2-.9 2.8-1.7l2.3-2.1-1.4 2.7c-.4.7-.7 1.6-.9 2.4s-.2 1.7 0 2.4c.3.7.9 1.2 1.6 1.3.7 0 1.6-.3 2.3-.8 1.5-.9 2.8-2.1 4.2-3.3l2.1-1.7c.7-.5 1.5-1.1 2.4-1.3-.9.3-1.5.9-2.2 1.5s-1.3 1.2-1.9 1.9c-1.3 1.3-2.6 2.5-4.1 3.6-.8.5-1.6 1-2.7 1s-2.1-.8-2.5-1.8-.3-2-.1-2.9.5-1.8 1-2.7l.8.6c-.9.9-2 1.6-3.3 2a3.02 3.02 0 0 1-2.1-.2c-.7-.3-1.2-.9-1.5-1.5-.7-1.3-.5-2.7-.1-3.9s1.1-2.3 1.9-3.3l.6.7c-1.1.7-2.5 1-3.8.5-.6-.2-1.2-.6-1.6-1.1s-.6-1.2-.6-1.8c.1-1.3.7-2.4 1.4-3.4.6-1 1.4-1.9 2.2-2.7z"/></g><path d="M197 159.1s1.9-25.3 11.4-19.7c2.8 1.7 12.5 11.8 10.5 13.8-2.6 2.5-7.4-.9-10.1-3.6 0 0 .6 8.7-5.4 10.9-3.7 1.3-6.4-1.4-6.4-1.4z" class="F"/><path d="M207.5 139c1.2.5 2.3 1.3 3.3 2 1 .8 2 1.7 2.9 2.6 1.8 1.9 3.5 3.8 4.9 6 .4.6.7 1.1.9 1.8.1.4.2.8.1 1.2 0 .2-.1.4-.2.6s-.2.4-.4.5c-.6.6-1.3.8-2.1.9-.7 0-1.4-.1-2.1-.3-1.3-.4-2.5-1.1-3.5-1.9-1.1-.8-2-1.7-2.9-2.6l.8-.4c0 1 0 2-.2 3l-.7 2.9c-.4.9-.8 1.8-1.4 2.6s-1.3 1.4-2.2 1.9c.8-.6 1.4-1.3 1.9-2.1s.9-1.7 1.2-2.6a12.66 12.66 0 0 0 .6-2.8c.1-.9.1-1.9 0-2.8l-.1-1.1.9.8c.9.9 1.9 1.7 2.9 2.4s2.1 1.4 3.2 1.7 2.4.4 3.1-.3c.7-.6.1-1.8-.5-2.9s-1.4-2.1-2.2-3.1l-2.4-3c-1.8-1.8-3.5-3.7-5.8-5z" class="B"/><path d="M195.5 159.8l18.6 26.9s-19.9 16.1-35.9 20c-6.6 1.6-31.9-10.3-43-17.2s-14.8-16.6 4.8-14.2c19.6 2.5 34 5.1 35.3 4.7 1.2-.4 20.2-20.2 20.2-20.2z" class="L"/><path d="M128.3 177.5c-.2.1-.4.1-.6.1s-.5 0-.7-.1-.3-.2-.4-.3c.1-.1.2-.2.3-.4l.3.3c.2.1.3.2.5.2.2.1.4.1.6.2zm26.3 16.1c.2 0 .4.1.5.2.3.2.5.5.5.8 0 .5.3 1 .8 1.1.2.1.5.1.7.1s.4-.1.6-.1c-.2-.1-.4-.1-.6-.1s-.4-.1-.5-.2c-.3-.2-.4-.5-.4-.8 0-.5-.3-1-.8-1.1-.2-.1-.5-.1-.7 0-.2 0-.4.1-.6.1h.5zm22 0c.2 0 .4.1.5.2.3.2.5.5.5.8 0 .5.3 1 .8 1.1.2.1.5.1.7.1s.4-.1.6-.1c-.2-.1-.4-.1-.6-.1s-.4-.1-.5-.2c-.3-.2-.4-.5-.4-.8 0-.5-.3-1-.8-1.1-.2-.1-.5-.1-.7 0-.2 0-.4.1-.6.1h.5zm-34.1-16.9c.2 0 .4.1.5.2.3.2.5.5.5.8 0 .5.3 1 .8 1.1.2.1.5.1.7.1s.4-.1.6-.1c-.2-.1-.4-.1-.6-.1s-.4-.1-.5-.2c-.3-.2-.4-.5-.4-.8 0-.5-.3-1-.8-1.1-.2-.1-.5-.1-.7 0-.2 0-.4.1-.6.1.1-.1.3-.1.5 0zm6.4 10.4c-.2.1-.3.2-.5.2a.96.96 0 0 1-.9-.2c-.3-.3-.9-.5-1.3-.3-.2.1-.4.3-.5.4-.1.2-.2.3-.3.5.2-.1.3-.2.5-.3s.3-.2.5-.2c.3-.1.6 0 .9.3.4.3.9.4 1.4.2.2-.1.4-.3.5-.4.1-.2.2-.3.3-.5-.3.1-.4.2-.6.3zm60.8.5c-.2.1-.3.2-.5.2a.96.96 0 0 1-.9-.2c-.3-.3-.9-.5-1.3-.3-.2.1-.4.3-.5.4-.1.2-.2.3-.3.5.2-.1.3-.2.5-.3s.3-.2.5-.2c.3-.1.6 0 .9.3.4.3.9.4 1.4.2.2-.1.4-.3.5-.4.1-.2.2-.3.3-.5-.3.1-.4.2-.6.3zm-73.5-2.6c0 .2-.1.4-.2.5-.2.3-.5.5-.8.5-.5 0-1 .3-1.1.8-.1.2-.1.5-.1.7s.1.4.1.6c.1-.2.1-.4.1-.6s.1-.4.2-.5c.2-.3.5-.4.8-.4.5 0 1-.3 1.1-.8.1-.2.1-.5 0-.7 0-.2-.1-.4-.1-.6.1.1.1.3 0 .5zm22.7-5.3c0 .2-.1.4-.2.5-.2.3-.5.5-.8.5-.5 0-1 .3-1.1.8-.1.2-.1.5-.1.7s.1.4.1.6c.1-.2.1-.4.1-.6s.1-.4.2-.5c.2-.3.5-.4.8-.4.5 0 1-.3 1.1-.8.1-.2.1-.5 0-.7 0-.2-.1-.4-.1-.6.1.1 0 .3 0 .5zm8.7 20.8c0 .2-.1.4-.2.5-.2.3-.5.5-.8.5-.5 0-1 .3-1.1.8-.1.2-.1.5-.1.7s.1.4.1.6c.1-.2.1-.4.1-.6s.1-.4.2-.5c.2-.3.5-.4.8-.4.5 0 1-.3 1.1-.8.1-.2.1-.5 0-.7 0-.2-.1-.4-.1-.6v.5zm10.4 4.2c.2-.1.3-.2.5-.2a.96.96 0 0 1 .9.2c.3.3.9.5 1.3.3.2-.1.4-.3.5-.4.1-.2.2-.3.3-.5-.2.1-.3.2-.5.3s-.3.2-.5.2c-.3.1-.6 0-.9-.3-.4-.3-.9-.4-1.4-.2-.2.1-.4.3-.5.4-.1.2-.2.3-.3.5.3-.1.5-.2.6-.3zM164.3 190c.2-.1.3-.2.5-.2a.96.96 0 0 1 .9.2c.3.3.9.5 1.3.3.2-.1.4-.3.5-.4.1-.2.2-.3.3-.5-.2.1-.3.2-.5.3s-.3.2-.5.2c-.3.1-.6 0-.9-.3-.4-.3-.9-.4-1.4-.2-.2.1-.4.3-.5.4-.1.2-.2.3-.3.5.3 0 .4-.2.6-.3zm19.3-17.1c.2 0 .4.1.5.2.3.2.5.5.5.8 0 .5.3 1 .8 1.1.2.1.5.1.7.1s.4-.1.6-.1c-.2-.1-.4-.1-.6-.1s-.4-.1-.5-.2c-.3-.2-.4-.5-.4-.8 0-.5-.3-1-.8-1.1-.2-.1-.5-.1-.7 0-.2 0-.4.1-.6.1.1-.1.3-.1.5 0zm12.1 16.8c.2 0 .4.1.5.2.3.2.5.5.5.8 0 .5.3 1 .8 1.1.2.1.5.1.7.1s.4-.1.6-.1c-.2-.1-.4-.1-.6-.1s-.4-.1-.5-.2c-.3-.2-.4-.5-.4-.8 0-.5-.3-1-.8-1.1-.2-.1-.5-.1-.7 0-.2 0-.4.1-.6.1.1-.1.3-.1.5 0zm9.5-11.9c.2 0 .4.1.5.2.3.2.5.5.5.8 0 .5.3 1 .8 1.1.2.1.5.1.7.1s.4-.1.6-.1c-.2-.1-.4-.1-.6-.1s-.4-.1-.5-.2c-.3-.2-.4-.5-.4-.8 0-.5-.3-1-.8-1.1-.2-.1-.5-.1-.7 0-.2 0-.4.1-.6.1h.5zm-8.5-.1c0 .2-.1.4-.2.5-.2.3-.5.5-.8.5-.5 0-1 .3-1.1.8-.1.2-.1.5-.1.7s.1.4.1.6c.1-.2.1-.4.1-.6s.1-.4.2-.5c.2-.3.5-.4.8-.4.5 0 1-.3 1.1-.8.1-.2.1-.5 0-.7 0-.2-.1-.4-.1-.6.1.1.1.3 0 .5zm-21.5 3.5c0 .2-.1.4-.2.5-.2.3-.5.5-.8.5-.5 0-1 .3-1.1.8-.1.2-.1.5-.1.7s.1.4.1.6c.1-.2.1-.4.1-.6s.1-.4.2-.5c.2-.3.5-.4.8-.4.5 0 1-.3 1.1-.8.1-.2.1-.5 0-.7 0-.2-.1-.4-.1-.6v.5zm15 16.4c0 .2-.1.4-.2.5-.2.3-.5.5-.8.5-.5 0-1 .3-1.1.8-.1.2-.1.5-.1.7s.1.4.1.6c.1-.2.1-.4.1-.6s.1-.4.2-.5c.2-.3.5-.4.8-.4.5 0 1-.3 1.1-.8.1-.2.1-.5 0-.7 0-.2-.1-.4-.1-.6v.5zm4.1-31.1c.2-.1.3-.2.5-.2a.96.96 0 0 1 .9.2c.3.3.9.5 1.3.3.2-.1.4-.3.5-.4.1-.2.2-.3.3-.5-.2.1-.3.2-.5.3s-.3.2-.5.2c-.3.1-.6 0-.9-.3-.4-.3-.9-.4-1.4-.2-.2.1-.4.3-.5.4-.1.2-.2.3-.3.5.2 0 .4-.2.6-.3zm-11 21.7c.2-.1.3-.2.5-.2a.96.96 0 0 1 .9.2c.3.3.9.5 1.3.3.2-.1.4-.3.5-.4.1-.2.2-.3.3-.5-.2.1-.3.2-.5.3s-.3.2-.5.2c-.3.1-.6 0-.9-.3-.4-.3-.9-.4-1.4-.2-.2.1-.4.3-.5.4-.1.2-.2.3-.3.5l.6-.3z" class="C"/><path d="M192.3 166.6c.9 1.9 2.1 3.8 3.3 5.6l3.6 5.7c1.2 1.9 6.3 9.3 7.6 11.1.1.1.2 0 .1-.1-1.2-1.9-5.7-9.6-6.9-11.4l-3.6-5.5c-1.4-1.8-2.6-3.8-4.1-5.4 0-.1-.1-.1 0 0zm-25.5 37.9c-10.3-3.5-24.2-10.4-31.6-15.1-7.1-4.4-11.1-10-8.1-12.8.2-.1.3-.2.3-.2l39.4 28.1z" class="B"/><path d="M137.9 249.7c-1.2.8-57.4-13.8-57.6-14.3-.6-1.2 29.8-57.1 46.3-64.5 3.5-1.6 12.1 2.3 13.8 4.9 1.1 1.6 2 10.7 2.5 18.1.9 14.8-4 55.1-5 55.8z" class="L"/><path d="M113.4 193.8c.2-.1.4-.1.6-.1h.7c.5.2.8.6.8 1.1 0 .3.2.6.4.8.1.1.3.1.5.2.2 0 .4.1.6.1-.2.1-.4.1-.6.1s-.5 0-.7-.1c-.4-.2-.8-.7-.8-1.1 0-.3-.2-.6-.5-.8-.1-.1-.3-.1-.5-.2-.1.1-.3.1-.5 0zm11.7 39.8c.2 0 .4.1.5.2.3.2.5.5.5.8 0 .5.3 1 .8 1.1.2.1.5.1.7.1s.4-.1.6-.1c-.2-.1-.4-.1-.6-.1s-.4-.1-.5-.2c-.3-.2-.4-.5-.4-.8 0-.5-.3-1-.8-1.1-.2-.1-.5-.1-.7 0-.2 0-.4.1-.6.1.1-.1.3-.1.5 0zm13.8-37.5c.2 0 .4.1.5.2.3.2.5.5.5.8 0 .5.3 1 .8 1.1.2.1.5.1.7.1s.4-.1.6-.1c-.2-.1-.4-.1-.6-.1s-.4-.1-.5-.2c-.3-.2-.4-.5-.4-.8 0-.5-.3-1-.8-1.1-.2-.1-.5-.1-.7 0-.2 0-.4.1-.6.1.1-.1.3-.1.5 0zm-13.5-20.7c.2 0 .4.1.5.2.3.2.5.5.5.8 0 .5.3 1 .8 1.1.2.1.5.1.7.1s.4-.1.6-.1c-.2-.1-.4-.1-.6-.1s-.4-.1-.5-.2c-.3-.2-.4-.5-.4-.8 0-.5-.3-1-.8-1.1-.2-.1-.5-.1-.7 0-.2 0-.4.1-.6.1h.5zm-27.1 35.1c.2 0 .4.1.5.2.3.2.5.5.5.8 0 .5.3 1 .8 1.1.2.1.5.1.7.1s.4-.1.6-.1c-.2-.1-.4-.1-.6-.1s-.4-.1-.5-.2c-.3-.2-.4-.5-.4-.8 0-.5-.3-1-.8-1.1-.2-.1-.5-.1-.7 0-.2 0-.4.1-.6.1.1-.1.3 0 .5 0zm12 16.8c.2 0 .4.1.5.2.3.2.5.5.5.8 0 .5.3 1 .8 1.1.2.1.5.1.7.1s.4-.1.6-.1c-.2-.1-.4-.1-.6-.1s-.4-.1-.5-.2c-.3-.2-.4-.5-.4-.8 0-.5-.3-1-.8-1.1-.2-.1-.5-.1-.7 0-.2 0-.4.1-.6.1.1-.1.3 0 .5 0zm-21.5 3.6c.2 0 .4.1.5.2.3.2.5.5.5.8 0 .5.3 1 .8 1.1.2.1.5.1.7.1s.4-.1.6-.1c-.2-.1-.4-.1-.6-.1s-.4-.1-.5-.2c-.3-.2-.4-.5-.4-.8 0-.5-.3-1-.8-1.1-.2-.1-.5-.1-.7 0-.2 0-.4.1-.6.1.1-.1.3-.1.5 0zm31.5-19.9c.2 0 .4.1.5.2.3.2.5.5.5.8 0 .5.3 1 .8 1.1.2.1.5.1.7.1s.4-.1.6-.1c-.2-.1-.4-.1-.6-.1s-.4-.1-.5-.2c-.3-.2-.4-.5-.4-.8 0-.5-.3-1-.8-1.1-.2-.1-.5-.1-.7 0-.2 0-.4.1-.6.1.1-.1.3-.1.5 0zm16.6 10.4c.2 0 .4.1.5.2.3.2.5.5.5.8 0 .5.3 1 .8 1.1.2.1.5.1.7.1s.4-.1.6-.1c-.2-.1-.4-.1-.6-.1s-.4-.1-.5-.2c-.3-.2-.4-.5-.4-.8 0-.5-.3-1-.8-1.1-.2-.1-.5-.1-.7 0-.2 0-.4.1-.6.1.1-.1.3 0 .5 0zm-.1-10.7c-.2.1-.3.2-.5.2-.3.1-.7 0-.9-.2-.3-.3-.9-.5-1.3-.3-.2.1-.4.3-.5.4-.1.2-.2.3-.3.5.2-.1.3-.2.5-.3s.3-.2.5-.2c.3-.1.6 0 .9.3.4.3.9.4 1.4.2.2-.1.4-.3.5-.4.1-.2.2-.3.3-.5-.3.1-.4.2-.6.3zm-20.5-30.4c0 .2-.1.4-.2.5-.2.3-.5.5-.8.5-.5 0-1 .3-1.1.8-.1.2-.1.5-.1.7s.1.4.1.6c.1-.2.1-.4.1-.6s.1-.4.2-.5c.2-.3.5-.4.8-.4.5 0 1-.3 1.1-.8.1-.2.1-.5 0-.7 0-.2-.1-.4-.1-.6.1.1.1.3 0 .5zm-4.9 35.1c0 .2-.1.4-.2.5-.2.3-.5.5-.8.5-.5 0-1 .3-1.1.8-.1.2-.1.5-.1.7s.1.4.1.6c.1-.2.1-.4.1-.6s.1-.4.2-.5c.2-.3.5-.4.8-.4.5 0 1-.3 1.1-.8.1-.2.1-.5 0-.7 0-.2-.1-.4-.1-.6.1.1 0 .3 0 .5zm24.8-30.4c0 .2-.1.4-.2.5-.2.3-.5.5-.8.5-.5 0-1 .3-1.1.8-.1.2-.1.5-.1.7s.1.4.1.6c.1-.2.1-.4.1-.6s.1-.4.2-.5c.2-.3.5-.4.8-.4.5 0 1-.3 1.1-.8.1-.2.1-.5 0-.7 0-.2-.1-.4-.1-.6.1.1.1.3 0 .5zm0 56.6c0 .2-.1.4-.2.5-.2.3-.5.5-.8.5-.5 0-1 .3-1.1.8-.1.2-.1.5-.1.7s.1.4.1.6c.1-.2.1-.4.1-.6s.1-.4.2-.5c.2-.3.5-.4.8-.4.5 0 1-.3 1.1-.8.1-.2.1-.5 0-.7 0-.2-.1-.4-.1-.6.1.1.1.3 0 .5zm-44.2-25c0 .2-.1.4-.2.5-.2.3-.5.5-.8.5-.5 0-1 .3-1.1.8-.1.2-.1.5-.1.7s.1.4.1.6c.1-.2.1-.4.1-.6s.1-.4.2-.5c.2-.3.5-.4.8-.4.5 0 1-.3 1.1-.8.1-.2.1-.5 0-.7 0-.2-.1-.4-.1-.6v.5zm37.3-16.1c0 .2-.1.4-.2.5-.2.3-.5.5-.8.5-.5 0-1 .3-1.1.8-.1.2-.1.5-.1.7s.1.4.1.6c.1-.2.1-.4.1-.6s.1-.4.2-.5c.2-.3.5-.4.8-.4.5 0 1-.3 1.1-.8.1-.2.1-.5 0-.7 0-.2-.1-.4-.1-.6.1.1 0 .3 0 .5zm-25.7-3.4c0 .2-.1.4-.2.5-.2.3-.5.5-.8.5-.5 0-1 .3-1.1.8-.1.2-.1.5-.1.7s.1.4.1.6c.1-.2.1-.4.1-.6s.1-.4.2-.5c.2-.3.5-.4.8-.4.5 0 1-.3 1.1-.8.1-.2.1-.5 0-.7 0-.2-.1-.4-.1-.6.1.1 0 .3 0 .5zm0 39.1c0 .2-.1.4-.2.5-.2.3-.5.5-.8.5-.5 0-1 .3-1.1.8-.1.2-.1.5-.1.7s.1.4.1.6c.1-.2.1-.4.1-.6s.1-.4.2-.5c.2-.3.5-.4.8-.4.5 0 1-.3 1.1-.8.1-.2.1-.5 0-.7 0-.2-.1-.4-.1-.6.1.1 0 .3 0 .5zm19.9-47.3c.2-.1.3-.2.5-.2a.96.96 0 0 1 .9.2c.3.3.9.5 1.3.3.2-.1.4-.3.5-.4.1-.2.2-.3.3-.5-.2.1-.3.2-.5.3s-.3.2-.5.2c-.3.1-.6 0-.9-.3-.4-.3-.9-.4-1.4-.2-.2.1-.4.3-.5.4-.1.2-.2.3-.3.5.2 0 .4-.1.6-.3zm-14.6 15.3c.2-.1.3-.2.5-.2a.96.96 0 0 1 .9.2c.3.3.9.5 1.3.3.2-.1.4-.3.5-.4.1-.2.2-.3.3-.5-.2.1-.3.2-.5.3s-.3.2-.5.2c-.3.1-.6 0-.9-.3-.4-.3-.9-.4-1.4-.2-.2.1-.4.3-.5.4-.1.2-.2.3-.3.5.3-.1.5-.2.6-.3zM98 225.8c.2-.1.3-.2.5-.2.3-.1.7 0 .9.2.3.3.9.5 1.3.3.2-.1.4-.3.5-.4.1-.2.2-.3.3-.5-.2.1-.3.2-.5.3s-.3.2-.5.2c-.3.1-.6 0-.9-.3-.4-.3-.9-.4-1.4-.2-.2.1-.4.3-.5.4-.1.2-.2.3-.3.5l.6-.3zm26-2.2c.2-.1.3-.2.5-.2a.96.96 0 0 1 .9.2c.3.3.9.5 1.3.3.2-.1.4-.3.5-.4.1-.2.2-.3.3-.5-.2.1-.3.2-.5.3s-.3.2-.5.2c-.3.1-.6 0-.9-.3-.4-.3-.9-.4-1.4-.2-.2.1-.4.3-.5.4-.1.2-.2.3-.3.5l.6-.3zm-10 15.7c.2-.1.3-.2.5-.2.3-.1.7 0 .9.2.3.3.9.5 1.3.3.2-.1.4-.3.5-.4.1-.2.2-.3.3-.5-.2.1-.3.2-.5.3s-.3.2-.5.2c-.3.1-.6 0-.9-.3-.4-.3-.9-.4-1.4-.2-.2.1-.4.3-.5.4-.1.2-.2.3-.3.5.3 0 .4-.1.6-.3zm26.6-6.9c-.1-.1-.2-.1-.3-.2-.4-.3-.9-.4-1.4-.2-.2.1-.4.3-.5.4-.1.2-.2.3-.3.5.2-.1.3-.2.5-.3s.3-.2.5-.3a.96.96 0 0 1 .9.2c.1.2.3.3.6.3v-.4z" class="C"/><g class="B"><path d="M138 182l-1.4 16.8-1.7 16.8-1.9 16.8-1 8.4-1.1 8.4.6-8.4.8-8.4 1.7-16.8 1.9-16.8c.6-5.6 1.3-11.2 2.1-16.8z"/><circle cx="139.3" cy="199.5" r="1.1"/><circle cx="137.9" cy="210.3" r="1.1"/><circle cx="136.5" cy="221.1" r="1.1"/><circle cx="135.2" cy="231.9" r="1.1"/><circle cx="133.8" cy="242.7" r="1.1"/></g><path d="M135.1 183c-3.5-.3-7.6-7.1-8.5-11.9-.1-.3 1.3-3.1 2.8-6.6.9-2.1 1.8-4.5 2.6-6.7l13 7.9s-2.9 4.3-4.1 8.2c-.1.3-.2.6-.2.9v.2c-.4 1.7-2.2 8.2-5.6 8z" class="F"/><path d="M132.5 158.1c-.4 2.9-1.5 13.6 6.6 16.4.5.2 1 .3 1.5.4v-.2c0-.3.1-.6.2-.9 1.2-3.9 4.1-8.2 4.1-8.2l-12.4-7.5z" class="B"/><path d="M132.3 143.7c-2.2 5-1.1 20.3 2.2 24.1 4.8 5.4 13.5 6.9 18.4.9 4.7-5.8 2.9-25.7-.8-29.2-5.6-5.2-16.6-3.3-19.8 4.2z" class="F"/><g class="B"><path d="M145.9 154.4s-.1.1 0 0c0 1.1 0 2.3-.9 2.7v.1c1.1-.2 1.1-1.8.9-2.8z"/><path d="M144.9 153.4c-1.7 0-1.6 3.3 0 3.3 1.5.1 1.4-3.3 0-3.3zm6.7.9s.1.1 0 0c.1 1.1.2 2.3 1.2 2.6v.1c-1.2-.1-1.4-1.7-1.2-2.7z"/><path d="M152.5 153.2c1.7-.2 1.9 3.2.3 3.3-1.5.2-1.7-3.2-.3-3.3zm-9-1.3c.5-.1.8-.3 1.3-.5s.9-.3 1.2-.7c.2-.2.1-.7-.1-.9-.5-.4-1.2-.3-1.8-.1s-1.1.6-1.5 1.1c-.3.6.3 1.3.9 1.1zm10.2-.4l-1.3-.3c-.5-.1-.9-.2-1.3-.6-.2-.2-.2-.6 0-.9.4-.5 1.1-.5 1.7-.4.7.1 1.2.4 1.6.9.5.6 0 1.4-.7 1.3zm-8.8 12.6c.3.2.5.6.9.6s.8-.2 1.1-.3c0 0 .1 0 0 .1-.3.4-.8.7-1.3.6a1.04 1.04 0 0 1-.7-1c-.1-.1-.1-.1 0 0zm1-3.2c.6.9 1.5 1.3 2.4 1.5.4.1.8.1 1.3 0h.2.2c.1 0 .2-.1.2-.2h0v-.1-.1c0-.8-.1-2-.1-2 .3.1 1.8.8 1.8.4-.3-3.4-.6-7.2-1.6-10.6 0-.1-.2-.1-.2 0 .2 3.3.9 6.6 1.1 9.9-.5-.2-1.3-.5-1.7-.5-.1 0 .3 2.3.2 2.7-1.4.2-2.4-.2-3.8-1 0-.1-.1 0 0 0z"/><path d="M148.9 162.3s-.8.9-1.7 1.2c-.4.1-.7.1-1.1 0-.8-.3-.8-1-.6-1.6l.4-1s1.1 1.1 3 1.4z"/></g><path fill="#f291b8" d="M147.2 163.4c-.4.1-.7.1-1.1 0-.8-.3-.8-1-.6-1.6.9.1 1.7.8 1.7 1.6z"/><g class="B"><path d="M154.7 145.4c-.1 0-.1 0 0 0-.1 0 0 0 0 0z"/><path d="M154.7 145.5c-5 3.7-12.3-1.3-12.3-1.3-1.5 4.1-5.5 3.8-5.5 3.8s-.6 8.8-2.9 8.8c-3.5.1-5.1-11.7-4.1-14.1s4-3.1 4-3.1.1-1.8 2.2-3.6c2.3-1.9 10.7.2 10.7.2s.5-1.6 2-2.9c.9-.9 2.3-.8 3.1.2-.4.6-.6 1.3-.7 2.2-.3 2.6 1.8 2.5 1.7.2-.1-1-.4-1.8-.9-2.3 1-1.6 2.6-2.1 3.7-1.4 1.7 1.3 3.1 10.1-1 13.3z"/></g><path d="M135.2 155.8s-3-5.2-5.3-4.2-.4 8.3 2.1 9.5 3.7-1.1 3.7-1.1l-.5-4.2z" class="F"/><path d="M130.5 153.8c0-.1 0 0 0 0 1.7 1 2.5 2.7 3 4.5-.5-.7-1.2-1.2-2.1-.6-.1 0 0 .1 0 .1.8-.1 1.3.1 1.7.7.3.5.5 1 .7 1.5.1.2.4.1.3-.1.4-2.3-1.1-5.7-3.6-6.1z" class="B"/><path d="M140.6 174.9l-3 6.7-10.6-11.9-3.3 3.2s8.8 18.2 8.9 17.4l5.2-7 3.6 5.6.8-10.9-1.6-3.1z" class="E"/><path d="M142.1 182.6l.2-4.4c0-.1-.1-.1-.1 0-.6 2-.8 8.2-1 10.1-.2-.2-3.3-5-3.3-4.9-.9 1.1-5 6.2-5.2 6.7-1.4-2.9-6.7-13.4-8.4-16.2 0-.1-.2 0-.1.1 1.2 3 8.2 17.2 8.4 17.2.1.1 4.9-6.2 5.4-7.4.7 1 3.8 6.3 3.8 6l.3-7.2z" class="B"/><path d="M188.004 262.971l7.893 2.873-61.252 168.3-7.893-2.873z" class="G"/><path fill="#a6a6a6" d="M195.8 265.9l-4.7 13-8.5-1L188 263z"/><path d="M197.945 227.391l13.25 4.822-14.672 40.313-13.25-4.822z" class="E"/><path d="M190.4 459.6H74.9l5-9.1h105.5z" class="B"/><path fill="#a6a6a6" d="M176.4 455.4H88.9s6.1-36.5 43.8-36.5 43.7 36.5 43.7 36.5z"/><path d="M157.5 455.4h-49.7s3.5-20.8 24.9-20.8 24.8 20.8 24.8 20.8z" class="H"/><g class="F"><path d="M114.4 191c-.7 8.1.3 43.3 3.7 49 6 10.4 38.5 24.4 46.1 27.1 3.3 1.2 14.6-25.2 11.2-26.7-2.3-1-33.4-10.9-35.4-12.8-2-2-10-26.1-13-39.3-3.1-12.5-11.1-14.5-12.6 2.7z"/><path d="M205.8 249.1c.4 3-2.4 4.3-2.4 4.3s1.6 1.8 1.5 4.1c-.1 2.6-4.3 3.6-4.3 3.6s1.2 2.1.9 4.5c-.4 2.5-4.4 4.1-4.4 4.1s.1 2.6-1.7 4.5c-3.1 3.2-9.7 1.8-13.9.9s-15.3-7.2-17.6-8.2l5.2-27.1s20-1.5 24.8.2c4 1.4 11.4 5.8 11.9 9.1z"/></g><path d="M203.3 253c-3.9-2.6-8.4-3.8-12.8-5.3-.1 0-.1.1-.1.2 4.4 1.4 8.4 3.8 12.8 5.4.1-.1.2-.3.1-.3zm-2.7 7.7c-.9-.6-2-.8-3-1.1l-3.3-.9-6.6-1.5c-.1 0-.2.1-.1.2l6.5 1.8 3.2 1c1 .3 2 .7 3.1.8.2 0 .3-.2.2-.3zm-3.7 9c-.8-.5-1.9-.6-2.8-.8l-3-.7-6-1.5c-.1 0-.2.1-.1.2l6.1 1.7 3 .8c.8.2 1.9.6 2.8.5.1-.1.1-.2 0-.2z" class="B"/><path d="M170 237.8l-7.5 30.8s-36.2-15-45.9-28.3c-4-5.5-5.2-37.7-3.1-50.6 2.2-12.9 9.3-18.8 14.5.2s10.5 35.8 11.7 36.3c1.2.6 30.3 11.6 30.3 11.6z" class="L"/><path d="M113.4 193.8c.2-.1.4-.1.6-.1h.7c.5.2.8.6.8 1.1 0 .3.2.6.4.8.1.1.3.1.5.2.2 0 .4.1.6.1-.2.1-.4.1-.6.1s-.5 0-.7-.1c-.4-.2-.8-.7-.8-1.1 0-.3-.2-.6-.5-.8-.1-.1-.3-.1-.5-.2-.1.1-.3.1-.5 0zm11.7 39.8c.2 0 .4.1.5.2.3.2.5.5.5.8 0 .5.3 1 .8 1.1.2.1.5.1.7.1s.4-.1.6-.1c-.2-.1-.4-.1-.6-.1s-.4-.1-.5-.2c-.3-.2-.4-.5-.4-.8 0-.5-.3-1-.8-1.1-.2-.1-.5-.1-.7 0-.2 0-.4.1-.6.1.1-.1.3-.1.5 0zM156 263c.2 0 .4.1.5.2.3.2.5.5.5.8 0 .5.3 1 .8 1.1.2.1.5.1.7.1s.4-.1.6-.1c-.2-.1-.4-.1-.6-.1s-.4-.1-.5-.2c-.3-.2-.4-.5-.4-.8 0-.5-.3-1-.8-1.1-.2-.1-.5-.1-.7 0-.2 0-.4.1-.6.1h.5zm-35.7-52c.2 0 .4.1.5.2.3.2.5.5.5.8 0 .5.3 1 .8 1.1.2.1.5.1.7.1s.4-.1.6-.1c-.2-.1-.4-.1-.6-.1s-.4-.1-.5-.2c-.3-.2-.4-.5-.4-.8 0-.5-.3-1-.8-1.1-.2-.1-.5-.1-.7 0-.2 0-.4.1-.6.1.1-.1.3-.1.5 0zm24.9 46.5c.2 0 .4.1.5.2.3.2.5.5.5.8 0 .5.3 1 .8 1.1.2.1.5.1.7.1s.4-.1.6-.1c-.2-.1-.4-.1-.6-.1s-.4-.1-.5-.2c-.3-.2-.4-.5-.4-.8 0-.5-.3-1-.8-1.1-.2-.1-.5-.1-.7 0-.2 0-.4.1-.6.1.1-.1.3-.1.5 0zm6.9-18.7c.2 0 .4.1.5.2.3.2.5.5.5.8 0 .5.3 1 .8 1.1.2.1.5.1.7.1s.4-.1.6-.1c-.2-.1-.4-.1-.6-.1s-.4-.1-.5-.2c-.3-.2-.4-.5-.4-.8 0-.5-.3-1-.8-1.1-.2-.1-.5-.1-.7 0-.2 0-.4.1-.6.1h.5zm-15.2-17.7c-.2 0-.4.1-.6.1.2.1.4.1.6.1s.4.1.5.2c.1 0 .1.1.2.1-.1-.2-.1-.4-.2-.5h-.5zm1 1.3c0 .2.1.4.2.6-.1-.1-.2-.3-.2-.6zm29.4 17.1c-.2.1-.3.2-.5.2a.96.96 0 0 1-.9-.2c-.3-.3-.9-.5-1.3-.3-.2.1-.4.3-.5.4-.1.2-.2.3-.3.5.2-.1.3-.2.5-.3s.3-.2.5-.2c.3-.1.6 0 .9.3.4.3.9.4 1.4.2.2-.1.4-.3.5-.4.1-.2.2-.3.3-.5l-.6.3zm-30.1 13.1c-.2.1-.3.2-.5.2-.3.1-.7 0-.9-.2-.3-.3-.9-.5-1.3-.3-.2.1-.4.3-.5.4-.1.2-.2.3-.3.5.2-.1.3-.2.5-.3s.3-.2.5-.2c.3-.1.6 0 .9.3.4.3.9.4 1.4.2.2-.1.4-.3.5-.4.1-.2.2-.3.3-.5l-.6.3zm-3.3-42.1c-.1.1-.3.2-.3.3-.1.2-.2.3-.3.5.2-.1.3-.2.5-.3.1-.1.2-.1.3-.2-.1 0-.1-.2-.2-.3zm17.2 20.2c-.1.1-.3.3-.3.4-.1.2-.1.5-.1.7s.1.4.1.6c.1-.2.1-.4.1-.6s.1-.4.2-.5c.1-.2.3-.3.6-.4-.3-.1-.4-.2-.6-.2zm-14.9 10.9c0 .2-.1.4-.2.5-.2.3-.5.5-.8.5-.5 0-1 .3-1.1.8-.1.2-.1.5-.1.7s.1.4.1.6c.1-.2.1-.4.1-.6s.1-.4.2-.5c.2-.3.5-.4.8-.4.5 0 1-.3 1.1-.8.1-.2.1-.5 0-.7 0-.2-.1-.4-.1-.6.1.1.1.3 0 .5zm22.7 10.4c0 .2-.1.4-.2.5-.2.3-.5.5-.8.5-.5 0-1 .3-1.1.8-.1.2-.1.5-.1.7s.1.4.1.6c.1-.2.1-.4.1-.6s.1-.4.2-.5c.2-.3.5-.4.8-.4.5 0 1-.3 1.1-.8.1-.2.1-.5 0-.7 0-.2-.1-.4-.1-.6.1.1 0 .3 0 .5zm-29.6-51.5c0 .2-.1.4-.2.5-.2.3-.5.5-.8.5-.5 0-1 .3-1.1.8-.1.2-.1.5-.1.7s.1.4.1.6c.1-.2.1-.4.1-.6s.1-.4.2-.5c.2-.3.5-.4.8-.4.5 0 1-.3 1.1-.8.1-.2.1-.5 0-.7 0-.2-.1-.4-.1-.6.1.1 0 .3 0 .5zm-5.8-11.6c.2-.1.3-.2.5-.2a.96.96 0 0 1 .9.2c.3.3.9.5 1.3.3.2-.1.4-.3.5-.4.1-.2.2-.3.3-.5-.2.1-.3.2-.5.3s-.3.2-.5.2c-.3.1-.6 0-.9-.3-.4-.3-.9-.4-1.4-.2-.2.1-.4.3-.5.4-.1.2-.2.3-.3.5.2 0 .4-.1.6-.3zm.5 34.7c.2-.1.3-.2.5-.2a.96.96 0 0 1 .9.2c.3.3.9.5 1.3.3.2-.1.4-.3.5-.4.1-.2.2-.3.3-.5-.2.1-.3.2-.5.3s-.3.2-.5.2c-.3.1-.6 0-.9-.3-.4-.3-.9-.4-1.4-.2-.2.1-.4.3-.5.4-.1.2-.2.3-.3.5l.6-.3zm14.6 8.9c.2-.1.3-.2.5-.2a.96.96 0 0 1 .9.2c.3.3.9.5 1.3.3.2-.1.4-.3.5-.4.1-.2.2-.3.3-.5-.2.1-.3.2-.5.3s-.3.2-.5.2c-.3.1-.6 0-.9-.3-.4-.3-.9-.4-1.4-.2-.2.1-.4.3-.5.4-.1.2-.2.3-.3.5.3 0 .4-.1.6-.3zM117 239c-.2.1-.3.2-.5.2-.2.1-.4 0-.6-.1.1.2.2.4.3.5.2 0 .3 0 .5-.1s.4-.3.5-.4.2-.3.3-.5c-.2.2-.3.3-.5.4zm28.7 9.3c.2-.1.3-.2.5-.2.3-.1.7 0 .9.2.3.3.9.5 1.3.3.2-.1.4-.3.5-.4.1-.2.2-.3.3-.5-.2.1-.3.2-.5.3s-.3.2-.5.2c-.3.1-.6 0-.9-.3-.4-.3-.9-.4-1.4-.2-.2.1-.4.3-.5.4-.1.2-.2.3-.3.5.3-.1.5-.2.6-.3z" class="C"/><path d="M122.9 246.5c-2.5-1.9-5.2-4.2-6.7-6.8-.9-1.5-1-2.8-1.3-4.5l-.8-5.5c-.9-7.2-1.3-14.4-1.2-21.6.1-4.1.3-8.2.7-12.2 0-.1-.1-.1-.1 0-.5 3.3-.9 6.6-1.1 9.9 0-.5-.1-1-.1-1.4-.1-1.3-.1-2.6-.1-3.9 0-.1-.1-.1-.1 0-.1 1.3-.1 2.7 0 4 .1.7.1 1.5.3 2.2-.3 3.8-.3 7.6-.2 11.5.1 3.8.4 7.5.8 11.2.2 1.8.5 3.6.8 5.4.3 1.7.6 3.5 1.4 5.1 1.5 3.1 4.7 5.1 7.7 6.8-.1 0 0-.1 0-.2zm17.5-20.2c-1.2-.2-1.5-2-1.9-2.9l-1.3-3.6-2.3-7.1-1.7-5.9-.5-3.7c0-.1-.1-.1-.1 0l.4 2.6-2.2-7.5c0-.1-.1 0-.1 0 .9 4.1 1.8 8.1 2.9 12.1s2.3 8 3.9 11.8c.4 1 .8 2 1.3 2.9.4.7.8 1.1 1.6 1.3 0 .2.1 0 0 0zm23.5 11.8c-.8 2-1.4 4.1-2 6.2l-1.8 6.5c-.6 2.2-2.6 10.9-3.1 13.1 0 .1.1.1.2 0 .6-2.2 3.2-10.7 3.8-12.8s1.1-4.3 1.6-6.4c.5-2.2 1.1-4.4 1.3-6.6.1 0 0-.1 0 0z" class="B"/><defs ><path id="B" d="M166.1 78.2c.7-.2 1.4-.3 2.1-.3s1.4.1 2.1.3c-.7.2-1.4.3-2.1.3-.8 0-1.4-.1-2.1-.3z"/><path id="C" d="M166.1 84c.7-.2 1.4-.3 2.1-.3s1.4.1 2.1.3c-.7.2-1.4.3-2.1.3-.8-.1-1.4-.1-2.1-.3z"/><path id="D" d="M455.202 317.65l-30.705-7.884.323-1.259 30.705 7.884z"/></defs></svg>