<?xml version="1.0" encoding="UTF-8" standalone="no"?>
<svg
   xmlns:dc="http://purl.org/dc/elements/1.1/"
   xmlns:cc="http://creativecommons.org/ns#"
   xmlns:rdf="http://www.w3.org/1999/02/22-rdf-syntax-ns#"
   xmlns:svg="http://www.w3.org/2000/svg"
   xmlns="http://www.w3.org/2000/svg"
   viewBox="0 0 280.79468 206.09114"
   height="206.09114"
   width="280.79468"
   xml:space="preserve"
   id="svg3732"
   version="1.1"><metadata
     id="metadata3738"><rdf:RDF><cc:Work
         rdf:about=""><dc:format>image/svg+xml</dc:format><dc:type
           rdf:resource="http://purl.org/dc/dcmitype/StillImage" /><dc:title></dc:title></cc:Work></rdf:RDF></metadata><defs
     id="defs3736"><clipPath
       id="clipPath3748"
       clipPathUnits="userSpaceOnUse"><path
         id="path3746"
         d="M 0,500 H 500 V 0 H 0 Z" /></clipPath><clipPath
       id="clipPath3760"
       clipPathUnits="userSpaceOnUse"><path
         id="path3758"
         d="M 84.6829,415.243 H 461.645 V 51.6218 H 84.6829 Z" /></clipPath><clipPath
       id="clipPath3776"
       clipPathUnits="userSpaceOnUse"><path
         id="path3774"
         d="M 0,500 H 500 V 0 H 0 Z" /></clipPath><clipPath
       id="clipPath3808"
       clipPathUnits="userSpaceOnUse"><path
         id="path3806"
         d="M 0,500 H 500 V 0 H 0 Z" /></clipPath><clipPath
       id="clipPath3972"
       clipPathUnits="userSpaceOnUse"><path
         id="path3970"
         d="M 0,500 H 500 V 0 H 0 Z" /></clipPath><clipPath
       id="clipPath3984"
       clipPathUnits="userSpaceOnUse"><path
         id="path3982"
         d="m 156.76,76.469 c 0,0 -14.05,-0.299 -14.05,-0.859 v 0 c 0.04,-0.55 2.63,-3.669 1.59,-11.15 v 0 c -0.22,-1.63 -2.13,-4.73 -1.84,-8.63 v 0 c 0.3,-3.9 1.08,-3.9 1.08,-3.9 v 0 c 0,0 14.41,-0.08 24.39,0.089 v 0 c 4.91,0.08 8.76,0.221 9.29,0.471 v 0 c 0,0 0.579,3.85 -0.66,5.76 v 0 c -2.34,3.62 -7.99,1 -8.319,0.69 v 0 h -0.011 c -0.04,0.01 -0.16,0.03 -0.21,0.041 v 0 c -4.74,1.009 -7.95,5.339 -7.761,10.089 v 0 c 0,0.37 0.041,0.75 0.101,1.13 v 0 l 1,6.58 z" /></clipPath><clipPath
       id="clipPath3992"
       clipPathUnits="userSpaceOnUse"><path
         id="path3990"
         d="m 142.43,76.78 h 34.925 V 51.9112 H 142.43 Z" /></clipPath><clipPath
       id="clipPath4008"
       clipPathUnits="userSpaceOnUse"><path
         id="path4006"
         d="m 142.43,76.78 h 25.5 V 51.9112 h -25.5 z" /></clipPath><clipPath
       id="clipPath4024"
       clipPathUnits="userSpaceOnUse"><path
         id="path4022"
         d="M 0,500 H 500 V 0 H 0 Z" /></clipPath><clipPath
       id="clipPath4040"
       clipPathUnits="userSpaceOnUse"><path
         id="path4038"
         d="m 138.98,144.24 c 3.15,-12.94 0.39,-15.419 0,-26.83 v 0 c -0.7,-20.009 -0.799,-16.17 -0.76,-19.691 v 0 c 0.02,-1.669 -1.6,-4.109 -1.47,-5.769 v 0 c 0.13,-1.67 2.089,-2.41 2.28,-4.91 v 0 c 0.19,-2.509 -1.04,-3.94 -0.87,-6.151 v 0 c 0.16,-2.219 1.76,-4.889 4.58,-5.239 v 0 c 2.82,-0.351 15.89,0.36 18.62,1.13 v 0 c 2.32,0.65 2.95,2.37 3.54,3.59 v 0 c 0.11,0.22 0.22,0.43 0.33,0.61 v 0 c 0.761,1.18 -0.41,1.89 -0.88,4.4 v 0 c -0.48,2.509 0.63,2.59 0.5,4.23 v 0 c -0.02,0.279 -0.091,0.54 -0.21,0.8 v 0 c -1.02,2.39 -0.39,6.71 -0.02,12.979 v 0 c 0.87,14.701 1.95,31.262 1.89,43.081 v 0 c -0.03,5.82 -1.02,31.68 -1.88,53.32 v 0 c -0.68,17.01 -1.28,31.41 -1.28,31.41 v 0 l -37.75,2.26 c 0,0 12.239,-84.55 13.38,-89.22" /></clipPath><clipPath
       id="clipPath4048"
       clipPathUnits="userSpaceOnUse"><path
         id="path4046"
         d="m 125.6,233.46 h 39.3 V 75.5582 h -39.3 z" /></clipPath><clipPath
       id="clipPath4064"
       clipPathUnits="userSpaceOnUse"><path
         id="path4062"
         d="M 0,500 H 500 V 0 H 0 Z" /></clipPath><clipPath
       id="clipPath4124"
       clipPathUnits="userSpaceOnUse"><path
         id="path4122"
         d="m 126.773,76.732 c 0,0 -14.143,-0.297 -14.197,-0.854 v 0 c -0.054,-0.558 1.998,-3.669 -0.324,-11.136 v 0 c -0.506,-1.629 -2.949,-4.722 -3.324,-8.616 v 0 c -0.376,-3.894 0.409,-3.891 0.409,-3.891 v 0 c 0,0 32.048,-0.179 33.772,0.559 v 0 c 0,0 1.238,3.838 0.333,5.744 v 0 c -1.791,3.77 -8.336,0.769 -8.207,0.69 v 0 c -0.044,0.01 -0.158,0.034 -0.205,0.044 v 0 c -4.93,1.09 -7.413,6.036 -5.735,11.201 v 0 l 2.133,6.566 z" /></clipPath><clipPath
       id="clipPath4132"
       clipPathUnits="userSpaceOnUse"><path
         id="path4130"
         d="m 108.826,77.0389 h 34.947 V 52.2158 h -34.947 z" /></clipPath><clipPath
       id="clipPath4148"
       clipPathUnits="userSpaceOnUse"><path
         id="path4146"
         d="M 0,500 H 500 V 0 H 0 Z" /></clipPath><clipPath
       id="clipPath4164"
       clipPathUnits="userSpaceOnUse"><path
         id="path4162"
         d="m 120.641,144.391 c 0.925,-12.924 -2.256,-15.393 -4.613,-26.787 v 0 c -4.134,-19.979 -3.575,-16.141 -4.14,-19.659 v 0 c -0.269,-1.668 -2.303,-4.097 -2.464,-5.762 v 0 c -0.16,-1.664 1.677,-2.402 1.435,-4.903 v 0 c -0.241,-2.5 -1.716,-3.925 -1.93,-6.139 v 0 c -0.214,-2.214 0.925,-4.879 3.684,-5.227 v 0 c 2.757,-0.348 15.949,0.357 18.815,1.125 v 0 c 2.866,0.767 3.636,3.013 4.592,4.192 v 0 c 0.956,1.178 -0.082,1.891 -0.129,4.394 v 0 c -0.049,2.504 1.075,2.587 1.233,4.227 v 0 c 0.026,0.274 -0.003,0.542 -0.069,0.801 v 0 c -0.616,2.386 0.762,6.698 2.209,12.958 v 0 c 3.391,14.673 7.323,31.207 9.288,43.007 v 0 c 0.979,5.877 4.508,32.221 7.385,53.968 v 0 c 0,0 2.758,4.458 4.166,13.076 v 0 l -0.141,17.542 -37.36,2.257 c 0,0 -2.296,-84.407 -1.961,-89.07" /></clipPath><clipPath
       id="clipPath4172"
       clipPathUnits="userSpaceOnUse"><path
         id="path4170"
         d="m 122.189,231.204 h 38.808 v -13.671 h -38.808 z" /></clipPath><clipPath
       id="clipPath4188"
       clipPathUnits="userSpaceOnUse"><path
         id="path4186"
         d="M 0,500 H 500 V 0 H 0 Z" /></clipPath><clipPath
       id="clipPath4240"
       clipPathUnits="userSpaceOnUse"><path
         id="path4238"
         d="m 123.763,311.951 c 2.419,-4.426 9.004,-13.236 8.222,-20.378 v 0 c -0.871,-7.99 -7.164,-15.106 -18.915,-7.068 v 0 c 1.604,-12.119 6.685,-20.858 7.663,-24.95 v 0 c 3.575,-14.957 1.188,-17.05 -0.485,-31.852 v 0 c 16.982,-8.676 37.57,-4.363 46.587,-1.726 v 0 c -2.75,15.005 -1.548,53.003 -12.508,79.914 v 0 l -4.1,1.426 c 2.784,-9.545 0.378,-20.394 -6.655,-16.111 v 0 c -7.033,4.282 -9.819,16.62 -11.924,22.021 v 0 c -0.386,0.119 -1.186,0.217 -2.162,0.217 v 0 c -1.807,0 -4.219,-0.336 -5.723,-1.493" /></clipPath><clipPath
       id="clipPath4248"
       clipPathUnits="userSpaceOnUse"><path
         id="path4246"
         d="m 128.416,242.232 h 31.687 v -5.485 h -31.687 z" /></clipPath><clipPath
       id="clipPath4264"
       clipPathUnits="userSpaceOnUse"><path
         id="path4262"
         d="M 118.594,284.411 H 139.46 V 265.49 h -20.866 z" /></clipPath><clipPath
       id="clipPath4280"
       clipPathUnits="userSpaceOnUse"><path
         id="path4278"
         d="M 0,500 H 500 V 0 H 0 Z" /></clipPath><clipPath
       id="clipPath4520"
       clipPathUnits="userSpaceOnUse"><path
         id="path4518"
         d="M 0,500 H 500 V 0 H 0 Z" /></clipPath><clipPath
       id="clipPath4592"
       clipPathUnits="userSpaceOnUse"><path
         id="path4590"
         d="M 0,500 H 500 V 0 H 0 Z" /></clipPath></defs><g
     style="display:inline"
     transform="matrix(1.3333333,0,0,-1.3333333,-275.39576,616.79314)"
     id="g3740"><g
       transform="translate(-60.864891,-0.89507188)"
       id="g3802"><g
         transform="translate(0.8950719,12.531007)"
         clip-path="url(#clipPath3808)"
         id="g3804"><g
           transform="translate(223.3125,230.5059)"
           id="g3810" /><g
           transform="translate(379.4697,350.1084)"
           id="g3814"><path
             id="path3816"
             style="fill:none;stroke:#1a2e35;stroke-width:1;stroke-linecap:round;stroke-linejoin:round;stroke-miterlimit:10;stroke-dasharray:none;stroke-opacity:1"
             d="m 0,0 c 2.052,0.722 4.26,1.115 6.561,1.115 10.939,0 19.809,-8.88 19.809,-19.82 v -0.12 c 1.271,1.63 3.25,2.67 5.47,2.67 1.9,0 3.62,-0.77 4.881,-2 0.859,7.8 7.46,13.87 15.489,13.87 8.561,0 15.511,-6.9 15.59,-15.45 0.761,0.55 1.69,0.86 2.7,0.86 2.34,0 4.28,-1.7 4.641,-3.93 H -35.13 c 0,7.69 6.24,13.92 13.93,13.92 3.45,0 6.61,-1.261 9.04,-3.35 1.009,2.91 2.673,5.515 4.817,7.634" /></g><g
           transform="translate(41.0498,373.1304)"
           id="g3818"><path
             id="path3820"
             style="fill:#ffffff;fill-opacity:1;fill-rule:nonzero;stroke:none"
             d="m 0,0 h 110.27 c 0,7.69 -6.24,13.92 -13.93,13.92 -3.45,0 -6.61,-1.26 -9.04,-3.35 C 84.61,18.33 77.26,23.92 68.58,23.92 57.64,23.92 48.77,15.04 48.77,4.1 V 3.98 c -1.27,1.63 -3.25,2.67 -5.47,2.67 -1.9,0 -3.62,-0.77 -4.88,-2 -0.86,7.8 -7.46,13.87 -15.49,13.87 C 14.37,18.52 7.42,11.62 7.34,3.07 6.58,3.62 5.65,3.93 4.64,3.93 2.3,3.93 0.36,2.23 0,0" /></g><g
           transform="translate(41.0498,373.1304)"
           id="g3822" /></g></g><g
       transform="translate(372.4785,444.0449)"
       id="g4554"><path
         id="path4556"
         style="fill:#ffffff;fill-opacity:1;fill-rule:nonzero;stroke:none"
         d="M 0,0 V -15.776 L 43.17,17.501 Z" /></g><g
       transform="translate(372.4785,444.0449)"
       id="g4558"><path
         id="path4560"
         style="fill:none;stroke:#1a2e35;stroke-width:1;stroke-linecap:round;stroke-linejoin:round;stroke-miterlimit:10;stroke-dasharray:none;stroke-opacity:1"
         d="M 0,0 V -15.776 L 43.17,17.501 Z" /></g><g
       transform="translate(372.4785,444.0449)"
       id="g4562"><path
         id="path4564"
         style="fill:#ffffff;fill-opacity:1;fill-rule:nonzero;stroke:none"
         d="M 0,0 44.164,18.05 -16.137,11.796 Z" /></g><g
       transform="translate(372.4785,444.0449)"
       id="g4566"><path
         id="path4568"
         style="fill:none;stroke:#1a2e35;stroke-width:1;stroke-linecap:round;stroke-linejoin:round;stroke-miterlimit:10;stroke-dasharray:none;stroke-opacity:1"
         d="M 0,0 44.164,18.05 -16.137,11.796 Z" /></g><g
       transform="translate(377.6709,440.7798)"
       id="g4570"><path
         id="path4572"
         style="fill:#ffffff;fill-opacity:1;fill-rule:nonzero;stroke:none"
         d="M 0,0 20.793,-15.384 38.972,21.315 Z" /></g><g
       transform="translate(377.6709,440.7798)"
       id="g4574"><path
         id="path4576"
         style="fill:none;stroke:#1a2e35;stroke-width:1;stroke-linecap:round;stroke-linejoin:round;stroke-miterlimit:10;stroke-dasharray:none;stroke-opacity:1"
         d="M 0,0 20.793,-15.384 38.972,21.315 Z" /></g><g
       transform="translate(377.6709,440.7798)"
       id="g4578"><path
         id="path4580"
         style="fill:#ffffff;fill-opacity:1;fill-rule:nonzero;stroke:none"
         d="m 0,0 -5.192,-12.511 11.059,8.17 z" /></g><g
       transform="translate(377.6709,440.7798)"
       id="g4582"><path
         id="path4584"
         style="fill:none;stroke:#1a2e35;stroke-width:1;stroke-linecap:round;stroke-linejoin:round;stroke-miterlimit:10;stroke-dasharray:none;stroke-opacity:1"
         d="m 0,0 -5.192,-12.511 11.059,8.17 z" /></g><g
       id="g4586"><g
         clip-path="url(#clipPath4592)"
         id="g4588"><g
           transform="translate(207.0493,308.5332)"
           id="g4594"><path
             id="path4596"
             style="fill:none;stroke:#1a2e35;stroke-width:1;stroke-linecap:round;stroke-linejoin:round;stroke-miterlimit:4;stroke-dasharray:none;stroke-opacity:1"
             d="M 0,0 C 0.115,0.315 0.229,0.629 0.341,0.941" /></g><g
           transform="translate(208.6992,313.2495)"
           id="g4598"><path
             id="path4600"
             style="fill:none;stroke:#1a2e35;stroke-width:1;stroke-linecap:round;stroke-linejoin:round;stroke-miterlimit:4;stroke-dasharray:1.998, 3.995;stroke-dashoffset:0;stroke-opacity:1"
             d="m 0,0 c 9.302,27.774 7.631,44.46 22.727,71.364 3.05,5.437 18.191,31.178 39.777,40.355 11.218,4.769 18.361,-2.351 15.47,-7.385 -6.45,-11.227 -30.139,2.227 -6.45,15.505 21.914,12.284 68.575,-11.727 90.45,-4.84" /></g><g
           transform="translate(372.5439,428.9414)"
           id="g4602"><path
             id="path4604"
             style="fill:none;stroke:#1a2e35;stroke-width:1;stroke-linecap:round;stroke-linejoin:round;stroke-miterlimit:4;stroke-dasharray:none;stroke-opacity:1"
             d="M 0,0 C 0.308,0.132 0.609,0.272 0.905,0.42" /></g></g></g></g></svg>